<svg xmlns="http://www.w3.org/2000/svg" viewBox="0 0 1200 630" fill="none">
  <rect width="1200" height="630" fill="transparent"/>
  <rect x="30" y="30" width="1140" height="570" rx="20" fill="rgba(128,128,128,0.06)" stroke="rgba(128,128,128,0.15)" stroke-width="1"/>
  <defs>
    <linearGradient id="lineGrad" x1="0%" y1="0%" x2="100%" y2="0%">
      <stop offset="0%" stop-color="#06B6D4"/>
      <stop offset="100%" stop-color="#F97316"/>
    </linearGradient>
    <linearGradient id="areaGrad" x1="0%" y1="0%" x2="0%" y2="100%">
      <stop offset="0%" stop-color="#06B6D4" stop-opacity="0.3"/>
      <stop offset="100%" stop-color="#06B6D4" stop-opacity="0"/>
    </linearGradient>
    <linearGradient id="barGrad" x1="0%" y1="0%" x2="0%" y2="100%">
      <stop offset="0%" stop-color="#06B6D4"/>
      <stop offset="100%" stop-color="#F97316"/>
    </linearGradient>
  </defs>
  
  <circle cx="1020" cy="94.5" r="91.61164982244372" fill="#06B6D4" opacity="0.03"/>
  <circle cx="180" cy="504" r="63.147566539701074" fill="#F97316" opacity="0.04"/>
  <rect x="160" y="323.4141173865646" width="60" height="196.5858826134354" rx="4" fill="url(#barGrad)" opacity="0.72"/>
  <rect x="250" y="259.5492744445801" width="60" height="260.4507255554199" rx="4" fill="url(#barGrad)" opacity="0.62"/>
  <rect x="340" y="434.7690273169428" width="60" height="85.23097268305719" rx="4" fill="url(#barGrad)" opacity="0.94"/>
  <rect x="430" y="171.42827982082963" width="60" height="348.57172017917037" rx="4" fill="url(#barGrad)" opacity="0.62"/>
  <rect x="520" y="254.88797920756042" width="60" height="265.1120207924396" rx="4" fill="url(#barGrad)" opacity="0.94"/>
  <rect x="610" y="424.3653740361333" width="60" height="95.63462596386671" rx="4" fill="url(#barGrad)" opacity="0.86"/>
  <rect x="700" y="431.901032300666" width="60" height="88.09896769933403" rx="4" fill="url(#barGrad)" opacity="0.87"/>
  <rect x="790" y="198.9958424679935" width="60" height="321.0041575320065" rx="4" fill="url(#barGrad)" opacity="0.89"/>
</svg>