<svg xmlns="http://www.w3.org/2000/svg" viewBox="0 0 1200 630" fill="none">
  <rect width="1200" height="630" fill="transparent"/>
  <rect x="30" y="30" width="1140" height="570" rx="20" fill="rgba(128,128,128,0.06)" stroke="rgba(128,128,128,0.15)" stroke-width="1"/>
  <defs>
    <linearGradient id="lineGrad" x1="0%" y1="0%" x2="100%" y2="0%">
      <stop offset="0%" stop-color="#8B5CF6"/>
      <stop offset="100%" stop-color="#EC4899"/>
    </linearGradient>
    <linearGradient id="areaGrad" x1="0%" y1="0%" x2="0%" y2="100%">
      <stop offset="0%" stop-color="#8B5CF6" stop-opacity="0.3"/>
      <stop offset="100%" stop-color="#8B5CF6" stop-opacity="0"/>
    </linearGradient>
    <linearGradient id="barGrad" x1="0%" y1="0%" x2="0%" y2="100%">
      <stop offset="0%" stop-color="#8B5CF6"/>
      <stop offset="100%" stop-color="#EC4899"/>
    </linearGradient>
  </defs>
  
  <circle cx="1020" cy="94.5" r="84.10936786793172" fill="#8B5CF6" opacity="0.03"/>
  <circle cx="180" cy="504" r="51.244815974496305" fill="#EC4899" opacity="0.04"/>
  <path d="M140 276 L220 251 L300 282 L380 261 L460 280 L540 295 L620 324 L700 341 L780 348 L860 338 L940 321 L1020 342 L1060 530 L140 530 Z" fill="#8B5CF6" opacity="0.15"/>
  <path d="M140 276 L220 251 L300 282 L380 261 L460 280 L540 295 L620 324 L700 341 L780 348 L860 338 L940 321 L1020 342" stroke="#8B5CF6" stroke-width="2" fill="none" opacity="0.8"/>
  <path d="M140 297 L220 323 L300 327 L380 309 L460 305 L540 325 L620 326 L700 311 L780 320 L860 312 L940 323 L1020 303 L1060 530 L140 530 Z" fill="#EC4899" opacity="0.12"/>
  <path d="M140 297 L220 323 L300 327 L380 309 L460 305 L540 325 L620 326 L700 311 L780 320 L860 312 L940 323 L1020 303" stroke="#EC4899" stroke-width="2" fill="none" opacity="0.8"/>
  <path d="M140 388 L220 400 L300 405 L380 382 L460 394 L540 371 L620 347 L700 357 L780 332 L860 343 L940 349 L1020 337 L1060 530 L140 530 Z" fill="#8B949E" opacity="0.09"/>
  <path d="M140 388 L220 400 L300 405 L380 382 L460 394 L540 371 L620 347 L700 357 L780 332 L860 343 L940 349 L1020 337" stroke="#8B949E" stroke-width="2" fill="none" opacity="0.8"/>
</svg>