<svg xmlns="http://www.w3.org/2000/svg" viewBox="0 0 1200 630" fill="none">
  <rect width="1200" height="630" fill="#0d1117"/>
  <rect x="30" y="30" width="1140" height="570" rx="20" fill="#161b22" stroke="#30363d" stroke-width="1"/>
  <defs>
    <linearGradient id="lineGrad" x1="0%" y1="0%" x2="100%" y2="0%">
      <stop offset="0%" stop-color="#8B5CF6"/>
      <stop offset="100%" stop-color="#EC4899"/>
    </linearGradient>
    <linearGradient id="areaGrad" x1="0%" y1="0%" x2="0%" y2="100%">
      <stop offset="0%" stop-color="#8B5CF6" stop-opacity="0.3"/>
      <stop offset="100%" stop-color="#8B5CF6" stop-opacity="0"/>
    </linearGradient>
    <linearGradient id="barGrad" x1="0%" y1="0%" x2="0%" y2="100%">
      <stop offset="0%" stop-color="#8B5CF6"/>
      <stop offset="100%" stop-color="#EC4899"/>
    </linearGradient>
  </defs>
  
  <circle cx="1020" cy="94.5" r="85.52088984288275" fill="#8B5CF6" opacity="0.03"/>
  <circle cx="180" cy="504" r="46.45633249543607" fill="#EC4899" opacity="0.04"/>
  <path d="M140 289 L220 321 L300 339 L380 352 L460 341 L540 328 L620 323 L700 298 L780 325 L860 347 L940 326 L1020 313 L1060 530 L140 530 Z" fill="#8B5CF6" opacity="0.15"/>
  <path d="M140 289 L220 321 L300 339 L380 352 L460 341 L540 328 L620 323 L700 298 L780 325 L860 347 L940 326 L1020 313" stroke="#8B5CF6" stroke-width="2" fill="none" opacity="0.8"/>
  <path d="M140 380 L220 408 L300 407 L380 384 L460 373 L540 346 L620 375 L700 375 L780 352 L860 381 L940 387 L1020 399 L1060 530 L140 530 Z" fill="#EC4899" opacity="0.12"/>
  <path d="M140 380 L220 408 L300 407 L380 384 L460 373 L540 346 L620 375 L700 375 L780 352 L860 381 L940 387 L1020 399" stroke="#EC4899" stroke-width="2" fill="none" opacity="0.8"/>
  <path d="M140 372 L220 403 L300 422 L380 427 L460 417 L540 428 L620 412 L700 419 L780 452 L860 456 L940 449 L1020 454 L1060 530 L140 530 Z" fill="#8B949E" opacity="0.09"/>
  <path d="M140 372 L220 403 L300 422 L380 427 L460 417 L540 428 L620 412 L700 419 L780 452 L860 456 L940 449 L1020 454" stroke="#8B949E" stroke-width="2" fill="none" opacity="0.8"/>
</svg>