<svg xmlns="http://www.w3.org/2000/svg" viewBox="0 0 1200 630" fill="none">
  <rect width="1200" height="630" fill="transparent"/>
  <rect x="30" y="30" width="1140" height="570" rx="20" fill="rgba(128,128,128,0.06)" stroke="rgba(128,128,128,0.15)" stroke-width="1"/>
  <defs>
    <linearGradient id="lineGrad" x1="0%" y1="0%" x2="100%" y2="0%">
      <stop offset="0%" stop-color="#14B8A6"/>
      <stop offset="100%" stop-color="#E11D48"/>
    </linearGradient>
    <linearGradient id="areaGrad" x1="0%" y1="0%" x2="0%" y2="100%">
      <stop offset="0%" stop-color="#14B8A6" stop-opacity="0.3"/>
      <stop offset="100%" stop-color="#14B8A6" stop-opacity="0"/>
    </linearGradient>
    <linearGradient id="barGrad" x1="0%" y1="0%" x2="0%" y2="100%">
      <stop offset="0%" stop-color="#14B8A6"/>
      <stop offset="100%" stop-color="#E11D48"/>
    </linearGradient>
  </defs>
  
  <circle cx="1020" cy="94.5" r="67.38743710331619" fill="#14B8A6" opacity="0.03"/>
  <circle cx="180" cy="504" r="57.390337218530476" fill="#E11D48" opacity="0.04"/>
  <path d="M140 246 L220 272 L300 296 L380 285 L460 271 L540 249 L620 235 L700 265 L780 279 L860 285 L940 291 L1020 312 L1060 530 L140 530 Z" fill="#14B8A6" opacity="0.15"/>
  <path d="M140 246 L220 272 L300 296 L380 285 L460 271 L540 249 L620 235 L700 265 L780 279 L860 285 L940 291 L1020 312" stroke="#14B8A6" stroke-width="2" fill="none" opacity="0.8"/>
  <path d="M140 327 L220 319 L300 297 L380 318 L460 293 L540 278 L620 262 L700 267 L780 273 L860 297 L940 292 L1020 300 L1060 530 L140 530 Z" fill="#E11D48" opacity="0.12"/>
  <path d="M140 327 L220 319 L300 297 L380 318 L460 293 L540 278 L620 262 L700 267 L780 273 L860 297 L940 292 L1020 300" stroke="#E11D48" stroke-width="2" fill="none" opacity="0.8"/>
  <path d="M140 348 L220 324 L300 316 L380 338 L460 316 L540 304 L620 296 L700 289 L780 273 L860 301 L940 326 L1020 358 L1060 530 L140 530 Z" fill="#8B949E" opacity="0.09"/>
  <path d="M140 348 L220 324 L300 316 L380 338 L460 316 L540 304 L620 296 L700 289 L780 273 L860 301 L940 326 L1020 358" stroke="#8B949E" stroke-width="2" fill="none" opacity="0.8"/>
</svg>