<svg xmlns="http://www.w3.org/2000/svg" viewBox="0 0 1200 630" fill="none">
  <rect width="1200" height="630" fill="#0d1117"/>
  <rect x="30" y="30" width="1140" height="570" rx="20" fill="#161b22" stroke="#30363d" stroke-width="1"/>
  <defs>
    <linearGradient id="lineGrad" x1="0%" y1="0%" x2="100%" y2="0%">
      <stop offset="0%" stop-color="#10B981"/>
      <stop offset="100%" stop-color="#F59E0B"/>
    </linearGradient>
    <linearGradient id="areaGrad" x1="0%" y1="0%" x2="0%" y2="100%">
      <stop offset="0%" stop-color="#10B981" stop-opacity="0.3"/>
      <stop offset="100%" stop-color="#10B981" stop-opacity="0"/>
    </linearGradient>
    <linearGradient id="barGrad" x1="0%" y1="0%" x2="0%" y2="100%">
      <stop offset="0%" stop-color="#10B981"/>
      <stop offset="100%" stop-color="#F59E0B"/>
    </linearGradient>
  </defs>
  
  <circle cx="1020" cy="94.5" r="64.7023518010974" fill="#10B981" opacity="0.03"/>
  <circle cx="180" cy="504" r="63.680830413941294" fill="#F59E0B" opacity="0.04"/>
  <circle cx="568" cy="134" r="9.1" fill="#10B981" opacity="0.31"/>
  <circle cx="842" cy="287" r="4.6" fill="#10B981" opacity="0.74"/>
  <circle cx="424" cy="363" r="7.7" fill="#F59E0B" opacity="0.33"/>
  <circle cx="333" cy="204" r="9.2" fill="#F59E0B" opacity="0.73"/>
  <circle cx="279" cy="448" r="8.6" fill="#10B981" opacity="0.70"/>
  <circle cx="768" cy="479" r="7.5" fill="#10B981" opacity="0.46"/>
  <circle cx="587" cy="307" r="10.2" fill="#F59E0B" opacity="0.63"/>
  <circle cx="879" cy="135" r="3.9" fill="#10B981" opacity="0.42"/>
  <circle cx="201" cy="329" r="9.1" fill="#10B981" opacity="0.61"/>
  <circle cx="1011" cy="319" r="3.3" fill="#10B981" opacity="0.48"/>
  <circle cx="517" cy="472" r="3.4" fill="#F59E0B" opacity="0.40"/>
  <circle cx="1019" cy="435" r="10.2" fill="#10B981" opacity="0.43"/>
  <circle cx="524" cy="430" r="6.5" fill="#F59E0B" opacity="0.39"/>
  <circle cx="1001" cy="351" r="7.5" fill="#10B981" opacity="0.61"/>
  <circle cx="359" cy="110" r="10.0" fill="#F59E0B" opacity="0.53"/>
  <circle cx="959" cy="377" r="10.8" fill="#10B981" opacity="0.74"/>
  <circle cx="396" cy="354" r="7.8" fill="#F59E0B" opacity="0.46"/>
  <circle cx="383" cy="478" r="10.5" fill="#10B981" opacity="0.40"/>
  <circle cx="610" cy="502" r="4.8" fill="#F59E0B" opacity="0.74"/>
  <circle cx="539" cy="427" r="9.8" fill="#10B981" opacity="0.74"/>
  <circle cx="563" cy="138" r="5.3" fill="#F59E0B" opacity="0.76"/>
  <circle cx="575" cy="461" r="4.3" fill="#10B981" opacity="0.67"/>
  <circle cx="346" cy="447" r="8.2" fill="#F59E0B" opacity="0.34"/>
  <circle cx="514" cy="487" r="10.2" fill="#10B981" opacity="0.38"/>
  <circle cx="229" cy="125" r="10.1" fill="#F59E0B" opacity="0.71"/>
  <circle cx="525" cy="379" r="10.5" fill="#F59E0B" opacity="0.45"/>
  <circle cx="384" cy="261" r="4.9" fill="#10B981" opacity="0.72"/>
  <circle cx="899" cy="340" r="4.7" fill="#F59E0B" opacity="0.40"/>
  <circle cx="577" cy="410" r="8.1" fill="#F59E0B" opacity="0.65"/>
  <circle cx="825" cy="205" r="7.6" fill="#F59E0B" opacity="0.48"/>
  <circle cx="165" cy="213" r="8.2" fill="#10B981" opacity="0.34"/>
  <circle cx="527" cy="257" r="10.8" fill="#10B981" opacity="0.75"/>
  <circle cx="352" cy="300" r="5.2" fill="#F59E0B" opacity="0.77"/>
  <circle cx="632" cy="309" r="8.2" fill="#10B981" opacity="0.78"/>
  <circle cx="247" cy="398" r="4.2" fill="#F59E0B" opacity="0.72"/>
  <circle cx="419" cy="254" r="7.5" fill="#10B981" opacity="0.75"/>
  <circle cx="761" cy="461" r="4.1" fill="#10B981" opacity="0.80"/>
  <circle cx="214" cy="135" r="3.8" fill="#10B981" opacity="0.42"/>
  <circle cx="530" cy="361" r="6.3" fill="#10B981" opacity="0.78"/>
  <circle cx="576" cy="359" r="6.6" fill="#F59E0B" opacity="0.66"/>
  <line x1="160" y1="450" x2="1040" y2="150" stroke="#10B981" stroke-width="2" stroke-dasharray="6 4" opacity="0.5"/>
</svg>