<svg xmlns="http://www.w3.org/2000/svg" viewBox="0 0 1200 630" fill="none">
  <rect width="1200" height="630" fill="transparent"/>
  <rect x="30" y="30" width="1140" height="570" rx="20" fill="rgba(128,128,128,0.06)" stroke="rgba(128,128,128,0.15)" stroke-width="1"/>
  <defs>
    <linearGradient id="lineGrad" x1="0%" y1="0%" x2="100%" y2="0%">
      <stop offset="0%" stop-color="#8B5CF6"/>
      <stop offset="100%" stop-color="#EC4899"/>
    </linearGradient>
    <linearGradient id="areaGrad" x1="0%" y1="0%" x2="0%" y2="100%">
      <stop offset="0%" stop-color="#8B5CF6" stop-opacity="0.3"/>
      <stop offset="100%" stop-color="#8B5CF6" stop-opacity="0"/>
    </linearGradient>
    <linearGradient id="barGrad" x1="0%" y1="0%" x2="0%" y2="100%">
      <stop offset="0%" stop-color="#8B5CF6"/>
      <stop offset="100%" stop-color="#EC4899"/>
    </linearGradient>
  </defs>
  
  <circle cx="1020" cy="94.5" r="60.774502754211426" fill="#8B5CF6" opacity="0.03"/>
  <circle cx="180" cy="504" r="61.4797545154579" fill="#EC4899" opacity="0.04"/>
  <rect x="160" y="278.5601695626974" width="60" height="241.4398304373026" rx="4" fill="url(#barGrad)" opacity="0.87"/>
  <rect x="250" y="437.71993667818606" width="60" height="82.28006332181394" rx="4" fill="url(#barGrad)" opacity="0.99"/>
  <rect x="340" y="360.7695503719151" width="60" height="159.2304496280849" rx="4" fill="url(#barGrad)" opacity="0.91"/>
  <rect x="430" y="367.79953400604427" width="60" height="152.20046599395573" rx="4" fill="url(#barGrad)" opacity="0.80"/>
  <rect x="520" y="218.30206137150526" width="60" height="301.69793862849474" rx="4" fill="url(#barGrad)" opacity="0.91"/>
  <rect x="610" y="305.81912715919316" width="60" height="214.18087284080684" rx="4" fill="url(#barGrad)" opacity="0.85"/>
  <rect x="700" y="407.1942940913141" width="60" height="112.80570590868592" rx="4" fill="url(#barGrad)" opacity="0.98"/>
  <rect x="790" y="383.2663956191391" width="60" height="136.73360438086092" rx="4" fill="url(#barGrad)" opacity="0.96"/>
</svg>