<svg xmlns="http://www.w3.org/2000/svg" viewBox="0 0 1200 630" fill="none">
  <rect width="1200" height="630" fill="#0d1117"/>
  <rect x="30" y="30" width="1140" height="570" rx="20" fill="#161b22" stroke="#30363d" stroke-width="1"/>
  <defs>
    <linearGradient id="lineGrad" x1="0%" y1="0%" x2="100%" y2="0%">
      <stop offset="0%" stop-color="#10B981"/>
      <stop offset="100%" stop-color="#F59E0B"/>
    </linearGradient>
    <linearGradient id="areaGrad" x1="0%" y1="0%" x2="0%" y2="100%">
      <stop offset="0%" stop-color="#10B981" stop-opacity="0.3"/>
      <stop offset="100%" stop-color="#10B981" stop-opacity="0"/>
    </linearGradient>
    <linearGradient id="barGrad" x1="0%" y1="0%" x2="0%" y2="100%">
      <stop offset="0%" stop-color="#10B981"/>
      <stop offset="100%" stop-color="#F59E0B"/>
    </linearGradient>
  </defs>
  
  <circle cx="1020" cy="94.5" r="60.099244648590684" fill="#10B981" opacity="0.03"/>
  <circle cx="180" cy="504" r="43.481060741469264" fill="#F59E0B" opacity="0.04"/>
  <line x1="182" y1="132.63479058863595" x2="182" y2="214.05316062504426" stroke="#10B981" stroke-width="1.5"/>
  <rect x="170" y="172.49197229975834" width="24" height="36.73076340928674" rx="2" fill="#10B981" opacity="0.85"/>
  <line x1="256" y1="245.66766310716048" x2="256" y2="292.53225800814107" stroke="#F59E0B" stroke-width="1.5"/>
  <rect x="244" y="277.97514024423435" width="24" height="3" rx="2" fill="#F59E0B" opacity="0.85"/>
  <line x1="330" y1="350.76156177790835" x2="330" y2="422.7472887584008" stroke="#F59E0B" stroke-width="1.5"/>
  <rect x="318" y="379.5424386509694" width="24" height="24.684999231249094" rx="2" fill="#F59E0B" opacity="0.85"/>
  <line x1="404" y1="203.69006792316213" x2="404" y2="244.91154327290133" stroke="#10B981" stroke-width="1.5"/>
  <rect x="392" y="210.44251025887206" width="24" height="15.947466529905796" rx="2" fill="#10B981" opacity="0.85"/>
  <line x1="478" y1="254.63024855824187" x2="478" y2="337.2153499373235" stroke="#10B981" stroke-width="1.5"/>
  <rect x="466" y="280.59326108777896" width="24" height="43.74864222481847" rx="2" fill="#10B981" opacity="0.85"/>
  <line x1="552" y1="298.87239761883393" x2="552" y2="372.56018155487254" stroke="#10B981" stroke-width="1.5"/>
  <rect x="540" y="332.5870118220337" width="24" height="12.32386976480484" rx="2" fill="#10B981" opacity="0.85"/>
  <line x1="626" y1="138.7356388499029" x2="626" y2="215.37596261361614" stroke="#10B981" stroke-width="1.5"/>
  <rect x="614" y="160.81557335564867" width="24" height="42.13449386879802" rx="2" fill="#10B981" opacity="0.85"/>
  <line x1="700" y1="321.5384474978782" x2="700" y2="369.2975202505477" stroke="#10B981" stroke-width="1.5"/>
  <rect x="688" y="324.18930364074185" width="24" height="19.344297610223293" rx="2" fill="#10B981" opacity="0.85"/>
  <line x1="774" y1="258.6556571465917" x2="774" y2="316.29361257189885" stroke="#10B981" stroke-width="1.5"/>
  <rect x="762" y="293.1067121797241" width="24" height="11.365156713873148" rx="2" fill="#10B981" opacity="0.85"/>
  <line x1="848" y1="373.94070092821494" x2="848" y2="434.5947850984521" stroke="#10B981" stroke-width="1.5"/>
  <rect x="836" y="404.57836139248684" width="24" height="28.78941260278225" rx="2" fill="#10B981" opacity="0.85"/>
</svg>