<svg xmlns="http://www.w3.org/2000/svg" viewBox="0 0 1200 630" fill="none">
  <rect width="1200" height="630" fill="transparent"/>
  <rect x="30" y="30" width="1140" height="570" rx="20" fill="rgba(128,128,128,0.06)" stroke="rgba(128,128,128,0.15)" stroke-width="1"/>
  <defs>
    <linearGradient id="lineGrad" x1="0%" y1="0%" x2="100%" y2="0%">
      <stop offset="0%" stop-color="#00F0FF"/>
      <stop offset="100%" stop-color="#A91079"/>
    </linearGradient>
    <linearGradient id="areaGrad" x1="0%" y1="0%" x2="0%" y2="100%">
      <stop offset="0%" stop-color="#00F0FF" stop-opacity="0.3"/>
      <stop offset="100%" stop-color="#00F0FF" stop-opacity="0"/>
    </linearGradient>
    <linearGradient id="barGrad" x1="0%" y1="0%" x2="0%" y2="100%">
      <stop offset="0%" stop-color="#00F0FF"/>
      <stop offset="100%" stop-color="#A91079"/>
    </linearGradient>
  </defs>
  
  <circle cx="1020" cy="94.5" r="82.23863773047924" fill="#00F0FF" opacity="0.03"/>
  <circle cx="180" cy="504" r="53.43328365357593" fill="#A91079" opacity="0.04"/>
  <rect x="160" y="249.4382332637906" width="60" height="270.5617667362094" rx="4" fill="url(#barGrad)" opacity="0.73"/>
  <rect x="250" y="404.726021559909" width="60" height="115.27397844009101" rx="4" fill="url(#barGrad)" opacity="0.99"/>
  <rect x="340" y="381.3473109714687" width="60" height="138.6526890285313" rx="4" fill="url(#barGrad)" opacity="0.92"/>
  <rect x="430" y="294.1282472666353" width="60" height="225.8717527333647" rx="4" fill="url(#barGrad)" opacity="0.80"/>
  <rect x="520" y="276.26009710133076" width="60" height="243.73990289866924" rx="4" fill="url(#barGrad)" opacity="0.78"/>
  <rect x="610" y="387.46670559979975" width="60" height="132.53329440020025" rx="4" fill="url(#barGrad)" opacity="0.94"/>
  <rect x="700" y="254.26576497033238" width="60" height="265.7342350296676" rx="4" fill="url(#barGrad)" opacity="0.66"/>
  <rect x="790" y="407.52164806239307" width="60" height="112.47835193760693" rx="4" fill="url(#barGrad)" opacity="0.87"/>
</svg>