<svg xmlns="http://www.w3.org/2000/svg" viewBox="0 0 1200 630" fill="none">
  <rect width="1200" height="630" fill="#0d1117"/>
  <rect x="30" y="30" width="1140" height="570" rx="20" fill="#161b22" stroke="#30363d" stroke-width="1"/>
  <defs>
    <linearGradient id="lineGrad" x1="0%" y1="0%" x2="100%" y2="0%">
      <stop offset="0%" stop-color="#06B6D4"/>
      <stop offset="100%" stop-color="#F97316"/>
    </linearGradient>
    <linearGradient id="areaGrad" x1="0%" y1="0%" x2="0%" y2="100%">
      <stop offset="0%" stop-color="#06B6D4" stop-opacity="0.3"/>
      <stop offset="100%" stop-color="#06B6D4" stop-opacity="0"/>
    </linearGradient>
    <linearGradient id="barGrad" x1="0%" y1="0%" x2="0%" y2="100%">
      <stop offset="0%" stop-color="#06B6D4"/>
      <stop offset="100%" stop-color="#F97316"/>
    </linearGradient>
  </defs>
  
  <circle cx="1020" cy="94.5" r="94.90890819579363" fill="#06B6D4" opacity="0.03"/>
  <circle cx="180" cy="504" r="69.8929917276837" fill="#F97316" opacity="0.04"/>
  <circle cx="462" cy="302" r="9.7" fill="#F97316" opacity="0.68"/>
  <circle cx="212" cy="114" r="10.9" fill="#06B6D4" opacity="0.33"/>
  <circle cx="242" cy="134" r="4.3" fill="#06B6D4" opacity="0.39"/>
  <circle cx="385" cy="281" r="9.8" fill="#06B6D4" opacity="0.41"/>
  <circle cx="632" cy="171" r="8.7" fill="#F97316" opacity="0.63"/>
  <circle cx="736" cy="384" r="8.6" fill="#06B6D4" opacity="0.70"/>
  <circle cx="216" cy="394" r="3.8" fill="#06B6D4" opacity="0.44"/>
  <circle cx="930" cy="227" r="5.4" fill="#06B6D4" opacity="0.62"/>
  <circle cx="860" cy="492" r="6.5" fill="#06B6D4" opacity="0.76"/>
  <circle cx="916" cy="321" r="5.0" fill="#F97316" opacity="0.62"/>
  <circle cx="495" cy="156" r="9.0" fill="#06B6D4" opacity="0.43"/>
  <circle cx="893" cy="133" r="5.9" fill="#06B6D4" opacity="0.40"/>
  <circle cx="712" cy="481" r="8.7" fill="#06B6D4" opacity="0.48"/>
  <circle cx="372" cy="124" r="9.4" fill="#06B6D4" opacity="0.61"/>
  <circle cx="274" cy="302" r="3.6" fill="#06B6D4" opacity="0.76"/>
  <circle cx="272" cy="398" r="4.7" fill="#06B6D4" opacity="0.68"/>
  <circle cx="494" cy="177" r="3.6" fill="#F97316" opacity="0.64"/>
  <circle cx="924" cy="104" r="7.8" fill="#F97316" opacity="0.69"/>
  <circle cx="305" cy="202" r="4.2" fill="#F97316" opacity="0.58"/>
  <circle cx="502" cy="316" r="9.2" fill="#06B6D4" opacity="0.38"/>
  <circle cx="779" cy="260" r="3.1" fill="#F97316" opacity="0.42"/>
  <circle cx="279" cy="200" r="7.1" fill="#F97316" opacity="0.65"/>
  <circle cx="726" cy="343" r="5.1" fill="#06B6D4" opacity="0.40"/>
  <circle cx="729" cy="135" r="3.2" fill="#06B6D4" opacity="0.62"/>
  <circle cx="354" cy="312" r="6.0" fill="#06B6D4" opacity="0.59"/>
  <circle cx="723" cy="505" r="9.4" fill="#06B6D4" opacity="0.37"/>
  <circle cx="325" cy="224" r="7.3" fill="#06B6D4" opacity="0.41"/>
  <circle cx="749" cy="189" r="4.4" fill="#F97316" opacity="0.74"/>
  <circle cx="214" cy="293" r="8.4" fill="#F97316" opacity="0.43"/>
  <circle cx="799" cy="506" r="6.7" fill="#F97316" opacity="0.53"/>
  <circle cx="554" cy="290" r="5.9" fill="#F97316" opacity="0.71"/>
  <circle cx="238" cy="311" r="3.1" fill="#06B6D4" opacity="0.36"/>
  <circle cx="284" cy="413" r="7.2" fill="#06B6D4" opacity="0.54"/>
  <circle cx="597" cy="311" r="6.5" fill="#F97316" opacity="0.46"/>
  <circle cx="220" cy="444" r="5.3" fill="#06B6D4" opacity="0.79"/>
  <circle cx="832" cy="311" r="3.7" fill="#F97316" opacity="0.49"/>
  <circle cx="446" cy="196" r="4.3" fill="#06B6D4" opacity="0.44"/>
  <circle cx="499" cy="486" r="7.8" fill="#06B6D4" opacity="0.48"/>
  <circle cx="457" cy="365" r="5.7" fill="#06B6D4" opacity="0.42"/>
  <circle cx="230" cy="346" r="6.2" fill="#06B6D4" opacity="0.44"/>
  <line x1="160" y1="450" x2="1040" y2="150" stroke="#06B6D4" stroke-width="2" stroke-dasharray="6 4" opacity="0.5"/>
</svg>