<svg xmlns="http://www.w3.org/2000/svg" viewBox="0 0 1200 630" fill="none">
  <rect width="1200" height="630" fill="transparent"/>
  <rect x="30" y="30" width="1140" height="570" rx="20" fill="rgba(128,128,128,0.06)" stroke="rgba(128,128,128,0.15)" stroke-width="1"/>
  <defs>
    <linearGradient id="lineGrad" x1="0%" y1="0%" x2="100%" y2="0%">
      <stop offset="0%" stop-color="#14B8A6"/>
      <stop offset="100%" stop-color="#E11D48"/>
    </linearGradient>
    <linearGradient id="areaGrad" x1="0%" y1="0%" x2="0%" y2="100%">
      <stop offset="0%" stop-color="#14B8A6" stop-opacity="0.3"/>
      <stop offset="100%" stop-color="#14B8A6" stop-opacity="0"/>
    </linearGradient>
    <linearGradient id="barGrad" x1="0%" y1="0%" x2="0%" y2="100%">
      <stop offset="0%" stop-color="#14B8A6"/>
      <stop offset="100%" stop-color="#E11D48"/>
    </linearGradient>
  </defs>
  
  <circle cx="1020" cy="94.5" r="71.82071233168244" fill="#14B8A6" opacity="0.03"/>
  <circle cx="180" cy="504" r="40.4774594749324" fill="#E11D48" opacity="0.04"/>
  <rect x="160" y="354.63910420425236" width="60" height="165.36089579574764" rx="4" fill="url(#barGrad)" opacity="0.62"/>
  <rect x="250" y="362.74477994069457" width="60" height="157.25522005930543" rx="4" fill="url(#barGrad)" opacity="0.75"/>
  <rect x="340" y="168.21622877381742" width="60" height="351.7837712261826" rx="4" fill="url(#barGrad)" opacity="0.94"/>
  <rect x="430" y="176.05849146842957" width="60" height="343.94150853157043" rx="4" fill="url(#barGrad)" opacity="0.88"/>
  <rect x="520" y="240.53105005063117" width="60" height="279.46894994936883" rx="4" fill="url(#barGrad)" opacity="0.63"/>
  <rect x="610" y="267.99454564228654" width="60" height="252.00545435771346" rx="4" fill="url(#barGrad)" opacity="0.67"/>
  <rect x="700" y="243.90452998690307" width="60" height="276.09547001309693" rx="4" fill="url(#barGrad)" opacity="0.84"/>
  <rect x="790" y="351.59141082316637" width="60" height="168.40858917683363" rx="4" fill="url(#barGrad)" opacity="0.97"/>
</svg>