<svg xmlns="http://www.w3.org/2000/svg" viewBox="0 0 1200 630" fill="none">
  <rect width="1200" height="630" fill="#0d1117"/>
  <rect x="30" y="30" width="1140" height="570" rx="20" fill="#161b22" stroke="#30363d" stroke-width="1"/>
  <defs>
    <linearGradient id="lineGrad" x1="0%" y1="0%" x2="100%" y2="0%">
      <stop offset="0%" stop-color="#00F0FF"/>
      <stop offset="100%" stop-color="#A91079"/>
    </linearGradient>
    <linearGradient id="areaGrad" x1="0%" y1="0%" x2="0%" y2="100%">
      <stop offset="0%" stop-color="#00F0FF" stop-opacity="0.3"/>
      <stop offset="100%" stop-color="#00F0FF" stop-opacity="0"/>
    </linearGradient>
    <linearGradient id="barGrad" x1="0%" y1="0%" x2="0%" y2="100%">
      <stop offset="0%" stop-color="#00F0FF"/>
      <stop offset="100%" stop-color="#A91079"/>
    </linearGradient>
  </defs>
  
  <circle cx="1020" cy="94.5" r="75.8891287073493" fill="#00F0FF" opacity="0.03"/>
  <circle cx="180" cy="504" r="56.053239631000906" fill="#A91079" opacity="0.04"/>
  <rect x="160" y="221.1579174362123" width="60" height="298.8420825637877" rx="4" fill="url(#barGrad)" opacity="0.72"/>
  <rect x="250" y="210.46950994990766" width="60" height="309.53049005009234" rx="4" fill="url(#barGrad)" opacity="0.61"/>
  <rect x="340" y="159.11001950502396" width="60" height="360.88998049497604" rx="4" fill="url(#barGrad)" opacity="0.95"/>
  <rect x="430" y="217.54635610617697" width="60" height="302.453643893823" rx="4" fill="url(#barGrad)" opacity="0.90"/>
  <rect x="520" y="328.53823924437165" width="60" height="191.46176075562835" rx="4" fill="url(#barGrad)" opacity="0.81"/>
  <rect x="610" y="200.079215047881" width="60" height="319.920784952119" rx="4" fill="url(#barGrad)" opacity="0.89"/>
  <rect x="700" y="339.26449228078127" width="60" height="180.73550771921873" rx="4" fill="url(#barGrad)" opacity="0.92"/>
  <rect x="790" y="231.2286635953933" width="60" height="288.7713364046067" rx="4" fill="url(#barGrad)" opacity="0.84"/>
</svg>