<svg xmlns="http://www.w3.org/2000/svg" viewBox="0 0 1200 630" fill="none">
  <rect width="1200" height="630" fill="transparent"/>
  <rect x="30" y="30" width="1140" height="570" rx="20" fill="rgba(128,128,128,0.06)" stroke="rgba(128,128,128,0.15)" stroke-width="1"/>
  <defs>
    <linearGradient id="lineGrad" x1="0%" y1="0%" x2="100%" y2="0%">
      <stop offset="0%" stop-color="#00F0FF"/>
      <stop offset="100%" stop-color="#A91079"/>
    </linearGradient>
    <linearGradient id="areaGrad" x1="0%" y1="0%" x2="0%" y2="100%">
      <stop offset="0%" stop-color="#00F0FF" stop-opacity="0.3"/>
      <stop offset="100%" stop-color="#00F0FF" stop-opacity="0"/>
    </linearGradient>
    <linearGradient id="barGrad" x1="0%" y1="0%" x2="0%" y2="100%">
      <stop offset="0%" stop-color="#00F0FF"/>
      <stop offset="100%" stop-color="#A91079"/>
    </linearGradient>
  </defs>
  
  <circle cx="1020" cy="94.5" r="74.48069551959634" fill="#00F0FF" opacity="0.03"/>
  <circle cx="180" cy="504" r="46.864356256555766" fill="#A91079" opacity="0.04"/>
  <circle cx="382" cy="246" r="5.2" fill="#A91079" opacity="0.42"/>
  <circle cx="885" cy="416" r="5.2" fill="#00F0FF" opacity="0.43"/>
  <circle cx="222" cy="380" r="9.0" fill="#A91079" opacity="0.45"/>
  <circle cx="288" cy="409" r="4.2" fill="#00F0FF" opacity="0.79"/>
  <circle cx="947" cy="255" r="7.4" fill="#A91079" opacity="0.66"/>
  <circle cx="547" cy="234" r="5.3" fill="#A91079" opacity="0.56"/>
  <circle cx="524" cy="344" r="7.4" fill="#A91079" opacity="0.69"/>
  <circle cx="720" cy="185" r="7.1" fill="#00F0FF" opacity="0.47"/>
  <circle cx="1035" cy="384" r="8.0" fill="#A91079" opacity="0.58"/>
  <circle cx="487" cy="251" r="3.2" fill="#00F0FF" opacity="0.31"/>
  <circle cx="748" cy="229" r="3.4" fill="#A91079" opacity="0.51"/>
  <circle cx="168" cy="474" r="3.9" fill="#A91079" opacity="0.55"/>
  <circle cx="906" cy="420" r="10.0" fill="#A91079" opacity="0.39"/>
  <circle cx="614" cy="203" r="3.6" fill="#A91079" opacity="0.34"/>
  <circle cx="220" cy="139" r="6.3" fill="#A91079" opacity="0.68"/>
  <circle cx="662" cy="451" r="8.6" fill="#A91079" opacity="0.54"/>
  <circle cx="765" cy="457" r="4.9" fill="#00F0FF" opacity="0.38"/>
  <circle cx="984" cy="194" r="4.1" fill="#00F0FF" opacity="0.52"/>
  <circle cx="473" cy="444" r="5.2" fill="#A91079" opacity="0.44"/>
  <circle cx="223" cy="339" r="9.9" fill="#00F0FF" opacity="0.34"/>
  <circle cx="940" cy="249" r="4.2" fill="#00F0FF" opacity="0.56"/>
  <circle cx="742" cy="182" r="6.5" fill="#00F0FF" opacity="0.44"/>
  <circle cx="394" cy="495" r="3.3" fill="#00F0FF" opacity="0.63"/>
  <circle cx="538" cy="400" r="8.9" fill="#A91079" opacity="0.66"/>
  <circle cx="836" cy="440" r="4.6" fill="#00F0FF" opacity="0.78"/>
  <circle cx="689" cy="379" r="6.7" fill="#A91079" opacity="0.35"/>
  <circle cx="814" cy="220" r="3.8" fill="#00F0FF" opacity="0.55"/>
  <circle cx="180" cy="329" r="6.5" fill="#A91079" opacity="0.32"/>
  <circle cx="650" cy="102" r="8.7" fill="#00F0FF" opacity="0.55"/>
  <circle cx="643" cy="180" r="3.4" fill="#A91079" opacity="0.32"/>
  <circle cx="593" cy="496" r="6.0" fill="#A91079" opacity="0.56"/>
  <circle cx="274" cy="499" r="7.3" fill="#00F0FF" opacity="0.70"/>
  <circle cx="349" cy="206" r="9.5" fill="#A91079" opacity="0.74"/>
  <circle cx="567" cy="107" r="3.7" fill="#A91079" opacity="0.64"/>
  <circle cx="862" cy="476" r="8.0" fill="#00F0FF" opacity="0.44"/>
  <circle cx="473" cy="364" r="10.8" fill="#A91079" opacity="0.45"/>
  <circle cx="330" cy="518" r="5.1" fill="#A91079" opacity="0.70"/>
  <circle cx="581" cy="420" r="8.0" fill="#A91079" opacity="0.45"/>
  <circle cx="788" cy="171" r="4.0" fill="#00F0FF" opacity="0.76"/>
  <circle cx="251" cy="308" r="4.0" fill="#00F0FF" opacity="0.59"/>
  <line x1="160" y1="450" x2="1040" y2="150" stroke="#00F0FF" stroke-width="2" stroke-dasharray="6 4" opacity="0.5"/>
</svg>