<svg xmlns="http://www.w3.org/2000/svg" viewBox="0 0 1200 630" fill="none">
  <rect width="1200" height="630" fill="#0d1117"/>
  <rect x="30" y="30" width="1140" height="570" rx="20" fill="#161b22" stroke="#30363d" stroke-width="1"/>
  <defs>
    <linearGradient id="lineGrad" x1="0%" y1="0%" x2="100%" y2="0%">
      <stop offset="0%" stop-color="#06B6D4"/>
      <stop offset="100%" stop-color="#F97316"/>
    </linearGradient>
    <linearGradient id="areaGrad" x1="0%" y1="0%" x2="0%" y2="100%">
      <stop offset="0%" stop-color="#06B6D4" stop-opacity="0.3"/>
      <stop offset="100%" stop-color="#06B6D4" stop-opacity="0"/>
    </linearGradient>
    <linearGradient id="barGrad" x1="0%" y1="0%" x2="0%" y2="100%">
      <stop offset="0%" stop-color="#06B6D4"/>
      <stop offset="100%" stop-color="#F97316"/>
    </linearGradient>
  </defs>
  
  <circle cx="1020" cy="94.5" r="73.36316445842385" fill="#06B6D4" opacity="0.03"/>
  <circle cx="180" cy="504" r="48.07215765817091" fill="#F97316" opacity="0.04"/>
  <circle cx="821" cy="381" r="8.6" fill="#F97316" opacity="0.64"/>
  <circle cx="630" cy="490" r="3.5" fill="#06B6D4" opacity="0.54"/>
  <circle cx="644" cy="280" r="3.6" fill="#F97316" opacity="0.76"/>
  <circle cx="589" cy="393" r="10.4" fill="#F97316" opacity="0.35"/>
  <circle cx="997" cy="168" r="9.9" fill="#F97316" opacity="0.67"/>
  <circle cx="793" cy="462" r="8.5" fill="#F97316" opacity="0.78"/>
  <circle cx="184" cy="365" r="5.9" fill="#F97316" opacity="0.68"/>
  <circle cx="825" cy="408" r="4.8" fill="#F97316" opacity="0.47"/>
  <circle cx="294" cy="289" r="4.4" fill="#06B6D4" opacity="0.45"/>
  <circle cx="330" cy="497" r="6.9" fill="#F97316" opacity="0.76"/>
  <circle cx="1016" cy="342" r="9.5" fill="#F97316" opacity="0.59"/>
  <circle cx="395" cy="480" r="5.9" fill="#06B6D4" opacity="0.59"/>
  <circle cx="956" cy="158" r="11.0" fill="#F97316" opacity="0.49"/>
  <circle cx="337" cy="390" r="4.1" fill="#F97316" opacity="0.49"/>
  <circle cx="245" cy="124" r="9.2" fill="#F97316" opacity="0.52"/>
  <circle cx="741" cy="362" r="8.9" fill="#06B6D4" opacity="0.71"/>
  <circle cx="171" cy="392" r="3.8" fill="#F97316" opacity="0.70"/>
  <circle cx="837" cy="257" r="3.9" fill="#F97316" opacity="0.47"/>
  <circle cx="258" cy="465" r="10.0" fill="#F97316" opacity="0.79"/>
  <circle cx="697" cy="301" r="7.4" fill="#F97316" opacity="0.36"/>
  <circle cx="563" cy="214" r="3.1" fill="#F97316" opacity="0.65"/>
  <circle cx="454" cy="435" r="8.0" fill="#F97316" opacity="0.37"/>
  <circle cx="760" cy="459" r="7.2" fill="#06B6D4" opacity="0.56"/>
  <circle cx="287" cy="342" r="10.8" fill="#F97316" opacity="0.60"/>
  <circle cx="539" cy="293" r="8.1" fill="#06B6D4" opacity="0.54"/>
  <circle cx="171" cy="394" r="7.3" fill="#F97316" opacity="0.43"/>
  <circle cx="693" cy="219" r="3.0" fill="#06B6D4" opacity="0.49"/>
  <circle cx="182" cy="223" r="5.6" fill="#F97316" opacity="0.58"/>
  <circle cx="1035" cy="427" r="5.9" fill="#06B6D4" opacity="0.66"/>
  <circle cx="548" cy="174" r="10.5" fill="#F97316" opacity="0.73"/>
  <circle cx="903" cy="455" r="3.6" fill="#F97316" opacity="0.77"/>
  <circle cx="860" cy="510" r="10.4" fill="#06B6D4" opacity="0.56"/>
  <circle cx="286" cy="428" r="3.0" fill="#F97316" opacity="0.42"/>
  <circle cx="515" cy="426" r="3.3" fill="#F97316" opacity="0.57"/>
  <circle cx="421" cy="466" r="3.4" fill="#F97316" opacity="0.77"/>
  <circle cx="413" cy="246" r="9.8" fill="#F97316" opacity="0.42"/>
  <circle cx="401" cy="106" r="4.5" fill="#F97316" opacity="0.59"/>
  <circle cx="768" cy="170" r="9.4" fill="#F97316" opacity="0.74"/>
  <circle cx="576" cy="341" r="9.0" fill="#06B6D4" opacity="0.35"/>
  <circle cx="770" cy="369" r="5.8" fill="#F97316" opacity="0.30"/>
  <line x1="160" y1="450" x2="1040" y2="150" stroke="#06B6D4" stroke-width="2" stroke-dasharray="6 4" opacity="0.5"/>
</svg>