<svg xmlns="http://www.w3.org/2000/svg" viewBox="0 0 1200 630" fill="none">
  <rect width="1200" height="630" fill="transparent"/>
  <rect x="30" y="30" width="1140" height="570" rx="20" fill="rgba(128,128,128,0.06)" stroke="rgba(128,128,128,0.15)" stroke-width="1"/>
  <defs>
    <linearGradient id="lineGrad" x1="0%" y1="0%" x2="100%" y2="0%">
      <stop offset="0%" stop-color="#06B6D4"/>
      <stop offset="100%" stop-color="#F97316"/>
    </linearGradient>
    <linearGradient id="areaGrad" x1="0%" y1="0%" x2="0%" y2="100%">
      <stop offset="0%" stop-color="#06B6D4" stop-opacity="0.3"/>
      <stop offset="100%" stop-color="#06B6D4" stop-opacity="0"/>
    </linearGradient>
    <linearGradient id="barGrad" x1="0%" y1="0%" x2="0%" y2="100%">
      <stop offset="0%" stop-color="#06B6D4"/>
      <stop offset="100%" stop-color="#F97316"/>
    </linearGradient>
  </defs>
  
  <circle cx="1020" cy="94.5" r="73.39139273390174" fill="#06B6D4" opacity="0.03"/>
  <circle cx="180" cy="504" r="68.07483752956614" fill="#F97316" opacity="0.04"/>
  <circle cx="833" cy="126" r="4.4" fill="#06B6D4" opacity="0.57"/>
  <circle cx="916" cy="300" r="4.6" fill="#F97316" opacity="0.35"/>
  <circle cx="685" cy="324" r="4.2" fill="#F97316" opacity="0.78"/>
  <circle cx="1016" cy="473" r="9.5" fill="#06B6D4" opacity="0.61"/>
  <circle cx="389" cy="489" r="7.3" fill="#F97316" opacity="0.48"/>
  <circle cx="299" cy="291" r="6.5" fill="#F97316" opacity="0.58"/>
  <circle cx="327" cy="319" r="8.8" fill="#F97316" opacity="0.73"/>
  <circle cx="519" cy="191" r="5.8" fill="#06B6D4" opacity="0.64"/>
  <circle cx="1016" cy="365" r="8.7" fill="#F97316" opacity="0.72"/>
  <circle cx="743" cy="235" r="3.6" fill="#06B6D4" opacity="0.59"/>
  <circle cx="463" cy="470" r="9.5" fill="#06B6D4" opacity="0.63"/>
  <circle cx="278" cy="246" r="9.6" fill="#F97316" opacity="0.34"/>
  <circle cx="606" cy="249" r="5.1" fill="#F97316" opacity="0.67"/>
  <circle cx="246" cy="311" r="5.6" fill="#06B6D4" opacity="0.33"/>
  <circle cx="523" cy="190" r="6.2" fill="#F97316" opacity="0.59"/>
  <circle cx="510" cy="132" r="4.8" fill="#06B6D4" opacity="0.34"/>
  <circle cx="331" cy="158" r="3.9" fill="#06B6D4" opacity="0.57"/>
  <circle cx="754" cy="148" r="8.1" fill="#06B6D4" opacity="0.40"/>
  <circle cx="924" cy="412" r="5.5" fill="#F97316" opacity="0.61"/>
  <circle cx="397" cy="336" r="6.7" fill="#06B6D4" opacity="0.65"/>
  <circle cx="943" cy="275" r="4.2" fill="#06B6D4" opacity="0.74"/>
  <circle cx="416" cy="295" r="10.5" fill="#06B6D4" opacity="0.74"/>
  <circle cx="266" cy="111" r="9.8" fill="#06B6D4" opacity="0.53"/>
  <circle cx="858" cy="504" r="10.4" fill="#F97316" opacity="0.50"/>
  <circle cx="412" cy="131" r="8.3" fill="#F97316" opacity="0.55"/>
  <circle cx="671" cy="206" r="5.1" fill="#06B6D4" opacity="0.66"/>
  <circle cx="466" cy="249" r="6.6" fill="#F97316" opacity="0.30"/>
  <circle cx="436" cy="479" r="7.3" fill="#06B6D4" opacity="0.77"/>
  <circle cx="196" cy="256" r="3.5" fill="#F97316" opacity="0.32"/>
  <circle cx="635" cy="350" r="8.2" fill="#06B6D4" opacity="0.44"/>
  <circle cx="803" cy="467" r="8.2" fill="#06B6D4" opacity="0.31"/>
  <circle cx="436" cy="136" r="10.5" fill="#06B6D4" opacity="0.58"/>
  <circle cx="349" cy="327" r="6.5" fill="#06B6D4" opacity="0.70"/>
  <circle cx="740" cy="207" r="5.5" fill="#F97316" opacity="0.40"/>
  <circle cx="799" cy="429" r="5.8" fill="#F97316" opacity="0.30"/>
  <circle cx="455" cy="316" r="4.8" fill="#06B6D4" opacity="0.56"/>
  <circle cx="863" cy="489" r="10.9" fill="#06B6D4" opacity="0.42"/>
  <circle cx="848" cy="411" r="6.7" fill="#06B6D4" opacity="0.43"/>
  <circle cx="408" cy="179" r="3.7" fill="#06B6D4" opacity="0.44"/>
  <circle cx="882" cy="146" r="5.7" fill="#F97316" opacity="0.44"/>
  <line x1="160" y1="450" x2="1040" y2="150" stroke="#06B6D4" stroke-width="2" stroke-dasharray="6 4" opacity="0.5"/>
</svg>