<svg xmlns="http://www.w3.org/2000/svg" viewBox="0 0 1200 630" fill="none">
  <rect width="1200" height="630" fill="#0d1117"/>
  <rect x="30" y="30" width="1140" height="570" rx="20" fill="#161b22" stroke="#30363d" stroke-width="1"/>
  <defs>
    <linearGradient id="lineGrad" x1="0%" y1="0%" x2="100%" y2="0%">
      <stop offset="0%" stop-color="#00F0FF"/>
      <stop offset="100%" stop-color="#A91079"/>
    </linearGradient>
    <linearGradient id="areaGrad" x1="0%" y1="0%" x2="0%" y2="100%">
      <stop offset="0%" stop-color="#00F0FF" stop-opacity="0.3"/>
      <stop offset="100%" stop-color="#00F0FF" stop-opacity="0"/>
    </linearGradient>
    <linearGradient id="barGrad" x1="0%" y1="0%" x2="0%" y2="100%">
      <stop offset="0%" stop-color="#00F0FF"/>
      <stop offset="100%" stop-color="#A91079"/>
    </linearGradient>
  </defs>
  
  <circle cx="1020" cy="94.5" r="90.09699740447104" fill="#00F0FF" opacity="0.03"/>
  <circle cx="180" cy="504" r="50.535547053441405" fill="#A91079" opacity="0.04"/>
  <path d="M140 272 L220 304 L300 302 L380 312 L460 338 L540 346 L620 342 L700 333 L780 330 L860 312 L940 314 L1020 336 L1060 530 L140 530 Z" fill="#00F0FF" opacity="0.15"/>
  <path d="M140 272 L220 304 L300 302 L380 312 L460 338 L540 346 L620 342 L700 333 L780 330 L860 312 L940 314 L1020 336" stroke="#00F0FF" stroke-width="2" fill="none" opacity="0.8"/>
  <path d="M140 310 L220 303 L300 331 L380 327 L460 340 L540 349 L620 366 L700 350 L780 331 L860 361 L940 378 L1020 388 L1060 530 L140 530 Z" fill="#A91079" opacity="0.12"/>
  <path d="M140 310 L220 303 L300 331 L380 327 L460 340 L540 349 L620 366 L700 350 L780 331 L860 361 L940 378 L1020 388" stroke="#A91079" stroke-width="2" fill="none" opacity="0.8"/>
  <path d="M140 450 L220 462 L300 472 L380 470 L460 455 L540 430 L620 451 L700 436 L780 436 L860 459 L940 491 L1020 500 L1060 530 L140 530 Z" fill="#8B949E" opacity="0.09"/>
  <path d="M140 450 L220 462 L300 472 L380 470 L460 455 L540 430 L620 451 L700 436 L780 436 L860 459 L940 491 L1020 500" stroke="#8B949E" stroke-width="2" fill="none" opacity="0.8"/>
</svg>