<svg xmlns="http://www.w3.org/2000/svg" viewBox="0 0 1200 630" fill="none">
  <rect width="1200" height="630" fill="transparent"/>
  <rect x="30" y="30" width="1140" height="570" rx="20" fill="rgba(128,128,128,0.06)" stroke="rgba(128,128,128,0.15)" stroke-width="1"/>
  <defs>
    <linearGradient id="lineGrad" x1="0%" y1="0%" x2="100%" y2="0%">
      <stop offset="0%" stop-color="#06B6D4"/>
      <stop offset="100%" stop-color="#F97316"/>
    </linearGradient>
    <linearGradient id="areaGrad" x1="0%" y1="0%" x2="0%" y2="100%">
      <stop offset="0%" stop-color="#06B6D4" stop-opacity="0.3"/>
      <stop offset="100%" stop-color="#06B6D4" stop-opacity="0"/>
    </linearGradient>
    <linearGradient id="barGrad" x1="0%" y1="0%" x2="0%" y2="100%">
      <stop offset="0%" stop-color="#06B6D4"/>
      <stop offset="100%" stop-color="#F97316"/>
    </linearGradient>
  </defs>
  
  <circle cx="1020" cy="94.5" r="83.97126476280391" fill="#06B6D4" opacity="0.03"/>
  <circle cx="180" cy="504" r="54.19151882175356" fill="#F97316" opacity="0.04"/>
  <path d="M140 263 L220 245 L300 251 L380 242 L460 260 L540 239 L620 224 L700 235 L780 264 L860 258 L940 287 L1020 272 L1060 530 L140 530 Z" fill="#06B6D4" opacity="0.15"/>
  <path d="M140 263 L220 245 L300 251 L380 242 L460 260 L540 239 L620 224 L700 235 L780 264 L860 258 L940 287 L1020 272" stroke="#06B6D4" stroke-width="2" fill="none" opacity="0.8"/>
  <path d="M140 363 L220 338 L300 354 L380 379 L460 358 L540 340 L620 357 L700 334 L780 330 L860 358 L940 348 L1020 329 L1060 530 L140 530 Z" fill="#F97316" opacity="0.12"/>
  <path d="M140 363 L220 338 L300 354 L380 379 L460 358 L540 340 L620 357 L700 334 L780 330 L860 358 L940 348 L1020 329" stroke="#F97316" stroke-width="2" fill="none" opacity="0.8"/>
  <path d="M140 390 L220 396 L300 419 L380 413 L460 400 L540 374 L620 363 L700 345 L780 355 L860 373 L940 403 L1020 377 L1060 530 L140 530 Z" fill="#8B949E" opacity="0.09"/>
  <path d="M140 390 L220 396 L300 419 L380 413 L460 400 L540 374 L620 363 L700 345 L780 355 L860 373 L940 403 L1020 377" stroke="#8B949E" stroke-width="2" fill="none" opacity="0.8"/>
</svg>