<svg xmlns="http://www.w3.org/2000/svg" viewBox="0 0 1200 630" fill="none">
  <rect width="1200" height="630" fill="transparent"/>
  <rect x="30" y="30" width="1140" height="570" rx="20" fill="rgba(128,128,128,0.06)" stroke="rgba(128,128,128,0.15)" stroke-width="1"/>
  <defs>
    <linearGradient id="lineGrad" x1="0%" y1="0%" x2="100%" y2="0%">
      <stop offset="0%" stop-color="#14B8A6"/>
      <stop offset="100%" stop-color="#E11D48"/>
    </linearGradient>
    <linearGradient id="areaGrad" x1="0%" y1="0%" x2="0%" y2="100%">
      <stop offset="0%" stop-color="#14B8A6" stop-opacity="0.3"/>
      <stop offset="100%" stop-color="#14B8A6" stop-opacity="0"/>
    </linearGradient>
    <linearGradient id="barGrad" x1="0%" y1="0%" x2="0%" y2="100%">
      <stop offset="0%" stop-color="#14B8A6"/>
      <stop offset="100%" stop-color="#E11D48"/>
    </linearGradient>
  </defs>
  
  <circle cx="1020" cy="94.5" r="73.43641971237957" fill="#14B8A6" opacity="0.03"/>
  <circle cx="180" cy="504" r="59.47335064411163" fill="#E11D48" opacity="0.04"/>
  <path d="M140 254 L220 284 L300 307 L380 292 L460 275 L540 279 L620 293 L700 313 L780 320 L860 321 L940 302 L1020 326 L1060 530 L140 530 Z" fill="#14B8A6" opacity="0.15"/>
  <path d="M140 254 L220 284 L300 307 L380 292 L460 275 L540 279 L620 293 L700 313 L780 320 L860 321 L940 302 L1020 326" stroke="#14B8A6" stroke-width="2" fill="none" opacity="0.8"/>
  <path d="M140 308 L220 312 L300 319 L380 294 L460 293 L540 281 L620 286 L700 264 L780 270 L860 277 L940 280 L1020 312 L1060 530 L140 530 Z" fill="#E11D48" opacity="0.12"/>
  <path d="M140 308 L220 312 L300 319 L380 294 L460 293 L540 281 L620 286 L700 264 L780 270 L860 277 L940 280 L1020 312" stroke="#E11D48" stroke-width="2" fill="none" opacity="0.8"/>
  <path d="M140 368 L220 382 L300 386 L380 381 L460 393 L540 419 L620 443 L700 458 L780 483 L860 461 L940 443 L1020 444 L1060 530 L140 530 Z" fill="#8B949E" opacity="0.09"/>
  <path d="M140 368 L220 382 L300 386 L380 381 L460 393 L540 419 L620 443 L700 458 L780 483 L860 461 L940 443 L1020 444" stroke="#8B949E" stroke-width="2" fill="none" opacity="0.8"/>
</svg>