<svg xmlns="http://www.w3.org/2000/svg" viewBox="0 0 1200 630" fill="none">
  <rect width="1200" height="630" fill="transparent"/>
  <rect x="30" y="30" width="1140" height="570" rx="20" fill="rgba(128,128,128,0.06)" stroke="rgba(128,128,128,0.15)" stroke-width="1"/>
  <defs>
    <linearGradient id="lineGrad" x1="0%" y1="0%" x2="100%" y2="0%">
      <stop offset="0%" stop-color="#10B981"/>
      <stop offset="100%" stop-color="#F59E0B"/>
    </linearGradient>
    <linearGradient id="areaGrad" x1="0%" y1="0%" x2="0%" y2="100%">
      <stop offset="0%" stop-color="#10B981" stop-opacity="0.3"/>
      <stop offset="100%" stop-color="#10B981" stop-opacity="0"/>
    </linearGradient>
    <linearGradient id="barGrad" x1="0%" y1="0%" x2="0%" y2="100%">
      <stop offset="0%" stop-color="#10B981"/>
      <stop offset="100%" stop-color="#F59E0B"/>
    </linearGradient>
  </defs>
  
  <circle cx="1020" cy="94.5" r="75.66116886213422" fill="#10B981" opacity="0.03"/>
  <circle cx="180" cy="504" r="52.407222155015916" fill="#F59E0B" opacity="0.04"/>
  <circle cx="713" cy="197" r="6.9" fill="#10B981" opacity="0.45"/>
  <circle cx="500" cy="425" r="3.2" fill="#F59E0B" opacity="0.75"/>
  <circle cx="405" cy="109" r="6.6" fill="#F59E0B" opacity="0.31"/>
  <circle cx="926" cy="274" r="10.2" fill="#10B981" opacity="0.48"/>
  <circle cx="577" cy="235" r="3.2" fill="#10B981" opacity="0.48"/>
  <circle cx="161" cy="459" r="3.3" fill="#F59E0B" opacity="0.47"/>
  <circle cx="394" cy="137" r="6.4" fill="#10B981" opacity="0.42"/>
  <circle cx="1016" cy="373" r="9.2" fill="#F59E0B" opacity="0.39"/>
  <circle cx="435" cy="360" r="5.5" fill="#10B981" opacity="0.36"/>
  <circle cx="657" cy="267" r="7.3" fill="#F59E0B" opacity="0.40"/>
  <circle cx="387" cy="448" r="9.7" fill="#10B981" opacity="0.72"/>
  <circle cx="528" cy="511" r="8.3" fill="#F59E0B" opacity="0.52"/>
  <circle cx="260" cy="439" r="3.2" fill="#F59E0B" opacity="0.46"/>
  <circle cx="398" cy="268" r="5.8" fill="#10B981" opacity="0.58"/>
  <circle cx="361" cy="286" r="10.4" fill="#10B981" opacity="0.56"/>
  <circle cx="542" cy="373" r="5.0" fill="#10B981" opacity="0.67"/>
  <circle cx="635" cy="345" r="9.3" fill="#F59E0B" opacity="0.32"/>
  <circle cx="311" cy="277" r="5.8" fill="#F59E0B" opacity="0.47"/>
  <circle cx="436" cy="172" r="4.0" fill="#10B981" opacity="0.66"/>
  <circle cx="747" cy="210" r="8.4" fill="#F59E0B" opacity="0.56"/>
  <circle cx="418" cy="508" r="4.7" fill="#F59E0B" opacity="0.38"/>
  <circle cx="367" cy="415" r="8.9" fill="#10B981" opacity="0.50"/>
  <circle cx="564" cy="237" r="3.3" fill="#10B981" opacity="0.46"/>
  <circle cx="704" cy="369" r="9.0" fill="#F59E0B" opacity="0.71"/>
  <circle cx="360" cy="160" r="3.2" fill="#10B981" opacity="0.47"/>
  <circle cx="210" cy="364" r="6.8" fill="#10B981" opacity="0.65"/>
  <circle cx="324" cy="269" r="4.5" fill="#F59E0B" opacity="0.61"/>
  <circle cx="537" cy="437" r="9.3" fill="#10B981" opacity="0.76"/>
  <circle cx="378" cy="504" r="4.2" fill="#F59E0B" opacity="0.71"/>
  <circle cx="758" cy="261" r="5.2" fill="#10B981" opacity="0.44"/>
  <circle cx="715" cy="143" r="10.9" fill="#10B981" opacity="0.48"/>
  <circle cx="247" cy="107" r="5.0" fill="#F59E0B" opacity="0.41"/>
  <circle cx="392" cy="393" r="6.1" fill="#F59E0B" opacity="0.48"/>
  <circle cx="360" cy="382" r="4.4" fill="#10B981" opacity="0.75"/>
  <circle cx="361" cy="250" r="5.3" fill="#10B981" opacity="0.38"/>
  <circle cx="574" cy="195" r="8.1" fill="#F59E0B" opacity="0.73"/>
  <circle cx="784" cy="360" r="4.7" fill="#F59E0B" opacity="0.39"/>
  <circle cx="436" cy="165" r="7.3" fill="#10B981" opacity="0.56"/>
  <circle cx="770" cy="380" r="6.7" fill="#10B981" opacity="0.38"/>
  <circle cx="629" cy="248" r="4.8" fill="#F59E0B" opacity="0.32"/>
  <line x1="160" y1="450" x2="1040" y2="150" stroke="#10B981" stroke-width="2" stroke-dasharray="6 4" opacity="0.5"/>
</svg>