<svg xmlns="http://www.w3.org/2000/svg" viewBox="0 0 1200 630" fill="none">
  <rect width="1200" height="630" fill="#0d1117"/>
  <rect x="30" y="30" width="1140" height="570" rx="20" fill="#161b22" stroke="#30363d" stroke-width="1"/>
  <defs>
    <linearGradient id="lineGrad" x1="0%" y1="0%" x2="100%" y2="0%">
      <stop offset="0%" stop-color="#14B8A6"/>
      <stop offset="100%" stop-color="#E11D48"/>
    </linearGradient>
    <linearGradient id="areaGrad" x1="0%" y1="0%" x2="0%" y2="100%">
      <stop offset="0%" stop-color="#14B8A6" stop-opacity="0.3"/>
      <stop offset="100%" stop-color="#14B8A6" stop-opacity="0"/>
    </linearGradient>
    <linearGradient id="barGrad" x1="0%" y1="0%" x2="0%" y2="100%">
      <stop offset="0%" stop-color="#14B8A6"/>
      <stop offset="100%" stop-color="#E11D48"/>
    </linearGradient>
  </defs>
  
  <circle cx="1020" cy="94.5" r="95.26187078095973" fill="#14B8A6" opacity="0.03"/>
  <circle cx="180" cy="504" r="66.17829692550004" fill="#E11D48" opacity="0.04"/>
  <path d="M140 291 L220 277 L300 302 L380 282 L460 298 L540 329 L620 337 L700 341 L780 372 L860 379 L940 406 L1020 435 L1060 530 L140 530 Z" fill="#14B8A6" opacity="0.15"/>
  <path d="M140 291 L220 277 L300 302 L380 282 L460 298 L540 329 L620 337 L700 341 L780 372 L860 379 L940 406 L1020 435" stroke="#14B8A6" stroke-width="2" fill="none" opacity="0.8"/>
  <path d="M140 337 L220 370 L300 401 L380 432 L460 448 L540 481 L620 461 L700 443 L780 444 L860 471 L940 470 L1020 456 L1060 530 L140 530 Z" fill="#E11D48" opacity="0.12"/>
  <path d="M140 337 L220 370 L300 401 L380 432 L460 448 L540 481 L620 461 L700 443 L780 444 L860 471 L940 470 L1020 456" stroke="#E11D48" stroke-width="2" fill="none" opacity="0.8"/>
  <path d="M140 409 L220 386 L300 379 L380 371 L460 349 L540 345 L620 357 L700 390 L780 383 L860 386 L940 379 L1020 361 L1060 530 L140 530 Z" fill="#8B949E" opacity="0.09"/>
  <path d="M140 409 L220 386 L300 379 L380 371 L460 349 L540 345 L620 357 L700 390 L780 383 L860 386 L940 379 L1020 361" stroke="#8B949E" stroke-width="2" fill="none" opacity="0.8"/>
</svg>