<svg xmlns="http://www.w3.org/2000/svg" viewBox="0 0 1200 630" fill="none">
  <rect width="1200" height="630" fill="#0d1117"/>
  <rect x="30" y="30" width="1140" height="570" rx="20" fill="#161b22" stroke="#30363d" stroke-width="1"/>
  <defs>
    <linearGradient id="lineGrad" x1="0%" y1="0%" x2="100%" y2="0%">
      <stop offset="0%" stop-color="#06B6D4"/>
      <stop offset="100%" stop-color="#F97316"/>
    </linearGradient>
    <linearGradient id="areaGrad" x1="0%" y1="0%" x2="0%" y2="100%">
      <stop offset="0%" stop-color="#06B6D4" stop-opacity="0.3"/>
      <stop offset="100%" stop-color="#06B6D4" stop-opacity="0"/>
    </linearGradient>
    <linearGradient id="barGrad" x1="0%" y1="0%" x2="0%" y2="100%">
      <stop offset="0%" stop-color="#06B6D4"/>
      <stop offset="100%" stop-color="#F97316"/>
    </linearGradient>
  </defs>
  
  <circle cx="1020" cy="94.5" r="61.34806507267058" fill="#06B6D4" opacity="0.03"/>
  <circle cx="180" cy="504" r="53.0933544319123" fill="#F97316" opacity="0.04"/>
  <path d="M140 296 L220 327 L300 355 L380 357 L460 372 L540 348 L620 364 L700 363 L780 348 L860 379 L940 378 L1020 385 L1060 530 L140 530 Z" fill="#06B6D4" opacity="0.15"/>
  <path d="M140 296 L220 327 L300 355 L380 357 L460 372 L540 348 L620 364 L700 363 L780 348 L860 379 L940 378 L1020 385" stroke="#06B6D4" stroke-width="2" fill="none" opacity="0.8"/>
  <path d="M140 345 L220 340 L300 339 L380 339 L460 343 L540 343 L620 322 L700 338 L780 333 L860 317 L940 301 L1020 332 L1060 530 L140 530 Z" fill="#F97316" opacity="0.12"/>
  <path d="M140 345 L220 340 L300 339 L380 339 L460 343 L540 343 L620 322 L700 338 L780 333 L860 317 L940 301 L1020 332" stroke="#F97316" stroke-width="2" fill="none" opacity="0.8"/>
  <path d="M140 436 L220 413 L300 394 L380 376 L460 352 L540 351 L620 354 L700 347 L780 357 L860 366 L940 363 L1020 342 L1060 530 L140 530 Z" fill="#8B949E" opacity="0.09"/>
  <path d="M140 436 L220 413 L300 394 L380 376 L460 352 L540 351 L620 354 L700 347 L780 357 L860 366 L940 363 L1020 342" stroke="#8B949E" stroke-width="2" fill="none" opacity="0.8"/>
</svg>