<svg xmlns="http://www.w3.org/2000/svg" viewBox="0 0 1200 630" fill="none">
  <rect width="1200" height="630" fill="transparent"/>
  <rect x="30" y="30" width="1140" height="570" rx="20" fill="rgba(128,128,128,0.06)" stroke="rgba(128,128,128,0.15)" stroke-width="1"/>
  <defs>
    <linearGradient id="lineGrad" x1="0%" y1="0%" x2="100%" y2="0%">
      <stop offset="0%" stop-color="#10B981"/>
      <stop offset="100%" stop-color="#F59E0B"/>
    </linearGradient>
    <linearGradient id="areaGrad" x1="0%" y1="0%" x2="0%" y2="100%">
      <stop offset="0%" stop-color="#10B981" stop-opacity="0.3"/>
      <stop offset="100%" stop-color="#10B981" stop-opacity="0"/>
    </linearGradient>
    <linearGradient id="barGrad" x1="0%" y1="0%" x2="0%" y2="100%">
      <stop offset="0%" stop-color="#10B981"/>
      <stop offset="100%" stop-color="#F59E0B"/>
    </linearGradient>
  </defs>
  
  <circle cx="1020" cy="94.5" r="77.37482754513621" fill="#10B981" opacity="0.03"/>
  <circle cx="180" cy="504" r="43.196715076919645" fill="#F59E0B" opacity="0.04"/>
  <circle cx="243" cy="388" r="10.0" fill="#10B981" opacity="0.37"/>
  <circle cx="669" cy="505" r="4.8" fill="#F59E0B" opacity="0.33"/>
  <circle cx="273" cy="501" r="3.2" fill="#10B981" opacity="0.55"/>
  <circle cx="971" cy="251" r="5.8" fill="#10B981" opacity="0.58"/>
  <circle cx="266" cy="333" r="6.5" fill="#F59E0B" opacity="0.35"/>
  <circle cx="902" cy="114" r="8.5" fill="#F59E0B" opacity="0.54"/>
  <circle cx="321" cy="128" r="9.8" fill="#10B981" opacity="0.70"/>
  <circle cx="418" cy="245" r="9.6" fill="#10B981" opacity="0.66"/>
  <circle cx="877" cy="283" r="10.0" fill="#10B981" opacity="0.57"/>
  <circle cx="468" cy="470" r="3.9" fill="#F59E0B" opacity="0.45"/>
  <circle cx="763" cy="201" r="10.5" fill="#F59E0B" opacity="0.47"/>
  <circle cx="717" cy="383" r="10.4" fill="#10B981" opacity="0.48"/>
  <circle cx="746" cy="344" r="8.4" fill="#F59E0B" opacity="0.48"/>
  <circle cx="280" cy="330" r="3.6" fill="#10B981" opacity="0.78"/>
  <circle cx="376" cy="337" r="5.6" fill="#F59E0B" opacity="0.77"/>
  <circle cx="288" cy="234" r="5.4" fill="#10B981" opacity="0.38"/>
  <circle cx="717" cy="363" r="10.2" fill="#10B981" opacity="0.56"/>
  <circle cx="776" cy="315" r="8.4" fill="#10B981" opacity="0.43"/>
  <circle cx="834" cy="282" r="8.0" fill="#F59E0B" opacity="0.42"/>
  <circle cx="375" cy="216" r="10.2" fill="#F59E0B" opacity="0.52"/>
  <circle cx="1011" cy="352" r="6.6" fill="#10B981" opacity="0.61"/>
  <circle cx="400" cy="248" r="8.2" fill="#10B981" opacity="0.72"/>
  <circle cx="546" cy="327" r="10.4" fill="#F59E0B" opacity="0.43"/>
  <circle cx="918" cy="244" r="8.1" fill="#F59E0B" opacity="0.53"/>
  <circle cx="1013" cy="373" r="8.8" fill="#F59E0B" opacity="0.37"/>
  <circle cx="824" cy="199" r="9.7" fill="#F59E0B" opacity="0.64"/>
  <circle cx="508" cy="118" r="9.8" fill="#F59E0B" opacity="0.68"/>
  <circle cx="1017" cy="170" r="9.7" fill="#10B981" opacity="0.39"/>
  <circle cx="568" cy="307" r="9.9" fill="#10B981" opacity="0.73"/>
  <circle cx="579" cy="475" r="7.5" fill="#F59E0B" opacity="0.70"/>
  <circle cx="983" cy="320" r="4.2" fill="#F59E0B" opacity="0.55"/>
  <circle cx="313" cy="233" r="6.3" fill="#F59E0B" opacity="0.69"/>
  <circle cx="1028" cy="423" r="4.9" fill="#10B981" opacity="0.40"/>
  <circle cx="399" cy="510" r="4.4" fill="#F59E0B" opacity="0.71"/>
  <circle cx="549" cy="327" r="7.5" fill="#F59E0B" opacity="0.63"/>
  <circle cx="463" cy="260" r="3.7" fill="#F59E0B" opacity="0.71"/>
  <circle cx="1015" cy="414" r="4.9" fill="#10B981" opacity="0.54"/>
  <circle cx="640" cy="483" r="10.1" fill="#F59E0B" opacity="0.54"/>
  <circle cx="506" cy="460" r="3.9" fill="#F59E0B" opacity="0.50"/>
  <circle cx="858" cy="258" r="10.8" fill="#F59E0B" opacity="0.80"/>
  <line x1="160" y1="450" x2="1040" y2="150" stroke="#10B981" stroke-width="2" stroke-dasharray="6 4" opacity="0.5"/>
</svg>