<svg xmlns="http://www.w3.org/2000/svg" viewBox="0 0 1200 630" fill="none">
  <rect width="1200" height="630" fill="transparent"/>
  <rect x="30" y="30" width="1140" height="570" rx="20" fill="rgba(128,128,128,0.06)" stroke="rgba(128,128,128,0.15)" stroke-width="1"/>
  <defs>
    <linearGradient id="lineGrad" x1="0%" y1="0%" x2="100%" y2="0%">
      <stop offset="0%" stop-color="#00F0FF"/>
      <stop offset="100%" stop-color="#A91079"/>
    </linearGradient>
    <linearGradient id="areaGrad" x1="0%" y1="0%" x2="0%" y2="100%">
      <stop offset="0%" stop-color="#00F0FF" stop-opacity="0.3"/>
      <stop offset="100%" stop-color="#00F0FF" stop-opacity="0"/>
    </linearGradient>
    <linearGradient id="barGrad" x1="0%" y1="0%" x2="0%" y2="100%">
      <stop offset="0%" stop-color="#00F0FF"/>
      <stop offset="100%" stop-color="#A91079"/>
    </linearGradient>
  </defs>
  
  <circle cx="1020" cy="94.5" r="81.78811558522284" fill="#00F0FF" opacity="0.03"/>
  <circle cx="180" cy="504" r="64.40290897153318" fill="#A91079" opacity="0.04"/>
  <line x1="182" y1="160.94570444198325" x2="182" y2="279.00878470623866" stroke="#00F0FF" stroke-width="1.5"/>
  <rect x="170" y="199.75833218777552" width="24" height="40.609168726950884" rx="2" fill="#00F0FF" opacity="0.85"/>
  <line x1="256" y1="378.64506356650963" x2="256" y2="421.1296082404442" stroke="#00F0FF" stroke-width="1.5"/>
  <rect x="244" y="398.7196250935085" width="24" height="3.4415364265441895" rx="2" fill="#00F0FF" opacity="0.85"/>
  <line x1="330" y1="283.3468548883684" x2="330" y2="361.67845061281696" stroke="#00F0FF" stroke-width="1.5"/>
  <rect x="318" y="305.90940403053537" width="24" height="39.21546218916774" rx="2" fill="#00F0FF" opacity="0.85"/>
  <line x1="404" y1="346.0547368437983" x2="404" y2="431.515600301791" stroke="#A91079" stroke-width="1.5"/>
  <rect x="392" y="353.15416717203334" width="24" height="49.65160880237818" rx="2" fill="#A91079" opacity="0.85"/>
  <line x1="478" y1="315.4644582909532" x2="478" y2="409.20735717052594" stroke="#00F0FF" stroke-width="1.5"/>
  <rect x="466" y="348.53710882598534" width="24" height="37.59570503607392" rx="2" fill="#00F0FF" opacity="0.85"/>
  <line x1="552" y1="156.58876169705763" x2="552" y2="231.87622693600133" stroke="#00F0FF" stroke-width="1.5"/>
  <rect x="540" y="174.8496827785857" width="24" height="47.92059473693371" rx="2" fill="#00F0FF" opacity="0.85"/>
  <line x1="626" y1="190.3734467481263" x2="626" y2="288.84901771554723" stroke="#00F0FF" stroke-width="1.5"/>
  <rect x="614" y="213.44838856020942" width="24" height="48.43815257772803" rx="2" fill="#00F0FF" opacity="0.85"/>
  <line x1="700" y1="225.0920362980105" x2="700" y2="262.9403967340477" stroke="#00F0FF" stroke-width="1.5"/>
  <rect x="688" y="229.9292225507088" width="24" height="6.121182627975941" rx="2" fill="#00F0FF" opacity="0.85"/>
  <line x1="774" y1="338.2965795067139" x2="774" y2="426.219372341875" stroke="#00F0FF" stroke-width="1.5"/>
  <rect x="762" y="376.0223287739791" width="24" height="27.95523004606366" rx="2" fill="#00F0FF" opacity="0.85"/>
  <line x1="848" y1="346.5874096774496" x2="848" y2="388.62088383408263" stroke="#A91079" stroke-width="1.5"/>
  <rect x="836" y="350.59466689126566" width="24" height="8.769670873880386" rx="2" fill="#A91079" opacity="0.85"/>
</svg>