<svg xmlns="http://www.w3.org/2000/svg" viewBox="0 0 1200 630" fill="none">
  <rect width="1200" height="630" fill="#0d1117"/>
  <rect x="30" y="30" width="1140" height="570" rx="20" fill="#161b22" stroke="#30363d" stroke-width="1"/>
  <defs>
    <linearGradient id="lineGrad" x1="0%" y1="0%" x2="100%" y2="0%">
      <stop offset="0%" stop-color="#00F0FF"/>
      <stop offset="100%" stop-color="#A91079"/>
    </linearGradient>
    <linearGradient id="areaGrad" x1="0%" y1="0%" x2="0%" y2="100%">
      <stop offset="0%" stop-color="#00F0FF" stop-opacity="0.3"/>
      <stop offset="100%" stop-color="#00F0FF" stop-opacity="0"/>
    </linearGradient>
    <linearGradient id="barGrad" x1="0%" y1="0%" x2="0%" y2="100%">
      <stop offset="0%" stop-color="#00F0FF"/>
      <stop offset="100%" stop-color="#A91079"/>
    </linearGradient>
  </defs>
  
  <circle cx="1020" cy="94.5" r="63.93068895675242" fill="#00F0FF" opacity="0.03"/>
  <circle cx="180" cy="504" r="54.608842926099896" fill="#A91079" opacity="0.04"/>
  <path d="M140 282 L220 286 L300 316 L380 301 L460 324 L540 307 L620 307 L700 291 L780 283 L860 288 L940 304 L1020 300 L1060 530 L140 530 Z" fill="#00F0FF" opacity="0.15"/>
  <path d="M140 282 L220 286 L300 316 L380 301 L460 324 L540 307 L620 307 L700 291 L780 283 L860 288 L940 304 L1020 300" stroke="#00F0FF" stroke-width="2" fill="none" opacity="0.8"/>
  <path d="M140 361 L220 377 L300 364 L380 387 L460 396 L540 419 L620 445 L700 434 L780 430 L860 420 L940 436 L1020 446 L1060 530 L140 530 Z" fill="#A91079" opacity="0.12"/>
  <path d="M140 361 L220 377 L300 364 L380 387 L460 396 L540 419 L620 445 L700 434 L780 430 L860 420 L940 436 L1020 446" stroke="#A91079" stroke-width="2" fill="none" opacity="0.8"/>
  <path d="M140 387 L220 374 L300 358 L380 361 L460 335 L540 308 L620 309 L700 323 L780 299 L860 282 L940 276 L1020 280 L1060 530 L140 530 Z" fill="#8B949E" opacity="0.09"/>
  <path d="M140 387 L220 374 L300 358 L380 361 L460 335 L540 308 L620 309 L700 323 L780 299 L860 282 L940 276 L1020 280" stroke="#8B949E" stroke-width="2" fill="none" opacity="0.8"/>
</svg>