<svg xmlns="http://www.w3.org/2000/svg" viewBox="0 0 1200 630" fill="none">
  <rect width="1200" height="630" fill="transparent"/>
  <rect x="30" y="30" width="1140" height="570" rx="20" fill="rgba(128,128,128,0.06)" stroke="rgba(128,128,128,0.15)" stroke-width="1"/>
  <defs>
    <linearGradient id="lineGrad" x1="0%" y1="0%" x2="100%" y2="0%">
      <stop offset="0%" stop-color="#00F0FF"/>
      <stop offset="100%" stop-color="#A91079"/>
    </linearGradient>
    <linearGradient id="areaGrad" x1="0%" y1="0%" x2="0%" y2="100%">
      <stop offset="0%" stop-color="#00F0FF" stop-opacity="0.3"/>
      <stop offset="100%" stop-color="#00F0FF" stop-opacity="0"/>
    </linearGradient>
    <linearGradient id="barGrad" x1="0%" y1="0%" x2="0%" y2="100%">
      <stop offset="0%" stop-color="#00F0FF"/>
      <stop offset="100%" stop-color="#A91079"/>
    </linearGradient>
  </defs>
  
  <circle cx="1020" cy="94.5" r="79.92787916213274" fill="#00F0FF" opacity="0.03"/>
  <circle cx="180" cy="504" r="56.87880093464628" fill="#A91079" opacity="0.04"/>
  <circle cx="765" cy="399" r="8.1" fill="#A91079" opacity="0.38"/>
  <circle cx="691" cy="261" r="9.0" fill="#A91079" opacity="0.64"/>
  <circle cx="205" cy="228" r="7.5" fill="#00F0FF" opacity="0.38"/>
  <circle cx="322" cy="439" r="6.0" fill="#A91079" opacity="0.36"/>
  <circle cx="403" cy="143" r="5.6" fill="#A91079" opacity="0.77"/>
  <circle cx="215" cy="281" r="5.1" fill="#A91079" opacity="0.76"/>
  <circle cx="227" cy="493" r="9.6" fill="#A91079" opacity="0.66"/>
  <circle cx="315" cy="358" r="8.3" fill="#00F0FF" opacity="0.66"/>
  <circle cx="920" cy="213" r="4.2" fill="#00F0FF" opacity="0.64"/>
  <circle cx="514" cy="438" r="9.0" fill="#A91079" opacity="0.43"/>
  <circle cx="592" cy="276" r="8.7" fill="#A91079" opacity="0.31"/>
  <circle cx="225" cy="308" r="9.2" fill="#00F0FF" opacity="0.69"/>
  <circle cx="984" cy="284" r="10.6" fill="#A91079" opacity="0.32"/>
  <circle cx="790" cy="381" r="9.5" fill="#A91079" opacity="0.31"/>
  <circle cx="751" cy="119" r="6.8" fill="#00F0FF" opacity="0.71"/>
  <circle cx="728" cy="210" r="7.5" fill="#00F0FF" opacity="0.43"/>
  <circle cx="901" cy="125" r="8.9" fill="#00F0FF" opacity="0.53"/>
  <circle cx="524" cy="133" r="3.4" fill="#A91079" opacity="0.73"/>
  <circle cx="770" cy="322" r="10.7" fill="#00F0FF" opacity="0.59"/>
  <circle cx="502" cy="258" r="3.9" fill="#00F0FF" opacity="0.48"/>
  <circle cx="432" cy="171" r="5.5" fill="#A91079" opacity="0.71"/>
  <circle cx="914" cy="256" r="3.2" fill="#00F0FF" opacity="0.41"/>
  <circle cx="528" cy="355" r="8.8" fill="#A91079" opacity="0.48"/>
  <circle cx="695" cy="479" r="10.4" fill="#00F0FF" opacity="0.36"/>
  <circle cx="324" cy="130" r="5.3" fill="#00F0FF" opacity="0.44"/>
  <circle cx="209" cy="515" r="5.2" fill="#A91079" opacity="0.63"/>
  <circle cx="363" cy="231" r="9.2" fill="#A91079" opacity="0.74"/>
  <circle cx="223" cy="309" r="9.5" fill="#A91079" opacity="0.69"/>
  <circle cx="191" cy="377" r="10.3" fill="#00F0FF" opacity="0.74"/>
  <circle cx="178" cy="199" r="10.8" fill="#A91079" opacity="0.43"/>
  <circle cx="291" cy="480" r="10.9" fill="#A91079" opacity="0.60"/>
  <circle cx="553" cy="136" r="4.3" fill="#00F0FF" opacity="0.45"/>
  <circle cx="577" cy="491" r="3.6" fill="#A91079" opacity="0.56"/>
  <circle cx="676" cy="417" r="6.7" fill="#A91079" opacity="0.74"/>
  <circle cx="482" cy="372" r="4.1" fill="#A91079" opacity="0.45"/>
  <circle cx="1017" cy="125" r="9.5" fill="#00F0FF" opacity="0.67"/>
  <circle cx="510" cy="333" r="6.5" fill="#A91079" opacity="0.30"/>
  <circle cx="860" cy="398" r="7.5" fill="#00F0FF" opacity="0.75"/>
  <circle cx="560" cy="460" r="4.7" fill="#00F0FF" opacity="0.46"/>
  <circle cx="231" cy="190" r="8.2" fill="#A91079" opacity="0.58"/>
  <line x1="160" y1="450" x2="1040" y2="150" stroke="#00F0FF" stroke-width="2" stroke-dasharray="6 4" opacity="0.5"/>
</svg>