<svg xmlns="http://www.w3.org/2000/svg" viewBox="0 0 1200 630" fill="none">
  <rect width="1200" height="630" fill="#0d1117"/>
  <rect x="30" y="30" width="1140" height="570" rx="20" fill="#161b22" stroke="#30363d" stroke-width="1"/>
  <defs>
    <linearGradient id="lineGrad" x1="0%" y1="0%" x2="100%" y2="0%">
      <stop offset="0%" stop-color="#8B5CF6"/>
      <stop offset="100%" stop-color="#EC4899"/>
    </linearGradient>
    <linearGradient id="areaGrad" x1="0%" y1="0%" x2="0%" y2="100%">
      <stop offset="0%" stop-color="#8B5CF6" stop-opacity="0.3"/>
      <stop offset="100%" stop-color="#8B5CF6" stop-opacity="0"/>
    </linearGradient>
    <linearGradient id="barGrad" x1="0%" y1="0%" x2="0%" y2="100%">
      <stop offset="0%" stop-color="#8B5CF6"/>
      <stop offset="100%" stop-color="#EC4899"/>
    </linearGradient>
  </defs>
  
  <circle cx="1020" cy="94.5" r="97.13120800442994" fill="#8B5CF6" opacity="0.03"/>
  <circle cx="180" cy="504" r="65.08471949025989" fill="#EC4899" opacity="0.04"/>
  <path d="M140 272 L220 304 L300 293 L380 300 L460 309 L540 304 L620 283 L700 314 L780 345 L860 334 L940 328 L1020 312 L1060 530 L140 530 Z" fill="#8B5CF6" opacity="0.15"/>
  <path d="M140 272 L220 304 L300 293 L380 300 L460 309 L540 304 L620 283 L700 314 L780 345 L860 334 L940 328 L1020 312" stroke="#8B5CF6" stroke-width="2" fill="none" opacity="0.8"/>
  <path d="M140 337 L220 352 L300 331 L380 322 L460 304 L540 328 L620 333 L700 307 L780 290 L860 295 L940 290 L1020 314 L1060 530 L140 530 Z" fill="#EC4899" opacity="0.12"/>
  <path d="M140 337 L220 352 L300 331 L380 322 L460 304 L540 328 L620 333 L700 307 L780 290 L860 295 L940 290 L1020 314" stroke="#EC4899" stroke-width="2" fill="none" opacity="0.8"/>
  <path d="M140 410 L220 428 L300 430 L380 417 L460 424 L540 450 L620 470 L700 444 L780 444 L860 455 L940 458 L1020 444 L1060 530 L140 530 Z" fill="#8B949E" opacity="0.09"/>
  <path d="M140 410 L220 428 L300 430 L380 417 L460 424 L540 450 L620 470 L700 444 L780 444 L860 455 L940 458 L1020 444" stroke="#8B949E" stroke-width="2" fill="none" opacity="0.8"/>
</svg>