<svg xmlns="http://www.w3.org/2000/svg" viewBox="0 0 1200 630" fill="none">
  <rect width="1200" height="630" fill="#0d1117"/>
  <rect x="30" y="30" width="1140" height="570" rx="20" fill="#161b22" stroke="#30363d" stroke-width="1"/>
  <defs>
    <linearGradient id="lineGrad" x1="0%" y1="0%" x2="100%" y2="0%">
      <stop offset="0%" stop-color="#06B6D4"/>
      <stop offset="100%" stop-color="#F97316"/>
    </linearGradient>
    <linearGradient id="areaGrad" x1="0%" y1="0%" x2="0%" y2="100%">
      <stop offset="0%" stop-color="#06B6D4" stop-opacity="0.3"/>
      <stop offset="100%" stop-color="#06B6D4" stop-opacity="0"/>
    </linearGradient>
    <linearGradient id="barGrad" x1="0%" y1="0%" x2="0%" y2="100%">
      <stop offset="0%" stop-color="#06B6D4"/>
      <stop offset="100%" stop-color="#F97316"/>
    </linearGradient>
  </defs>
  
  <circle cx="1020" cy="94.5" r="99.8850199393928" fill="#06B6D4" opacity="0.03"/>
  <circle cx="180" cy="504" r="56.693002542015165" fill="#F97316" opacity="0.04"/>
  <circle cx="719" cy="100" r="10.3" fill="#06B6D4" opacity="0.77"/>
  <circle cx="445" cy="156" r="7.3" fill="#06B6D4" opacity="0.75"/>
  <circle cx="1024" cy="163" r="6.3" fill="#F97316" opacity="0.52"/>
  <circle cx="607" cy="325" r="8.8" fill="#06B6D4" opacity="0.34"/>
  <circle cx="906" cy="322" r="9.9" fill="#06B6D4" opacity="0.34"/>
  <circle cx="454" cy="480" r="4.6" fill="#F97316" opacity="0.43"/>
  <circle cx="450" cy="222" r="5.7" fill="#06B6D4" opacity="0.48"/>
  <circle cx="176" cy="210" r="8.7" fill="#F97316" opacity="0.80"/>
  <circle cx="656" cy="337" r="5.9" fill="#F97316" opacity="0.74"/>
  <circle cx="284" cy="326" r="10.6" fill="#F97316" opacity="0.47"/>
  <circle cx="436" cy="166" r="7.9" fill="#06B6D4" opacity="0.40"/>
  <circle cx="788" cy="233" r="5.4" fill="#F97316" opacity="0.36"/>
  <circle cx="908" cy="308" r="9.5" fill="#F97316" opacity="0.62"/>
  <circle cx="184" cy="248" r="8.3" fill="#06B6D4" opacity="0.40"/>
  <circle cx="720" cy="371" r="3.2" fill="#F97316" opacity="0.37"/>
  <circle cx="877" cy="516" r="9.4" fill="#06B6D4" opacity="0.32"/>
  <circle cx="605" cy="311" r="6.2" fill="#F97316" opacity="0.61"/>
  <circle cx="223" cy="323" r="4.5" fill="#06B6D4" opacity="0.49"/>
  <circle cx="952" cy="453" r="4.7" fill="#F97316" opacity="0.76"/>
  <circle cx="209" cy="351" r="3.1" fill="#F97316" opacity="0.68"/>
  <circle cx="441" cy="201" r="5.9" fill="#F97316" opacity="0.35"/>
  <circle cx="264" cy="397" r="7.9" fill="#06B6D4" opacity="0.47"/>
  <circle cx="628" cy="174" r="3.7" fill="#F97316" opacity="0.52"/>
  <circle cx="325" cy="398" r="7.3" fill="#F97316" opacity="0.32"/>
  <circle cx="398" cy="210" r="7.0" fill="#06B6D4" opacity="0.34"/>
  <circle cx="504" cy="266" r="10.6" fill="#F97316" opacity="0.54"/>
  <circle cx="500" cy="439" r="5.3" fill="#F97316" opacity="0.79"/>
  <circle cx="770" cy="367" r="10.0" fill="#F97316" opacity="0.62"/>
  <circle cx="538" cy="168" r="6.3" fill="#06B6D4" opacity="0.37"/>
  <circle cx="993" cy="482" r="8.3" fill="#F97316" opacity="0.60"/>
  <circle cx="953" cy="408" r="4.4" fill="#06B6D4" opacity="0.51"/>
  <circle cx="631" cy="490" r="6.0" fill="#F97316" opacity="0.64"/>
  <circle cx="685" cy="351" r="10.3" fill="#06B6D4" opacity="0.36"/>
  <circle cx="546" cy="372" r="6.8" fill="#F97316" opacity="0.35"/>
  <circle cx="999" cy="337" r="4.9" fill="#F97316" opacity="0.64"/>
  <circle cx="187" cy="487" r="3.6" fill="#06B6D4" opacity="0.42"/>
  <circle cx="964" cy="397" r="9.0" fill="#F97316" opacity="0.31"/>
  <circle cx="920" cy="474" r="5.5" fill="#F97316" opacity="0.42"/>
  <circle cx="871" cy="484" r="8.8" fill="#F97316" opacity="0.80"/>
  <circle cx="305" cy="343" r="3.1" fill="#F97316" opacity="0.41"/>
  <line x1="160" y1="450" x2="1040" y2="150" stroke="#06B6D4" stroke-width="2" stroke-dasharray="6 4" opacity="0.5"/>
</svg>