<svg xmlns="http://www.w3.org/2000/svg" viewBox="0 0 1200 630" fill="none">
  <rect width="1200" height="630" fill="transparent"/>
  <rect x="30" y="30" width="1140" height="570" rx="20" fill="rgba(128,128,128,0.06)" stroke="rgba(128,128,128,0.15)" stroke-width="1"/>
  <defs>
    <linearGradient id="lineGrad" x1="0%" y1="0%" x2="100%" y2="0%">
      <stop offset="0%" stop-color="#06B6D4"/>
      <stop offset="100%" stop-color="#F97316"/>
    </linearGradient>
    <linearGradient id="areaGrad" x1="0%" y1="0%" x2="0%" y2="100%">
      <stop offset="0%" stop-color="#06B6D4" stop-opacity="0.3"/>
      <stop offset="100%" stop-color="#06B6D4" stop-opacity="0"/>
    </linearGradient>
    <linearGradient id="barGrad" x1="0%" y1="0%" x2="0%" y2="100%">
      <stop offset="0%" stop-color="#06B6D4"/>
      <stop offset="100%" stop-color="#F97316"/>
    </linearGradient>
  </defs>
  
  <circle cx="1020" cy="94.5" r="92.33176434412599" fill="#06B6D4" opacity="0.03"/>
  <circle cx="180" cy="504" r="69.61571891559288" fill="#F97316" opacity="0.04"/>
  <rect x="160" y="290.61343838460743" width="60" height="229.38656161539257" rx="4" fill="url(#barGrad)" opacity="0.65"/>
  <rect x="250" y="216.957122143358" width="60" height="303.042877856642" rx="4" fill="url(#barGrad)" opacity="0.62"/>
  <rect x="340" y="327.4668681528419" width="60" height="192.53313184715807" rx="4" fill="url(#barGrad)" opacity="0.98"/>
  <rect x="430" y="280.00645130872726" width="60" height="239.99354869127274" rx="4" fill="url(#barGrad)" opacity="0.64"/>
  <rect x="520" y="390.86767175234854" width="60" height="129.13232824765146" rx="4" fill="url(#barGrad)" opacity="0.95"/>
  <rect x="610" y="235.02918208017945" width="60" height="284.97081791982055" rx="4" fill="url(#barGrad)" opacity="0.90"/>
  <rect x="700" y="285.79672324471176" width="60" height="234.20327675528824" rx="4" fill="url(#barGrad)" opacity="0.71"/>
  <rect x="790" y="220.83892930299044" width="60" height="299.16107069700956" rx="4" fill="url(#barGrad)" opacity="0.67"/>
</svg>