<svg xmlns="http://www.w3.org/2000/svg" viewBox="0 0 1200 630" fill="none">
  <rect width="1200" height="630" fill="transparent"/>
  <rect x="30" y="30" width="1140" height="570" rx="20" fill="rgba(128,128,128,0.06)" stroke="rgba(128,128,128,0.15)" stroke-width="1"/>
  <defs>
    <linearGradient id="lineGrad" x1="0%" y1="0%" x2="100%" y2="0%">
      <stop offset="0%" stop-color="#00F0FF"/>
      <stop offset="100%" stop-color="#A91079"/>
    </linearGradient>
    <linearGradient id="areaGrad" x1="0%" y1="0%" x2="0%" y2="100%">
      <stop offset="0%" stop-color="#00F0FF" stop-opacity="0.3"/>
      <stop offset="100%" stop-color="#00F0FF" stop-opacity="0"/>
    </linearGradient>
    <linearGradient id="barGrad" x1="0%" y1="0%" x2="0%" y2="100%">
      <stop offset="0%" stop-color="#00F0FF"/>
      <stop offset="100%" stop-color="#A91079"/>
    </linearGradient>
  </defs>
  
  <circle cx="1020" cy="94.5" r="62.33687210828066" fill="#00F0FF" opacity="0.03"/>
  <circle cx="180" cy="504" r="63.61656608292833" fill="#A91079" opacity="0.04"/>
  <circle cx="225" cy="340" r="5.2" fill="#A91079" opacity="0.78"/>
  <circle cx="623" cy="361" r="8.6" fill="#00F0FF" opacity="0.51"/>
  <circle cx="1021" cy="426" r="5.7" fill="#A91079" opacity="0.46"/>
  <circle cx="883" cy="288" r="8.6" fill="#A91079" opacity="0.37"/>
  <circle cx="533" cy="375" r="6.3" fill="#A91079" opacity="0.37"/>
  <circle cx="490" cy="124" r="5.1" fill="#00F0FF" opacity="0.69"/>
  <circle cx="360" cy="398" r="7.3" fill="#00F0FF" opacity="0.78"/>
  <circle cx="632" cy="361" r="8.4" fill="#00F0FF" opacity="0.79"/>
  <circle cx="1022" cy="168" r="3.2" fill="#00F0FF" opacity="0.54"/>
  <circle cx="366" cy="470" r="10.3" fill="#A91079" opacity="0.37"/>
  <circle cx="332" cy="110" r="9.7" fill="#00F0FF" opacity="0.47"/>
  <circle cx="485" cy="465" r="5.2" fill="#00F0FF" opacity="0.35"/>
  <circle cx="819" cy="299" r="10.1" fill="#00F0FF" opacity="0.51"/>
  <circle cx="784" cy="205" r="6.0" fill="#A91079" opacity="0.58"/>
  <circle cx="470" cy="406" r="7.5" fill="#A91079" opacity="0.72"/>
  <circle cx="503" cy="469" r="3.3" fill="#00F0FF" opacity="0.40"/>
  <circle cx="187" cy="124" r="8.6" fill="#A91079" opacity="0.33"/>
  <circle cx="163" cy="133" r="3.1" fill="#A91079" opacity="0.61"/>
  <circle cx="859" cy="348" r="4.0" fill="#A91079" opacity="0.53"/>
  <circle cx="874" cy="363" r="6.7" fill="#A91079" opacity="0.36"/>
  <circle cx="293" cy="352" r="5.1" fill="#A91079" opacity="0.54"/>
  <circle cx="304" cy="298" r="3.5" fill="#A91079" opacity="0.36"/>
  <circle cx="806" cy="479" r="7.7" fill="#A91079" opacity="0.50"/>
  <circle cx="270" cy="125" r="6.4" fill="#00F0FF" opacity="0.46"/>
  <circle cx="411" cy="435" r="3.7" fill="#A91079" opacity="0.79"/>
  <circle cx="844" cy="280" r="5.5" fill="#00F0FF" opacity="0.52"/>
  <circle cx="604" cy="234" r="6.7" fill="#00F0FF" opacity="0.70"/>
  <circle cx="324" cy="384" r="8.7" fill="#A91079" opacity="0.60"/>
  <circle cx="172" cy="167" r="7.3" fill="#A91079" opacity="0.37"/>
  <circle cx="762" cy="260" r="10.2" fill="#00F0FF" opacity="0.38"/>
  <circle cx="887" cy="402" r="5.9" fill="#A91079" opacity="0.49"/>
  <circle cx="560" cy="367" r="5.0" fill="#00F0FF" opacity="0.41"/>
  <circle cx="596" cy="270" r="4.6" fill="#00F0FF" opacity="0.70"/>
  <circle cx="642" cy="233" r="4.4" fill="#A91079" opacity="0.73"/>
  <circle cx="480" cy="216" r="10.1" fill="#A91079" opacity="0.46"/>
  <circle cx="905" cy="234" r="5.9" fill="#A91079" opacity="0.52"/>
  <circle cx="523" cy="211" r="3.6" fill="#00F0FF" opacity="0.50"/>
  <circle cx="471" cy="306" r="9.9" fill="#00F0FF" opacity="0.77"/>
  <circle cx="895" cy="186" r="9.9" fill="#00F0FF" opacity="0.76"/>
  <circle cx="954" cy="297" r="3.8" fill="#A91079" opacity="0.39"/>
  <line x1="160" y1="450" x2="1040" y2="150" stroke="#00F0FF" stroke-width="2" stroke-dasharray="6 4" opacity="0.5"/>
</svg>