<svg xmlns="http://www.w3.org/2000/svg" viewBox="0 0 1200 630" fill="none">
  <rect width="1200" height="630" fill="#0d1117"/>
  <rect x="30" y="30" width="1140" height="570" rx="20" fill="#161b22" stroke="#30363d" stroke-width="1"/>
  <defs>
    <linearGradient id="lineGrad" x1="0%" y1="0%" x2="100%" y2="0%">
      <stop offset="0%" stop-color="#00F0FF"/>
      <stop offset="100%" stop-color="#A91079"/>
    </linearGradient>
    <linearGradient id="areaGrad" x1="0%" y1="0%" x2="0%" y2="100%">
      <stop offset="0%" stop-color="#00F0FF" stop-opacity="0.3"/>
      <stop offset="100%" stop-color="#00F0FF" stop-opacity="0"/>
    </linearGradient>
    <linearGradient id="barGrad" x1="0%" y1="0%" x2="0%" y2="100%">
      <stop offset="0%" stop-color="#00F0FF"/>
      <stop offset="100%" stop-color="#A91079"/>
    </linearGradient>
  </defs>
  
  <circle cx="1020" cy="94.5" r="60.35717561841011" fill="#00F0FF" opacity="0.03"/>
  <circle cx="180" cy="504" r="52.89171475218609" fill="#A91079" opacity="0.04"/>
  <circle cx="581" cy="240" r="7.0" fill="#00F0FF" opacity="0.30"/>
  <circle cx="702" cy="313" r="11.0" fill="#00F0FF" opacity="0.37"/>
  <circle cx="594" cy="442" r="6.6" fill="#A91079" opacity="0.41"/>
  <circle cx="846" cy="352" r="7.1" fill="#00F0FF" opacity="0.57"/>
  <circle cx="193" cy="322" r="3.1" fill="#A91079" opacity="0.34"/>
  <circle cx="892" cy="254" r="8.5" fill="#00F0FF" opacity="0.50"/>
  <circle cx="200" cy="232" r="7.4" fill="#A91079" opacity="0.31"/>
  <circle cx="222" cy="320" r="8.3" fill="#00F0FF" opacity="0.74"/>
  <circle cx="649" cy="229" r="8.3" fill="#00F0FF" opacity="0.61"/>
  <circle cx="454" cy="227" r="4.3" fill="#00F0FF" opacity="0.58"/>
  <circle cx="982" cy="423" r="3.1" fill="#A91079" opacity="0.58"/>
  <circle cx="341" cy="154" r="8.7" fill="#00F0FF" opacity="0.55"/>
  <circle cx="340" cy="400" r="4.6" fill="#A91079" opacity="0.37"/>
  <circle cx="790" cy="316" r="9.7" fill="#A91079" opacity="0.52"/>
  <circle cx="543" cy="469" r="5.8" fill="#A91079" opacity="0.66"/>
  <circle cx="1033" cy="155" r="4.5" fill="#00F0FF" opacity="0.58"/>
  <circle cx="1000" cy="124" r="3.7" fill="#A91079" opacity="0.57"/>
  <circle cx="751" cy="344" r="10.8" fill="#A91079" opacity="0.33"/>
  <circle cx="897" cy="138" r="10.5" fill="#A91079" opacity="0.77"/>
  <circle cx="750" cy="340" r="8.4" fill="#A91079" opacity="0.41"/>
  <circle cx="1025" cy="275" r="3.5" fill="#A91079" opacity="0.62"/>
  <circle cx="802" cy="373" r="8.5" fill="#A91079" opacity="0.71"/>
  <circle cx="948" cy="228" r="3.6" fill="#00F0FF" opacity="0.62"/>
  <circle cx="1007" cy="460" r="6.4" fill="#00F0FF" opacity="0.67"/>
  <circle cx="530" cy="452" r="8.6" fill="#A91079" opacity="0.62"/>
  <circle cx="360" cy="223" r="10.5" fill="#A91079" opacity="0.61"/>
  <circle cx="949" cy="127" r="10.1" fill="#00F0FF" opacity="0.65"/>
  <circle cx="367" cy="497" r="5.7" fill="#A91079" opacity="0.72"/>
  <circle cx="866" cy="261" r="10.2" fill="#A91079" opacity="0.37"/>
  <circle cx="909" cy="228" r="4.0" fill="#00F0FF" opacity="0.69"/>
  <circle cx="912" cy="489" r="5.1" fill="#00F0FF" opacity="0.54"/>
  <circle cx="824" cy="122" r="5.0" fill="#A91079" opacity="0.34"/>
  <circle cx="938" cy="209" r="8.6" fill="#A91079" opacity="0.56"/>
  <circle cx="452" cy="490" r="10.5" fill="#00F0FF" opacity="0.32"/>
  <circle cx="686" cy="516" r="3.0" fill="#A91079" opacity="0.49"/>
  <circle cx="353" cy="322" r="3.2" fill="#A91079" opacity="0.78"/>
  <circle cx="776" cy="401" r="8.8" fill="#A91079" opacity="0.31"/>
  <circle cx="259" cy="224" r="6.1" fill="#A91079" opacity="0.49"/>
  <circle cx="844" cy="417" r="3.5" fill="#00F0FF" opacity="0.43"/>
  <circle cx="178" cy="440" r="9.2" fill="#A91079" opacity="0.53"/>
  <line x1="160" y1="450" x2="1040" y2="150" stroke="#00F0FF" stroke-width="2" stroke-dasharray="6 4" opacity="0.5"/>
</svg>