<svg xmlns="http://www.w3.org/2000/svg" viewBox="0 0 1200 630" fill="none">
  <rect width="1200" height="630" fill="transparent"/>
  <rect x="30" y="30" width="1140" height="570" rx="20" fill="rgba(128,128,128,0.06)" stroke="rgba(128,128,128,0.15)" stroke-width="1"/>
  <defs>
    <linearGradient id="lineGrad" x1="0%" y1="0%" x2="100%" y2="0%">
      <stop offset="0%" stop-color="#14B8A6"/>
      <stop offset="100%" stop-color="#E11D48"/>
    </linearGradient>
    <linearGradient id="areaGrad" x1="0%" y1="0%" x2="0%" y2="100%">
      <stop offset="0%" stop-color="#14B8A6" stop-opacity="0.3"/>
      <stop offset="100%" stop-color="#14B8A6" stop-opacity="0"/>
    </linearGradient>
    <linearGradient id="barGrad" x1="0%" y1="0%" x2="0%" y2="100%">
      <stop offset="0%" stop-color="#14B8A6"/>
      <stop offset="100%" stop-color="#E11D48"/>
    </linearGradient>
  </defs>
  
  <circle cx="1020" cy="94.5" r="90.99769359454513" fill="#14B8A6" opacity="0.03"/>
  <circle cx="180" cy="504" r="44.02988435467705" fill="#E11D48" opacity="0.04"/>
  <circle cx="865" cy="140" r="4.2" fill="#14B8A6" opacity="0.59"/>
  <circle cx="215" cy="424" r="8.4" fill="#E11D48" opacity="0.39"/>
  <circle cx="554" cy="243" r="7.5" fill="#14B8A6" opacity="0.35"/>
  <circle cx="1018" cy="503" r="6.7" fill="#14B8A6" opacity="0.49"/>
  <circle cx="598" cy="339" r="10.3" fill="#14B8A6" opacity="0.49"/>
  <circle cx="593" cy="179" r="4.3" fill="#14B8A6" opacity="0.46"/>
  <circle cx="411" cy="290" r="4.0" fill="#14B8A6" opacity="0.54"/>
  <circle cx="636" cy="294" r="4.8" fill="#14B8A6" opacity="0.70"/>
  <circle cx="520" cy="190" r="4.1" fill="#14B8A6" opacity="0.61"/>
  <circle cx="938" cy="347" r="5.0" fill="#14B8A6" opacity="0.60"/>
  <circle cx="452" cy="374" r="7.4" fill="#E11D48" opacity="0.44"/>
  <circle cx="619" cy="342" r="5.5" fill="#E11D48" opacity="0.43"/>
  <circle cx="593" cy="152" r="9.2" fill="#E11D48" opacity="0.73"/>
  <circle cx="306" cy="307" r="10.3" fill="#E11D48" opacity="0.75"/>
  <circle cx="943" cy="466" r="8.0" fill="#14B8A6" opacity="0.67"/>
  <circle cx="987" cy="332" r="6.0" fill="#14B8A6" opacity="0.75"/>
  <circle cx="495" cy="246" r="9.9" fill="#E11D48" opacity="0.55"/>
  <circle cx="809" cy="208" r="4.7" fill="#14B8A6" opacity="0.76"/>
  <circle cx="402" cy="134" r="9.2" fill="#E11D48" opacity="0.71"/>
  <circle cx="793" cy="265" r="10.8" fill="#14B8A6" opacity="0.53"/>
  <circle cx="170" cy="295" r="6.2" fill="#E11D48" opacity="0.33"/>
  <circle cx="597" cy="268" r="3.7" fill="#14B8A6" opacity="0.36"/>
  <circle cx="162" cy="493" r="9.1" fill="#E11D48" opacity="0.33"/>
  <circle cx="226" cy="349" r="5.9" fill="#E11D48" opacity="0.56"/>
  <circle cx="259" cy="393" r="9.3" fill="#14B8A6" opacity="0.48"/>
  <circle cx="855" cy="277" r="4.9" fill="#14B8A6" opacity="0.49"/>
  <circle cx="877" cy="373" r="8.5" fill="#14B8A6" opacity="0.73"/>
  <circle cx="724" cy="106" r="11.0" fill="#14B8A6" opacity="0.48"/>
  <circle cx="861" cy="101" r="7.2" fill="#14B8A6" opacity="0.77"/>
  <circle cx="1033" cy="215" r="8.5" fill="#E11D48" opacity="0.37"/>
  <circle cx="969" cy="175" r="7.5" fill="#14B8A6" opacity="0.64"/>
  <circle cx="747" cy="195" r="10.9" fill="#E11D48" opacity="0.75"/>
  <circle cx="852" cy="460" r="5.8" fill="#14B8A6" opacity="0.58"/>
  <circle cx="737" cy="459" r="5.4" fill="#E11D48" opacity="0.45"/>
  <circle cx="228" cy="110" r="8.1" fill="#14B8A6" opacity="0.44"/>
  <circle cx="927" cy="415" r="5.8" fill="#14B8A6" opacity="0.55"/>
  <circle cx="194" cy="390" r="5.2" fill="#14B8A6" opacity="0.74"/>
  <circle cx="561" cy="166" r="6.4" fill="#14B8A6" opacity="0.37"/>
  <circle cx="558" cy="214" r="10.2" fill="#E11D48" opacity="0.80"/>
  <circle cx="836" cy="115" r="10.7" fill="#E11D48" opacity="0.71"/>
  <line x1="160" y1="450" x2="1040" y2="150" stroke="#14B8A6" stroke-width="2" stroke-dasharray="6 4" opacity="0.5"/>
</svg>