<svg xmlns="http://www.w3.org/2000/svg" viewBox="0 0 1200 630" fill="none">
  <rect width="1200" height="630" fill="#0d1117"/>
  <rect x="30" y="30" width="1140" height="570" rx="20" fill="#161b22" stroke="#30363d" stroke-width="1"/>
  <defs>
    <linearGradient id="lineGrad" x1="0%" y1="0%" x2="100%" y2="0%">
      <stop offset="0%" stop-color="#06B6D4"/>
      <stop offset="100%" stop-color="#F97316"/>
    </linearGradient>
    <linearGradient id="areaGrad" x1="0%" y1="0%" x2="0%" y2="100%">
      <stop offset="0%" stop-color="#06B6D4" stop-opacity="0.3"/>
      <stop offset="100%" stop-color="#06B6D4" stop-opacity="0"/>
    </linearGradient>
    <linearGradient id="barGrad" x1="0%" y1="0%" x2="0%" y2="100%">
      <stop offset="0%" stop-color="#06B6D4"/>
      <stop offset="100%" stop-color="#F97316"/>
    </linearGradient>
  </defs>
  
  <circle cx="1020" cy="94.5" r="63.78652966581285" fill="#06B6D4" opacity="0.03"/>
  <circle cx="180" cy="504" r="57.05102953594178" fill="#F97316" opacity="0.04"/>
  <path d="M140 308 L220 340 L300 346 L380 372 L460 346 L540 335 L620 349 L700 339 L780 335 L860 326 L940 359 L1020 359 L1060 530 L140 530 Z" fill="#06B6D4" opacity="0.15"/>
  <path d="M140 308 L220 340 L300 346 L380 372 L460 346 L540 335 L620 349 L700 339 L780 335 L860 326 L940 359 L1020 359" stroke="#06B6D4" stroke-width="2" fill="none" opacity="0.8"/>
  <path d="M140 345 L220 351 L300 338 L380 348 L460 359 L540 389 L620 413 L700 400 L780 433 L860 457 L940 480 L1020 500 L1060 530 L140 530 Z" fill="#F97316" opacity="0.12"/>
  <path d="M140 345 L220 351 L300 338 L380 348 L460 359 L540 389 L620 413 L700 400 L780 433 L860 457 L940 480 L1020 500" stroke="#F97316" stroke-width="2" fill="none" opacity="0.8"/>
  <path d="M140 389 L220 405 L300 400 L380 422 L460 425 L540 433 L620 415 L700 400 L780 408 L860 417 L940 408 L1020 412 L1060 530 L140 530 Z" fill="#8B949E" opacity="0.09"/>
  <path d="M140 389 L220 405 L300 400 L380 422 L460 425 L540 433 L620 415 L700 400 L780 408 L860 417 L940 408 L1020 412" stroke="#8B949E" stroke-width="2" fill="none" opacity="0.8"/>
</svg>