<svg xmlns="http://www.w3.org/2000/svg" viewBox="0 0 1200 630" fill="none">
  <rect width="1200" height="630" fill="transparent"/>
  <rect x="30" y="30" width="1140" height="570" rx="20" fill="rgba(128,128,128,0.06)" stroke="rgba(128,128,128,0.15)" stroke-width="1"/>
  <defs>
    <linearGradient id="lineGrad" x1="0%" y1="0%" x2="100%" y2="0%">
      <stop offset="0%" stop-color="#06B6D4"/>
      <stop offset="100%" stop-color="#F97316"/>
    </linearGradient>
    <linearGradient id="areaGrad" x1="0%" y1="0%" x2="0%" y2="100%">
      <stop offset="0%" stop-color="#06B6D4" stop-opacity="0.3"/>
      <stop offset="100%" stop-color="#06B6D4" stop-opacity="0"/>
    </linearGradient>
    <linearGradient id="barGrad" x1="0%" y1="0%" x2="0%" y2="100%">
      <stop offset="0%" stop-color="#06B6D4"/>
      <stop offset="100%" stop-color="#F97316"/>
    </linearGradient>
  </defs>
  
  <circle cx="1020" cy="94.5" r="80.23589724674821" fill="#06B6D4" opacity="0.03"/>
  <circle cx="180" cy="504" r="44.730521857272834" fill="#F97316" opacity="0.04"/>
  <circle cx="232" cy="172" r="6.5" fill="#06B6D4" opacity="0.45"/>
  <circle cx="555" cy="504" r="4.5" fill="#06B6D4" opacity="0.63"/>
  <circle cx="279" cy="356" r="7.6" fill="#06B6D4" opacity="0.65"/>
  <circle cx="573" cy="455" r="10.5" fill="#06B6D4" opacity="0.45"/>
  <circle cx="850" cy="470" r="3.5" fill="#06B6D4" opacity="0.73"/>
  <circle cx="633" cy="210" r="8.5" fill="#F97316" opacity="0.71"/>
  <circle cx="412" cy="175" r="3.7" fill="#F97316" opacity="0.46"/>
  <circle cx="786" cy="449" r="6.7" fill="#06B6D4" opacity="0.53"/>
  <circle cx="578" cy="299" r="8.3" fill="#06B6D4" opacity="0.60"/>
  <circle cx="375" cy="305" r="10.1" fill="#F97316" opacity="0.41"/>
  <circle cx="692" cy="465" r="7.2" fill="#F97316" opacity="0.33"/>
  <circle cx="531" cy="288" r="9.9" fill="#F97316" opacity="0.52"/>
  <circle cx="662" cy="183" r="9.0" fill="#F97316" opacity="0.42"/>
  <circle cx="734" cy="162" r="5.8" fill="#F97316" opacity="0.35"/>
  <circle cx="988" cy="134" r="7.5" fill="#06B6D4" opacity="0.74"/>
  <circle cx="634" cy="445" r="8.8" fill="#F97316" opacity="0.44"/>
  <circle cx="526" cy="220" r="7.7" fill="#F97316" opacity="0.42"/>
  <circle cx="711" cy="301" r="5.7" fill="#F97316" opacity="0.55"/>
  <circle cx="427" cy="373" r="8.7" fill="#F97316" opacity="0.40"/>
  <circle cx="397" cy="183" r="10.8" fill="#06B6D4" opacity="0.49"/>
  <circle cx="989" cy="246" r="5.5" fill="#06B6D4" opacity="0.47"/>
  <circle cx="259" cy="436" r="6.8" fill="#F97316" opacity="0.38"/>
  <circle cx="343" cy="111" r="6.9" fill="#F97316" opacity="0.44"/>
  <circle cx="251" cy="209" r="10.8" fill="#F97316" opacity="0.73"/>
  <circle cx="161" cy="128" r="5.8" fill="#06B6D4" opacity="0.33"/>
  <circle cx="491" cy="333" r="9.6" fill="#06B6D4" opacity="0.54"/>
  <circle cx="435" cy="348" r="8.2" fill="#06B6D4" opacity="0.68"/>
  <circle cx="772" cy="286" r="8.8" fill="#06B6D4" opacity="0.64"/>
  <circle cx="944" cy="476" r="7.0" fill="#F97316" opacity="0.72"/>
  <circle cx="273" cy="287" r="9.4" fill="#F97316" opacity="0.47"/>
  <circle cx="1011" cy="269" r="9.1" fill="#F97316" opacity="0.32"/>
  <circle cx="360" cy="412" r="5.9" fill="#06B6D4" opacity="0.57"/>
  <circle cx="901" cy="392" r="8.7" fill="#06B6D4" opacity="0.75"/>
  <circle cx="820" cy="226" r="3.2" fill="#06B6D4" opacity="0.57"/>
  <circle cx="664" cy="512" r="7.0" fill="#F97316" opacity="0.31"/>
  <circle cx="200" cy="432" r="7.3" fill="#06B6D4" opacity="0.60"/>
  <circle cx="580" cy="328" r="7.8" fill="#06B6D4" opacity="0.71"/>
  <circle cx="212" cy="336" r="9.4" fill="#06B6D4" opacity="0.45"/>
  <circle cx="949" cy="497" r="7.7" fill="#06B6D4" opacity="0.37"/>
  <circle cx="755" cy="200" r="3.5" fill="#F97316" opacity="0.49"/>
  <line x1="160" y1="450" x2="1040" y2="150" stroke="#06B6D4" stroke-width="2" stroke-dasharray="6 4" opacity="0.5"/>
</svg>