<svg xmlns="http://www.w3.org/2000/svg" viewBox="0 0 1200 630" fill="none">
  <rect width="1200" height="630" fill="transparent"/>
  <rect x="30" y="30" width="1140" height="570" rx="20" fill="rgba(128,128,128,0.06)" stroke="rgba(128,128,128,0.15)" stroke-width="1"/>
  <defs>
    <linearGradient id="lineGrad" x1="0%" y1="0%" x2="100%" y2="0%">
      <stop offset="0%" stop-color="#8B5CF6"/>
      <stop offset="100%" stop-color="#EC4899"/>
    </linearGradient>
    <linearGradient id="areaGrad" x1="0%" y1="0%" x2="0%" y2="100%">
      <stop offset="0%" stop-color="#8B5CF6" stop-opacity="0.3"/>
      <stop offset="100%" stop-color="#8B5CF6" stop-opacity="0"/>
    </linearGradient>
    <linearGradient id="barGrad" x1="0%" y1="0%" x2="0%" y2="100%">
      <stop offset="0%" stop-color="#8B5CF6"/>
      <stop offset="100%" stop-color="#EC4899"/>
    </linearGradient>
  </defs>
  
  <circle cx="1020" cy="94.5" r="66.84437043964863" fill="#8B5CF6" opacity="0.03"/>
  <circle cx="180" cy="504" r="66.36158128501847" fill="#EC4899" opacity="0.04"/>
  <rect x="160" y="336.03016283363104" width="60" height="183.96983716636896" rx="4" fill="url(#barGrad)" opacity="0.69"/>
  <rect x="250" y="162.6295352447778" width="60" height="357.3704647552222" rx="4" fill="url(#barGrad)" opacity="0.66"/>
  <rect x="340" y="326.02511724457145" width="60" height="193.97488275542855" rx="4" fill="url(#barGrad)" opacity="0.75"/>
  <rect x="430" y="203.98803903721273" width="60" height="316.01196096278727" rx="4" fill="url(#barGrad)" opacity="0.97"/>
  <rect x="520" y="247.685374468565" width="60" height="272.314625531435" rx="4" fill="url(#barGrad)" opacity="0.96"/>
  <rect x="610" y="320.96332126297057" width="60" height="199.03667873702943" rx="4" fill="url(#barGrad)" opacity="0.73"/>
  <rect x="700" y="336.6655985452235" width="60" height="183.33440145477653" rx="4" fill="url(#barGrad)" opacity="0.82"/>
  <rect x="790" y="165.34106555394828" width="60" height="354.6589344460517" rx="4" fill="url(#barGrad)" opacity="0.78"/>
</svg>