<svg xmlns="http://www.w3.org/2000/svg" viewBox="0 0 1200 630" fill="none">
  <rect width="1200" height="630" fill="#0d1117"/>
  <rect x="30" y="30" width="1140" height="570" rx="20" fill="#161b22" stroke="#30363d" stroke-width="1"/>
  <defs>
    <linearGradient id="lineGrad" x1="0%" y1="0%" x2="100%" y2="0%">
      <stop offset="0%" stop-color="#10B981"/>
      <stop offset="100%" stop-color="#F59E0B"/>
    </linearGradient>
    <linearGradient id="areaGrad" x1="0%" y1="0%" x2="0%" y2="100%">
      <stop offset="0%" stop-color="#10B981" stop-opacity="0.3"/>
      <stop offset="100%" stop-color="#10B981" stop-opacity="0"/>
    </linearGradient>
    <linearGradient id="barGrad" x1="0%" y1="0%" x2="0%" y2="100%">
      <stop offset="0%" stop-color="#10B981"/>
      <stop offset="100%" stop-color="#F59E0B"/>
    </linearGradient>
  </defs>
  
  <circle cx="1020" cy="94.5" r="88.15838424488902" fill="#10B981" opacity="0.03"/>
  <circle cx="180" cy="504" r="57.983457108493894" fill="#F59E0B" opacity="0.04"/>
  <circle cx="690" cy="501" r="3.7" fill="#F59E0B" opacity="0.79"/>
  <circle cx="1019" cy="279" r="4.3" fill="#10B981" opacity="0.64"/>
  <circle cx="591" cy="505" r="4.7" fill="#10B981" opacity="0.61"/>
  <circle cx="293" cy="128" r="5.0" fill="#F59E0B" opacity="0.38"/>
  <circle cx="828" cy="266" r="9.1" fill="#10B981" opacity="0.37"/>
  <circle cx="754" cy="304" r="10.8" fill="#F59E0B" opacity="0.53"/>
  <circle cx="507" cy="281" r="3.5" fill="#10B981" opacity="0.38"/>
  <circle cx="288" cy="256" r="8.1" fill="#10B981" opacity="0.45"/>
  <circle cx="290" cy="283" r="6.4" fill="#10B981" opacity="0.53"/>
  <circle cx="876" cy="513" r="4.4" fill="#F59E0B" opacity="0.52"/>
  <circle cx="359" cy="258" r="9.5" fill="#10B981" opacity="0.43"/>
  <circle cx="562" cy="480" r="8.6" fill="#10B981" opacity="0.31"/>
  <circle cx="564" cy="118" r="9.1" fill="#10B981" opacity="0.76"/>
  <circle cx="335" cy="405" r="9.9" fill="#F59E0B" opacity="0.75"/>
  <circle cx="632" cy="388" r="5.4" fill="#10B981" opacity="0.77"/>
  <circle cx="711" cy="230" r="9.3" fill="#10B981" opacity="0.61"/>
  <circle cx="640" cy="307" r="9.9" fill="#10B981" opacity="0.52"/>
  <circle cx="905" cy="428" r="6.0" fill="#10B981" opacity="0.54"/>
  <circle cx="571" cy="268" r="9.0" fill="#10B981" opacity="0.45"/>
  <circle cx="888" cy="437" r="9.9" fill="#F59E0B" opacity="0.54"/>
  <circle cx="445" cy="341" r="5.8" fill="#F59E0B" opacity="0.34"/>
  <circle cx="1028" cy="304" r="9.9" fill="#F59E0B" opacity="0.32"/>
  <circle cx="673" cy="373" r="5.6" fill="#10B981" opacity="0.52"/>
  <circle cx="734" cy="127" r="5.7" fill="#10B981" opacity="0.52"/>
  <circle cx="283" cy="119" r="6.6" fill="#F59E0B" opacity="0.47"/>
  <circle cx="342" cy="428" r="9.7" fill="#F59E0B" opacity="0.69"/>
  <circle cx="929" cy="230" r="4.9" fill="#F59E0B" opacity="0.64"/>
  <circle cx="691" cy="464" r="5.1" fill="#F59E0B" opacity="0.33"/>
  <circle cx="447" cy="230" r="10.4" fill="#F59E0B" opacity="0.43"/>
  <circle cx="988" cy="323" r="9.8" fill="#10B981" opacity="0.41"/>
  <circle cx="884" cy="484" r="10.5" fill="#10B981" opacity="0.34"/>
  <circle cx="274" cy="207" r="8.9" fill="#F59E0B" opacity="0.79"/>
  <circle cx="1030" cy="298" r="3.6" fill="#10B981" opacity="0.68"/>
  <circle cx="824" cy="402" r="4.2" fill="#10B981" opacity="0.52"/>
  <circle cx="747" cy="388" r="3.8" fill="#10B981" opacity="0.72"/>
  <circle cx="402" cy="191" r="9.4" fill="#F59E0B" opacity="0.62"/>
  <circle cx="411" cy="215" r="5.3" fill="#10B981" opacity="0.58"/>
  <circle cx="276" cy="373" r="10.4" fill="#10B981" opacity="0.72"/>
  <circle cx="384" cy="405" r="7.1" fill="#F59E0B" opacity="0.30"/>
  <circle cx="408" cy="188" r="5.5" fill="#F59E0B" opacity="0.78"/>
  <line x1="160" y1="450" x2="1040" y2="150" stroke="#10B981" stroke-width="2" stroke-dasharray="6 4" opacity="0.5"/>
</svg>