<svg xmlns="http://www.w3.org/2000/svg" viewBox="0 0 1200 630" fill="none">
  <rect width="1200" height="630" fill="transparent"/>
  <rect x="30" y="30" width="1140" height="570" rx="20" fill="rgba(128,128,128,0.06)" stroke="rgba(128,128,128,0.15)" stroke-width="1"/>
  <defs>
    <linearGradient id="lineGrad" x1="0%" y1="0%" x2="100%" y2="0%">
      <stop offset="0%" stop-color="#06B6D4"/>
      <stop offset="100%" stop-color="#F97316"/>
    </linearGradient>
    <linearGradient id="areaGrad" x1="0%" y1="0%" x2="0%" y2="100%">
      <stop offset="0%" stop-color="#06B6D4" stop-opacity="0.3"/>
      <stop offset="100%" stop-color="#06B6D4" stop-opacity="0"/>
    </linearGradient>
    <linearGradient id="barGrad" x1="0%" y1="0%" x2="0%" y2="100%">
      <stop offset="0%" stop-color="#06B6D4"/>
      <stop offset="100%" stop-color="#F97316"/>
    </linearGradient>
  </defs>
  
  <circle cx="1020" cy="94.5" r="78.5092790145427" fill="#06B6D4" opacity="0.03"/>
  <circle cx="180" cy="504" r="45.32080044969916" fill="#F97316" opacity="0.04"/>
  <line x1="182" y1="346.0776322358288" x2="182" y2="443.67549845250323" stroke="#F97316" stroke-width="1.5"/>
  <rect x="170" y="367.0201256056316" width="24" height="43.43628287315369" rx="2" fill="#F97316" opacity="0.85"/>
  <line x1="256" y1="267.35233172075823" x2="256" y2="332.72517075994983" stroke="#06B6D4" stroke-width="1.5"/>
  <rect x="244" y="276.3137041241862" width="24" height="18.56893179938197" rx="2" fill="#06B6D4" opacity="0.85"/>
  <line x1="330" y1="269.3603633553721" x2="330" y2="312.0303668756969" stroke="#F97316" stroke-width="1.5"/>
  <rect x="318" y="292.13279449613765" width="24" height="9.510270692408085" rx="2" fill="#F97316" opacity="0.85"/>
  <line x1="404" y1="256.13195843296126" x2="404" y2="332.29360735276714" stroke="#F97316" stroke-width="1.5"/>
  <rect x="392" y="279.89702658960596" width="24" height="12.880422826856375" rx="2" fill="#F97316" opacity="0.85"/>
  <line x1="478" y1="139.2524664499797" x2="478" y2="214.81674400391057" stroke="#06B6D4" stroke-width="1.5"/>
  <rect x="466" y="166.75366434501484" width="24" height="47.19412736594677" rx="2" fill="#06B6D4" opacity="0.85"/>
  <line x1="552" y1="192.57209222065285" x2="552" y2="222.5553829432465" stroke="#06B6D4" stroke-width="1.5"/>
  <rect x="540" y="213.02806554595008" width="24" height="3" rx="2" fill="#06B6D4" opacity="0.85"/>
  <line x1="626" y1="284.9864806444384" x2="626" y2="392.5165224750526" stroke="#06B6D4" stroke-width="1.5"/>
  <rect x="614" y="311.78405174287036" width="24" height="44.25713438540697" rx="2" fill="#06B6D4" opacity="0.85"/>
  <line x1="700" y1="440.88980491505936" x2="700" y2="485.5227500409819" stroke="#F97316" stroke-width="1.5"/>
  <rect x="688" y="441.72084411839023" width="24" height="28.8292626850307" rx="2" fill="#F97316" opacity="0.85"/>
  <line x1="774" y1="346.9420436047949" x2="774" y2="410.3263127920218" stroke="#F97316" stroke-width="1.5"/>
  <rect x="762" y="377.67325072782114" width="24" height="3" rx="2" fill="#F97316" opacity="0.85"/>
  <line x1="848" y1="323.02229126216844" x2="848" y2="369.826217147056" stroke="#F97316" stroke-width="1.5"/>
  <rect x="836" y="352.21194975310937" width="24" height="11.87191503122449" rx="2" fill="#F97316" opacity="0.85"/>
</svg>