<svg xmlns="http://www.w3.org/2000/svg" viewBox="0 0 1200 630" fill="none">
  <rect width="1200" height="630" fill="transparent"/>
  <rect x="30" y="30" width="1140" height="570" rx="20" fill="rgba(128,128,128,0.06)" stroke="rgba(128,128,128,0.15)" stroke-width="1"/>
  <defs>
    <linearGradient id="lineGrad" x1="0%" y1="0%" x2="100%" y2="0%">
      <stop offset="0%" stop-color="#10B981"/>
      <stop offset="100%" stop-color="#F59E0B"/>
    </linearGradient>
    <linearGradient id="areaGrad" x1="0%" y1="0%" x2="0%" y2="100%">
      <stop offset="0%" stop-color="#10B981" stop-opacity="0.3"/>
      <stop offset="100%" stop-color="#10B981" stop-opacity="0"/>
    </linearGradient>
    <linearGradient id="barGrad" x1="0%" y1="0%" x2="0%" y2="100%">
      <stop offset="0%" stop-color="#10B981"/>
      <stop offset="100%" stop-color="#F59E0B"/>
    </linearGradient>
  </defs>
  
  <circle cx="1020" cy="94.5" r="90.62627732753754" fill="#10B981" opacity="0.03"/>
  <circle cx="180" cy="504" r="50.28350374894217" fill="#F59E0B" opacity="0.04"/>
  <circle cx="712" cy="263" r="8.4" fill="#F59E0B" opacity="0.34"/>
  <circle cx="971" cy="321" r="5.5" fill="#F59E0B" opacity="0.45"/>
  <circle cx="378" cy="301" r="10.4" fill="#10B981" opacity="0.60"/>
  <circle cx="178" cy="107" r="3.5" fill="#10B981" opacity="0.61"/>
  <circle cx="1026" cy="305" r="5.5" fill="#F59E0B" opacity="0.46"/>
  <circle cx="933" cy="311" r="4.7" fill="#10B981" opacity="0.70"/>
  <circle cx="380" cy="277" r="10.9" fill="#10B981" opacity="0.71"/>
  <circle cx="596" cy="427" r="6.0" fill="#10B981" opacity="0.73"/>
  <circle cx="978" cy="298" r="3.7" fill="#F59E0B" opacity="0.40"/>
  <circle cx="560" cy="476" r="7.7" fill="#F59E0B" opacity="0.65"/>
  <circle cx="1015" cy="346" r="8.6" fill="#10B981" opacity="0.79"/>
  <circle cx="239" cy="137" r="5.7" fill="#10B981" opacity="0.47"/>
  <circle cx="453" cy="209" r="10.3" fill="#F59E0B" opacity="0.34"/>
  <circle cx="303" cy="171" r="10.9" fill="#10B981" opacity="0.75"/>
  <circle cx="211" cy="264" r="6.6" fill="#10B981" opacity="0.65"/>
  <circle cx="224" cy="422" r="4.8" fill="#F59E0B" opacity="0.33"/>
  <circle cx="678" cy="159" r="8.5" fill="#10B981" opacity="0.49"/>
  <circle cx="904" cy="214" r="9.8" fill="#10B981" opacity="0.61"/>
  <circle cx="1031" cy="223" r="5.6" fill="#10B981" opacity="0.54"/>
  <circle cx="964" cy="121" r="3.4" fill="#F59E0B" opacity="0.49"/>
  <circle cx="224" cy="442" r="4.7" fill="#10B981" opacity="0.44"/>
  <circle cx="521" cy="423" r="9.1" fill="#F59E0B" opacity="0.74"/>
  <circle cx="312" cy="421" r="8.9" fill="#10B981" opacity="0.65"/>
  <circle cx="636" cy="276" r="8.1" fill="#F59E0B" opacity="0.54"/>
  <circle cx="919" cy="249" r="6.1" fill="#10B981" opacity="0.54"/>
  <circle cx="1020" cy="141" r="7.4" fill="#F59E0B" opacity="0.49"/>
  <circle cx="224" cy="288" r="3.0" fill="#10B981" opacity="0.64"/>
  <circle cx="528" cy="317" r="10.6" fill="#10B981" opacity="0.45"/>
  <circle cx="259" cy="173" r="10.1" fill="#10B981" opacity="0.40"/>
  <circle cx="861" cy="176" r="7.3" fill="#10B981" opacity="0.34"/>
  <circle cx="976" cy="175" r="7.7" fill="#10B981" opacity="0.33"/>
  <circle cx="491" cy="320" r="4.9" fill="#F59E0B" opacity="0.61"/>
  <circle cx="794" cy="222" r="7.0" fill="#10B981" opacity="0.62"/>
  <circle cx="603" cy="486" r="9.6" fill="#F59E0B" opacity="0.47"/>
  <circle cx="847" cy="460" r="9.4" fill="#10B981" opacity="0.70"/>
  <circle cx="538" cy="370" r="9.5" fill="#10B981" opacity="0.48"/>
  <circle cx="320" cy="315" r="8.2" fill="#F59E0B" opacity="0.32"/>
  <circle cx="626" cy="234" r="6.0" fill="#F59E0B" opacity="0.70"/>
  <circle cx="929" cy="237" r="5.6" fill="#F59E0B" opacity="0.76"/>
  <circle cx="164" cy="344" r="6.7" fill="#F59E0B" opacity="0.79"/>
  <line x1="160" y1="450" x2="1040" y2="150" stroke="#10B981" stroke-width="2" stroke-dasharray="6 4" opacity="0.5"/>
</svg>