<svg xmlns="http://www.w3.org/2000/svg" viewBox="0 0 1200 630" fill="none">
  <rect width="1200" height="630" fill="#0d1117"/>
  <rect x="30" y="30" width="1140" height="570" rx="20" fill="#161b22" stroke="#30363d" stroke-width="1"/>
  <defs>
    <linearGradient id="lineGrad" x1="0%" y1="0%" x2="100%" y2="0%">
      <stop offset="0%" stop-color="#00F0FF"/>
      <stop offset="100%" stop-color="#A91079"/>
    </linearGradient>
    <linearGradient id="areaGrad" x1="0%" y1="0%" x2="0%" y2="100%">
      <stop offset="0%" stop-color="#00F0FF" stop-opacity="0.3"/>
      <stop offset="100%" stop-color="#00F0FF" stop-opacity="0"/>
    </linearGradient>
    <linearGradient id="barGrad" x1="0%" y1="0%" x2="0%" y2="100%">
      <stop offset="0%" stop-color="#00F0FF"/>
      <stop offset="100%" stop-color="#A91079"/>
    </linearGradient>
  </defs>
  
  <circle cx="1020" cy="94.5" r="86.62422840483487" fill="#00F0FF" opacity="0.03"/>
  <circle cx="180" cy="504" r="57.42120750248432" fill="#A91079" opacity="0.04"/>
  <line x1="182" y1="434.03292579809204" x2="182" y2="489.7541535948403" stroke="#A91079" stroke-width="1.5"/>
  <rect x="170" y="448.9688450586982" width="24" height="20.33532913774252" rx="2" fill="#A91079" opacity="0.85"/>
  <line x1="256" y1="353.5861092922278" x2="256" y2="404.09341778839007" stroke="#00F0FF" stroke-width="1.5"/>
  <rect x="244" y="377.8384565957822" width="24" height="18.41679336503148" rx="2" fill="#00F0FF" opacity="0.85"/>
  <line x1="330" y1="407.22913153702393" x2="330" y2="438.9176481333561" stroke="#00F0FF" stroke-width="1.5"/>
  <rect x="318" y="422.0922342617996" width="24" height="3" rx="2" fill="#00F0FF" opacity="0.85"/>
  <line x1="404" y1="360.8806055714376" x2="404" y2="436.8443891988136" stroke="#00F0FF" stroke-width="1.5"/>
  <rect x="392" y="395.1023376197554" width="24" height="23.761606495827436" rx="2" fill="#00F0FF" opacity="0.85"/>
  <line x1="478" y1="374.5372292981483" x2="478" y2="390.46110484050587" stroke="#00F0FF" stroke-width="1.5"/>
  <rect x="466" y="381.18195665301755" width="24" height="5.03606554120779" rx="2" fill="#00F0FF" opacity="0.85"/>
  <line x1="552" y1="222.42911986308172" x2="552" y2="277.8558789775707" stroke="#A91079" stroke-width="1.5"/>
  <rect x="540" y="241.15324380109087" width="24" height="14.862001594156027" rx="2" fill="#A91079" opacity="0.85"/>
  <line x1="626" y1="239.32294216239825" x2="626" y2="300.16438474180177" stroke="#A91079" stroke-width="1.5"/>
  <rect x="614" y="262.85210262285545" width="24" height="32.05412067472935" rx="2" fill="#A91079" opacity="0.85"/>
  <line x1="700" y1="356.6787218605168" x2="700" y2="423.0522316158749" stroke="#00F0FF" stroke-width="1.5"/>
  <rect x="688" y="375.9007234708406" width="24" height="15.478365030139685" rx="2" fill="#00F0FF" opacity="0.85"/>
  <line x1="774" y1="367.20021983841434" x2="774" y2="419.21781364129856" stroke="#A91079" stroke-width="1.5"/>
  <rect x="762" y="374.9127430957742" width="24" height="27.087394706904888" rx="2" fill="#A91079" opacity="0.85"/>
  <line x1="848" y1="324.26032106624916" x2="848" y2="391.05920570204034" stroke="#A91079" stroke-width="1.5"/>
  <rect x="836" y="333.2374811754562" width="24" height="20.948227774351835" rx="2" fill="#A91079" opacity="0.85"/>
</svg>