<svg xmlns="http://www.w3.org/2000/svg" viewBox="0 0 1200 630" fill="none">
  <rect width="1200" height="630" fill="transparent"/>
  <rect x="30" y="30" width="1140" height="570" rx="20" fill="rgba(128,128,128,0.06)" stroke="rgba(128,128,128,0.15)" stroke-width="1"/>
  <defs>
    <linearGradient id="lineGrad" x1="0%" y1="0%" x2="100%" y2="0%">
      <stop offset="0%" stop-color="#14B8A6"/>
      <stop offset="100%" stop-color="#E11D48"/>
    </linearGradient>
    <linearGradient id="areaGrad" x1="0%" y1="0%" x2="0%" y2="100%">
      <stop offset="0%" stop-color="#14B8A6" stop-opacity="0.3"/>
      <stop offset="100%" stop-color="#14B8A6" stop-opacity="0"/>
    </linearGradient>
    <linearGradient id="barGrad" x1="0%" y1="0%" x2="0%" y2="100%">
      <stop offset="0%" stop-color="#14B8A6"/>
      <stop offset="100%" stop-color="#E11D48"/>
    </linearGradient>
  </defs>
  
  <circle cx="1020" cy="94.5" r="92.7303552813828" fill="#14B8A6" opacity="0.03"/>
  <circle cx="180" cy="504" r="58.050596963148564" fill="#E11D48" opacity="0.04"/>
  <circle cx="537" cy="299" r="9.6" fill="#14B8A6" opacity="0.72"/>
  <circle cx="306" cy="209" r="8.2" fill="#14B8A6" opacity="0.53"/>
  <circle cx="1031" cy="250" r="4.9" fill="#14B8A6" opacity="0.66"/>
  <circle cx="842" cy="142" r="10.0" fill="#14B8A6" opacity="0.55"/>
  <circle cx="766" cy="127" r="6.6" fill="#E11D48" opacity="0.41"/>
  <circle cx="179" cy="406" r="3.9" fill="#14B8A6" opacity="0.76"/>
  <circle cx="266" cy="490" r="5.4" fill="#14B8A6" opacity="0.53"/>
  <circle cx="808" cy="456" r="7.9" fill="#E11D48" opacity="0.58"/>
  <circle cx="882" cy="318" r="4.6" fill="#14B8A6" opacity="0.43"/>
  <circle cx="162" cy="158" r="8.8" fill="#14B8A6" opacity="0.48"/>
  <circle cx="654" cy="225" r="8.3" fill="#14B8A6" opacity="0.58"/>
  <circle cx="922" cy="261" r="6.0" fill="#E11D48" opacity="0.57"/>
  <circle cx="459" cy="173" r="5.1" fill="#14B8A6" opacity="0.46"/>
  <circle cx="981" cy="459" r="9.4" fill="#14B8A6" opacity="0.56"/>
  <circle cx="201" cy="456" r="7.4" fill="#14B8A6" opacity="0.74"/>
  <circle cx="337" cy="162" r="6.5" fill="#14B8A6" opacity="0.35"/>
  <circle cx="702" cy="341" r="10.5" fill="#14B8A6" opacity="0.73"/>
  <circle cx="848" cy="135" r="6.7" fill="#E11D48" opacity="0.42"/>
  <circle cx="249" cy="251" r="8.1" fill="#E11D48" opacity="0.39"/>
  <circle cx="702" cy="106" r="8.6" fill="#E11D48" opacity="0.65"/>
  <circle cx="678" cy="356" r="5.4" fill="#E11D48" opacity="0.74"/>
  <circle cx="356" cy="390" r="6.1" fill="#E11D48" opacity="0.74"/>
  <circle cx="409" cy="404" r="9.8" fill="#E11D48" opacity="0.46"/>
  <circle cx="259" cy="221" r="6.6" fill="#14B8A6" opacity="0.43"/>
  <circle cx="542" cy="348" r="9.3" fill="#14B8A6" opacity="0.71"/>
  <circle cx="425" cy="419" r="8.2" fill="#E11D48" opacity="0.80"/>
  <circle cx="360" cy="371" r="9.7" fill="#14B8A6" opacity="0.59"/>
  <circle cx="515" cy="510" r="5.1" fill="#E11D48" opacity="0.79"/>
  <circle cx="354" cy="307" r="5.5" fill="#14B8A6" opacity="0.56"/>
  <circle cx="721" cy="422" r="3.6" fill="#14B8A6" opacity="0.55"/>
  <circle cx="734" cy="188" r="4.0" fill="#14B8A6" opacity="0.54"/>
  <circle cx="915" cy="243" r="3.7" fill="#E11D48" opacity="0.79"/>
  <circle cx="850" cy="444" r="9.7" fill="#E11D48" opacity="0.56"/>
  <circle cx="941" cy="320" r="3.5" fill="#14B8A6" opacity="0.63"/>
  <circle cx="765" cy="264" r="9.5" fill="#E11D48" opacity="0.67"/>
  <circle cx="295" cy="104" r="10.9" fill="#14B8A6" opacity="0.74"/>
  <circle cx="491" cy="417" r="6.7" fill="#E11D48" opacity="0.66"/>
  <circle cx="519" cy="212" r="10.2" fill="#14B8A6" opacity="0.65"/>
  <circle cx="339" cy="441" r="4.3" fill="#E11D48" opacity="0.52"/>
  <circle cx="326" cy="164" r="4.6" fill="#14B8A6" opacity="0.71"/>
  <line x1="160" y1="450" x2="1040" y2="150" stroke="#14B8A6" stroke-width="2" stroke-dasharray="6 4" opacity="0.5"/>
</svg>