<svg xmlns="http://www.w3.org/2000/svg" viewBox="0 0 1200 630" fill="none">
  <rect width="1200" height="630" fill="transparent"/>
  <rect x="30" y="30" width="1140" height="570" rx="20" fill="rgba(128,128,128,0.06)" stroke="rgba(128,128,128,0.15)" stroke-width="1"/>
  <defs>
    <linearGradient id="lineGrad" x1="0%" y1="0%" x2="100%" y2="0%">
      <stop offset="0%" stop-color="#06B6D4"/>
      <stop offset="100%" stop-color="#F97316"/>
    </linearGradient>
    <linearGradient id="areaGrad" x1="0%" y1="0%" x2="0%" y2="100%">
      <stop offset="0%" stop-color="#06B6D4" stop-opacity="0.3"/>
      <stop offset="100%" stop-color="#06B6D4" stop-opacity="0"/>
    </linearGradient>
    <linearGradient id="barGrad" x1="0%" y1="0%" x2="0%" y2="100%">
      <stop offset="0%" stop-color="#06B6D4"/>
      <stop offset="100%" stop-color="#F97316"/>
    </linearGradient>
  </defs>
  
  <circle cx="1020" cy="94.5" r="75.37270672619343" fill="#06B6D4" opacity="0.03"/>
  <circle cx="180" cy="504" r="58.07960202218965" fill="#F97316" opacity="0.04"/>
  <circle cx="391" cy="226" r="10.2" fill="#06B6D4" opacity="0.38"/>
  <circle cx="382" cy="459" r="7.4" fill="#F97316" opacity="0.33"/>
  <circle cx="723" cy="256" r="5.9" fill="#06B6D4" opacity="0.35"/>
  <circle cx="691" cy="210" r="5.2" fill="#F97316" opacity="0.62"/>
  <circle cx="737" cy="111" r="7.3" fill="#F97316" opacity="0.73"/>
  <circle cx="494" cy="236" r="5.2" fill="#06B6D4" opacity="0.54"/>
  <circle cx="532" cy="446" r="9.8" fill="#F97316" opacity="0.51"/>
  <circle cx="507" cy="503" r="4.5" fill="#06B6D4" opacity="0.41"/>
  <circle cx="759" cy="201" r="8.6" fill="#F97316" opacity="0.36"/>
  <circle cx="606" cy="221" r="7.1" fill="#06B6D4" opacity="0.31"/>
  <circle cx="450" cy="350" r="4.6" fill="#06B6D4" opacity="0.43"/>
  <circle cx="655" cy="235" r="9.9" fill="#06B6D4" opacity="0.44"/>
  <circle cx="882" cy="300" r="8.2" fill="#06B6D4" opacity="0.56"/>
  <circle cx="818" cy="384" r="7.8" fill="#06B6D4" opacity="0.34"/>
  <circle cx="327" cy="358" r="11.0" fill="#06B6D4" opacity="0.35"/>
  <circle cx="829" cy="274" r="4.0" fill="#06B6D4" opacity="0.79"/>
  <circle cx="706" cy="239" r="9.6" fill="#06B6D4" opacity="0.30"/>
  <circle cx="187" cy="161" r="3.4" fill="#06B6D4" opacity="0.66"/>
  <circle cx="179" cy="364" r="3.5" fill="#F97316" opacity="0.47"/>
  <circle cx="1020" cy="499" r="5.4" fill="#F97316" opacity="0.69"/>
  <circle cx="796" cy="509" r="6.1" fill="#06B6D4" opacity="0.35"/>
  <circle cx="206" cy="134" r="4.5" fill="#06B6D4" opacity="0.72"/>
  <circle cx="729" cy="106" r="3.4" fill="#06B6D4" opacity="0.78"/>
  <circle cx="746" cy="235" r="9.6" fill="#06B6D4" opacity="0.38"/>
  <circle cx="761" cy="282" r="3.1" fill="#06B6D4" opacity="0.31"/>
  <circle cx="210" cy="101" r="4.1" fill="#06B6D4" opacity="0.44"/>
  <circle cx="277" cy="485" r="8.7" fill="#06B6D4" opacity="0.55"/>
  <circle cx="446" cy="204" r="3.9" fill="#F97316" opacity="0.46"/>
  <circle cx="589" cy="239" r="5.3" fill="#06B6D4" opacity="0.75"/>
  <circle cx="410" cy="148" r="5.1" fill="#F97316" opacity="0.44"/>
  <circle cx="241" cy="488" r="7.8" fill="#06B6D4" opacity="0.40"/>
  <circle cx="176" cy="476" r="6.5" fill="#06B6D4" opacity="0.43"/>
  <circle cx="936" cy="433" r="7.9" fill="#F97316" opacity="0.43"/>
  <circle cx="303" cy="516" r="4.1" fill="#F97316" opacity="0.47"/>
  <circle cx="236" cy="405" r="3.8" fill="#06B6D4" opacity="0.34"/>
  <circle cx="607" cy="386" r="8.1" fill="#06B6D4" opacity="0.56"/>
  <circle cx="972" cy="398" r="7.2" fill="#06B6D4" opacity="0.59"/>
  <circle cx="662" cy="405" r="8.1" fill="#F97316" opacity="0.43"/>
  <circle cx="748" cy="293" r="9.8" fill="#06B6D4" opacity="0.47"/>
  <circle cx="1020" cy="120" r="8.3" fill="#F97316" opacity="0.63"/>
  <line x1="160" y1="450" x2="1040" y2="150" stroke="#06B6D4" stroke-width="2" stroke-dasharray="6 4" opacity="0.5"/>
</svg>