<svg xmlns="http://www.w3.org/2000/svg" viewBox="0 0 1200 630" fill="none">
  <rect width="1200" height="630" fill="transparent"/>
  <rect x="30" y="30" width="1140" height="570" rx="20" fill="rgba(128,128,128,0.06)" stroke="rgba(128,128,128,0.15)" stroke-width="1"/>
  <defs>
    <linearGradient id="lineGrad" x1="0%" y1="0%" x2="100%" y2="0%">
      <stop offset="0%" stop-color="#06B6D4"/>
      <stop offset="100%" stop-color="#F97316"/>
    </linearGradient>
    <linearGradient id="areaGrad" x1="0%" y1="0%" x2="0%" y2="100%">
      <stop offset="0%" stop-color="#06B6D4" stop-opacity="0.3"/>
      <stop offset="100%" stop-color="#06B6D4" stop-opacity="0"/>
    </linearGradient>
    <linearGradient id="barGrad" x1="0%" y1="0%" x2="0%" y2="100%">
      <stop offset="0%" stop-color="#06B6D4"/>
      <stop offset="100%" stop-color="#F97316"/>
    </linearGradient>
  </defs>
  
  <circle cx="1020" cy="94.5" r="80.63409538939595" fill="#06B6D4" opacity="0.03"/>
  <circle cx="180" cy="504" r="52.80306490836665" fill="#F97316" opacity="0.04"/>
  <path d="M600 300 L780.0 300.0 A180 180 0 0 1 533.6 467.3 Z" fill="#06B6D4" opacity="0.7"/>
  <path d="M600 300 L533.6 467.3 A180 180 0 0 1 431.2 237.4 Z" fill="#F97316" opacity="0.75"/>
  <path d="M600 300 L431.2 237.4 A180 180 0 0 1 607.0 120.1 Z" fill="#8B949E" opacity="0.7999999999999999"/>
  <path d="M600 300 L607.0 120.1 A180 180 0 0 1 752.4 204.2 Z" fill="rgba(128,128,128,0.25)" opacity="0.85"/>
  <path d="M600 300 L752.4 204.2 A180 180 0 0 1 780.0 300.0 Z" fill="rgba(128,128,128,0.15)" opacity="0.8999999999999999"/>
  <circle cx="600" cy="300" r="90" fill="rgba(128,128,128,0.06)"/>
</svg>