<svg xmlns="http://www.w3.org/2000/svg" viewBox="0 0 1200 630" fill="none">
  <rect width="1200" height="630" fill="transparent"/>
  <rect x="30" y="30" width="1140" height="570" rx="20" fill="rgba(128,128,128,0.06)" stroke="rgba(128,128,128,0.15)" stroke-width="1"/>
  <defs>
    <linearGradient id="lineGrad" x1="0%" y1="0%" x2="100%" y2="0%">
      <stop offset="0%" stop-color="#14B8A6"/>
      <stop offset="100%" stop-color="#E11D48"/>
    </linearGradient>
    <linearGradient id="areaGrad" x1="0%" y1="0%" x2="0%" y2="100%">
      <stop offset="0%" stop-color="#14B8A6" stop-opacity="0.3"/>
      <stop offset="100%" stop-color="#14B8A6" stop-opacity="0"/>
    </linearGradient>
    <linearGradient id="barGrad" x1="0%" y1="0%" x2="0%" y2="100%">
      <stop offset="0%" stop-color="#14B8A6"/>
      <stop offset="100%" stop-color="#E11D48"/>
    </linearGradient>
  </defs>
  
  <circle cx="1020" cy="94.5" r="67.78990953229368" fill="#14B8A6" opacity="0.03"/>
  <circle cx="180" cy="504" r="61.45522003527731" fill="#E11D48" opacity="0.04"/>
  <path d="M140 278 L220 279 L300 279 L380 257 L460 289 L540 296 L620 316 L700 341 L780 345 L860 376 L940 397 L1020 421 L1060 530 L140 530 Z" fill="#14B8A6" opacity="0.15"/>
  <path d="M140 278 L220 279 L300 279 L380 257 L460 289 L540 296 L620 316 L700 341 L780 345 L860 376 L940 397 L1020 421" stroke="#14B8A6" stroke-width="2" fill="none" opacity="0.8"/>
  <path d="M140 352 L220 337 L300 333 L380 339 L460 349 L540 365 L620 370 L700 353 L780 333 L860 322 L940 339 L1020 338 L1060 530 L140 530 Z" fill="#E11D48" opacity="0.12"/>
  <path d="M140 352 L220 337 L300 333 L380 339 L460 349 L540 365 L620 370 L700 353 L780 333 L860 322 L940 339 L1020 338" stroke="#E11D48" stroke-width="2" fill="none" opacity="0.8"/>
  <path d="M140 402 L220 399 L300 375 L380 379 L460 392 L540 395 L620 373 L700 348 L780 339 L860 371 L940 363 L1020 355 L1060 530 L140 530 Z" fill="#8B949E" opacity="0.09"/>
  <path d="M140 402 L220 399 L300 375 L380 379 L460 392 L540 395 L620 373 L700 348 L780 339 L860 371 L940 363 L1020 355" stroke="#8B949E" stroke-width="2" fill="none" opacity="0.8"/>
</svg>