<svg xmlns="http://www.w3.org/2000/svg" viewBox="0 0 1200 630" fill="none">
  <rect width="1200" height="630" fill="transparent"/>
  <rect x="30" y="30" width="1140" height="570" rx="20" fill="rgba(128,128,128,0.06)" stroke="rgba(128,128,128,0.15)" stroke-width="1"/>
  <defs>
    <linearGradient id="lineGrad" x1="0%" y1="0%" x2="100%" y2="0%">
      <stop offset="0%" stop-color="#00F0FF"/>
      <stop offset="100%" stop-color="#A91079"/>
    </linearGradient>
    <linearGradient id="areaGrad" x1="0%" y1="0%" x2="0%" y2="100%">
      <stop offset="0%" stop-color="#00F0FF" stop-opacity="0.3"/>
      <stop offset="100%" stop-color="#00F0FF" stop-opacity="0"/>
    </linearGradient>
    <linearGradient id="barGrad" x1="0%" y1="0%" x2="0%" y2="100%">
      <stop offset="0%" stop-color="#00F0FF"/>
      <stop offset="100%" stop-color="#A91079"/>
    </linearGradient>
  </defs>
  
  <circle cx="1020" cy="94.5" r="68.33869671449065" fill="#00F0FF" opacity="0.03"/>
  <circle cx="180" cy="504" r="53.943554849829525" fill="#A91079" opacity="0.04"/>
  <circle cx="890" cy="452" r="3.8" fill="#00F0FF" opacity="0.54"/>
  <circle cx="355" cy="296" r="7.9" fill="#A91079" opacity="0.57"/>
  <circle cx="904" cy="121" r="5.9" fill="#A91079" opacity="0.58"/>
  <circle cx="956" cy="243" r="7.8" fill="#00F0FF" opacity="0.67"/>
  <circle cx="971" cy="265" r="4.2" fill="#00F0FF" opacity="0.45"/>
  <circle cx="825" cy="500" r="10.4" fill="#00F0FF" opacity="0.47"/>
  <circle cx="810" cy="107" r="5.7" fill="#00F0FF" opacity="0.57"/>
  <circle cx="1015" cy="448" r="8.5" fill="#A91079" opacity="0.68"/>
  <circle cx="240" cy="467" r="8.9" fill="#00F0FF" opacity="0.35"/>
  <circle cx="629" cy="311" r="8.1" fill="#A91079" opacity="0.59"/>
  <circle cx="178" cy="225" r="10.8" fill="#A91079" opacity="0.49"/>
  <circle cx="753" cy="480" r="7.9" fill="#00F0FF" opacity="0.63"/>
  <circle cx="592" cy="480" r="10.4" fill="#00F0FF" opacity="0.77"/>
  <circle cx="283" cy="357" r="5.7" fill="#A91079" opacity="0.61"/>
  <circle cx="968" cy="491" r="5.1" fill="#A91079" opacity="0.61"/>
  <circle cx="888" cy="193" r="5.1" fill="#00F0FF" opacity="0.40"/>
  <circle cx="201" cy="363" r="5.7" fill="#00F0FF" opacity="0.54"/>
  <circle cx="185" cy="126" r="9.2" fill="#00F0FF" opacity="0.36"/>
  <circle cx="911" cy="407" r="8.2" fill="#00F0FF" opacity="0.43"/>
  <circle cx="959" cy="205" r="7.6" fill="#A91079" opacity="0.67"/>
  <circle cx="372" cy="183" r="5.5" fill="#A91079" opacity="0.71"/>
  <circle cx="476" cy="398" r="8.2" fill="#00F0FF" opacity="0.73"/>
  <circle cx="586" cy="430" r="10.0" fill="#A91079" opacity="0.78"/>
  <circle cx="316" cy="384" r="9.6" fill="#00F0FF" opacity="0.48"/>
  <circle cx="704" cy="196" r="4.5" fill="#00F0FF" opacity="0.33"/>
  <circle cx="268" cy="368" r="9.8" fill="#00F0FF" opacity="0.48"/>
  <circle cx="536" cy="349" r="5.3" fill="#00F0FF" opacity="0.45"/>
  <circle cx="978" cy="434" r="9.8" fill="#00F0FF" opacity="0.58"/>
  <circle cx="405" cy="326" r="9.7" fill="#A91079" opacity="0.30"/>
  <circle cx="403" cy="451" r="9.4" fill="#00F0FF" opacity="0.54"/>
  <circle cx="238" cy="454" r="5.5" fill="#A91079" opacity="0.79"/>
  <circle cx="322" cy="204" r="8.5" fill="#00F0FF" opacity="0.59"/>
  <circle cx="933" cy="518" r="7.8" fill="#A91079" opacity="0.70"/>
  <circle cx="887" cy="427" r="3.4" fill="#A91079" opacity="0.36"/>
  <circle cx="350" cy="196" r="8.7" fill="#A91079" opacity="0.77"/>
  <circle cx="514" cy="328" r="6.7" fill="#00F0FF" opacity="0.32"/>
  <circle cx="952" cy="262" r="9.5" fill="#00F0FF" opacity="0.61"/>
  <circle cx="223" cy="329" r="6.4" fill="#A91079" opacity="0.46"/>
  <circle cx="227" cy="452" r="10.4" fill="#A91079" opacity="0.45"/>
  <circle cx="210" cy="173" r="4.3" fill="#00F0FF" opacity="0.70"/>
  <line x1="160" y1="450" x2="1040" y2="150" stroke="#00F0FF" stroke-width="2" stroke-dasharray="6 4" opacity="0.5"/>
</svg>