<svg xmlns="http://www.w3.org/2000/svg" viewBox="0 0 1200 630" fill="none">
  <rect width="1200" height="630" fill="transparent"/>
  <rect x="30" y="30" width="1140" height="570" rx="20" fill="rgba(128,128,128,0.06)" stroke="rgba(128,128,128,0.15)" stroke-width="1"/>
  <defs>
    <linearGradient id="lineGrad" x1="0%" y1="0%" x2="100%" y2="0%">
      <stop offset="0%" stop-color="#8B5CF6"/>
      <stop offset="100%" stop-color="#EC4899"/>
    </linearGradient>
    <linearGradient id="areaGrad" x1="0%" y1="0%" x2="0%" y2="100%">
      <stop offset="0%" stop-color="#8B5CF6" stop-opacity="0.3"/>
      <stop offset="100%" stop-color="#8B5CF6" stop-opacity="0"/>
    </linearGradient>
    <linearGradient id="barGrad" x1="0%" y1="0%" x2="0%" y2="100%">
      <stop offset="0%" stop-color="#8B5CF6"/>
      <stop offset="100%" stop-color="#EC4899"/>
    </linearGradient>
  </defs>
  
  <circle cx="1020" cy="94.5" r="69.21053344383836" fill="#8B5CF6" opacity="0.03"/>
  <circle cx="180" cy="504" r="49.46749296737835" fill="#EC4899" opacity="0.04"/>
  <rect x="160" y="214.34334312565625" width="60" height="305.65665687434375" rx="4" fill="url(#barGrad)" opacity="0.76"/>
  <rect x="250" y="406.605609562248" width="60" height="113.39439043775201" rx="4" fill="url(#barGrad)" opacity="0.69"/>
  <rect x="340" y="224.94005664251745" width="60" height="295.05994335748255" rx="4" fill="url(#barGrad)" opacity="0.76"/>
  <rect x="430" y="265.3387399017811" width="60" height="254.66126009821892" rx="4" fill="url(#barGrad)" opacity="0.87"/>
  <rect x="520" y="185.03851258195937" width="60" height="334.96148741804063" rx="4" fill="url(#barGrad)" opacity="0.92"/>
  <rect x="610" y="316.62262627854943" width="60" height="203.37737372145057" rx="4" fill="url(#barGrad)" opacity="0.73"/>
  <rect x="700" y="172.08967777900398" width="60" height="347.910322220996" rx="4" fill="url(#barGrad)" opacity="0.73"/>
  <rect x="790" y="162.34156224876642" width="60" height="357.6584377512336" rx="4" fill="url(#barGrad)" opacity="0.98"/>
</svg>