<svg xmlns="http://www.w3.org/2000/svg" viewBox="0 0 1200 630" fill="none">
  <rect width="1200" height="630" fill="transparent"/>
  <rect x="30" y="30" width="1140" height="570" rx="20" fill="rgba(128,128,128,0.06)" stroke="rgba(128,128,128,0.15)" stroke-width="1"/>
  <defs>
    <linearGradient id="lineGrad" x1="0%" y1="0%" x2="100%" y2="0%">
      <stop offset="0%" stop-color="#8B5CF6"/>
      <stop offset="100%" stop-color="#EC4899"/>
    </linearGradient>
    <linearGradient id="areaGrad" x1="0%" y1="0%" x2="0%" y2="100%">
      <stop offset="0%" stop-color="#8B5CF6" stop-opacity="0.3"/>
      <stop offset="100%" stop-color="#8B5CF6" stop-opacity="0"/>
    </linearGradient>
    <linearGradient id="barGrad" x1="0%" y1="0%" x2="0%" y2="100%">
      <stop offset="0%" stop-color="#8B5CF6"/>
      <stop offset="100%" stop-color="#EC4899"/>
    </linearGradient>
  </defs>
  
  <circle cx="1020" cy="94.5" r="75.37270117551088" fill="#8B5CF6" opacity="0.03"/>
  <circle cx="180" cy="504" r="51.15016462514177" fill="#EC4899" opacity="0.04"/>
  <circle cx="722" cy="433" r="3.8" fill="#8B5CF6" opacity="0.74"/>
  <circle cx="679" cy="427" r="4.4" fill="#EC4899" opacity="0.51"/>
  <circle cx="545" cy="176" r="8.9" fill="#8B5CF6" opacity="0.57"/>
  <circle cx="815" cy="315" r="3.3" fill="#8B5CF6" opacity="0.32"/>
  <circle cx="600" cy="442" r="10.7" fill="#8B5CF6" opacity="0.69"/>
  <circle cx="814" cy="147" r="5.0" fill="#EC4899" opacity="0.40"/>
  <circle cx="988" cy="413" r="3.8" fill="#8B5CF6" opacity="0.57"/>
  <circle cx="506" cy="114" r="9.9" fill="#8B5CF6" opacity="0.62"/>
  <circle cx="763" cy="477" r="10.1" fill="#8B5CF6" opacity="0.72"/>
  <circle cx="481" cy="192" r="4.2" fill="#8B5CF6" opacity="0.80"/>
  <circle cx="353" cy="452" r="10.0" fill="#EC4899" opacity="0.73"/>
  <circle cx="718" cy="225" r="7.5" fill="#EC4899" opacity="0.49"/>
  <circle cx="573" cy="104" r="10.6" fill="#EC4899" opacity="0.50"/>
  <circle cx="450" cy="268" r="8.6" fill="#EC4899" opacity="0.45"/>
  <circle cx="572" cy="111" r="4.8" fill="#EC4899" opacity="0.75"/>
  <circle cx="594" cy="119" r="7.7" fill="#EC4899" opacity="0.47"/>
  <circle cx="715" cy="100" r="6.2" fill="#EC4899" opacity="0.62"/>
  <circle cx="242" cy="298" r="3.4" fill="#8B5CF6" opacity="0.41"/>
  <circle cx="771" cy="106" r="6.4" fill="#EC4899" opacity="0.40"/>
  <circle cx="349" cy="221" r="10.7" fill="#8B5CF6" opacity="0.48"/>
  <circle cx="934" cy="380" r="4.0" fill="#EC4899" opacity="0.61"/>
  <circle cx="928" cy="254" r="5.8" fill="#8B5CF6" opacity="0.42"/>
  <circle cx="502" cy="461" r="3.8" fill="#EC4899" opacity="0.50"/>
  <circle cx="893" cy="375" r="7.1" fill="#8B5CF6" opacity="0.39"/>
  <circle cx="482" cy="304" r="5.9" fill="#EC4899" opacity="0.32"/>
  <circle cx="406" cy="116" r="10.2" fill="#EC4899" opacity="0.52"/>
  <circle cx="796" cy="205" r="9.0" fill="#8B5CF6" opacity="0.33"/>
  <circle cx="771" cy="377" r="6.3" fill="#EC4899" opacity="0.54"/>
  <circle cx="969" cy="246" r="3.9" fill="#EC4899" opacity="0.39"/>
  <circle cx="1015" cy="175" r="5.8" fill="#8B5CF6" opacity="0.34"/>
  <circle cx="161" cy="430" r="3.5" fill="#EC4899" opacity="0.55"/>
  <circle cx="281" cy="313" r="5.8" fill="#EC4899" opacity="0.55"/>
  <circle cx="965" cy="478" r="8.3" fill="#EC4899" opacity="0.52"/>
  <circle cx="302" cy="323" r="11.0" fill="#EC4899" opacity="0.50"/>
  <circle cx="520" cy="312" r="6.7" fill="#EC4899" opacity="0.73"/>
  <circle cx="847" cy="247" r="8.3" fill="#EC4899" opacity="0.80"/>
  <circle cx="954" cy="219" r="10.5" fill="#EC4899" opacity="0.50"/>
  <circle cx="205" cy="431" r="6.4" fill="#EC4899" opacity="0.40"/>
  <circle cx="427" cy="124" r="3.7" fill="#8B5CF6" opacity="0.77"/>
  <circle cx="275" cy="137" r="8.4" fill="#8B5CF6" opacity="0.44"/>
  <line x1="160" y1="450" x2="1040" y2="150" stroke="#8B5CF6" stroke-width="2" stroke-dasharray="6 4" opacity="0.5"/>
</svg>