<svg xmlns="http://www.w3.org/2000/svg" viewBox="0 0 1200 630" fill="none">
  <rect width="1200" height="630" fill="transparent"/>
  <rect x="30" y="30" width="1140" height="570" rx="20" fill="rgba(128,128,128,0.06)" stroke="rgba(128,128,128,0.15)" stroke-width="1"/>
  <defs>
    <linearGradient id="lineGrad" x1="0%" y1="0%" x2="100%" y2="0%">
      <stop offset="0%" stop-color="#14B8A6"/>
      <stop offset="100%" stop-color="#E11D48"/>
    </linearGradient>
    <linearGradient id="areaGrad" x1="0%" y1="0%" x2="0%" y2="100%">
      <stop offset="0%" stop-color="#14B8A6" stop-opacity="0.3"/>
      <stop offset="100%" stop-color="#14B8A6" stop-opacity="0"/>
    </linearGradient>
    <linearGradient id="barGrad" x1="0%" y1="0%" x2="0%" y2="100%">
      <stop offset="0%" stop-color="#14B8A6"/>
      <stop offset="100%" stop-color="#E11D48"/>
    </linearGradient>
  </defs>
  
  <circle cx="1020" cy="94.5" r="63.12237935140729" fill="#14B8A6" opacity="0.03"/>
  <circle cx="180" cy="504" r="45.949465099256486" fill="#E11D48" opacity="0.04"/>
  <rect x="160" y="392.0127771887928" width="60" height="127.98722281120718" rx="4" fill="url(#barGrad)" opacity="0.74"/>
  <rect x="250" y="422.0986774750054" width="60" height="97.90132252499461" rx="4" fill="url(#barGrad)" opacity="0.69"/>
  <rect x="340" y="321.2579214107245" width="60" height="198.74207858927548" rx="4" fill="url(#barGrad)" opacity="0.91"/>
  <rect x="430" y="229.31906279176474" width="60" height="290.68093720823526" rx="4" fill="url(#barGrad)" opacity="0.94"/>
  <rect x="520" y="299.0941921342164" width="60" height="220.90580786578357" rx="4" fill="url(#barGrad)" opacity="0.75"/>
  <rect x="610" y="153.36994161829352" width="60" height="366.6300583817065" rx="4" fill="url(#barGrad)" opacity="0.69"/>
  <rect x="700" y="168.5357580985874" width="60" height="351.4642419014126" rx="4" fill="url(#barGrad)" opacity="0.98"/>
  <rect x="790" y="420.847979336977" width="60" height="99.152020663023" rx="4" fill="url(#barGrad)" opacity="0.85"/>
</svg>