<svg xmlns="http://www.w3.org/2000/svg" viewBox="0 0 1200 630" fill="none">
  <rect width="1200" height="630" fill="transparent"/>
  <rect x="30" y="30" width="1140" height="570" rx="20" fill="rgba(128,128,128,0.06)" stroke="rgba(128,128,128,0.15)" stroke-width="1"/>
  <defs>
    <linearGradient id="lineGrad" x1="0%" y1="0%" x2="100%" y2="0%">
      <stop offset="0%" stop-color="#06B6D4"/>
      <stop offset="100%" stop-color="#F97316"/>
    </linearGradient>
    <linearGradient id="areaGrad" x1="0%" y1="0%" x2="0%" y2="100%">
      <stop offset="0%" stop-color="#06B6D4" stop-opacity="0.3"/>
      <stop offset="100%" stop-color="#06B6D4" stop-opacity="0"/>
    </linearGradient>
    <linearGradient id="barGrad" x1="0%" y1="0%" x2="0%" y2="100%">
      <stop offset="0%" stop-color="#06B6D4"/>
      <stop offset="100%" stop-color="#F97316"/>
    </linearGradient>
  </defs>
  
  <circle cx="1020" cy="94.5" r="85.22005554288626" fill="#06B6D4" opacity="0.03"/>
  <circle cx="180" cy="504" r="56.796431245747954" fill="#F97316" opacity="0.04"/>
  <rect x="160" y="219.09936895594" width="60" height="300.90063104406" rx="4" fill="url(#barGrad)" opacity="0.99"/>
  <rect x="250" y="386.28163441084325" width="60" height="133.71836558915675" rx="4" fill="url(#barGrad)" opacity="0.64"/>
  <rect x="340" y="320.77998235821724" width="60" height="199.22001764178276" rx="4" fill="url(#barGrad)" opacity="0.83"/>
  <rect x="430" y="153.62582170404494" width="60" height="366.37417829595506" rx="4" fill="url(#barGrad)" opacity="0.80"/>
  <rect x="520" y="198.05731127038598" width="60" height="321.942688729614" rx="4" fill="url(#barGrad)" opacity="0.63"/>
  <rect x="610" y="381.12736913375556" width="60" height="138.87263086624444" rx="4" fill="url(#barGrad)" opacity="0.65"/>
  <rect x="700" y="317.2931883111596" width="60" height="202.7068116888404" rx="4" fill="url(#barGrad)" opacity="0.90"/>
  <rect x="790" y="425.31782520003617" width="60" height="94.68217479996383" rx="4" fill="url(#barGrad)" opacity="0.62"/>
</svg>