<svg xmlns="http://www.w3.org/2000/svg" viewBox="0 0 1200 630" fill="none">
  <rect width="1200" height="630" fill="transparent"/>
  <rect x="30" y="30" width="1140" height="570" rx="20" fill="rgba(128,128,128,0.06)" stroke="rgba(128,128,128,0.15)" stroke-width="1"/>
  <defs>
    <linearGradient id="lineGrad" x1="0%" y1="0%" x2="100%" y2="0%">
      <stop offset="0%" stop-color="#06B6D4"/>
      <stop offset="100%" stop-color="#F97316"/>
    </linearGradient>
    <linearGradient id="areaGrad" x1="0%" y1="0%" x2="0%" y2="100%">
      <stop offset="0%" stop-color="#06B6D4" stop-opacity="0.3"/>
      <stop offset="100%" stop-color="#06B6D4" stop-opacity="0"/>
    </linearGradient>
    <linearGradient id="barGrad" x1="0%" y1="0%" x2="0%" y2="100%">
      <stop offset="0%" stop-color="#06B6D4"/>
      <stop offset="100%" stop-color="#F97316"/>
    </linearGradient>
  </defs>
  
  <circle cx="1020" cy="94.5" r="72.42179723456502" fill="#06B6D4" opacity="0.03"/>
  <circle cx="180" cy="504" r="41.11343743978068" fill="#F97316" opacity="0.04"/>
  <rect x="160" y="314.41141777671874" width="60" height="205.58858222328126" rx="4" fill="url(#barGrad)" opacity="0.61"/>
  <rect x="250" y="328.338001165539" width="60" height="191.66199883446097" rx="4" fill="url(#barGrad)" opacity="0.81"/>
  <rect x="340" y="410.77862205915153" width="60" height="109.22137794084847" rx="4" fill="url(#barGrad)" opacity="0.85"/>
  <rect x="430" y="172.32008162885904" width="60" height="347.67991837114096" rx="4" fill="url(#barGrad)" opacity="0.98"/>
  <rect x="520" y="322.1604643482715" width="60" height="197.8395356517285" rx="4" fill="url(#barGrad)" opacity="0.63"/>
  <rect x="610" y="315.2490687184036" width="60" height="204.75093128159642" rx="4" fill="url(#barGrad)" opacity="0.75"/>
  <rect x="700" y="258.5831373091787" width="60" height="261.4168626908213" rx="4" fill="url(#barGrad)" opacity="0.83"/>
  <rect x="790" y="275.94117127358913" width="60" height="244.05882872641087" rx="4" fill="url(#barGrad)" opacity="0.99"/>
</svg>