<svg xmlns="http://www.w3.org/2000/svg" viewBox="0 0 1200 630" fill="none">
  <rect width="1200" height="630" fill="transparent"/>
  <rect x="30" y="30" width="1140" height="570" rx="20" fill="rgba(128,128,128,0.06)" stroke="rgba(128,128,128,0.15)" stroke-width="1"/>
  <defs>
    <linearGradient id="lineGrad" x1="0%" y1="0%" x2="100%" y2="0%">
      <stop offset="0%" stop-color="#00F0FF"/>
      <stop offset="100%" stop-color="#A91079"/>
    </linearGradient>
    <linearGradient id="areaGrad" x1="0%" y1="0%" x2="0%" y2="100%">
      <stop offset="0%" stop-color="#00F0FF" stop-opacity="0.3"/>
      <stop offset="100%" stop-color="#00F0FF" stop-opacity="0"/>
    </linearGradient>
    <linearGradient id="barGrad" x1="0%" y1="0%" x2="0%" y2="100%">
      <stop offset="0%" stop-color="#00F0FF"/>
      <stop offset="100%" stop-color="#A91079"/>
    </linearGradient>
  </defs>
  
  <circle cx="1020" cy="94.5" r="96.62225381471217" fill="#00F0FF" opacity="0.03"/>
  <circle cx="180" cy="504" r="59.85523951239884" fill="#A91079" opacity="0.04"/>
  <path d="M140 285 L220 308 L300 285 L380 296 L460 278 L540 274 L620 261 L700 244 L780 259 L860 281 L940 272 L1020 245 L1060 530 L140 530 Z" fill="#00F0FF" opacity="0.15"/>
  <path d="M140 285 L220 308 L300 285 L380 296 L460 278 L540 274 L620 261 L700 244 L780 259 L860 281 L940 272 L1020 245" stroke="#00F0FF" stroke-width="2" fill="none" opacity="0.8"/>
  <path d="M140 369 L220 393 L300 404 L380 437 L460 462 L540 457 L620 440 L700 414 L780 436 L860 459 L940 490 L1020 484 L1060 530 L140 530 Z" fill="#A91079" opacity="0.12"/>
  <path d="M140 369 L220 393 L300 404 L380 437 L460 462 L540 457 L620 440 L700 414 L780 436 L860 459 L940 490 L1020 484" stroke="#A91079" stroke-width="2" fill="none" opacity="0.8"/>
  <path d="M140 400 L220 402 L300 382 L380 387 L460 413 L540 419 L620 406 L700 389 L780 365 L860 386 L940 377 L1020 396 L1060 530 L140 530 Z" fill="#8B949E" opacity="0.09"/>
  <path d="M140 400 L220 402 L300 382 L380 387 L460 413 L540 419 L620 406 L700 389 L780 365 L860 386 L940 377 L1020 396" stroke="#8B949E" stroke-width="2" fill="none" opacity="0.8"/>
</svg>