<svg xmlns="http://www.w3.org/2000/svg" viewBox="0 0 1200 630" fill="none">
  <rect width="1200" height="630" fill="transparent"/>
  <rect x="30" y="30" width="1140" height="570" rx="20" fill="rgba(128,128,128,0.06)" stroke="rgba(128,128,128,0.15)" stroke-width="1"/>
  <defs>
    <linearGradient id="lineGrad" x1="0%" y1="0%" x2="100%" y2="0%">
      <stop offset="0%" stop-color="#10B981"/>
      <stop offset="100%" stop-color="#F59E0B"/>
    </linearGradient>
    <linearGradient id="areaGrad" x1="0%" y1="0%" x2="0%" y2="100%">
      <stop offset="0%" stop-color="#10B981" stop-opacity="0.3"/>
      <stop offset="100%" stop-color="#10B981" stop-opacity="0"/>
    </linearGradient>
    <linearGradient id="barGrad" x1="0%" y1="0%" x2="0%" y2="100%">
      <stop offset="0%" stop-color="#10B981"/>
      <stop offset="100%" stop-color="#F59E0B"/>
    </linearGradient>
  </defs>
  
  <circle cx="1020" cy="94.5" r="70.97120527178049" fill="#10B981" opacity="0.03"/>
  <circle cx="180" cy="504" r="51.173297001514584" fill="#F59E0B" opacity="0.04"/>
  <rect x="160" y="194.2368465103209" width="60" height="325.7631534896791" rx="4" fill="url(#barGrad)" opacity="0.85"/>
  <rect x="250" y="251.58592063002288" width="60" height="268.4140793699771" rx="4" fill="url(#barGrad)" opacity="0.62"/>
  <rect x="340" y="438.4213562682271" width="60" height="81.5786437317729" rx="4" fill="url(#barGrad)" opacity="0.68"/>
  <rect x="430" y="183.54305979795754" width="60" height="336.45694020204246" rx="4" fill="url(#barGrad)" opacity="0.68"/>
  <rect x="520" y="416.7176057212055" width="60" height="103.28239427879453" rx="4" fill="url(#barGrad)" opacity="0.86"/>
  <rect x="610" y="285.54625577293336" width="60" height="234.45374422706664" rx="4" fill="url(#barGrad)" opacity="0.99"/>
  <rect x="700" y="381.746124997735" width="60" height="138.25387500226498" rx="4" fill="url(#barGrad)" opacity="0.60"/>
  <rect x="790" y="356.690686205402" width="60" height="163.30931379459798" rx="4" fill="url(#barGrad)" opacity="0.61"/>
</svg>