<svg xmlns="http://www.w3.org/2000/svg" viewBox="0 0 1200 630" fill="none">
  <rect width="1200" height="630" fill="transparent"/>
  <rect x="30" y="30" width="1140" height="570" rx="20" fill="rgba(128,128,128,0.06)" stroke="rgba(128,128,128,0.15)" stroke-width="1"/>
  <defs>
    <linearGradient id="lineGrad" x1="0%" y1="0%" x2="100%" y2="0%">
      <stop offset="0%" stop-color="#10B981"/>
      <stop offset="100%" stop-color="#F59E0B"/>
    </linearGradient>
    <linearGradient id="areaGrad" x1="0%" y1="0%" x2="0%" y2="100%">
      <stop offset="0%" stop-color="#10B981" stop-opacity="0.3"/>
      <stop offset="100%" stop-color="#10B981" stop-opacity="0"/>
    </linearGradient>
    <linearGradient id="barGrad" x1="0%" y1="0%" x2="0%" y2="100%">
      <stop offset="0%" stop-color="#10B981"/>
      <stop offset="100%" stop-color="#F59E0B"/>
    </linearGradient>
  </defs>
  
  <circle cx="1020" cy="94.5" r="72.14358391240239" fill="#10B981" opacity="0.03"/>
  <circle cx="180" cy="504" r="61.3408828782849" fill="#F59E0B" opacity="0.04"/>
  <circle cx="756" cy="259" r="5.0" fill="#F59E0B" opacity="0.54"/>
  <circle cx="315" cy="278" r="3.7" fill="#10B981" opacity="0.55"/>
  <circle cx="1027" cy="330" r="3.9" fill="#10B981" opacity="0.57"/>
  <circle cx="209" cy="376" r="3.5" fill="#F59E0B" opacity="0.58"/>
  <circle cx="350" cy="258" r="3.1" fill="#F59E0B" opacity="0.66"/>
  <circle cx="198" cy="394" r="5.1" fill="#10B981" opacity="0.54"/>
  <circle cx="601" cy="119" r="5.4" fill="#F59E0B" opacity="0.77"/>
  <circle cx="834" cy="135" r="9.0" fill="#10B981" opacity="0.54"/>
  <circle cx="1014" cy="134" r="9.7" fill="#F59E0B" opacity="0.72"/>
  <circle cx="805" cy="274" r="7.5" fill="#10B981" opacity="0.61"/>
  <circle cx="837" cy="150" r="7.7" fill="#F59E0B" opacity="0.53"/>
  <circle cx="973" cy="441" r="10.4" fill="#F59E0B" opacity="0.41"/>
  <circle cx="808" cy="181" r="10.6" fill="#10B981" opacity="0.42"/>
  <circle cx="815" cy="326" r="3.3" fill="#10B981" opacity="0.54"/>
  <circle cx="400" cy="262" r="5.8" fill="#10B981" opacity="0.66"/>
  <circle cx="212" cy="227" r="9.6" fill="#F59E0B" opacity="0.43"/>
  <circle cx="1012" cy="348" r="9.7" fill="#F59E0B" opacity="0.30"/>
  <circle cx="729" cy="275" r="4.5" fill="#F59E0B" opacity="0.78"/>
  <circle cx="580" cy="443" r="5.2" fill="#F59E0B" opacity="0.44"/>
  <circle cx="220" cy="444" r="7.6" fill="#10B981" opacity="0.36"/>
  <circle cx="886" cy="408" r="5.7" fill="#F59E0B" opacity="0.73"/>
  <circle cx="297" cy="232" r="9.4" fill="#F59E0B" opacity="0.45"/>
  <circle cx="179" cy="446" r="4.8" fill="#F59E0B" opacity="0.36"/>
  <circle cx="287" cy="413" r="5.1" fill="#F59E0B" opacity="0.38"/>
  <circle cx="526" cy="210" r="3.0" fill="#10B981" opacity="0.30"/>
  <circle cx="658" cy="485" r="4.8" fill="#10B981" opacity="0.75"/>
  <circle cx="1012" cy="360" r="3.4" fill="#F59E0B" opacity="0.46"/>
  <circle cx="382" cy="287" r="5.8" fill="#F59E0B" opacity="0.44"/>
  <circle cx="406" cy="101" r="4.0" fill="#F59E0B" opacity="0.32"/>
  <circle cx="1018" cy="397" r="6.0" fill="#10B981" opacity="0.60"/>
  <circle cx="386" cy="382" r="5.3" fill="#F59E0B" opacity="0.63"/>
  <circle cx="348" cy="369" r="6.6" fill="#10B981" opacity="0.39"/>
  <circle cx="460" cy="451" r="6.9" fill="#10B981" opacity="0.66"/>
  <circle cx="1040" cy="254" r="6.2" fill="#10B981" opacity="0.51"/>
  <circle cx="815" cy="247" r="9.1" fill="#F59E0B" opacity="0.57"/>
  <circle cx="815" cy="353" r="4.4" fill="#F59E0B" opacity="0.52"/>
  <circle cx="941" cy="157" r="10.7" fill="#F59E0B" opacity="0.32"/>
  <circle cx="1010" cy="336" r="4.5" fill="#F59E0B" opacity="0.64"/>
  <circle cx="581" cy="128" r="4.3" fill="#F59E0B" opacity="0.44"/>
  <circle cx="176" cy="372" r="6.6" fill="#F59E0B" opacity="0.52"/>
  <line x1="160" y1="450" x2="1040" y2="150" stroke="#10B981" stroke-width="2" stroke-dasharray="6 4" opacity="0.5"/>
</svg>