<svg xmlns="http://www.w3.org/2000/svg" viewBox="0 0 1200 630" fill="none">
  <rect width="1200" height="630" fill="#0d1117"/>
  <rect x="30" y="30" width="1140" height="570" rx="20" fill="#161b22" stroke="#30363d" stroke-width="1"/>
  <defs>
    <linearGradient id="lineGrad" x1="0%" y1="0%" x2="100%" y2="0%">
      <stop offset="0%" stop-color="#06B6D4"/>
      <stop offset="100%" stop-color="#F97316"/>
    </linearGradient>
    <linearGradient id="areaGrad" x1="0%" y1="0%" x2="0%" y2="100%">
      <stop offset="0%" stop-color="#06B6D4" stop-opacity="0.3"/>
      <stop offset="100%" stop-color="#06B6D4" stop-opacity="0"/>
    </linearGradient>
    <linearGradient id="barGrad" x1="0%" y1="0%" x2="0%" y2="100%">
      <stop offset="0%" stop-color="#06B6D4"/>
      <stop offset="100%" stop-color="#F97316"/>
    </linearGradient>
  </defs>
  
  <circle cx="1020" cy="94.5" r="70.15769500285387" fill="#06B6D4" opacity="0.03"/>
  <circle cx="180" cy="504" r="60.03800818929449" fill="#F97316" opacity="0.04"/>
  <path d="M600 300 L780.0 300.0 A180 180 0 0 1 543.9 471.0 Z" fill="#06B6D4" opacity="0.7"/>
  <path d="M600 300 L543.9 471.0 A180 180 0 0 1 425.5 255.7 Z" fill="#F97316" opacity="0.75"/>
  <path d="M600 300 L425.5 255.7 A180 180 0 0 1 615.2 120.6 Z" fill="#8B949E" opacity="0.7999999999999999"/>
  <path d="M600 300 L615.2 120.6 A180 180 0 0 1 756.5 211.1 Z" fill="#30363D" opacity="0.85"/>
  <path d="M600 300 L756.5 211.1 A180 180 0 0 1 780.0 300.0 Z" fill="#21262D" opacity="0.8999999999999999"/>
  <circle cx="600" cy="300" r="90" fill="#0d1117"/>
</svg>