<svg xmlns="http://www.w3.org/2000/svg" viewBox="0 0 1200 630" fill="none">
  <rect width="1200" height="630" fill="transparent"/>
  <rect x="30" y="30" width="1140" height="570" rx="20" fill="rgba(128,128,128,0.06)" stroke="rgba(128,128,128,0.15)" stroke-width="1"/>
  <defs>
    <linearGradient id="lineGrad" x1="0%" y1="0%" x2="100%" y2="0%">
      <stop offset="0%" stop-color="#06B6D4"/>
      <stop offset="100%" stop-color="#F97316"/>
    </linearGradient>
    <linearGradient id="areaGrad" x1="0%" y1="0%" x2="0%" y2="100%">
      <stop offset="0%" stop-color="#06B6D4" stop-opacity="0.3"/>
      <stop offset="100%" stop-color="#06B6D4" stop-opacity="0"/>
    </linearGradient>
    <linearGradient id="barGrad" x1="0%" y1="0%" x2="0%" y2="100%">
      <stop offset="0%" stop-color="#06B6D4"/>
      <stop offset="100%" stop-color="#F97316"/>
    </linearGradient>
  </defs>
  
  <circle cx="1020" cy="94.5" r="84.7996929474175" fill="#06B6D4" opacity="0.03"/>
  <circle cx="180" cy="504" r="68.75951426802203" fill="#F97316" opacity="0.04"/>
  <rect x="160" y="359.45304297842085" width="60" height="160.54695702157915" rx="4" fill="url(#barGrad)" opacity="0.73"/>
  <rect x="250" y="270.8856607414782" width="60" height="249.1143392585218" rx="4" fill="url(#barGrad)" opacity="0.62"/>
  <rect x="340" y="200.21767291240394" width="60" height="319.78232708759606" rx="4" fill="url(#barGrad)" opacity="0.80"/>
  <rect x="430" y="228.70162162929773" width="60" height="291.29837837070227" rx="4" fill="url(#barGrad)" opacity="0.87"/>
  <rect x="520" y="327.5770647544414" width="60" height="192.42293524555862" rx="4" fill="url(#barGrad)" opacity="0.81"/>
  <rect x="610" y="437.58355347439647" width="60" height="82.41644652560353" rx="4" fill="url(#barGrad)" opacity="0.88"/>
  <rect x="700" y="196.30228421650827" width="60" height="323.69771578349173" rx="4" fill="url(#barGrad)" opacity="0.88"/>
  <rect x="790" y="409.4812100380659" width="60" height="110.51878996193409" rx="4" fill="url(#barGrad)" opacity="0.68"/>
</svg>