<svg xmlns="http://www.w3.org/2000/svg" viewBox="0 0 1200 630" fill="none">
  <rect width="1200" height="630" fill="#0d1117"/>
  <rect x="30" y="30" width="1140" height="570" rx="20" fill="#161b22" stroke="#30363d" stroke-width="1"/>
  <defs>
    <linearGradient id="lineGrad" x1="0%" y1="0%" x2="100%" y2="0%">
      <stop offset="0%" stop-color="#14B8A6"/>
      <stop offset="100%" stop-color="#E11D48"/>
    </linearGradient>
    <linearGradient id="areaGrad" x1="0%" y1="0%" x2="0%" y2="100%">
      <stop offset="0%" stop-color="#14B8A6" stop-opacity="0.3"/>
      <stop offset="100%" stop-color="#14B8A6" stop-opacity="0"/>
    </linearGradient>
    <linearGradient id="barGrad" x1="0%" y1="0%" x2="0%" y2="100%">
      <stop offset="0%" stop-color="#14B8A6"/>
      <stop offset="100%" stop-color="#E11D48"/>
    </linearGradient>
  </defs>
  
  <circle cx="1020" cy="94.5" r="93.21029208600521" fill="#14B8A6" opacity="0.03"/>
  <circle cx="180" cy="504" r="48.15788255305961" fill="#E11D48" opacity="0.04"/>
  <circle cx="1016" cy="213" r="10.5" fill="#E11D48" opacity="0.71"/>
  <circle cx="161" cy="226" r="5.2" fill="#E11D48" opacity="0.48"/>
  <circle cx="677" cy="188" r="3.9" fill="#14B8A6" opacity="0.43"/>
  <circle cx="295" cy="486" r="5.1" fill="#14B8A6" opacity="0.51"/>
  <circle cx="917" cy="417" r="4.6" fill="#E11D48" opacity="0.49"/>
  <circle cx="936" cy="172" r="10.5" fill="#14B8A6" opacity="0.54"/>
  <circle cx="705" cy="369" r="10.6" fill="#14B8A6" opacity="0.46"/>
  <circle cx="771" cy="115" r="7.3" fill="#E11D48" opacity="0.53"/>
  <circle cx="270" cy="301" r="8.3" fill="#14B8A6" opacity="0.55"/>
  <circle cx="653" cy="138" r="7.2" fill="#E11D48" opacity="0.62"/>
  <circle cx="594" cy="258" r="5.3" fill="#E11D48" opacity="0.48"/>
  <circle cx="520" cy="398" r="5.4" fill="#E11D48" opacity="0.42"/>
  <circle cx="1017" cy="385" r="9.5" fill="#14B8A6" opacity="0.66"/>
  <circle cx="904" cy="280" r="5.8" fill="#E11D48" opacity="0.68"/>
  <circle cx="956" cy="458" r="6.8" fill="#14B8A6" opacity="0.40"/>
  <circle cx="352" cy="516" r="3.0" fill="#E11D48" opacity="0.68"/>
  <circle cx="826" cy="136" r="7.9" fill="#E11D48" opacity="0.58"/>
  <circle cx="457" cy="417" r="8.0" fill="#E11D48" opacity="0.41"/>
  <circle cx="551" cy="476" r="6.3" fill="#E11D48" opacity="0.59"/>
  <circle cx="734" cy="121" r="3.9" fill="#14B8A6" opacity="0.35"/>
  <circle cx="285" cy="225" r="7.2" fill="#E11D48" opacity="0.59"/>
  <circle cx="877" cy="352" r="8.0" fill="#14B8A6" opacity="0.30"/>
  <circle cx="396" cy="181" r="8.5" fill="#14B8A6" opacity="0.34"/>
  <circle cx="782" cy="353" r="9.4" fill="#E11D48" opacity="0.79"/>
  <circle cx="291" cy="421" r="4.8" fill="#14B8A6" opacity="0.65"/>
  <circle cx="395" cy="164" r="7.9" fill="#E11D48" opacity="0.69"/>
  <circle cx="288" cy="269" r="6.6" fill="#14B8A6" opacity="0.43"/>
  <circle cx="562" cy="104" r="9.4" fill="#14B8A6" opacity="0.55"/>
  <circle cx="973" cy="106" r="7.9" fill="#E11D48" opacity="0.45"/>
  <circle cx="524" cy="377" r="7.1" fill="#E11D48" opacity="0.74"/>
  <circle cx="988" cy="148" r="10.4" fill="#E11D48" opacity="0.31"/>
  <circle cx="973" cy="491" r="3.2" fill="#E11D48" opacity="0.60"/>
  <circle cx="519" cy="476" r="9.3" fill="#E11D48" opacity="0.31"/>
  <circle cx="837" cy="338" r="6.0" fill="#14B8A6" opacity="0.60"/>
  <circle cx="820" cy="141" r="3.7" fill="#14B8A6" opacity="0.78"/>
  <circle cx="929" cy="389" r="9.8" fill="#E11D48" opacity="0.64"/>
  <circle cx="409" cy="504" r="4.0" fill="#E11D48" opacity="0.50"/>
  <circle cx="692" cy="367" r="5.6" fill="#14B8A6" opacity="0.56"/>
  <circle cx="381" cy="340" r="3.4" fill="#E11D48" opacity="0.42"/>
  <circle cx="604" cy="398" r="10.9" fill="#E11D48" opacity="0.74"/>
  <line x1="160" y1="450" x2="1040" y2="150" stroke="#14B8A6" stroke-width="2" stroke-dasharray="6 4" opacity="0.5"/>
</svg>