<svg xmlns="http://www.w3.org/2000/svg" viewBox="0 0 1200 630" fill="none">
  <rect width="1200" height="630" fill="#0d1117"/>
  <rect x="30" y="30" width="1140" height="570" rx="20" fill="#161b22" stroke="#30363d" stroke-width="1"/>
  <defs>
    <linearGradient id="lineGrad" x1="0%" y1="0%" x2="100%" y2="0%">
      <stop offset="0%" stop-color="#8B5CF6"/>
      <stop offset="100%" stop-color="#EC4899"/>
    </linearGradient>
    <linearGradient id="areaGrad" x1="0%" y1="0%" x2="0%" y2="100%">
      <stop offset="0%" stop-color="#8B5CF6" stop-opacity="0.3"/>
      <stop offset="100%" stop-color="#8B5CF6" stop-opacity="0"/>
    </linearGradient>
    <linearGradient id="barGrad" x1="0%" y1="0%" x2="0%" y2="100%">
      <stop offset="0%" stop-color="#8B5CF6"/>
      <stop offset="100%" stop-color="#EC4899"/>
    </linearGradient>
  </defs>
  
  <circle cx="1020" cy="94.5" r="85.79418163746595" fill="#8B5CF6" opacity="0.03"/>
  <circle cx="180" cy="504" r="62.22461644792929" fill="#EC4899" opacity="0.04"/>
  <circle cx="992" cy="286" r="10.8" fill="#EC4899" opacity="0.55"/>
  <circle cx="412" cy="488" r="10.3" fill="#EC4899" opacity="0.55"/>
  <circle cx="291" cy="454" r="4.4" fill="#8B5CF6" opacity="0.49"/>
  <circle cx="492" cy="376" r="3.0" fill="#8B5CF6" opacity="0.75"/>
  <circle cx="471" cy="234" r="10.6" fill="#8B5CF6" opacity="0.62"/>
  <circle cx="351" cy="333" r="6.2" fill="#8B5CF6" opacity="0.74"/>
  <circle cx="419" cy="140" r="10.7" fill="#8B5CF6" opacity="0.52"/>
  <circle cx="191" cy="353" r="5.7" fill="#8B5CF6" opacity="0.54"/>
  <circle cx="877" cy="243" r="3.3" fill="#8B5CF6" opacity="0.52"/>
  <circle cx="801" cy="510" r="7.8" fill="#EC4899" opacity="0.68"/>
  <circle cx="322" cy="422" r="6.3" fill="#8B5CF6" opacity="0.76"/>
  <circle cx="347" cy="446" r="5.6" fill="#EC4899" opacity="0.44"/>
  <circle cx="900" cy="366" r="10.2" fill="#8B5CF6" opacity="0.62"/>
  <circle cx="727" cy="134" r="6.7" fill="#EC4899" opacity="0.61"/>
  <circle cx="1038" cy="212" r="6.9" fill="#8B5CF6" opacity="0.37"/>
  <circle cx="379" cy="256" r="8.6" fill="#EC4899" opacity="0.60"/>
  <circle cx="588" cy="498" r="10.8" fill="#EC4899" opacity="0.31"/>
  <circle cx="248" cy="479" r="5.0" fill="#8B5CF6" opacity="0.62"/>
  <circle cx="946" cy="180" r="6.6" fill="#8B5CF6" opacity="0.42"/>
  <circle cx="541" cy="320" r="7.2" fill="#EC4899" opacity="0.36"/>
  <circle cx="799" cy="174" r="10.4" fill="#8B5CF6" opacity="0.73"/>
  <circle cx="970" cy="360" r="7.4" fill="#EC4899" opacity="0.74"/>
  <circle cx="993" cy="459" r="5.0" fill="#8B5CF6" opacity="0.66"/>
  <circle cx="475" cy="296" r="9.7" fill="#8B5CF6" opacity="0.60"/>
  <circle cx="943" cy="159" r="4.7" fill="#EC4899" opacity="0.79"/>
  <circle cx="619" cy="148" r="7.7" fill="#EC4899" opacity="0.55"/>
  <circle cx="435" cy="201" r="10.0" fill="#EC4899" opacity="0.36"/>
  <circle cx="233" cy="468" r="4.4" fill="#EC4899" opacity="0.37"/>
  <circle cx="430" cy="309" r="6.5" fill="#EC4899" opacity="0.53"/>
  <circle cx="547" cy="108" r="3.3" fill="#EC4899" opacity="0.48"/>
  <circle cx="932" cy="441" r="4.6" fill="#EC4899" opacity="0.48"/>
  <circle cx="867" cy="308" r="7.8" fill="#EC4899" opacity="0.65"/>
  <circle cx="628" cy="441" r="7.9" fill="#8B5CF6" opacity="0.65"/>
  <circle cx="870" cy="356" r="8.3" fill="#EC4899" opacity="0.60"/>
  <circle cx="962" cy="465" r="9.9" fill="#8B5CF6" opacity="0.59"/>
  <circle cx="1000" cy="146" r="8.3" fill="#8B5CF6" opacity="0.48"/>
  <circle cx="870" cy="162" r="6.9" fill="#EC4899" opacity="0.78"/>
  <circle cx="464" cy="513" r="8.6" fill="#8B5CF6" opacity="0.79"/>
  <circle cx="598" cy="287" r="4.3" fill="#8B5CF6" opacity="0.55"/>
  <circle cx="160" cy="345" r="5.8" fill="#8B5CF6" opacity="0.58"/>
  <line x1="160" y1="450" x2="1040" y2="150" stroke="#8B5CF6" stroke-width="2" stroke-dasharray="6 4" opacity="0.5"/>
</svg>