<svg xmlns="http://www.w3.org/2000/svg" viewBox="0 0 1200 630" fill="none">
  <rect width="1200" height="630" fill="transparent"/>
  <rect x="30" y="30" width="1140" height="570" rx="20" fill="rgba(128,128,128,0.06)" stroke="rgba(128,128,128,0.15)" stroke-width="1"/>
  <defs>
    <linearGradient id="lineGrad" x1="0%" y1="0%" x2="100%" y2="0%">
      <stop offset="0%" stop-color="#06B6D4"/>
      <stop offset="100%" stop-color="#F97316"/>
    </linearGradient>
    <linearGradient id="areaGrad" x1="0%" y1="0%" x2="0%" y2="100%">
      <stop offset="0%" stop-color="#06B6D4" stop-opacity="0.3"/>
      <stop offset="100%" stop-color="#06B6D4" stop-opacity="0"/>
    </linearGradient>
    <linearGradient id="barGrad" x1="0%" y1="0%" x2="0%" y2="100%">
      <stop offset="0%" stop-color="#06B6D4"/>
      <stop offset="100%" stop-color="#F97316"/>
    </linearGradient>
  </defs>
  
  <circle cx="1020" cy="94.5" r="61.13005795516074" fill="#06B6D4" opacity="0.03"/>
  <circle cx="180" cy="504" r="54.370399629697204" fill="#F97316" opacity="0.04"/>
  <path d="M140 256 L220 264 L300 261 L380 249 L460 279 L540 262 L620 262 L700 251 L780 279 L860 296 L940 304 L1020 297 L1060 530 L140 530 Z" fill="#06B6D4" opacity="0.15"/>
  <path d="M140 256 L220 264 L300 261 L380 249 L460 279 L540 262 L620 262 L700 251 L780 279 L860 296 L940 304 L1020 297" stroke="#06B6D4" stroke-width="2" fill="none" opacity="0.8"/>
  <path d="M140 319 L220 329 L300 344 L380 376 L460 369 L540 358 L620 362 L700 373 L780 386 L860 398 L940 425 L1020 433 L1060 530 L140 530 Z" fill="#F97316" opacity="0.12"/>
  <path d="M140 319 L220 329 L300 344 L380 376 L460 369 L540 358 L620 362 L700 373 L780 386 L860 398 L940 425 L1020 433" stroke="#F97316" stroke-width="2" fill="none" opacity="0.8"/>
  <path d="M140 420 L220 416 L300 412 L380 430 L460 434 L540 442 L620 417 L700 406 L780 416 L860 403 L940 406 L1020 434 L1060 530 L140 530 Z" fill="#8B949E" opacity="0.09"/>
  <path d="M140 420 L220 416 L300 412 L380 430 L460 434 L540 442 L620 417 L700 406 L780 416 L860 403 L940 406 L1020 434" stroke="#8B949E" stroke-width="2" fill="none" opacity="0.8"/>
</svg>