<svg xmlns="http://www.w3.org/2000/svg" viewBox="0 0 1200 630" fill="none">
  <rect width="1200" height="630" fill="transparent"/>
  <rect x="30" y="30" width="1140" height="570" rx="20" fill="rgba(128,128,128,0.06)" stroke="rgba(128,128,128,0.15)" stroke-width="1"/>
  <defs>
    <linearGradient id="lineGrad" x1="0%" y1="0%" x2="100%" y2="0%">
      <stop offset="0%" stop-color="#06B6D4"/>
      <stop offset="100%" stop-color="#F97316"/>
    </linearGradient>
    <linearGradient id="areaGrad" x1="0%" y1="0%" x2="0%" y2="100%">
      <stop offset="0%" stop-color="#06B6D4" stop-opacity="0.3"/>
      <stop offset="100%" stop-color="#06B6D4" stop-opacity="0"/>
    </linearGradient>
    <linearGradient id="barGrad" x1="0%" y1="0%" x2="0%" y2="100%">
      <stop offset="0%" stop-color="#06B6D4"/>
      <stop offset="100%" stop-color="#F97316"/>
    </linearGradient>
  </defs>
  
  <circle cx="1020" cy="94.5" r="74.19197601266205" fill="#06B6D4" opacity="0.03"/>
  <circle cx="180" cy="504" r="61.23639641329646" fill="#F97316" opacity="0.04"/>
  <line x1="182" y1="305.41292786831036" x2="182" y2="376.3001009938307" stroke="#06B6D4" stroke-width="1.5"/>
  <rect x="170" y="338.0503076245077" width="24" height="14.268390089273453" rx="2" fill="#06B6D4" opacity="0.85"/>
  <line x1="256" y1="259.70135024981573" x2="256" y2="320.3927625552751" stroke="#06B6D4" stroke-width="1.5"/>
  <rect x="244" y="273.2030632556416" width="24" height="18.90595806762576" rx="2" fill="#06B6D4" opacity="0.85"/>
  <line x1="330" y1="200.9648129181005" x2="330" y2="257.5830257986672" stroke="#06B6D4" stroke-width="1.5"/>
  <rect x="318" y="221.83646355988458" width="24" height="3" rx="2" fill="#06B6D4" opacity="0.85"/>
  <line x1="404" y1="392.8329601814039" x2="404" y2="440.8087150589563" stroke="#F97316" stroke-width="1.5"/>
  <rect x="392" y="415.7847369671799" width="24" height="9.326915349811316" rx="2" fill="#F97316" opacity="0.85"/>
  <line x1="478" y1="211.2021416821517" x2="478" y2="250.90711754979566" stroke="#F97316" stroke-width="1.5"/>
  <rect x="466" y="217.52055186079815" width="24" height="32.24123530089855" rx="2" fill="#F97316" opacity="0.85"/>
  <line x1="552" y1="180.8207314577885" x2="552" y2="240.48132445896044" stroke="#F97316" stroke-width="1.5"/>
  <rect x="540" y="203.1685582944192" width="24" height="31.404804531484842" rx="2" fill="#F97316" opacity="0.85"/>
  <line x1="626" y1="381.02578604826704" x2="626" y2="483.02929549710825" stroke="#06B6D4" stroke-width="1.5"/>
  <rect x="614" y="399.7093312558718" width="24" height="45.790557004511356" rx="2" fill="#06B6D4" opacity="0.85"/>
  <line x1="700" y1="226.27875584410504" x2="700" y2="307.31293270597234" stroke="#F97316" stroke-width="1.5"/>
  <rect x="688" y="237.64642967144027" width="24" height="42.946338932961226" rx="2" fill="#F97316" opacity="0.85"/>
  <line x1="774" y1="382.30851762229577" x2="774" y2="391.78389557870105" stroke="#06B6D4" stroke-width="1.5"/>
  <rect x="762" y="385.5698390980251" width="24" height="5.64194917678833" rx="2" fill="#06B6D4" opacity="0.85"/>
  <line x1="848" y1="239.69173594610766" x2="848" y2="322.86114981630817" stroke="#06B6D4" stroke-width="1.5"/>
  <rect x="836" y="264.0708057791926" width="24" height="38.13370941206813" rx="2" fill="#06B6D4" opacity="0.85"/>
</svg>