<svg xmlns="http://www.w3.org/2000/svg" viewBox="0 0 1200 630" fill="none">
  <rect width="1200" height="630" fill="#0d1117"/>
  <rect x="30" y="30" width="1140" height="570" rx="20" fill="#161b22" stroke="#30363d" stroke-width="1"/>
  <defs>
    <linearGradient id="lineGrad" x1="0%" y1="0%" x2="100%" y2="0%">
      <stop offset="0%" stop-color="#10B981"/>
      <stop offset="100%" stop-color="#F59E0B"/>
    </linearGradient>
    <linearGradient id="areaGrad" x1="0%" y1="0%" x2="0%" y2="100%">
      <stop offset="0%" stop-color="#10B981" stop-opacity="0.3"/>
      <stop offset="100%" stop-color="#10B981" stop-opacity="0"/>
    </linearGradient>
    <linearGradient id="barGrad" x1="0%" y1="0%" x2="0%" y2="100%">
      <stop offset="0%" stop-color="#10B981"/>
      <stop offset="100%" stop-color="#F59E0B"/>
    </linearGradient>
  </defs>
  
  <circle cx="1020" cy="94.5" r="96.15378596819937" fill="#10B981" opacity="0.03"/>
  <circle cx="180" cy="504" r="47.52357698045671" fill="#F59E0B" opacity="0.04"/>
  <path d="M140 261 L220 276 L300 279 L380 255 L460 228 L540 237 L620 252 L700 231 L780 229 L860 215 L940 220 L1020 221 L1060 530 L140 530 Z" fill="#10B981" opacity="0.15"/>
  <path d="M140 261 L220 276 L300 279 L380 255 L460 228 L540 237 L620 252 L700 231 L780 229 L860 215 L940 220 L1020 221" stroke="#10B981" stroke-width="2" fill="none" opacity="0.8"/>
  <path d="M140 363 L220 353 L300 374 L380 351 L460 351 L540 363 L620 394 L700 427 L780 445 L860 436 L940 416 L1020 429 L1060 530 L140 530 Z" fill="#F59E0B" opacity="0.12"/>
  <path d="M140 363 L220 353 L300 374 L380 351 L460 351 L540 363 L620 394 L700 427 L780 445 L860 436 L940 416 L1020 429" stroke="#F59E0B" stroke-width="2" fill="none" opacity="0.8"/>
  <path d="M140 437 L220 414 L300 390 L380 414 L460 394 L540 391 L620 392 L700 401 L780 418 L860 393 L940 390 L1020 393 L1060 530 L140 530 Z" fill="#8B949E" opacity="0.09"/>
  <path d="M140 437 L220 414 L300 390 L380 414 L460 394 L540 391 L620 392 L700 401 L780 418 L860 393 L940 390 L1020 393" stroke="#8B949E" stroke-width="2" fill="none" opacity="0.8"/>
</svg>