<svg xmlns="http://www.w3.org/2000/svg" viewBox="0 0 1200 630" fill="none">
  <rect width="1200" height="630" fill="transparent"/>
  <rect x="30" y="30" width="1140" height="570" rx="20" fill="rgba(128,128,128,0.06)" stroke="rgba(128,128,128,0.15)" stroke-width="1"/>
  <defs>
    <linearGradient id="lineGrad" x1="0%" y1="0%" x2="100%" y2="0%">
      <stop offset="0%" stop-color="#10B981"/>
      <stop offset="100%" stop-color="#F59E0B"/>
    </linearGradient>
    <linearGradient id="areaGrad" x1="0%" y1="0%" x2="0%" y2="100%">
      <stop offset="0%" stop-color="#10B981" stop-opacity="0.3"/>
      <stop offset="100%" stop-color="#10B981" stop-opacity="0"/>
    </linearGradient>
    <linearGradient id="barGrad" x1="0%" y1="0%" x2="0%" y2="100%">
      <stop offset="0%" stop-color="#10B981"/>
      <stop offset="100%" stop-color="#F59E0B"/>
    </linearGradient>
  </defs>
  
  <circle cx="1020" cy="94.5" r="79.63178663514555" fill="#10B981" opacity="0.03"/>
  <circle cx="180" cy="504" r="46.81868841405958" fill="#F59E0B" opacity="0.04"/>
  <path d="M140 297 L220 271 L300 264 L380 280 L460 257 L540 250 L620 240 L700 245 L780 223 L860 217 L940 193 L1020 167 L1060 530 L140 530 Z" fill="#10B981" opacity="0.15"/>
  <path d="M140 297 L220 271 L300 264 L380 280 L460 257 L540 250 L620 240 L700 245 L780 223 L860 217 L940 193 L1020 167" stroke="#10B981" stroke-width="2" fill="none" opacity="0.8"/>
  <path d="M140 388 L220 369 L300 402 L380 418 L460 395 L540 417 L620 401 L700 426 L780 451 L860 463 L940 445 L1020 475 L1060 530 L140 530 Z" fill="#F59E0B" opacity="0.12"/>
  <path d="M140 388 L220 369 L300 402 L380 418 L460 395 L540 417 L620 401 L700 426 L780 451 L860 463 L940 445 L1020 475" stroke="#F59E0B" stroke-width="2" fill="none" opacity="0.8"/>
  <path d="M140 391 L220 393 L300 402 L380 385 L460 393 L540 368 L620 353 L700 344 L780 350 L860 348 L940 342 L1020 335 L1060 530 L140 530 Z" fill="#8B949E" opacity="0.09"/>
  <path d="M140 391 L220 393 L300 402 L380 385 L460 393 L540 368 L620 353 L700 344 L780 350 L860 348 L940 342 L1020 335" stroke="#8B949E" stroke-width="2" fill="none" opacity="0.8"/>
</svg>