<svg xmlns="http://www.w3.org/2000/svg" viewBox="0 0 1200 630" fill="none">
  <rect width="1200" height="630" fill="transparent"/>
  <rect x="30" y="30" width="1140" height="570" rx="20" fill="rgba(128,128,128,0.06)" stroke="rgba(128,128,128,0.15)" stroke-width="1"/>
  <defs>
    <linearGradient id="lineGrad" x1="0%" y1="0%" x2="100%" y2="0%">
      <stop offset="0%" stop-color="#06B6D4"/>
      <stop offset="100%" stop-color="#F97316"/>
    </linearGradient>
    <linearGradient id="areaGrad" x1="0%" y1="0%" x2="0%" y2="100%">
      <stop offset="0%" stop-color="#06B6D4" stop-opacity="0.3"/>
      <stop offset="100%" stop-color="#06B6D4" stop-opacity="0"/>
    </linearGradient>
    <linearGradient id="barGrad" x1="0%" y1="0%" x2="0%" y2="100%">
      <stop offset="0%" stop-color="#06B6D4"/>
      <stop offset="100%" stop-color="#F97316"/>
    </linearGradient>
  </defs>
  
  <circle cx="1020" cy="94.5" r="97.49733788892627" fill="#06B6D4" opacity="0.03"/>
  <circle cx="180" cy="504" r="59.3442129320465" fill="#F97316" opacity="0.04"/>
  <rect x="160" y="231.74242704175413" width="60" height="288.2575729582459" rx="4" fill="url(#barGrad)" opacity="0.61"/>
  <rect x="250" y="195.07010519504547" width="60" height="324.92989480495453" rx="4" fill="url(#barGrad)" opacity="0.74"/>
  <rect x="340" y="291.58275910653174" width="60" height="228.41724089346826" rx="4" fill="url(#barGrad)" opacity="0.97"/>
  <rect x="430" y="404.647560659796" width="60" height="115.352439340204" rx="4" fill="url(#barGrad)" opacity="0.72"/>
  <rect x="520" y="191.6362603288144" width="60" height="328.3637396711856" rx="4" fill="url(#barGrad)" opacity="0.90"/>
  <rect x="610" y="260.02935130149126" width="60" height="259.97064869850874" rx="4" fill="url(#barGrad)" opacity="0.75"/>
  <rect x="700" y="234.2932438571006" width="60" height="285.7067561428994" rx="4" fill="url(#barGrad)" opacity="0.61"/>
  <rect x="790" y="249.3336726538837" width="60" height="270.6663273461163" rx="4" fill="url(#barGrad)" opacity="0.79"/>
</svg>