<svg xmlns="http://www.w3.org/2000/svg" viewBox="0 0 1200 630" fill="none">
  <rect width="1200" height="630" fill="transparent"/>
  <rect x="30" y="30" width="1140" height="570" rx="20" fill="rgba(128,128,128,0.06)" stroke="rgba(128,128,128,0.15)" stroke-width="1"/>
  <defs>
    <linearGradient id="lineGrad" x1="0%" y1="0%" x2="100%" y2="0%">
      <stop offset="0%" stop-color="#00F0FF"/>
      <stop offset="100%" stop-color="#A91079"/>
    </linearGradient>
    <linearGradient id="areaGrad" x1="0%" y1="0%" x2="0%" y2="100%">
      <stop offset="0%" stop-color="#00F0FF" stop-opacity="0.3"/>
      <stop offset="100%" stop-color="#00F0FF" stop-opacity="0"/>
    </linearGradient>
    <linearGradient id="barGrad" x1="0%" y1="0%" x2="0%" y2="100%">
      <stop offset="0%" stop-color="#00F0FF"/>
      <stop offset="100%" stop-color="#A91079"/>
    </linearGradient>
  </defs>
  
  <circle cx="1020" cy="94.5" r="86.36952416971326" fill="#00F0FF" opacity="0.03"/>
  <circle cx="180" cy="504" r="56.24598315684125" fill="#A91079" opacity="0.04"/>
  <rect x="160" y="158.55646506883204" width="60" height="361.44353493116796" rx="4" fill="url(#barGrad)" opacity="0.69"/>
  <rect x="250" y="279.1376298852265" width="60" height="240.8623701147735" rx="4" fill="url(#barGrad)" opacity="0.88"/>
  <rect x="340" y="185.21679426543415" width="60" height="334.78320573456585" rx="4" fill="url(#barGrad)" opacity="0.85"/>
  <rect x="430" y="159.46079935878515" width="60" height="360.53920064121485" rx="4" fill="url(#barGrad)" opacity="0.85"/>
  <rect x="520" y="421.6960484255105" width="60" height="98.30395157448947" rx="4" fill="url(#barGrad)" opacity="0.67"/>
  <rect x="610" y="241.22177740558982" width="60" height="278.7782225944102" rx="4" fill="url(#barGrad)" opacity="0.86"/>
  <rect x="700" y="219.90121855400503" width="60" height="300.098781445995" rx="4" fill="url(#barGrad)" opacity="0.99"/>
  <rect x="790" y="197.65419229865074" width="60" height="322.34580770134926" rx="4" fill="url(#barGrad)" opacity="0.90"/>
</svg>