<svg xmlns="http://www.w3.org/2000/svg" viewBox="0 0 1200 630" fill="none">
  <rect width="1200" height="630" fill="#0d1117"/>
  <rect x="30" y="30" width="1140" height="570" rx="20" fill="#161b22" stroke="#30363d" stroke-width="1"/>
  <defs>
    <linearGradient id="lineGrad" x1="0%" y1="0%" x2="100%" y2="0%">
      <stop offset="0%" stop-color="#00F0FF"/>
      <stop offset="100%" stop-color="#A91079"/>
    </linearGradient>
    <linearGradient id="areaGrad" x1="0%" y1="0%" x2="0%" y2="100%">
      <stop offset="0%" stop-color="#00F0FF" stop-opacity="0.3"/>
      <stop offset="100%" stop-color="#00F0FF" stop-opacity="0"/>
    </linearGradient>
    <linearGradient id="barGrad" x1="0%" y1="0%" x2="0%" y2="100%">
      <stop offset="0%" stop-color="#00F0FF"/>
      <stop offset="100%" stop-color="#A91079"/>
    </linearGradient>
  </defs>
  
  <circle cx="1020" cy="94.5" r="72.96553006395698" fill="#00F0FF" opacity="0.03"/>
  <circle cx="180" cy="504" r="53.77932017436251" fill="#A91079" opacity="0.04"/>
  <rect x="160" y="250.33700141124427" width="60" height="269.6629985887557" rx="4" fill="url(#barGrad)" opacity="0.83"/>
  <rect x="250" y="246.79294262081385" width="60" height="273.20705737918615" rx="4" fill="url(#barGrad)" opacity="0.80"/>
  <rect x="340" y="209.30230450816453" width="60" height="310.6976954918355" rx="4" fill="url(#barGrad)" opacity="0.67"/>
  <rect x="430" y="179.4957515411079" width="60" height="340.5042484588921" rx="4" fill="url(#barGrad)" opacity="0.74"/>
  <rect x="520" y="233.05262467823923" width="60" height="286.9473753217608" rx="4" fill="url(#barGrad)" opacity="0.80"/>
  <rect x="610" y="401.80730275809765" width="60" height="118.19269724190235" rx="4" fill="url(#barGrad)" opacity="0.69"/>
  <rect x="700" y="358.74771476723254" width="60" height="161.25228523276746" rx="4" fill="url(#barGrad)" opacity="0.91"/>
  <rect x="790" y="267.7248506434262" width="60" height="252.27514935657382" rx="4" fill="url(#barGrad)" opacity="0.82"/>
</svg>