<svg xmlns="http://www.w3.org/2000/svg" viewBox="0 0 1200 630" fill="none">
  <rect width="1200" height="630" fill="transparent"/>
  <rect x="30" y="30" width="1140" height="570" rx="20" fill="rgba(128,128,128,0.06)" stroke="rgba(128,128,128,0.15)" stroke-width="1"/>
  <defs>
    <linearGradient id="lineGrad" x1="0%" y1="0%" x2="100%" y2="0%">
      <stop offset="0%" stop-color="#8B5CF6"/>
      <stop offset="100%" stop-color="#EC4899"/>
    </linearGradient>
    <linearGradient id="areaGrad" x1="0%" y1="0%" x2="0%" y2="100%">
      <stop offset="0%" stop-color="#8B5CF6" stop-opacity="0.3"/>
      <stop offset="100%" stop-color="#8B5CF6" stop-opacity="0"/>
    </linearGradient>
    <linearGradient id="barGrad" x1="0%" y1="0%" x2="0%" y2="100%">
      <stop offset="0%" stop-color="#8B5CF6"/>
      <stop offset="100%" stop-color="#EC4899"/>
    </linearGradient>
  </defs>
  
  <circle cx="1020" cy="94.5" r="81.06003724038601" fill="#8B5CF6" opacity="0.03"/>
  <circle cx="180" cy="504" r="45.94770432682708" fill="#EC4899" opacity="0.04"/>
  <rect x="160" y="199.65323094278574" width="60" height="320.34676905721426" rx="4" fill="url(#barGrad)" opacity="0.70"/>
  <rect x="250" y="237.10784000344574" width="60" height="282.89215999655426" rx="4" fill="url(#barGrad)" opacity="0.79"/>
  <rect x="340" y="239.75948510691524" width="60" height="280.24051489308476" rx="4" fill="url(#barGrad)" opacity="0.62"/>
  <rect x="430" y="340.48278919421136" width="60" height="179.51721080578864" rx="4" fill="url(#barGrad)" opacity="0.67"/>
  <rect x="520" y="400.3960361331701" width="60" height="119.60396386682987" rx="4" fill="url(#barGrad)" opacity="0.81"/>
  <rect x="610" y="235.99835486151278" width="60" height="284.0016451384872" rx="4" fill="url(#barGrad)" opacity="0.75"/>
  <rect x="700" y="140.31477706506848" width="60" height="379.6852229349315" rx="4" fill="url(#barGrad)" opacity="0.89"/>
  <rect x="790" y="264.8094222974032" width="60" height="255.19057770259678" rx="4" fill="url(#barGrad)" opacity="0.82"/>
</svg>