<svg xmlns="http://www.w3.org/2000/svg" viewBox="0 0 1200 630" fill="none">
  <rect width="1200" height="630" fill="transparent"/>
  <rect x="30" y="30" width="1140" height="570" rx="20" fill="rgba(128,128,128,0.06)" stroke="rgba(128,128,128,0.15)" stroke-width="1"/>
  <defs>
    <linearGradient id="lineGrad" x1="0%" y1="0%" x2="100%" y2="0%">
      <stop offset="0%" stop-color="#10B981"/>
      <stop offset="100%" stop-color="#F59E0B"/>
    </linearGradient>
    <linearGradient id="areaGrad" x1="0%" y1="0%" x2="0%" y2="100%">
      <stop offset="0%" stop-color="#10B981" stop-opacity="0.3"/>
      <stop offset="100%" stop-color="#10B981" stop-opacity="0"/>
    </linearGradient>
    <linearGradient id="barGrad" x1="0%" y1="0%" x2="0%" y2="100%">
      <stop offset="0%" stop-color="#10B981"/>
      <stop offset="100%" stop-color="#F59E0B"/>
    </linearGradient>
  </defs>
  
  <circle cx="1020" cy="94.5" r="89.26864460110664" fill="#10B981" opacity="0.03"/>
  <circle cx="180" cy="504" r="40.07303196238354" fill="#F59E0B" opacity="0.04"/>
  <rect x="160" y="236.91638350486755" width="60" height="283.08361649513245" rx="4" fill="url(#barGrad)" opacity="0.90"/>
  <rect x="250" y="288.0880463961512" width="60" height="231.91195360384881" rx="4" fill="url(#barGrad)" opacity="0.62"/>
  <rect x="340" y="405.00485772266984" width="60" height="114.99514227733016" rx="4" fill="url(#barGrad)" opacity="0.95"/>
  <rect x="430" y="403.0173887591809" width="60" height="116.9826112408191" rx="4" fill="url(#barGrad)" opacity="0.67"/>
  <rect x="520" y="405.21434802562" width="60" height="114.78565197438002" rx="4" fill="url(#barGrad)" opacity="0.81"/>
  <rect x="610" y="378.5380369145423" width="60" height="141.46196308545768" rx="4" fill="url(#barGrad)" opacity="0.93"/>
  <rect x="700" y="328.5072882287204" width="60" height="191.49271177127957" rx="4" fill="url(#barGrad)" opacity="0.70"/>
  <rect x="790" y="222.04251653514802" width="60" height="297.957483464852" rx="4" fill="url(#barGrad)" opacity="0.67"/>
</svg>