<svg xmlns="http://www.w3.org/2000/svg" viewBox="0 0 1200 630" fill="none">
  <rect width="1200" height="630" fill="transparent"/>
  <rect x="30" y="30" width="1140" height="570" rx="20" fill="rgba(128,128,128,0.06)" stroke="rgba(128,128,128,0.15)" stroke-width="1"/>
  <defs>
    <linearGradient id="lineGrad" x1="0%" y1="0%" x2="100%" y2="0%">
      <stop offset="0%" stop-color="#00F0FF"/>
      <stop offset="100%" stop-color="#A91079"/>
    </linearGradient>
    <linearGradient id="areaGrad" x1="0%" y1="0%" x2="0%" y2="100%">
      <stop offset="0%" stop-color="#00F0FF" stop-opacity="0.3"/>
      <stop offset="100%" stop-color="#00F0FF" stop-opacity="0"/>
    </linearGradient>
    <linearGradient id="barGrad" x1="0%" y1="0%" x2="0%" y2="100%">
      <stop offset="0%" stop-color="#00F0FF"/>
      <stop offset="100%" stop-color="#A91079"/>
    </linearGradient>
  </defs>
  
  <circle cx="1020" cy="94.5" r="70.10431156493723" fill="#00F0FF" opacity="0.03"/>
  <circle cx="180" cy="504" r="46.48775954730809" fill="#A91079" opacity="0.04"/>
  <path d="M140 289 L220 286 L300 271 L380 279 L460 291 L540 301 L620 305 L700 309 L780 290 L860 323 L940 315 L1020 302 L1060 530 L140 530 Z" fill="#00F0FF" opacity="0.15"/>
  <path d="M140 289 L220 286 L300 271 L380 279 L460 291 L540 301 L620 305 L700 309 L780 290 L860 323 L940 315 L1020 302" stroke="#00F0FF" stroke-width="2" fill="none" opacity="0.8"/>
  <path d="M140 336 L220 361 L300 338 L380 313 L460 312 L540 342 L620 373 L700 362 L780 337 L860 325 L940 314 L1020 289 L1060 530 L140 530 Z" fill="#A91079" opacity="0.12"/>
  <path d="M140 336 L220 361 L300 338 L380 313 L460 312 L540 342 L620 373 L700 362 L780 337 L860 325 L940 314 L1020 289" stroke="#A91079" stroke-width="2" fill="none" opacity="0.8"/>
  <path d="M140 376 L220 386 L300 384 L380 398 L460 409 L540 436 L620 447 L700 465 L780 473 L860 497 L940 500 L1020 490 L1060 530 L140 530 Z" fill="#8B949E" opacity="0.09"/>
  <path d="M140 376 L220 386 L300 384 L380 398 L460 409 L540 436 L620 447 L700 465 L780 473 L860 497 L940 500 L1020 490" stroke="#8B949E" stroke-width="2" fill="none" opacity="0.8"/>
</svg>