<svg xmlns="http://www.w3.org/2000/svg" viewBox="0 0 1200 630" fill="none">
  <rect width="1200" height="630" fill="#0d1117"/>
  <rect x="30" y="30" width="1140" height="570" rx="20" fill="#161b22" stroke="#30363d" stroke-width="1"/>
  <defs>
    <linearGradient id="lineGrad" x1="0%" y1="0%" x2="100%" y2="0%">
      <stop offset="0%" stop-color="#00F0FF"/>
      <stop offset="100%" stop-color="#A91079"/>
    </linearGradient>
    <linearGradient id="areaGrad" x1="0%" y1="0%" x2="0%" y2="100%">
      <stop offset="0%" stop-color="#00F0FF" stop-opacity="0.3"/>
      <stop offset="100%" stop-color="#00F0FF" stop-opacity="0"/>
    </linearGradient>
    <linearGradient id="barGrad" x1="0%" y1="0%" x2="0%" y2="100%">
      <stop offset="0%" stop-color="#00F0FF"/>
      <stop offset="100%" stop-color="#A91079"/>
    </linearGradient>
  </defs>
  
  <circle cx="1020" cy="94.5" r="75.84386636503041" fill="#00F0FF" opacity="0.03"/>
  <circle cx="180" cy="504" r="40.82797836512327" fill="#A91079" opacity="0.04"/>
  <path d="M140 255 L220 260 L300 258 L380 234 L460 258 L540 246 L620 255 L700 255 L780 244 L860 259 L940 272 L1020 258 L1060 530 L140 530 Z" fill="#00F0FF" opacity="0.15"/>
  <path d="M140 255 L220 260 L300 258 L380 234 L460 258 L540 246 L620 255 L700 255 L780 244 L860 259 L940 272 L1020 258" stroke="#00F0FF" stroke-width="2" fill="none" opacity="0.8"/>
  <path d="M140 308 L220 301 L300 323 L380 339 L460 333 L540 334 L620 318 L700 334 L780 360 L860 339 L940 342 L1020 335 L1060 530 L140 530 Z" fill="#A91079" opacity="0.12"/>
  <path d="M140 308 L220 301 L300 323 L380 339 L460 333 L540 334 L620 318 L700 334 L780 360 L860 339 L940 342 L1020 335" stroke="#A91079" stroke-width="2" fill="none" opacity="0.8"/>
  <path d="M140 397 L220 378 L300 402 L380 375 L460 396 L540 428 L620 419 L700 401 L780 377 L860 388 L940 373 L1020 366 L1060 530 L140 530 Z" fill="#8B949E" opacity="0.09"/>
  <path d="M140 397 L220 378 L300 402 L380 375 L460 396 L540 428 L620 419 L700 401 L780 377 L860 388 L940 373 L1020 366" stroke="#8B949E" stroke-width="2" fill="none" opacity="0.8"/>
</svg>