<svg xmlns="http://www.w3.org/2000/svg" viewBox="0 0 1200 630" fill="none">
  <rect width="1200" height="630" fill="#0d1117"/>
  <rect x="30" y="30" width="1140" height="570" rx="20" fill="#161b22" stroke="#30363d" stroke-width="1"/>
  <defs>
    <linearGradient id="lineGrad" x1="0%" y1="0%" x2="100%" y2="0%">
      <stop offset="0%" stop-color="#00F0FF"/>
      <stop offset="100%" stop-color="#A91079"/>
    </linearGradient>
    <linearGradient id="areaGrad" x1="0%" y1="0%" x2="0%" y2="100%">
      <stop offset="0%" stop-color="#00F0FF" stop-opacity="0.3"/>
      <stop offset="100%" stop-color="#00F0FF" stop-opacity="0"/>
    </linearGradient>
    <linearGradient id="barGrad" x1="0%" y1="0%" x2="0%" y2="100%">
      <stop offset="0%" stop-color="#00F0FF"/>
      <stop offset="100%" stop-color="#A91079"/>
    </linearGradient>
  </defs>
  
  <circle cx="1020" cy="94.5" r="60.74625104665756" fill="#00F0FF" opacity="0.03"/>
  <circle cx="180" cy="504" r="42.22461744444445" fill="#A91079" opacity="0.04"/>
  <rect x="160" y="196.01339228451252" width="60" height="323.9866077154875" rx="4" fill="url(#barGrad)" opacity="0.84"/>
  <rect x="250" y="364.75674585439265" width="60" height="155.24325414560735" rx="4" fill="url(#barGrad)" opacity="0.66"/>
  <rect x="340" y="435.6856441684067" width="60" height="84.31435583159328" rx="4" fill="url(#barGrad)" opacity="0.63"/>
  <rect x="430" y="227.85110558383167" width="60" height="292.14889441616833" rx="4" fill="url(#barGrad)" opacity="0.88"/>
  <rect x="520" y="342.64708306640387" width="60" height="177.35291693359613" rx="4" fill="url(#barGrad)" opacity="0.91"/>
  <rect x="610" y="325.7193768490106" width="60" height="194.2806231509894" rx="4" fill="url(#barGrad)" opacity="0.90"/>
  <rect x="700" y="208.28281125053763" width="60" height="311.71718874946237" rx="4" fill="url(#barGrad)" opacity="0.90"/>
  <rect x="790" y="191.87255456112325" width="60" height="328.12744543887675" rx="4" fill="url(#barGrad)" opacity="0.88"/>
</svg>