<svg xmlns="http://www.w3.org/2000/svg" viewBox="0 0 1200 630" fill="none">
  <rect width="1200" height="630" fill="transparent"/>
  <rect x="30" y="30" width="1140" height="570" rx="20" fill="rgba(128,128,128,0.06)" stroke="rgba(128,128,128,0.15)" stroke-width="1"/>
  <defs>
    <linearGradient id="lineGrad" x1="0%" y1="0%" x2="100%" y2="0%">
      <stop offset="0%" stop-color="#8B5CF6"/>
      <stop offset="100%" stop-color="#EC4899"/>
    </linearGradient>
    <linearGradient id="areaGrad" x1="0%" y1="0%" x2="0%" y2="100%">
      <stop offset="0%" stop-color="#8B5CF6" stop-opacity="0.3"/>
      <stop offset="100%" stop-color="#8B5CF6" stop-opacity="0"/>
    </linearGradient>
    <linearGradient id="barGrad" x1="0%" y1="0%" x2="0%" y2="100%">
      <stop offset="0%" stop-color="#8B5CF6"/>
      <stop offset="100%" stop-color="#EC4899"/>
    </linearGradient>
  </defs>
  
  <circle cx="1020" cy="94.5" r="65.78763784840703" fill="#8B5CF6" opacity="0.03"/>
  <circle cx="180" cy="504" r="67.99925396917388" fill="#EC4899" opacity="0.04"/>
  <rect x="160" y="367.7174273971468" width="60" height="152.28257260285318" rx="4" fill="url(#barGrad)" opacity="0.63"/>
  <rect x="250" y="270.89533234015107" width="60" height="249.10466765984893" rx="4" fill="url(#barGrad)" opacity="0.76"/>
  <rect x="340" y="262.0595400314778" width="60" height="257.9404599685222" rx="4" fill="url(#barGrad)" opacity="0.62"/>
  <rect x="430" y="358.92842818051577" width="60" height="161.07157181948423" rx="4" fill="url(#barGrad)" opacity="0.64"/>
  <rect x="520" y="338.8271411973983" width="60" height="181.1728588026017" rx="4" fill="url(#barGrad)" opacity="0.76"/>
  <rect x="610" y="198.69373185560107" width="60" height="321.3062681443989" rx="4" fill="url(#barGrad)" opacity="0.98"/>
  <rect x="700" y="360.7655397709459" width="60" height="159.2344602290541" rx="4" fill="url(#barGrad)" opacity="0.61"/>
  <rect x="790" y="359.163091853261" width="60" height="160.836908146739" rx="4" fill="url(#barGrad)" opacity="0.63"/>
</svg>