<svg xmlns="http://www.w3.org/2000/svg" viewBox="0 0 1200 630" fill="none">
  <rect width="1200" height="630" fill="#0d1117"/>
  <rect x="30" y="30" width="1140" height="570" rx="20" fill="#161b22" stroke="#30363d" stroke-width="1"/>
  <defs>
    <linearGradient id="lineGrad" x1="0%" y1="0%" x2="100%" y2="0%">
      <stop offset="0%" stop-color="#00F0FF"/>
      <stop offset="100%" stop-color="#A91079"/>
    </linearGradient>
    <linearGradient id="areaGrad" x1="0%" y1="0%" x2="0%" y2="100%">
      <stop offset="0%" stop-color="#00F0FF" stop-opacity="0.3"/>
      <stop offset="100%" stop-color="#00F0FF" stop-opacity="0"/>
    </linearGradient>
    <linearGradient id="barGrad" x1="0%" y1="0%" x2="0%" y2="100%">
      <stop offset="0%" stop-color="#00F0FF"/>
      <stop offset="100%" stop-color="#A91079"/>
    </linearGradient>
  </defs>
  
  <circle cx="1020" cy="94.5" r="78.21969787590206" fill="#00F0FF" opacity="0.03"/>
  <circle cx="180" cy="504" r="64.03720358852297" fill="#A91079" opacity="0.04"/>
  <line x1="182" y1="206.37080539716408" x2="182" y2="296.78244824288413" stroke="#00F0FF" stroke-width="1.5"/>
  <rect x="170" y="222.8577080531977" width="24" height="42.838486889377236" rx="2" fill="#00F0FF" opacity="0.85"/>
  <line x1="256" y1="278.33670902764425" x2="256" y2="334.50639843707904" stroke="#00F0FF" stroke-width="1.5"/>
  <rect x="244" y="292.35735152615234" width="24" height="3" rx="2" fill="#00F0FF" opacity="0.85"/>
  <line x1="330" y1="210.36316248355433" x2="330" y2="287.8202482010238" stroke="#00F0FF" stroke-width="1.5"/>
  <rect x="318" y="239.73269186681136" width="24" height="42.74817151017487" rx="2" fill="#00F0FF" opacity="0.85"/>
  <line x1="404" y1="355.9291457827203" x2="404" y2="401.92422627238557" stroke="#A91079" stroke-width="1.5"/>
  <rect x="392" y="381.04343762388453" width="24" height="4.811155842617154" rx="2" fill="#A91079" opacity="0.85"/>
  <line x1="478" y1="340.6058193813078" x2="478" y2="449.0464065852575" stroke="#00F0FF" stroke-width="1.5"/>
  <rect x="466" y="375.6537885754369" width="24" height="43.0270413402468" rx="2" fill="#00F0FF" opacity="0.85"/>
  <line x1="552" y1="353.4694046410732" x2="552" y2="442.1494567091577" stroke="#A91079" stroke-width="1.5"/>
  <rect x="540" y="393.4290076023899" width="24" height="41.158544505015016" rx="2" fill="#A91079" opacity="0.85"/>
  <line x1="626" y1="358.7302056304179" x2="626" y2="420.0228074542247" stroke="#A91079" stroke-width="1.5"/>
  <rect x="614" y="379.3746963958256" width="24" height="40.21410192362964" rx="2" fill="#A91079" opacity="0.85"/>
  <line x1="700" y1="359.3450661073439" x2="700" y2="392.61794979451224" stroke="#A91079" stroke-width="1.5"/>
  <rect x="688" y="378.1110688461922" width="24" height="4.3552805203944445" rx="2" fill="#A91079" opacity="0.85"/>
  <line x1="774" y1="207.212363013532" x2="774" y2="262.65275778016075" stroke="#A91079" stroke-width="1.5"/>
  <rect x="762" y="213.40632344363257" width="24" height="37.8188022878021" rx="2" fill="#A91079" opacity="0.85"/>
  <line x1="848" y1="358.8304303190671" x2="848" y2="385.22894359892234" stroke="#00F0FF" stroke-width="1.5"/>
  <rect x="836" y="372.275008528959" width="24" height="6.966395815834403" rx="2" fill="#00F0FF" opacity="0.85"/>
</svg>