<svg xmlns="http://www.w3.org/2000/svg" viewBox="0 0 1200 630" fill="none">
  <rect width="1200" height="630" fill="transparent"/>
  <rect x="30" y="30" width="1140" height="570" rx="20" fill="rgba(128,128,128,0.06)" stroke="rgba(128,128,128,0.15)" stroke-width="1"/>
  <defs>
    <linearGradient id="lineGrad" x1="0%" y1="0%" x2="100%" y2="0%">
      <stop offset="0%" stop-color="#14B8A6"/>
      <stop offset="100%" stop-color="#E11D48"/>
    </linearGradient>
    <linearGradient id="areaGrad" x1="0%" y1="0%" x2="0%" y2="100%">
      <stop offset="0%" stop-color="#14B8A6" stop-opacity="0.3"/>
      <stop offset="100%" stop-color="#14B8A6" stop-opacity="0"/>
    </linearGradient>
    <linearGradient id="barGrad" x1="0%" y1="0%" x2="0%" y2="100%">
      <stop offset="0%" stop-color="#14B8A6"/>
      <stop offset="100%" stop-color="#E11D48"/>
    </linearGradient>
  </defs>
  
  <circle cx="1020" cy="94.5" r="83.22716432623565" fill="#14B8A6" opacity="0.03"/>
  <circle cx="180" cy="504" r="43.85713473428041" fill="#E11D48" opacity="0.04"/>
  <line x1="182" y1="212.28825770085678" x2="182" y2="276.6057205176912" stroke="#E11D48" stroke-width="1.5"/>
  <rect x="170" y="225.52866440964863" width="24" height="13.657385436818004" rx="2" fill="#E11D48" opacity="0.85"/>
  <line x1="256" y1="327.91393582476303" x2="256" y2="426.31607374874875" stroke="#E11D48" stroke-width="1.5"/>
  <rect x="244" y="367.2921189456247" width="24" height="39.321983652189374" rx="2" fill="#E11D48" opacity="0.85"/>
  <line x1="330" y1="404.44497586926445" x2="330" y2="410.94113496830687" stroke="#E11D48" stroke-width="1.5"/>
  <rect x="318" y="406.07955305604264" width="24" height="3" rx="2" fill="#E11D48" opacity="0.85"/>
  <line x1="404" y1="203.89423384098336" x2="404" y2="248.50132186664268" stroke="#E11D48" stroke-width="1.5"/>
  <rect x="392" y="222.47240528231487" width="24" height="25.76781534589827" rx="2" fill="#E11D48" opacity="0.85"/>
  <line x1="478" y1="298.65988831734285" x2="478" y2="334.72148176049814" stroke="#E11D48" stroke-width="1.5"/>
  <rect x="466" y="318.6350990901701" width="24" height="8.932023448869586" rx="2" fill="#E11D48" opacity="0.85"/>
  <line x1="552" y1="285.9474375168793" x2="552" y2="339.1191484290175" stroke="#E11D48" stroke-width="1.5"/>
  <rect x="540" y="320.16135634621605" width="24" height="6.27567139454186" rx="2" fill="#E11D48" opacity="0.85"/>
  <line x1="626" y1="398.17802449455485" x2="626" y2="452.95803332468495" stroke="#E11D48" stroke-width="1.5"/>
  <rect x="614" y="427.38340141950175" width="24" height="16.105915745720267" rx="2" fill="#E11D48" opacity="0.85"/>
  <line x1="700" y1="169.19779661810026" x2="700" y2="229.87704500323161" stroke="#14B8A6" stroke-width="1.5"/>
  <rect x="688" y="206.5837620641105" width="24" height="19.716543843969703" rx="2" fill="#14B8A6" opacity="0.85"/>
  <line x1="774" y1="269.5923154312186" x2="774" y2="336.515820666682" stroke="#14B8A6" stroke-width="1.5"/>
  <rect x="762" y="295.0386831886135" width="24" height="36.74304080195725" rx="2" fill="#14B8A6" opacity="0.85"/>
  <line x1="848" y1="370.53314523538575" x2="848" y2="434.3346414878033" stroke="#14B8A6" stroke-width="1.5"/>
  <rect x="836" y="389.9452818441205" width="24" height="8.25798655860126" rx="2" fill="#14B8A6" opacity="0.85"/>
</svg>