<svg xmlns="http://www.w3.org/2000/svg" viewBox="0 0 1200 630" fill="none">
  <rect width="1200" height="630" fill="transparent"/>
  <rect x="30" y="30" width="1140" height="570" rx="20" fill="rgba(128,128,128,0.06)" stroke="rgba(128,128,128,0.15)" stroke-width="1"/>
  <defs>
    <linearGradient id="lineGrad" x1="0%" y1="0%" x2="100%" y2="0%">
      <stop offset="0%" stop-color="#06B6D4"/>
      <stop offset="100%" stop-color="#F97316"/>
    </linearGradient>
    <linearGradient id="areaGrad" x1="0%" y1="0%" x2="0%" y2="100%">
      <stop offset="0%" stop-color="#06B6D4" stop-opacity="0.3"/>
      <stop offset="100%" stop-color="#06B6D4" stop-opacity="0"/>
    </linearGradient>
    <linearGradient id="barGrad" x1="0%" y1="0%" x2="0%" y2="100%">
      <stop offset="0%" stop-color="#06B6D4"/>
      <stop offset="100%" stop-color="#F97316"/>
    </linearGradient>
  </defs>
  
  <circle cx="1020" cy="94.5" r="93.79124966450036" fill="#06B6D4" opacity="0.03"/>
  <circle cx="180" cy="504" r="61.96789102628827" fill="#F97316" opacity="0.04"/>
  <path d="M140 298 L220 310 L300 304 L380 331 L460 339 L540 345 L620 342 L700 367 L780 340 L860 369 L940 351 L1020 331 L1060 530 L140 530 Z" fill="#06B6D4" opacity="0.15"/>
  <path d="M140 298 L220 310 L300 304 L380 331 L460 339 L540 345 L620 342 L700 367 L780 340 L860 369 L940 351 L1020 331" stroke="#06B6D4" stroke-width="2" fill="none" opacity="0.8"/>
  <path d="M140 322 L220 344 L300 331 L380 323 L460 331 L540 308 L620 334 L700 344 L780 359 L860 371 L940 353 L1020 375 L1060 530 L140 530 Z" fill="#F97316" opacity="0.12"/>
  <path d="M140 322 L220 344 L300 331 L380 323 L460 331 L540 308 L620 334 L700 344 L780 359 L860 371 L940 353 L1020 375" stroke="#F97316" stroke-width="2" fill="none" opacity="0.8"/>
  <path d="M140 366 L220 346 L300 342 L380 352 L460 375 L540 378 L620 388 L700 405 L780 393 L860 366 L940 362 L1020 381 L1060 530 L140 530 Z" fill="#8B949E" opacity="0.09"/>
  <path d="M140 366 L220 346 L300 342 L380 352 L460 375 L540 378 L620 388 L700 405 L780 393 L860 366 L940 362 L1020 381" stroke="#8B949E" stroke-width="2" fill="none" opacity="0.8"/>
</svg>