<svg xmlns="http://www.w3.org/2000/svg" viewBox="0 0 1200 630" fill="none">
  <rect width="1200" height="630" fill="#0d1117"/>
  <rect x="30" y="30" width="1140" height="570" rx="20" fill="#161b22" stroke="#30363d" stroke-width="1"/>
  <defs>
    <linearGradient id="lineGrad" x1="0%" y1="0%" x2="100%" y2="0%">
      <stop offset="0%" stop-color="#00F0FF"/>
      <stop offset="100%" stop-color="#A91079"/>
    </linearGradient>
    <linearGradient id="areaGrad" x1="0%" y1="0%" x2="0%" y2="100%">
      <stop offset="0%" stop-color="#00F0FF" stop-opacity="0.3"/>
      <stop offset="100%" stop-color="#00F0FF" stop-opacity="0"/>
    </linearGradient>
    <linearGradient id="barGrad" x1="0%" y1="0%" x2="0%" y2="100%">
      <stop offset="0%" stop-color="#00F0FF"/>
      <stop offset="100%" stop-color="#A91079"/>
    </linearGradient>
  </defs>
  
  <circle cx="1020" cy="94.5" r="74.45037358440459" fill="#00F0FF" opacity="0.03"/>
  <circle cx="180" cy="504" r="53.149974970147014" fill="#A91079" opacity="0.04"/>
  <path d="M140 250 L220 263 L300 276 L380 294 L460 308 L540 301 L620 286 L700 267 L780 275 L860 306 L940 327 L1020 303 L1060 530 L140 530 Z" fill="#00F0FF" opacity="0.15"/>
  <path d="M140 250 L220 263 L300 276 L380 294 L460 308 L540 301 L620 286 L700 267 L780 275 L860 306 L940 327 L1020 303" stroke="#00F0FF" stroke-width="2" fill="none" opacity="0.8"/>
  <path d="M140 357 L220 377 L300 365 L380 377 L460 390 L540 402 L620 434 L700 465 L780 464 L860 468 L940 447 L1020 428 L1060 530 L140 530 Z" fill="#A91079" opacity="0.12"/>
  <path d="M140 357 L220 377 L300 365 L380 377 L460 390 L540 402 L620 434 L700 465 L780 464 L860 468 L940 447 L1020 428" stroke="#A91079" stroke-width="2" fill="none" opacity="0.8"/>
  <path d="M140 372 L220 354 L300 380 L380 407 L460 382 L540 365 L620 381 L700 363 L780 338 L860 358 L940 380 L1020 356 L1060 530 L140 530 Z" fill="#8B949E" opacity="0.09"/>
  <path d="M140 372 L220 354 L300 380 L380 407 L460 382 L540 365 L620 381 L700 363 L780 338 L860 358 L940 380 L1020 356" stroke="#8B949E" stroke-width="2" fill="none" opacity="0.8"/>
</svg>