<svg xmlns="http://www.w3.org/2000/svg" viewBox="0 0 1200 630" fill="none">
  <rect width="1200" height="630" fill="#0d1117"/>
  <rect x="30" y="30" width="1140" height="570" rx="20" fill="#161b22" stroke="#30363d" stroke-width="1"/>
  <defs>
    <linearGradient id="lineGrad" x1="0%" y1="0%" x2="100%" y2="0%">
      <stop offset="0%" stop-color="#10B981"/>
      <stop offset="100%" stop-color="#F59E0B"/>
    </linearGradient>
    <linearGradient id="areaGrad" x1="0%" y1="0%" x2="0%" y2="100%">
      <stop offset="0%" stop-color="#10B981" stop-opacity="0.3"/>
      <stop offset="100%" stop-color="#10B981" stop-opacity="0"/>
    </linearGradient>
    <linearGradient id="barGrad" x1="0%" y1="0%" x2="0%" y2="100%">
      <stop offset="0%" stop-color="#10B981"/>
      <stop offset="100%" stop-color="#F59E0B"/>
    </linearGradient>
  </defs>
  
  <circle cx="1020" cy="94.5" r="69.25012635067105" fill="#10B981" opacity="0.03"/>
  <circle cx="180" cy="504" r="67.00492723612115" fill="#F59E0B" opacity="0.04"/>
  <rect x="160" y="269.90268380381167" width="60" height="250.09731619618833" rx="4" fill="url(#barGrad)" opacity="0.61"/>
  <rect x="250" y="164.58911733701825" width="60" height="355.41088266298175" rx="4" fill="url(#barGrad)" opacity="0.83"/>
  <rect x="340" y="343.6225132178515" width="60" height="176.37748678214848" rx="4" fill="url(#barGrad)" opacity="0.88"/>
  <rect x="430" y="362.0669446513057" width="60" height="157.93305534869432" rx="4" fill="url(#barGrad)" opacity="0.72"/>
  <rect x="520" y="274.4904073048383" width="60" height="245.5095926951617" rx="4" fill="url(#barGrad)" opacity="0.77"/>
  <rect x="610" y="255.505628939718" width="60" height="264.494371060282" rx="4" fill="url(#barGrad)" opacity="0.95"/>
  <rect x="700" y="348.31533460877836" width="60" height="171.68466539122164" rx="4" fill="url(#barGrad)" opacity="0.98"/>
  <rect x="790" y="306.948002576828" width="60" height="213.051997423172" rx="4" fill="url(#barGrad)" opacity="0.66"/>
</svg>