<svg xmlns="http://www.w3.org/2000/svg" viewBox="0 0 1200 630" fill="none">
  <rect width="1200" height="630" fill="#0d1117"/>
  <rect x="30" y="30" width="1140" height="570" rx="20" fill="#161b22" stroke="#30363d" stroke-width="1"/>
  <defs>
    <linearGradient id="lineGrad" x1="0%" y1="0%" x2="100%" y2="0%">
      <stop offset="0%" stop-color="#06B6D4"/>
      <stop offset="100%" stop-color="#F97316"/>
    </linearGradient>
    <linearGradient id="areaGrad" x1="0%" y1="0%" x2="0%" y2="100%">
      <stop offset="0%" stop-color="#06B6D4" stop-opacity="0.3"/>
      <stop offset="100%" stop-color="#06B6D4" stop-opacity="0"/>
    </linearGradient>
    <linearGradient id="barGrad" x1="0%" y1="0%" x2="0%" y2="100%">
      <stop offset="0%" stop-color="#06B6D4"/>
      <stop offset="100%" stop-color="#F97316"/>
    </linearGradient>
  </defs>
  
  <circle cx="1020" cy="94.5" r="70.15881356783211" fill="#06B6D4" opacity="0.03"/>
  <circle cx="180" cy="504" r="46.44753599539399" fill="#F97316" opacity="0.04"/>
  <path d="M140 308 L220 339 L300 344 L380 329 L460 351 L540 336 L620 366 L700 394 L780 395 L860 383 L940 363 L1020 390 L1060 530 L140 530 Z" fill="#06B6D4" opacity="0.15"/>
  <path d="M140 308 L220 339 L300 344 L380 329 L460 351 L540 336 L620 366 L700 394 L780 395 L860 383 L940 363 L1020 390" stroke="#06B6D4" stroke-width="2" fill="none" opacity="0.8"/>
  <path d="M140 360 L220 379 L300 404 L380 387 L460 415 L540 405 L620 406 L700 436 L780 439 L860 453 L940 464 L1020 480 L1060 530 L140 530 Z" fill="#F97316" opacity="0.12"/>
  <path d="M140 360 L220 379 L300 404 L380 387 L460 415 L540 405 L620 406 L700 436 L780 439 L860 453 L940 464 L1020 480" stroke="#F97316" stroke-width="2" fill="none" opacity="0.8"/>
  <path d="M140 401 L220 403 L300 397 L380 405 L460 404 L540 417 L620 411 L700 421 L780 433 L860 452 L940 470 L1020 500 L1060 530 L140 530 Z" fill="#8B949E" opacity="0.09"/>
  <path d="M140 401 L220 403 L300 397 L380 405 L460 404 L540 417 L620 411 L700 421 L780 433 L860 452 L940 470 L1020 500" stroke="#8B949E" stroke-width="2" fill="none" opacity="0.8"/>
</svg>