<svg xmlns="http://www.w3.org/2000/svg" viewBox="0 0 1200 630" fill="none">
  <rect width="1200" height="630" fill="#0d1117"/>
  <rect x="30" y="30" width="1140" height="570" rx="20" fill="#161b22" stroke="#30363d" stroke-width="1"/>
  <defs>
    <linearGradient id="lineGrad" x1="0%" y1="0%" x2="100%" y2="0%">
      <stop offset="0%" stop-color="#8B5CF6"/>
      <stop offset="100%" stop-color="#EC4899"/>
    </linearGradient>
    <linearGradient id="areaGrad" x1="0%" y1="0%" x2="0%" y2="100%">
      <stop offset="0%" stop-color="#8B5CF6" stop-opacity="0.3"/>
      <stop offset="100%" stop-color="#8B5CF6" stop-opacity="0"/>
    </linearGradient>
    <linearGradient id="barGrad" x1="0%" y1="0%" x2="0%" y2="100%">
      <stop offset="0%" stop-color="#8B5CF6"/>
      <stop offset="100%" stop-color="#EC4899"/>
    </linearGradient>
  </defs>
  
  <circle cx="1020" cy="94.5" r="63.675741236656904" fill="#8B5CF6" opacity="0.03"/>
  <circle cx="180" cy="504" r="49.46849893545732" fill="#EC4899" opacity="0.04"/>
  <circle cx="481" cy="209" r="4.7" fill="#EC4899" opacity="0.62"/>
  <circle cx="817" cy="413" r="4.2" fill="#EC4899" opacity="0.41"/>
  <circle cx="346" cy="454" r="7.3" fill="#8B5CF6" opacity="0.50"/>
  <circle cx="365" cy="148" r="5.3" fill="#EC4899" opacity="0.60"/>
  <circle cx="843" cy="327" r="8.7" fill="#EC4899" opacity="0.53"/>
  <circle cx="443" cy="490" r="10.6" fill="#EC4899" opacity="0.76"/>
  <circle cx="1016" cy="381" r="6.7" fill="#EC4899" opacity="0.77"/>
  <circle cx="604" cy="506" r="6.2" fill="#EC4899" opacity="0.55"/>
  <circle cx="649" cy="271" r="9.7" fill="#EC4899" opacity="0.73"/>
  <circle cx="627" cy="195" r="3.1" fill="#EC4899" opacity="0.59"/>
  <circle cx="834" cy="270" r="10.1" fill="#EC4899" opacity="0.55"/>
  <circle cx="283" cy="404" r="3.5" fill="#EC4899" opacity="0.52"/>
  <circle cx="328" cy="427" r="6.1" fill="#EC4899" opacity="0.78"/>
  <circle cx="528" cy="427" r="8.5" fill="#8B5CF6" opacity="0.80"/>
  <circle cx="241" cy="365" r="3.8" fill="#8B5CF6" opacity="0.48"/>
  <circle cx="274" cy="474" r="6.7" fill="#EC4899" opacity="0.56"/>
  <circle cx="448" cy="246" r="3.5" fill="#8B5CF6" opacity="0.38"/>
  <circle cx="1013" cy="502" r="7.3" fill="#8B5CF6" opacity="0.55"/>
  <circle cx="778" cy="170" r="7.0" fill="#8B5CF6" opacity="0.50"/>
  <circle cx="680" cy="251" r="6.1" fill="#EC4899" opacity="0.34"/>
  <circle cx="878" cy="356" r="6.3" fill="#8B5CF6" opacity="0.68"/>
  <circle cx="324" cy="254" r="3.6" fill="#EC4899" opacity="0.42"/>
  <circle cx="777" cy="301" r="3.3" fill="#8B5CF6" opacity="0.64"/>
  <circle cx="371" cy="281" r="10.6" fill="#EC4899" opacity="0.77"/>
  <circle cx="565" cy="268" r="9.5" fill="#EC4899" opacity="0.70"/>
  <circle cx="658" cy="293" r="9.1" fill="#EC4899" opacity="0.75"/>
  <circle cx="210" cy="110" r="7.1" fill="#EC4899" opacity="0.49"/>
  <circle cx="907" cy="455" r="9.6" fill="#EC4899" opacity="0.77"/>
  <circle cx="356" cy="472" r="9.3" fill="#8B5CF6" opacity="0.38"/>
  <circle cx="299" cy="253" r="6.8" fill="#8B5CF6" opacity="0.49"/>
  <circle cx="550" cy="155" r="3.7" fill="#8B5CF6" opacity="0.44"/>
  <circle cx="583" cy="347" r="11.0" fill="#EC4899" opacity="0.66"/>
  <circle cx="950" cy="192" r="6.4" fill="#EC4899" opacity="0.76"/>
  <circle cx="767" cy="457" r="3.1" fill="#EC4899" opacity="0.42"/>
  <circle cx="605" cy="189" r="10.5" fill="#8B5CF6" opacity="0.56"/>
  <circle cx="680" cy="298" r="4.8" fill="#EC4899" opacity="0.39"/>
  <circle cx="628" cy="224" r="8.8" fill="#EC4899" opacity="0.70"/>
  <circle cx="531" cy="329" r="7.6" fill="#EC4899" opacity="0.69"/>
  <circle cx="1035" cy="280" r="3.5" fill="#EC4899" opacity="0.69"/>
  <circle cx="453" cy="425" r="9.1" fill="#EC4899" opacity="0.35"/>
  <line x1="160" y1="450" x2="1040" y2="150" stroke="#8B5CF6" stroke-width="2" stroke-dasharray="6 4" opacity="0.5"/>
</svg>