<svg xmlns="http://www.w3.org/2000/svg" viewBox="0 0 1200 630" fill="none">
  <rect width="1200" height="630" fill="transparent"/>
  <rect x="30" y="30" width="1140" height="570" rx="20" fill="rgba(128,128,128,0.06)" stroke="rgba(128,128,128,0.15)" stroke-width="1"/>
  <defs>
    <linearGradient id="lineGrad" x1="0%" y1="0%" x2="100%" y2="0%">
      <stop offset="0%" stop-color="#00F0FF"/>
      <stop offset="100%" stop-color="#A91079"/>
    </linearGradient>
    <linearGradient id="areaGrad" x1="0%" y1="0%" x2="0%" y2="100%">
      <stop offset="0%" stop-color="#00F0FF" stop-opacity="0.3"/>
      <stop offset="100%" stop-color="#00F0FF" stop-opacity="0"/>
    </linearGradient>
    <linearGradient id="barGrad" x1="0%" y1="0%" x2="0%" y2="100%">
      <stop offset="0%" stop-color="#00F0FF"/>
      <stop offset="100%" stop-color="#A91079"/>
    </linearGradient>
  </defs>
  
  <circle cx="1020" cy="94.5" r="92.0096199400723" fill="#00F0FF" opacity="0.03"/>
  <circle cx="180" cy="504" r="56.55510081676766" fill="#A91079" opacity="0.04"/>
  <circle cx="373" cy="303" r="8.0" fill="#A91079" opacity="0.38"/>
  <circle cx="971" cy="326" r="8.9" fill="#A91079" opacity="0.67"/>
  <circle cx="496" cy="475" r="8.0" fill="#00F0FF" opacity="0.74"/>
  <circle cx="908" cy="124" r="10.6" fill="#A91079" opacity="0.67"/>
  <circle cx="558" cy="169" r="7.2" fill="#00F0FF" opacity="0.64"/>
  <circle cx="235" cy="411" r="10.9" fill="#00F0FF" opacity="0.56"/>
  <circle cx="423" cy="458" r="5.0" fill="#A91079" opacity="0.74"/>
  <circle cx="753" cy="515" r="6.6" fill="#A91079" opacity="0.33"/>
  <circle cx="555" cy="166" r="7.1" fill="#00F0FF" opacity="0.57"/>
  <circle cx="442" cy="486" r="10.7" fill="#A91079" opacity="0.33"/>
  <circle cx="466" cy="244" r="6.3" fill="#A91079" opacity="0.58"/>
  <circle cx="218" cy="288" r="10.8" fill="#A91079" opacity="0.77"/>
  <circle cx="555" cy="397" r="9.4" fill="#A91079" opacity="0.60"/>
  <circle cx="504" cy="104" r="6.2" fill="#00F0FF" opacity="0.78"/>
  <circle cx="431" cy="503" r="9.8" fill="#A91079" opacity="0.63"/>
  <circle cx="939" cy="340" r="3.7" fill="#A91079" opacity="0.32"/>
  <circle cx="422" cy="301" r="4.1" fill="#00F0FF" opacity="0.39"/>
  <circle cx="935" cy="205" r="10.3" fill="#00F0FF" opacity="0.32"/>
  <circle cx="546" cy="422" r="6.1" fill="#A91079" opacity="0.79"/>
  <circle cx="459" cy="152" r="8.4" fill="#A91079" opacity="0.34"/>
  <circle cx="983" cy="264" r="7.5" fill="#00F0FF" opacity="0.63"/>
  <circle cx="291" cy="110" r="3.8" fill="#00F0FF" opacity="0.68"/>
  <circle cx="764" cy="331" r="8.4" fill="#00F0FF" opacity="0.48"/>
  <circle cx="161" cy="518" r="4.4" fill="#00F0FF" opacity="0.64"/>
  <circle cx="1035" cy="455" r="8.7" fill="#00F0FF" opacity="0.69"/>
  <circle cx="875" cy="152" r="8.5" fill="#A91079" opacity="0.56"/>
  <circle cx="497" cy="103" r="10.9" fill="#00F0FF" opacity="0.65"/>
  <circle cx="206" cy="163" r="5.7" fill="#00F0FF" opacity="0.68"/>
  <circle cx="665" cy="320" r="7.2" fill="#A91079" opacity="0.36"/>
  <circle cx="352" cy="247" r="3.8" fill="#00F0FF" opacity="0.60"/>
  <circle cx="671" cy="408" r="8.9" fill="#A91079" opacity="0.79"/>
  <circle cx="906" cy="128" r="8.0" fill="#00F0FF" opacity="0.39"/>
  <circle cx="537" cy="215" r="9.3" fill="#00F0FF" opacity="0.41"/>
  <circle cx="688" cy="319" r="6.9" fill="#A91079" opacity="0.65"/>
  <circle cx="533" cy="133" r="9.9" fill="#A91079" opacity="0.43"/>
  <circle cx="244" cy="473" r="9.1" fill="#A91079" opacity="0.78"/>
  <circle cx="255" cy="400" r="5.1" fill="#A91079" opacity="0.32"/>
  <circle cx="934" cy="247" r="3.7" fill="#00F0FF" opacity="0.44"/>
  <circle cx="319" cy="183" r="4.5" fill="#A91079" opacity="0.51"/>
  <circle cx="392" cy="459" r="10.9" fill="#00F0FF" opacity="0.78"/>
  <line x1="160" y1="450" x2="1040" y2="150" stroke="#00F0FF" stroke-width="2" stroke-dasharray="6 4" opacity="0.5"/>
</svg>