<svg xmlns="http://www.w3.org/2000/svg" viewBox="0 0 1200 630" fill="none">
  <rect width="1200" height="630" fill="transparent"/>
  <rect x="30" y="30" width="1140" height="570" rx="20" fill="rgba(128,128,128,0.06)" stroke="rgba(128,128,128,0.15)" stroke-width="1"/>
  <defs>
    <linearGradient id="lineGrad" x1="0%" y1="0%" x2="100%" y2="0%">
      <stop offset="0%" stop-color="#06B6D4"/>
      <stop offset="100%" stop-color="#F97316"/>
    </linearGradient>
    <linearGradient id="areaGrad" x1="0%" y1="0%" x2="0%" y2="100%">
      <stop offset="0%" stop-color="#06B6D4" stop-opacity="0.3"/>
      <stop offset="100%" stop-color="#06B6D4" stop-opacity="0"/>
    </linearGradient>
    <linearGradient id="barGrad" x1="0%" y1="0%" x2="0%" y2="100%">
      <stop offset="0%" stop-color="#06B6D4"/>
      <stop offset="100%" stop-color="#F97316"/>
    </linearGradient>
  </defs>
  
  <circle cx="1020" cy="94.5" r="93.36380990222096" fill="#06B6D4" opacity="0.03"/>
  <circle cx="180" cy="504" r="58.84015994844958" fill="#F97316" opacity="0.04"/>
  <circle cx="566" cy="174" r="8.5" fill="#F97316" opacity="0.40"/>
  <circle cx="610" cy="400" r="5.3" fill="#F97316" opacity="0.67"/>
  <circle cx="823" cy="265" r="7.8" fill="#06B6D4" opacity="0.47"/>
  <circle cx="345" cy="288" r="5.9" fill="#06B6D4" opacity="0.41"/>
  <circle cx="397" cy="463" r="10.6" fill="#06B6D4" opacity="0.66"/>
  <circle cx="942" cy="505" r="3.3" fill="#F97316" opacity="0.79"/>
  <circle cx="309" cy="418" r="9.5" fill="#F97316" opacity="0.65"/>
  <circle cx="596" cy="142" r="10.9" fill="#F97316" opacity="0.62"/>
  <circle cx="223" cy="408" r="5.3" fill="#06B6D4" opacity="0.69"/>
  <circle cx="423" cy="252" r="4.4" fill="#F97316" opacity="0.52"/>
  <circle cx="672" cy="125" r="9.1" fill="#F97316" opacity="0.49"/>
  <circle cx="240" cy="284" r="8.7" fill="#F97316" opacity="0.42"/>
  <circle cx="508" cy="519" r="9.1" fill="#06B6D4" opacity="0.60"/>
  <circle cx="907" cy="191" r="4.1" fill="#06B6D4" opacity="0.56"/>
  <circle cx="911" cy="517" r="7.7" fill="#06B6D4" opacity="0.44"/>
  <circle cx="166" cy="199" r="10.1" fill="#F97316" opacity="0.77"/>
  <circle cx="818" cy="288" r="4.6" fill="#F97316" opacity="0.63"/>
  <circle cx="562" cy="156" r="10.4" fill="#06B6D4" opacity="0.50"/>
  <circle cx="1031" cy="489" r="5.2" fill="#F97316" opacity="0.59"/>
  <circle cx="571" cy="249" r="8.9" fill="#F97316" opacity="0.54"/>
  <circle cx="426" cy="227" r="3.1" fill="#F97316" opacity="0.59"/>
  <circle cx="371" cy="319" r="7.3" fill="#F97316" opacity="0.40"/>
  <circle cx="744" cy="254" r="4.6" fill="#F97316" opacity="0.70"/>
  <circle cx="237" cy="195" r="6.0" fill="#06B6D4" opacity="0.42"/>
  <circle cx="759" cy="351" r="9.8" fill="#F97316" opacity="0.73"/>
  <circle cx="703" cy="484" r="3.5" fill="#F97316" opacity="0.51"/>
  <circle cx="757" cy="122" r="8.2" fill="#06B6D4" opacity="0.41"/>
  <circle cx="1004" cy="399" r="7.3" fill="#06B6D4" opacity="0.58"/>
  <circle cx="882" cy="257" r="3.2" fill="#06B6D4" opacity="0.63"/>
  <circle cx="685" cy="131" r="10.1" fill="#F97316" opacity="0.38"/>
  <circle cx="608" cy="324" r="3.3" fill="#F97316" opacity="0.69"/>
  <circle cx="805" cy="265" r="3.3" fill="#F97316" opacity="0.67"/>
  <circle cx="347" cy="149" r="7.2" fill="#06B6D4" opacity="0.31"/>
  <circle cx="967" cy="509" r="3.8" fill="#06B6D4" opacity="0.32"/>
  <circle cx="423" cy="226" r="10.0" fill="#F97316" opacity="0.53"/>
  <circle cx="181" cy="323" r="8.0" fill="#F97316" opacity="0.53"/>
  <circle cx="177" cy="139" r="8.3" fill="#F97316" opacity="0.65"/>
  <circle cx="199" cy="116" r="10.0" fill="#F97316" opacity="0.37"/>
  <circle cx="1015" cy="437" r="8.2" fill="#06B6D4" opacity="0.65"/>
  <circle cx="786" cy="190" r="9.4" fill="#06B6D4" opacity="0.46"/>
  <line x1="160" y1="450" x2="1040" y2="150" stroke="#06B6D4" stroke-width="2" stroke-dasharray="6 4" opacity="0.5"/>
</svg>