<svg xmlns="http://www.w3.org/2000/svg" viewBox="0 0 1200 630" fill="none">
  <rect width="1200" height="630" fill="#0d1117"/>
  <rect x="30" y="30" width="1140" height="570" rx="20" fill="#161b22" stroke="#30363d" stroke-width="1"/>
  <defs>
    <linearGradient id="lineGrad" x1="0%" y1="0%" x2="100%" y2="0%">
      <stop offset="0%" stop-color="#14B8A6"/>
      <stop offset="100%" stop-color="#E11D48"/>
    </linearGradient>
    <linearGradient id="areaGrad" x1="0%" y1="0%" x2="0%" y2="100%">
      <stop offset="0%" stop-color="#14B8A6" stop-opacity="0.3"/>
      <stop offset="100%" stop-color="#14B8A6" stop-opacity="0"/>
    </linearGradient>
    <linearGradient id="barGrad" x1="0%" y1="0%" x2="0%" y2="100%">
      <stop offset="0%" stop-color="#14B8A6"/>
      <stop offset="100%" stop-color="#E11D48"/>
    </linearGradient>
  </defs>
  
  <circle cx="1020" cy="94.5" r="95.31626369804144" fill="#14B8A6" opacity="0.03"/>
  <circle cx="180" cy="504" r="49.95602600509301" fill="#E11D48" opacity="0.04"/>
  <path d="M600 300 L780.0 300.0 A180 180 0 0 1 554.6 474.2 Z" fill="#14B8A6" opacity="0.7"/>
  <path d="M600 300 L554.6 474.2 A180 180 0 0 1 436.4 224.9 Z" fill="#E11D48" opacity="0.75"/>
  <path d="M600 300 L436.4 224.9 A180 180 0 0 1 626.4 121.9 Z" fill="#8B949E" opacity="0.7999999999999999"/>
  <path d="M600 300 L626.4 121.9 A180 180 0 0 1 752.1 203.7 Z" fill="#30363D" opacity="0.85"/>
  <path d="M600 300 L752.1 203.7 A180 180 0 0 1 780.0 300.0 Z" fill="#21262D" opacity="0.8999999999999999"/>
  <circle cx="600" cy="300" r="90" fill="#0d1117"/>
</svg>