<svg xmlns="http://www.w3.org/2000/svg" viewBox="0 0 1200 630" fill="none">
  <rect width="1200" height="630" fill="transparent"/>
  <rect x="30" y="30" width="1140" height="570" rx="20" fill="rgba(128,128,128,0.06)" stroke="rgba(128,128,128,0.15)" stroke-width="1"/>
  <defs>
    <linearGradient id="lineGrad" x1="0%" y1="0%" x2="100%" y2="0%">
      <stop offset="0%" stop-color="#14B8A6"/>
      <stop offset="100%" stop-color="#E11D48"/>
    </linearGradient>
    <linearGradient id="areaGrad" x1="0%" y1="0%" x2="0%" y2="100%">
      <stop offset="0%" stop-color="#14B8A6" stop-opacity="0.3"/>
      <stop offset="100%" stop-color="#14B8A6" stop-opacity="0"/>
    </linearGradient>
    <linearGradient id="barGrad" x1="0%" y1="0%" x2="0%" y2="100%">
      <stop offset="0%" stop-color="#14B8A6"/>
      <stop offset="100%" stop-color="#E11D48"/>
    </linearGradient>
  </defs>
  
  <circle cx="1020" cy="94.5" r="89.62753879837692" fill="#14B8A6" opacity="0.03"/>
  <circle cx="180" cy="504" r="61.34581543970853" fill="#E11D48" opacity="0.04"/>
  <line x1="182" y1="273.32590418634936" x2="182" y2="319.25082717789337" stroke="#14B8A6" stroke-width="1.5"/>
  <rect x="170" y="297.96507604187354" width="24" height="14.310215832665563" rx="2" fill="#14B8A6" opacity="0.85"/>
  <line x1="256" y1="167.59954439243302" x2="256" y2="231.04860136052594" stroke="#14B8A6" stroke-width="1.5"/>
  <rect x="244" y="168.3657972025685" width="24" height="46.28129447810352" rx="2" fill="#14B8A6" opacity="0.85"/>
  <line x1="330" y1="248.28840494854376" x2="330" y2="287.31996594695374" stroke="#14B8A6" stroke-width="1.5"/>
  <rect x="318" y="273.83613822748885" width="24" height="3.304972732439637" rx="2" fill="#14B8A6" opacity="0.85"/>
  <line x1="404" y1="246.54910466400906" x2="404" y2="276.8988512153737" stroke="#E11D48" stroke-width="1.5"/>
  <rect x="392" y="250.2499821013771" width="24" height="14.18971517123282" rx="2" fill="#E11D48" opacity="0.85"/>
  <line x1="478" y1="309.5692406478338" x2="478" y2="347.96311759157106" stroke="#14B8A6" stroke-width="1.5"/>
  <rect x="466" y="334.5575087121688" width="24" height="7.0631027687340975" rx="2" fill="#14B8A6" opacity="0.85"/>
  <line x1="552" y1="327.3024387448095" x2="552" y2="395.8722591190599" stroke="#14B8A6" stroke-width="1.5"/>
  <rect x="540" y="348.0070616933517" width="24" height="35.909056244418025" rx="2" fill="#14B8A6" opacity="0.85"/>
  <line x1="626" y1="279.94106677128" x2="626" y2="383.1190066295676" stroke="#14B8A6" stroke-width="1.5"/>
  <rect x="614" y="318.5812405659817" width="24" height="39.80942131020129" rx="2" fill="#14B8A6" opacity="0.85"/>
  <line x1="700" y1="407.187807362061" x2="700" y2="470.9586338023655" stroke="#E11D48" stroke-width="1.5"/>
  <rect x="688" y="434.3334149918519" width="24" height="4.642522195354104" rx="2" fill="#E11D48" opacity="0.85"/>
  <line x1="774" y1="209.65151439188048" x2="774" y2="263.0155421490781" stroke="#14B8A6" stroke-width="1.5"/>
  <rect x="762" y="238.5750851011835" width="24" height="8.46283552236855" rx="2" fill="#14B8A6" opacity="0.85"/>
  <line x1="848" y1="434.2813598061912" x2="848" y2="509.57811808912084" stroke="#E11D48" stroke-width="1.5"/>
  <rect x="836" y="449.453094729688" width="24" height="38.60877086408436" rx="2" fill="#E11D48" opacity="0.85"/>
</svg>