<svg xmlns="http://www.w3.org/2000/svg" viewBox="0 0 1200 630" fill="none">
  <rect width="1200" height="630" fill="transparent"/>
  <rect x="30" y="30" width="1140" height="570" rx="20" fill="rgba(128,128,128,0.06)" stroke="rgba(128,128,128,0.15)" stroke-width="1"/>
  <defs>
    <linearGradient id="lineGrad" x1="0%" y1="0%" x2="100%" y2="0%">
      <stop offset="0%" stop-color="#14B8A6"/>
      <stop offset="100%" stop-color="#E11D48"/>
    </linearGradient>
    <linearGradient id="areaGrad" x1="0%" y1="0%" x2="0%" y2="100%">
      <stop offset="0%" stop-color="#14B8A6" stop-opacity="0.3"/>
      <stop offset="100%" stop-color="#14B8A6" stop-opacity="0"/>
    </linearGradient>
    <linearGradient id="barGrad" x1="0%" y1="0%" x2="0%" y2="100%">
      <stop offset="0%" stop-color="#14B8A6"/>
      <stop offset="100%" stop-color="#E11D48"/>
    </linearGradient>
  </defs>
  
  <circle cx="1020" cy="94.5" r="66.63070030510426" fill="#14B8A6" opacity="0.03"/>
  <circle cx="180" cy="504" r="51.901054431218654" fill="#E11D48" opacity="0.04"/>
  <rect x="160" y="415.45279916375875" width="60" height="104.54720083624125" rx="4" fill="url(#barGrad)" opacity="0.73"/>
  <rect x="250" y="168.07967220433056" width="60" height="351.92032779566944" rx="4" fill="url(#barGrad)" opacity="0.81"/>
  <rect x="340" y="273.56768479570746" width="60" height="246.43231520429254" rx="4" fill="url(#barGrad)" opacity="0.63"/>
  <rect x="430" y="319.8266695346683" width="60" height="200.17333046533167" rx="4" fill="url(#barGrad)" opacity="0.98"/>
  <rect x="520" y="358.1831546127796" width="60" height="161.81684538722038" rx="4" fill="url(#barGrad)" opacity="0.67"/>
  <rect x="610" y="434.8998721782118" width="60" height="85.10012782178819" rx="4" fill="url(#barGrad)" opacity="0.95"/>
  <rect x="700" y="365.43360898271203" width="60" height="154.56639101728797" rx="4" fill="url(#barGrad)" opacity="0.86"/>
  <rect x="790" y="204.91040321998298" width="60" height="315.089596780017" rx="4" fill="url(#barGrad)" opacity="0.71"/>
</svg>