<svg xmlns="http://www.w3.org/2000/svg" viewBox="0 0 1200 630" fill="none">
  <rect width="1200" height="630" fill="#0d1117"/>
  <rect x="30" y="30" width="1140" height="570" rx="20" fill="#161b22" stroke="#30363d" stroke-width="1"/>
  <defs>
    <linearGradient id="lineGrad" x1="0%" y1="0%" x2="100%" y2="0%">
      <stop offset="0%" stop-color="#00F0FF"/>
      <stop offset="100%" stop-color="#A91079"/>
    </linearGradient>
    <linearGradient id="areaGrad" x1="0%" y1="0%" x2="0%" y2="100%">
      <stop offset="0%" stop-color="#00F0FF" stop-opacity="0.3"/>
      <stop offset="100%" stop-color="#00F0FF" stop-opacity="0"/>
    </linearGradient>
    <linearGradient id="barGrad" x1="0%" y1="0%" x2="0%" y2="100%">
      <stop offset="0%" stop-color="#00F0FF"/>
      <stop offset="100%" stop-color="#A91079"/>
    </linearGradient>
  </defs>
  
  <circle cx="1020" cy="94.5" r="70.23784499615431" fill="#00F0FF" opacity="0.03"/>
  <circle cx="180" cy="504" r="68.78870699787512" fill="#A91079" opacity="0.04"/>
  <circle cx="415" cy="107" r="8.3" fill="#A91079" opacity="0.77"/>
  <circle cx="668" cy="494" r="7.9" fill="#A91079" opacity="0.43"/>
  <circle cx="922" cy="177" r="9.1" fill="#00F0FF" opacity="0.53"/>
  <circle cx="961" cy="463" r="10.5" fill="#A91079" opacity="0.43"/>
  <circle cx="535" cy="251" r="3.5" fill="#00F0FF" opacity="0.64"/>
  <circle cx="309" cy="313" r="7.9" fill="#A91079" opacity="0.31"/>
  <circle cx="615" cy="197" r="4.1" fill="#00F0FF" opacity="0.58"/>
  <circle cx="390" cy="382" r="7.7" fill="#A91079" opacity="0.73"/>
  <circle cx="466" cy="290" r="7.1" fill="#00F0FF" opacity="0.65"/>
  <circle cx="233" cy="154" r="10.0" fill="#A91079" opacity="0.68"/>
  <circle cx="592" cy="396" r="7.6" fill="#A91079" opacity="0.39"/>
  <circle cx="503" cy="331" r="7.9" fill="#A91079" opacity="0.47"/>
  <circle cx="267" cy="390" r="10.5" fill="#A91079" opacity="0.79"/>
  <circle cx="530" cy="157" r="8.4" fill="#00F0FF" opacity="0.67"/>
  <circle cx="759" cy="456" r="4.9" fill="#00F0FF" opacity="0.42"/>
  <circle cx="796" cy="497" r="9.8" fill="#00F0FF" opacity="0.59"/>
  <circle cx="389" cy="454" r="10.1" fill="#00F0FF" opacity="0.37"/>
  <circle cx="774" cy="224" r="6.3" fill="#A91079" opacity="0.72"/>
  <circle cx="354" cy="317" r="3.7" fill="#00F0FF" opacity="0.39"/>
  <circle cx="293" cy="226" r="8.2" fill="#A91079" opacity="0.75"/>
  <circle cx="771" cy="224" r="5.1" fill="#00F0FF" opacity="0.34"/>
  <circle cx="544" cy="381" r="8.0" fill="#A91079" opacity="0.54"/>
  <circle cx="838" cy="179" r="6.7" fill="#A91079" opacity="0.50"/>
  <circle cx="478" cy="247" r="4.5" fill="#A91079" opacity="0.47"/>
  <circle cx="425" cy="126" r="9.4" fill="#00F0FF" opacity="0.56"/>
  <circle cx="850" cy="306" r="9.0" fill="#00F0FF" opacity="0.34"/>
  <circle cx="619" cy="464" r="10.8" fill="#00F0FF" opacity="0.41"/>
  <circle cx="573" cy="425" r="4.0" fill="#A91079" opacity="0.68"/>
  <circle cx="288" cy="269" r="8.9" fill="#A91079" opacity="0.70"/>
  <circle cx="398" cy="134" r="10.3" fill="#00F0FF" opacity="0.47"/>
  <circle cx="327" cy="258" r="7.0" fill="#00F0FF" opacity="0.38"/>
  <circle cx="731" cy="262" r="7.2" fill="#A91079" opacity="0.79"/>
  <circle cx="859" cy="147" r="10.3" fill="#A91079" opacity="0.63"/>
  <circle cx="1032" cy="128" r="3.2" fill="#00F0FF" opacity="0.33"/>
  <circle cx="614" cy="384" r="7.3" fill="#00F0FF" opacity="0.32"/>
  <circle cx="790" cy="183" r="10.4" fill="#A91079" opacity="0.75"/>
  <circle cx="491" cy="451" r="6.8" fill="#00F0FF" opacity="0.67"/>
  <circle cx="886" cy="275" r="4.4" fill="#A91079" opacity="0.40"/>
  <circle cx="189" cy="198" r="5.7" fill="#A91079" opacity="0.38"/>
  <circle cx="930" cy="117" r="10.9" fill="#00F0FF" opacity="0.39"/>
  <line x1="160" y1="450" x2="1040" y2="150" stroke="#00F0FF" stroke-width="2" stroke-dasharray="6 4" opacity="0.5"/>
</svg>