<svg xmlns="http://www.w3.org/2000/svg" viewBox="0 0 1200 630" fill="none">
  <rect width="1200" height="630" fill="transparent"/>
  <rect x="30" y="30" width="1140" height="570" rx="20" fill="rgba(128,128,128,0.06)" stroke="rgba(128,128,128,0.15)" stroke-width="1"/>
  <defs>
    <linearGradient id="lineGrad" x1="0%" y1="0%" x2="100%" y2="0%">
      <stop offset="0%" stop-color="#06B6D4"/>
      <stop offset="100%" stop-color="#F97316"/>
    </linearGradient>
    <linearGradient id="areaGrad" x1="0%" y1="0%" x2="0%" y2="100%">
      <stop offset="0%" stop-color="#06B6D4" stop-opacity="0.3"/>
      <stop offset="100%" stop-color="#06B6D4" stop-opacity="0"/>
    </linearGradient>
    <linearGradient id="barGrad" x1="0%" y1="0%" x2="0%" y2="100%">
      <stop offset="0%" stop-color="#06B6D4"/>
      <stop offset="100%" stop-color="#F97316"/>
    </linearGradient>
  </defs>
  
  <circle cx="1020" cy="94.5" r="99.76775861345232" fill="#06B6D4" opacity="0.03"/>
  <circle cx="180" cy="504" r="68.38658172171563" fill="#F97316" opacity="0.04"/>
  <path d="M140 282 L220 312 L300 305 L380 296 L460 307 L540 323 L620 299 L700 326 L780 321 L860 324 L940 357 L1020 350 L1060 530 L140 530 Z" fill="#06B6D4" opacity="0.15"/>
  <path d="M140 282 L220 312 L300 305 L380 296 L460 307 L540 323 L620 299 L700 326 L780 321 L860 324 L940 357 L1020 350" stroke="#06B6D4" stroke-width="2" fill="none" opacity="0.8"/>
  <path d="M140 305 L220 283 L300 274 L380 282 L460 277 L540 283 L620 298 L700 317 L780 322 L860 323 L940 339 L1020 331 L1060 530 L140 530 Z" fill="#F97316" opacity="0.12"/>
  <path d="M140 305 L220 283 L300 274 L380 282 L460 277 L540 283 L620 298 L700 317 L780 322 L860 323 L940 339 L1020 331" stroke="#F97316" stroke-width="2" fill="none" opacity="0.8"/>
  <path d="M140 406 L220 404 L300 427 L380 446 L460 456 L540 430 L620 463 L700 493 L780 500 L860 500 L940 498 L1020 498 L1060 530 L140 530 Z" fill="#8B949E" opacity="0.09"/>
  <path d="M140 406 L220 404 L300 427 L380 446 L460 456 L540 430 L620 463 L700 493 L780 500 L860 500 L940 498 L1020 498" stroke="#8B949E" stroke-width="2" fill="none" opacity="0.8"/>
</svg>