<svg xmlns="http://www.w3.org/2000/svg" viewBox="0 0 1200 630" fill="none">
  <rect width="1200" height="630" fill="#0d1117"/>
  <rect x="30" y="30" width="1140" height="570" rx="20" fill="#161b22" stroke="#30363d" stroke-width="1"/>
  <defs>
    <linearGradient id="lineGrad" x1="0%" y1="0%" x2="100%" y2="0%">
      <stop offset="0%" stop-color="#10B981"/>
      <stop offset="100%" stop-color="#F59E0B"/>
    </linearGradient>
    <linearGradient id="areaGrad" x1="0%" y1="0%" x2="0%" y2="100%">
      <stop offset="0%" stop-color="#10B981" stop-opacity="0.3"/>
      <stop offset="100%" stop-color="#10B981" stop-opacity="0"/>
    </linearGradient>
    <linearGradient id="barGrad" x1="0%" y1="0%" x2="0%" y2="100%">
      <stop offset="0%" stop-color="#10B981"/>
      <stop offset="100%" stop-color="#F59E0B"/>
    </linearGradient>
  </defs>
  
  <circle cx="1020" cy="94.5" r="71.97384916245937" fill="#10B981" opacity="0.03"/>
  <circle cx="180" cy="504" r="55.539896201808006" fill="#F59E0B" opacity="0.04"/>
  <circle cx="684" cy="408" r="6.5" fill="#F59E0B" opacity="0.37"/>
  <circle cx="489" cy="346" r="3.3" fill="#10B981" opacity="0.75"/>
  <circle cx="192" cy="310" r="4.8" fill="#10B981" opacity="0.32"/>
  <circle cx="613" cy="133" r="5.8" fill="#10B981" opacity="0.32"/>
  <circle cx="771" cy="465" r="8.7" fill="#10B981" opacity="0.53"/>
  <circle cx="762" cy="461" r="6.6" fill="#F59E0B" opacity="0.72"/>
  <circle cx="850" cy="497" r="9.0" fill="#10B981" opacity="0.72"/>
  <circle cx="843" cy="156" r="6.7" fill="#F59E0B" opacity="0.33"/>
  <circle cx="645" cy="225" r="5.0" fill="#10B981" opacity="0.55"/>
  <circle cx="722" cy="302" r="3.2" fill="#F59E0B" opacity="0.30"/>
  <circle cx="939" cy="466" r="10.0" fill="#F59E0B" opacity="0.59"/>
  <circle cx="839" cy="326" r="9.7" fill="#10B981" opacity="0.76"/>
  <circle cx="235" cy="403" r="5.4" fill="#10B981" opacity="0.32"/>
  <circle cx="841" cy="345" r="7.7" fill="#F59E0B" opacity="0.49"/>
  <circle cx="689" cy="111" r="7.5" fill="#F59E0B" opacity="0.56"/>
  <circle cx="661" cy="248" r="5.3" fill="#F59E0B" opacity="0.73"/>
  <circle cx="590" cy="338" r="5.0" fill="#F59E0B" opacity="0.76"/>
  <circle cx="915" cy="420" r="7.7" fill="#F59E0B" opacity="0.49"/>
  <circle cx="362" cy="474" r="5.2" fill="#F59E0B" opacity="0.34"/>
  <circle cx="176" cy="291" r="4.6" fill="#10B981" opacity="0.54"/>
  <circle cx="1030" cy="470" r="5.4" fill="#F59E0B" opacity="0.36"/>
  <circle cx="199" cy="425" r="8.6" fill="#10B981" opacity="0.78"/>
  <circle cx="1017" cy="427" r="6.4" fill="#10B981" opacity="0.48"/>
  <circle cx="590" cy="329" r="9.0" fill="#F59E0B" opacity="0.50"/>
  <circle cx="775" cy="138" r="4.1" fill="#10B981" opacity="0.77"/>
  <circle cx="970" cy="283" r="6.4" fill="#10B981" opacity="0.74"/>
  <circle cx="563" cy="459" r="9.6" fill="#10B981" opacity="0.68"/>
  <circle cx="715" cy="129" r="6.6" fill="#F59E0B" opacity="0.46"/>
  <circle cx="585" cy="197" r="3.8" fill="#10B981" opacity="0.59"/>
  <circle cx="420" cy="307" r="7.2" fill="#10B981" opacity="0.43"/>
  <circle cx="943" cy="196" r="3.2" fill="#F59E0B" opacity="0.55"/>
  <circle cx="719" cy="499" r="10.4" fill="#F59E0B" opacity="0.47"/>
  <circle cx="988" cy="295" r="8.6" fill="#F59E0B" opacity="0.50"/>
  <circle cx="844" cy="288" r="9.2" fill="#10B981" opacity="0.66"/>
  <circle cx="314" cy="349" r="3.5" fill="#F59E0B" opacity="0.31"/>
  <circle cx="745" cy="220" r="5.6" fill="#10B981" opacity="0.40"/>
  <circle cx="987" cy="507" r="5.3" fill="#10B981" opacity="0.57"/>
  <circle cx="600" cy="365" r="5.0" fill="#10B981" opacity="0.56"/>
  <circle cx="556" cy="153" r="4.4" fill="#F59E0B" opacity="0.53"/>
  <circle cx="546" cy="253" r="9.1" fill="#F59E0B" opacity="0.75"/>
  <line x1="160" y1="450" x2="1040" y2="150" stroke="#10B981" stroke-width="2" stroke-dasharray="6 4" opacity="0.5"/>
</svg>