<svg xmlns="http://www.w3.org/2000/svg" viewBox="0 0 1200 630" fill="none">
  <rect width="1200" height="630" fill="transparent"/>
  <rect x="30" y="30" width="1140" height="570" rx="20" fill="rgba(128,128,128,0.06)" stroke="rgba(128,128,128,0.15)" stroke-width="1"/>
  <defs>
    <linearGradient id="lineGrad" x1="0%" y1="0%" x2="100%" y2="0%">
      <stop offset="0%" stop-color="#00F0FF"/>
      <stop offset="100%" stop-color="#A91079"/>
    </linearGradient>
    <linearGradient id="areaGrad" x1="0%" y1="0%" x2="0%" y2="100%">
      <stop offset="0%" stop-color="#00F0FF" stop-opacity="0.3"/>
      <stop offset="100%" stop-color="#00F0FF" stop-opacity="0"/>
    </linearGradient>
    <linearGradient id="barGrad" x1="0%" y1="0%" x2="0%" y2="100%">
      <stop offset="0%" stop-color="#00F0FF"/>
      <stop offset="100%" stop-color="#A91079"/>
    </linearGradient>
  </defs>
  
  <circle cx="1020" cy="94.5" r="85.24526522494853" fill="#00F0FF" opacity="0.03"/>
  <circle cx="180" cy="504" r="58.40595726855099" fill="#A91079" opacity="0.04"/>
  <line x1="182" y1="170.3370672953315" x2="182" y2="268.16409945720807" stroke="#A91079" stroke-width="1.5"/>
  <rect x="170" y="208.2650450640358" width="24" height="23.26088296249509" rx="2" fill="#A91079" opacity="0.85"/>
  <line x1="256" y1="142.26301281014457" x2="256" y2="212.03738461481407" stroke="#00F0FF" stroke-width="1.5"/>
  <rect x="244" y="178.72357164742425" width="24" height="32.17247109860182" rx="2" fill="#00F0FF" opacity="0.85"/>
  <line x1="330" y1="183.2743814517744" x2="330" y2="239.98757405439392" stroke="#A91079" stroke-width="1.5"/>
  <rect x="318" y="209.4803954125382" width="24" height="15.676419343799353" rx="2" fill="#A91079" opacity="0.85"/>
  <line x1="404" y1="275.7370984205045" x2="404" y2="343.3940981817432" stroke="#00F0FF" stroke-width="1.5"/>
  <rect x="392" y="308.6769790505059" width="24" height="10.468747094273567" rx="2" fill="#00F0FF" opacity="0.85"/>
  <line x1="478" y1="356.24700838001445" x2="478" y2="434.711796308402" stroke="#A91079" stroke-width="1.5"/>
  <rect x="466" y="393.1721619912423" width="24" height="30.782186333090067" rx="2" fill="#A91079" opacity="0.85"/>
  <line x1="552" y1="198.67171848425642" x2="552" y2="274.29479628102854" stroke="#00F0FF" stroke-width="1.5"/>
  <rect x="540" y="238.05128858657554" width="24" height="27.876226045191288" rx="2" fill="#00F0FF" opacity="0.85"/>
  <line x1="626" y1="400.9489576634951" x2="626" y2="453.50294035160914" stroke="#00F0FF" stroke-width="1.5"/>
  <rect x="614" y="430.5559150525369" width="24" height="12.756311614066362" rx="2" fill="#00F0FF" opacity="0.85"/>
  <line x1="700" y1="339.0774130099453" x2="700" y2="406.27979644807056" stroke="#00F0FF" stroke-width="1.5"/>
  <rect x="688" y="357.4950560112484" width="24" height="12.125277519226074" rx="2" fill="#00F0FF" opacity="0.85"/>
  <line x1="774" y1="142.28233619825915" x2="774" y2="220.8449619100429" stroke="#00F0FF" stroke-width="1.5"/>
  <rect x="762" y="175.74526356766" width="24" height="36.47742746397853" rx="2" fill="#00F0FF" opacity="0.85"/>
  <line x1="848" y1="380.05200227955356" x2="848" y2="456.4295773510821" stroke="#00F0FF" stroke-width="1.5"/>
  <rect x="836" y="402.16062125982717" width="24" height="15.81809725612402" rx="2" fill="#00F0FF" opacity="0.85"/>
</svg>