<svg xmlns="http://www.w3.org/2000/svg" viewBox="0 0 1200 630" fill="none">
  <rect width="1200" height="630" fill="#0d1117"/>
  <rect x="30" y="30" width="1140" height="570" rx="20" fill="#161b22" stroke="#30363d" stroke-width="1"/>
  <defs>
    <linearGradient id="lineGrad" x1="0%" y1="0%" x2="100%" y2="0%">
      <stop offset="0%" stop-color="#8B5CF6"/>
      <stop offset="100%" stop-color="#EC4899"/>
    </linearGradient>
    <linearGradient id="areaGrad" x1="0%" y1="0%" x2="0%" y2="100%">
      <stop offset="0%" stop-color="#8B5CF6" stop-opacity="0.3"/>
      <stop offset="100%" stop-color="#8B5CF6" stop-opacity="0"/>
    </linearGradient>
    <linearGradient id="barGrad" x1="0%" y1="0%" x2="0%" y2="100%">
      <stop offset="0%" stop-color="#8B5CF6"/>
      <stop offset="100%" stop-color="#EC4899"/>
    </linearGradient>
  </defs>
  
  <circle cx="1020" cy="94.5" r="62.41472760215402" fill="#8B5CF6" opacity="0.03"/>
  <circle cx="180" cy="504" r="57.92852074606344" fill="#EC4899" opacity="0.04"/>
  <circle cx="380" cy="398" r="6.4" fill="#8B5CF6" opacity="0.74"/>
  <circle cx="313" cy="335" r="9.8" fill="#EC4899" opacity="0.55"/>
  <circle cx="295" cy="388" r="5.8" fill="#EC4899" opacity="0.42"/>
  <circle cx="225" cy="316" r="8.3" fill="#EC4899" opacity="0.76"/>
  <circle cx="578" cy="105" r="4.7" fill="#EC4899" opacity="0.50"/>
  <circle cx="791" cy="423" r="6.4" fill="#8B5CF6" opacity="0.76"/>
  <circle cx="598" cy="403" r="5.2" fill="#EC4899" opacity="0.74"/>
  <circle cx="972" cy="175" r="9.3" fill="#EC4899" opacity="0.47"/>
  <circle cx="1003" cy="115" r="10.9" fill="#EC4899" opacity="0.41"/>
  <circle cx="690" cy="205" r="10.3" fill="#8B5CF6" opacity="0.41"/>
  <circle cx="210" cy="294" r="10.8" fill="#8B5CF6" opacity="0.36"/>
  <circle cx="1035" cy="390" r="8.4" fill="#EC4899" opacity="0.43"/>
  <circle cx="260" cy="117" r="9.9" fill="#8B5CF6" opacity="0.64"/>
  <circle cx="525" cy="378" r="3.9" fill="#8B5CF6" opacity="0.80"/>
  <circle cx="317" cy="353" r="3.1" fill="#8B5CF6" opacity="0.31"/>
  <circle cx="851" cy="363" r="6.1" fill="#8B5CF6" opacity="0.52"/>
  <circle cx="893" cy="325" r="9.8" fill="#8B5CF6" opacity="0.46"/>
  <circle cx="275" cy="494" r="8.9" fill="#8B5CF6" opacity="0.49"/>
  <circle cx="612" cy="242" r="4.9" fill="#8B5CF6" opacity="0.32"/>
  <circle cx="542" cy="170" r="8.0" fill="#EC4899" opacity="0.36"/>
  <circle cx="835" cy="417" r="10.4" fill="#EC4899" opacity="0.57"/>
  <circle cx="316" cy="328" r="8.7" fill="#8B5CF6" opacity="0.64"/>
  <circle cx="348" cy="292" r="10.4" fill="#EC4899" opacity="0.38"/>
  <circle cx="898" cy="421" r="7.3" fill="#8B5CF6" opacity="0.63"/>
  <circle cx="567" cy="460" r="3.8" fill="#EC4899" opacity="0.47"/>
  <circle cx="928" cy="142" r="3.4" fill="#EC4899" opacity="0.30"/>
  <circle cx="236" cy="317" r="3.9" fill="#8B5CF6" opacity="0.78"/>
  <circle cx="676" cy="112" r="5.4" fill="#EC4899" opacity="0.75"/>
  <circle cx="945" cy="340" r="9.5" fill="#8B5CF6" opacity="0.74"/>
  <circle cx="322" cy="437" r="5.5" fill="#8B5CF6" opacity="0.56"/>
  <circle cx="478" cy="264" r="6.4" fill="#8B5CF6" opacity="0.37"/>
  <circle cx="417" cy="214" r="4.9" fill="#8B5CF6" opacity="0.42"/>
  <circle cx="262" cy="200" r="9.6" fill="#8B5CF6" opacity="0.73"/>
  <circle cx="188" cy="206" r="10.9" fill="#EC4899" opacity="0.60"/>
  <circle cx="1001" cy="422" r="10.5" fill="#EC4899" opacity="0.79"/>
  <circle cx="295" cy="323" r="6.1" fill="#8B5CF6" opacity="0.52"/>
  <circle cx="265" cy="276" r="5.6" fill="#8B5CF6" opacity="0.38"/>
  <circle cx="661" cy="348" r="6.8" fill="#8B5CF6" opacity="0.59"/>
  <circle cx="490" cy="293" r="9.4" fill="#EC4899" opacity="0.35"/>
  <circle cx="886" cy="123" r="8.5" fill="#EC4899" opacity="0.59"/>
  <line x1="160" y1="450" x2="1040" y2="150" stroke="#8B5CF6" stroke-width="2" stroke-dasharray="6 4" opacity="0.5"/>
</svg>