<svg xmlns="http://www.w3.org/2000/svg" viewBox="0 0 1200 630" fill="none">
  <rect width="1200" height="630" fill="transparent"/>
  <rect x="30" y="30" width="1140" height="570" rx="20" fill="rgba(128,128,128,0.06)" stroke="rgba(128,128,128,0.15)" stroke-width="1"/>
  <defs>
    <linearGradient id="lineGrad" x1="0%" y1="0%" x2="100%" y2="0%">
      <stop offset="0%" stop-color="#06B6D4"/>
      <stop offset="100%" stop-color="#F97316"/>
    </linearGradient>
    <linearGradient id="areaGrad" x1="0%" y1="0%" x2="0%" y2="100%">
      <stop offset="0%" stop-color="#06B6D4" stop-opacity="0.3"/>
      <stop offset="100%" stop-color="#06B6D4" stop-opacity="0"/>
    </linearGradient>
    <linearGradient id="barGrad" x1="0%" y1="0%" x2="0%" y2="100%">
      <stop offset="0%" stop-color="#06B6D4"/>
      <stop offset="100%" stop-color="#F97316"/>
    </linearGradient>
  </defs>
  
  <circle cx="1020" cy="94.5" r="87.95543611049652" fill="#06B6D4" opacity="0.03"/>
  <circle cx="180" cy="504" r="48.800907351542264" fill="#F97316" opacity="0.04"/>
  <rect x="160" y="212.29977659881115" width="60" height="307.70022340118885" rx="4" fill="url(#barGrad)" opacity="0.98"/>
  <rect x="250" y="297.5946903321892" width="60" height="222.4053096678108" rx="4" fill="url(#barGrad)" opacity="0.69"/>
  <rect x="340" y="278.70722698047757" width="60" height="241.29277301952243" rx="4" fill="url(#barGrad)" opacity="0.90"/>
  <rect x="430" y="352.58261571638286" width="60" height="167.41738428361714" rx="4" fill="url(#barGrad)" opacity="0.72"/>
  <rect x="520" y="249.18956231325865" width="60" height="270.81043768674135" rx="4" fill="url(#barGrad)" opacity="0.62"/>
  <rect x="610" y="235.8852164912969" width="60" height="284.1147835087031" rx="4" fill="url(#barGrad)" opacity="0.64"/>
  <rect x="700" y="258.80559092387557" width="60" height="261.19440907612443" rx="4" fill="url(#barGrad)" opacity="0.73"/>
  <rect x="790" y="164.99481081031263" width="60" height="355.00518918968737" rx="4" fill="url(#barGrad)" opacity="0.84"/>
</svg>