<svg xmlns="http://www.w3.org/2000/svg" viewBox="0 0 1200 630" fill="none">
  <rect width="1200" height="630" fill="#0d1117"/>
  <rect x="30" y="30" width="1140" height="570" rx="20" fill="#161b22" stroke="#30363d" stroke-width="1"/>
  <defs>
    <linearGradient id="lineGrad" x1="0%" y1="0%" x2="100%" y2="0%">
      <stop offset="0%" stop-color="#8B5CF6"/>
      <stop offset="100%" stop-color="#EC4899"/>
    </linearGradient>
    <linearGradient id="areaGrad" x1="0%" y1="0%" x2="0%" y2="100%">
      <stop offset="0%" stop-color="#8B5CF6" stop-opacity="0.3"/>
      <stop offset="100%" stop-color="#8B5CF6" stop-opacity="0"/>
    </linearGradient>
    <linearGradient id="barGrad" x1="0%" y1="0%" x2="0%" y2="100%">
      <stop offset="0%" stop-color="#8B5CF6"/>
      <stop offset="100%" stop-color="#EC4899"/>
    </linearGradient>
  </defs>
  
  <circle cx="1020" cy="94.5" r="79.8535798676312" fill="#8B5CF6" opacity="0.03"/>
  <circle cx="180" cy="504" r="62.10391579894349" fill="#EC4899" opacity="0.04"/>
  <rect x="160" y="164.35606480576098" width="60" height="355.643935194239" rx="4" fill="url(#barGrad)" opacity="0.86"/>
  <rect x="250" y="337.77111457660794" width="60" height="182.22888542339206" rx="4" fill="url(#barGrad)" opacity="0.88"/>
  <rect x="340" y="219.56028352491558" width="60" height="300.4397164750844" rx="4" fill="url(#barGrad)" opacity="0.85"/>
  <rect x="430" y="338.94764851778746" width="60" height="181.05235148221254" rx="4" fill="url(#barGrad)" opacity="0.91"/>
  <rect x="520" y="399.94807411916554" width="60" height="120.05192588083446" rx="4" fill="url(#barGrad)" opacity="0.60"/>
  <rect x="610" y="206.35138159617782" width="60" height="313.6486184038222" rx="4" fill="url(#barGrad)" opacity="0.65"/>
  <rect x="700" y="411.1953484918922" width="60" height="108.80465150810778" rx="4" fill="url(#barGrad)" opacity="0.78"/>
  <rect x="790" y="365.7885739207268" width="60" height="154.21142607927322" rx="4" fill="url(#barGrad)" opacity="0.66"/>
</svg>