<svg xmlns="http://www.w3.org/2000/svg" viewBox="0 0 1200 630" fill="none">
  <rect width="1200" height="630" fill="#0d1117"/>
  <rect x="30" y="30" width="1140" height="570" rx="20" fill="#161b22" stroke="#30363d" stroke-width="1"/>
  <defs>
    <linearGradient id="lineGrad" x1="0%" y1="0%" x2="100%" y2="0%">
      <stop offset="0%" stop-color="#06B6D4"/>
      <stop offset="100%" stop-color="#F97316"/>
    </linearGradient>
    <linearGradient id="areaGrad" x1="0%" y1="0%" x2="0%" y2="100%">
      <stop offset="0%" stop-color="#06B6D4" stop-opacity="0.3"/>
      <stop offset="100%" stop-color="#06B6D4" stop-opacity="0"/>
    </linearGradient>
    <linearGradient id="barGrad" x1="0%" y1="0%" x2="0%" y2="100%">
      <stop offset="0%" stop-color="#06B6D4"/>
      <stop offset="100%" stop-color="#F97316"/>
    </linearGradient>
  </defs>
  
  <circle cx="1020" cy="94.5" r="78.8429150171578" fill="#06B6D4" opacity="0.03"/>
  <circle cx="180" cy="504" r="64.42124011693522" fill="#F97316" opacity="0.04"/>
  <rect x="160" y="437.0858591143042" width="60" height="82.91414088569582" rx="4" fill="url(#barGrad)" opacity="0.64"/>
  <rect x="250" y="251.26097002997994" width="60" height="268.73902997002006" rx="4" fill="url(#barGrad)" opacity="0.61"/>
  <rect x="340" y="229.02305546216667" width="60" height="290.97694453783333" rx="4" fill="url(#barGrad)" opacity="0.69"/>
  <rect x="430" y="311.02483455091715" width="60" height="208.97516544908285" rx="4" fill="url(#barGrad)" opacity="0.68"/>
  <rect x="520" y="400.1045284885913" width="60" height="119.89547151140869" rx="4" fill="url(#barGrad)" opacity="0.97"/>
  <rect x="610" y="288.89454124495387" width="60" height="231.10545875504613" rx="4" fill="url(#barGrad)" opacity="0.71"/>
  <rect x="700" y="265.3369396086782" width="60" height="254.66306039132178" rx="4" fill="url(#barGrad)" opacity="0.87"/>
  <rect x="790" y="245.38551770150661" width="60" height="274.6144822984934" rx="4" fill="url(#barGrad)" opacity="0.79"/>
</svg>