<svg xmlns="http://www.w3.org/2000/svg" viewBox="0 0 1200 630" fill="none">
  <rect width="1200" height="630" fill="transparent"/>
  <rect x="30" y="30" width="1140" height="570" rx="20" fill="rgba(128,128,128,0.06)" stroke="rgba(128,128,128,0.15)" stroke-width="1"/>
  <defs>
    <linearGradient id="lineGrad" x1="0%" y1="0%" x2="100%" y2="0%">
      <stop offset="0%" stop-color="#14B8A6"/>
      <stop offset="100%" stop-color="#E11D48"/>
    </linearGradient>
    <linearGradient id="areaGrad" x1="0%" y1="0%" x2="0%" y2="100%">
      <stop offset="0%" stop-color="#14B8A6" stop-opacity="0.3"/>
      <stop offset="100%" stop-color="#14B8A6" stop-opacity="0"/>
    </linearGradient>
    <linearGradient id="barGrad" x1="0%" y1="0%" x2="0%" y2="100%">
      <stop offset="0%" stop-color="#14B8A6"/>
      <stop offset="100%" stop-color="#E11D48"/>
    </linearGradient>
  </defs>
  
  <circle cx="1020" cy="94.5" r="93.57143173925579" fill="#14B8A6" opacity="0.03"/>
  <circle cx="180" cy="504" r="52.643877738155425" fill="#E11D48" opacity="0.04"/>
  <line x1="182" y1="288.2622879440896" x2="182" y2="356.140262063127" stroke="#14B8A6" stroke-width="1.5"/>
  <rect x="170" y="307.56697127362713" width="24" height="31.111473450437188" rx="2" fill="#14B8A6" opacity="0.85"/>
  <line x1="256" y1="152.7872061333619" x2="256" y2="214.88681219285354" stroke="#14B8A6" stroke-width="1.5"/>
  <rect x="244" y="157.6444233651273" width="24" height="48.2869656290859" rx="2" fill="#14B8A6" opacity="0.85"/>
  <line x1="330" y1="290.7409629947506" x2="330" y2="341.1496965563856" stroke="#E11D48" stroke-width="1.5"/>
  <rect x="318" y="295.2652233536355" width="24" height="11.96788134984672" rx="2" fill="#E11D48" opacity="0.85"/>
  <line x1="404" y1="335.7365889265202" x2="404" y2="366.20481030782685" stroke="#14B8A6" stroke-width="1.5"/>
  <rect x="392" y="337.8133157151751" width="24" height="15.290889842435718" rx="2" fill="#14B8A6" opacity="0.85"/>
  <line x1="478" y1="275.59632860822603" x2="478" y2="318.25057870475575" stroke="#14B8A6" stroke-width="1.5"/>
  <rect x="466" y="282.2933887480758" width="24" height="3" rx="2" fill="#14B8A6" opacity="0.85"/>
  <line x1="552" y1="395.2446666243486" x2="552" y2="419.3220603908412" stroke="#E11D48" stroke-width="1.5"/>
  <rect x="540" y="413.69509160285816" width="24" height="3" rx="2" fill="#E11D48" opacity="0.85"/>
  <line x1="626" y1="363.6754846177064" x2="626" y2="404.7324816486798" stroke="#E11D48" stroke-width="1.5"/>
  <rect x="614" y="369.65794534189627" width="24" height="30.194885237142444" rx="2" fill="#E11D48" opacity="0.85"/>
  <line x1="700" y1="384.4277349929325" x2="700" y2="466.2328166025691" stroke="#E11D48" stroke-width="1.5"/>
  <rect x="688" y="391.4963330491446" width="24" height="47.11424824781716" rx="2" fill="#E11D48" opacity="0.85"/>
  <line x1="774" y1="359.0149680315517" x2="774" y2="420.0690765096806" stroke="#E11D48" stroke-width="1.5"/>
  <rect x="762" y="391.6549058514647" width="24" height="26.47176100872457" rx="2" fill="#E11D48" opacity="0.85"/>
  <line x1="848" y1="381.203071360942" x2="848" y2="482.6679491973482" stroke="#14B8A6" stroke-width="1.5"/>
  <rect x="836" y="406.1137637938373" width="24" height="36.78960143588483" rx="2" fill="#14B8A6" opacity="0.85"/>
</svg>