<svg xmlns="http://www.w3.org/2000/svg" viewBox="0 0 1200 630" fill="none">
  <rect width="1200" height="630" fill="#0d1117"/>
  <rect x="30" y="30" width="1140" height="570" rx="20" fill="#161b22" stroke="#30363d" stroke-width="1"/>
  <defs>
    <linearGradient id="lineGrad" x1="0%" y1="0%" x2="100%" y2="0%">
      <stop offset="0%" stop-color="#14B8A6"/>
      <stop offset="100%" stop-color="#E11D48"/>
    </linearGradient>
    <linearGradient id="areaGrad" x1="0%" y1="0%" x2="0%" y2="100%">
      <stop offset="0%" stop-color="#14B8A6" stop-opacity="0.3"/>
      <stop offset="100%" stop-color="#14B8A6" stop-opacity="0"/>
    </linearGradient>
    <linearGradient id="barGrad" x1="0%" y1="0%" x2="0%" y2="100%">
      <stop offset="0%" stop-color="#14B8A6"/>
      <stop offset="100%" stop-color="#E11D48"/>
    </linearGradient>
  </defs>
  
  <circle cx="1020" cy="94.5" r="90.51106550730765" fill="#14B8A6" opacity="0.03"/>
  <circle cx="180" cy="504" r="40.56720263324678" fill="#E11D48" opacity="0.04"/>
  <line x1="182" y1="257.22120891558006" x2="182" y2="322.8582768351771" stroke="#E11D48" stroke-width="1.5"/>
  <rect x="170" y="296.96691489079967" width="24" height="15.210240613669157" rx="2" fill="#E11D48" opacity="0.85"/>
  <line x1="256" y1="205.94430834287778" x2="256" y2="223.81255210610107" stroke="#14B8A6" stroke-width="1.5"/>
  <rect x="244" y="210.82548230187967" width="24" height="7.460243254899979" rx="2" fill="#14B8A6" opacity="0.85"/>
  <line x1="330" y1="367.24182640435174" x2="330" y2="465.4044607304968" stroke="#E11D48" stroke-width="1.5"/>
  <rect x="318" y="390.02955086762086" width="24" height="48.86996792629361" rx="2" fill="#E11D48" opacity="0.85"/>
  <line x1="404" y1="355.909444487188" x2="404" y2="403.0067115952261" stroke="#E11D48" stroke-width="1.5"/>
  <rect x="392" y="374.49817882152274" width="24" height="6.0479553416371346" rx="2" fill="#E11D48" opacity="0.85"/>
  <line x1="478" y1="169.9740614485927" x2="478" y2="221.5612416737713" stroke="#14B8A6" stroke-width="1.5"/>
  <rect x="466" y="201.78609132999554" width="24" height="11.29408935084939" rx="2" fill="#14B8A6" opacity="0.85"/>
  <line x1="552" y1="320.2807762869634" x2="552" y2="406.40483101131395" stroke="#14B8A6" stroke-width="1.5"/>
  <rect x="540" y="322.4348233197816" width="24" height="49.38998706638813" rx="2" fill="#14B8A6" opacity="0.85"/>
  <line x1="626" y1="386.9882025127299" x2="626" y2="465.9754485101439" stroke="#14B8A6" stroke-width="1.5"/>
  <rect x="614" y="401.64625650504604" width="24" height="37.56491309031844" rx="2" fill="#14B8A6" opacity="0.85"/>
  <line x1="700" y1="281.3669943273999" x2="700" y2="363.62944840686396" stroke="#14B8A6" stroke-width="1.5"/>
  <rect x="688" y="311.2984307226725" width="24" height="18.722457624971867" rx="2" fill="#14B8A6" opacity="0.85"/>
  <line x1="774" y1="296.6935263876803" x2="774" y2="380.40267566451803" stroke="#E11D48" stroke-width="1.5"/>
  <rect x="762" y="311.7205713526346" width="24" height="47.219094913452864" rx="2" fill="#E11D48" opacity="0.85"/>
  <line x1="848" y1="208.9004220836796" x2="848" y2="243.67878535063937" stroke="#14B8A6" stroke-width="1.5"/>
  <rect x="836" y="209.51402775244787" width="24" height="22.74623215198517" rx="2" fill="#14B8A6" opacity="0.85"/>
</svg>