<svg xmlns="http://www.w3.org/2000/svg" viewBox="0 0 1200 630" fill="none">
  <rect width="1200" height="630" fill="transparent"/>
  <rect x="30" y="30" width="1140" height="570" rx="20" fill="rgba(128,128,128,0.06)" stroke="rgba(128,128,128,0.15)" stroke-width="1"/>
  <defs>
    <linearGradient id="lineGrad" x1="0%" y1="0%" x2="100%" y2="0%">
      <stop offset="0%" stop-color="#06B6D4"/>
      <stop offset="100%" stop-color="#F97316"/>
    </linearGradient>
    <linearGradient id="areaGrad" x1="0%" y1="0%" x2="0%" y2="100%">
      <stop offset="0%" stop-color="#06B6D4" stop-opacity="0.3"/>
      <stop offset="100%" stop-color="#06B6D4" stop-opacity="0"/>
    </linearGradient>
    <linearGradient id="barGrad" x1="0%" y1="0%" x2="0%" y2="100%">
      <stop offset="0%" stop-color="#06B6D4"/>
      <stop offset="100%" stop-color="#F97316"/>
    </linearGradient>
  </defs>
  
  <circle cx="1020" cy="94.5" r="83.09484492056072" fill="#06B6D4" opacity="0.03"/>
  <circle cx="180" cy="504" r="67.13808643165976" fill="#F97316" opacity="0.04"/>
  <path d="M140 328 L220 309 L300 283 L380 271 L460 254 L540 263 L620 264 L700 253 L780 258 L860 250 L940 280 L1020 296 L1060 530 L140 530 Z" fill="#06B6D4" opacity="0.15"/>
  <path d="M140 328 L220 309 L300 283 L380 271 L460 254 L540 263 L620 264 L700 253 L780 258 L860 250 L940 280 L1020 296" stroke="#06B6D4" stroke-width="2" fill="none" opacity="0.8"/>
  <path d="M140 371 L220 364 L300 340 L380 346 L460 369 L540 347 L620 361 L700 353 L780 385 L860 414 L940 402 L1020 390 L1060 530 L140 530 Z" fill="#F97316" opacity="0.12"/>
  <path d="M140 371 L220 364 L300 340 L380 346 L460 369 L540 347 L620 361 L700 353 L780 385 L860 414 L940 402 L1020 390" stroke="#F97316" stroke-width="2" fill="none" opacity="0.8"/>
  <path d="M140 397 L220 428 L300 456 L380 435 L460 466 L540 458 L620 443 L700 466 L780 456 L860 473 L940 500 L1020 500 L1060 530 L140 530 Z" fill="#8B949E" opacity="0.09"/>
  <path d="M140 397 L220 428 L300 456 L380 435 L460 466 L540 458 L620 443 L700 466 L780 456 L860 473 L940 500 L1020 500" stroke="#8B949E" stroke-width="2" fill="none" opacity="0.8"/>
</svg>