<svg xmlns="http://www.w3.org/2000/svg" viewBox="0 0 1200 630" fill="none">
  <rect width="1200" height="630" fill="transparent"/>
  <rect x="30" y="30" width="1140" height="570" rx="20" fill="rgba(128,128,128,0.06)" stroke="rgba(128,128,128,0.15)" stroke-width="1"/>
  <defs>
    <linearGradient id="lineGrad" x1="0%" y1="0%" x2="100%" y2="0%">
      <stop offset="0%" stop-color="#14B8A6"/>
      <stop offset="100%" stop-color="#E11D48"/>
    </linearGradient>
    <linearGradient id="areaGrad" x1="0%" y1="0%" x2="0%" y2="100%">
      <stop offset="0%" stop-color="#14B8A6" stop-opacity="0.3"/>
      <stop offset="100%" stop-color="#14B8A6" stop-opacity="0"/>
    </linearGradient>
    <linearGradient id="barGrad" x1="0%" y1="0%" x2="0%" y2="100%">
      <stop offset="0%" stop-color="#14B8A6"/>
      <stop offset="100%" stop-color="#E11D48"/>
    </linearGradient>
  </defs>
  
  <circle cx="1020" cy="94.5" r="74.92033207789063" fill="#14B8A6" opacity="0.03"/>
  <circle cx="180" cy="504" r="66.3960023666732" fill="#E11D48" opacity="0.04"/>
  <rect x="160" y="354.3611066509038" width="60" height="165.63889334909618" rx="4" fill="url(#barGrad)" opacity="0.80"/>
  <rect x="250" y="337.89606695994735" width="60" height="182.10393304005265" rx="4" fill="url(#barGrad)" opacity="0.76"/>
  <rect x="340" y="182.676862468943" width="60" height="337.323137531057" rx="4" fill="url(#barGrad)" opacity="0.69"/>
  <rect x="430" y="378.7816235423088" width="60" height="141.2183764576912" rx="4" fill="url(#barGrad)" opacity="0.72"/>
  <rect x="520" y="399.2282245401293" width="60" height="120.7717754598707" rx="4" fill="url(#barGrad)" opacity="0.61"/>
  <rect x="610" y="218.20186102762818" width="60" height="301.7981389723718" rx="4" fill="url(#barGrad)" opacity="0.89"/>
  <rect x="700" y="387.4140356760472" width="60" height="132.5859643239528" rx="4" fill="url(#barGrad)" opacity="0.63"/>
  <rect x="790" y="147.60711301118135" width="60" height="372.39288698881865" rx="4" fill="url(#barGrad)" opacity="0.92"/>
</svg>