<svg xmlns="http://www.w3.org/2000/svg" viewBox="0 0 1200 630" fill="none">
  <rect width="1200" height="630" fill="#0d1117"/>
  <rect x="30" y="30" width="1140" height="570" rx="20" fill="#161b22" stroke="#30363d" stroke-width="1"/>
  <defs>
    <linearGradient id="lineGrad" x1="0%" y1="0%" x2="100%" y2="0%">
      <stop offset="0%" stop-color="#00F0FF"/>
      <stop offset="100%" stop-color="#A91079"/>
    </linearGradient>
    <linearGradient id="areaGrad" x1="0%" y1="0%" x2="0%" y2="100%">
      <stop offset="0%" stop-color="#00F0FF" stop-opacity="0.3"/>
      <stop offset="100%" stop-color="#00F0FF" stop-opacity="0"/>
    </linearGradient>
    <linearGradient id="barGrad" x1="0%" y1="0%" x2="0%" y2="100%">
      <stop offset="0%" stop-color="#00F0FF"/>
      <stop offset="100%" stop-color="#A91079"/>
    </linearGradient>
  </defs>
  
  <circle cx="1020" cy="94.5" r="83.65071735344827" fill="#00F0FF" opacity="0.03"/>
  <circle cx="180" cy="504" r="54.80910054873675" fill="#A91079" opacity="0.04"/>
  <line x1="140" y1="200" x2="1060" y2="200" stroke="#30363d" stroke-width="0.5" stroke-dasharray="4 4"/>
  <line x1="140" y1="300" x2="1060" y2="300" stroke="#30363d" stroke-width="0.5" stroke-dasharray="4 4"/>
  <line x1="140" y1="400" x2="1060" y2="400" stroke="#30363d" stroke-width="0.5" stroke-dasharray="4 4"/>
  <line x1="140" y1="500" x2="1060" y2="500" stroke="#30363d" stroke-width="0.5" stroke-dasharray="4 4"/>
  <path d="M140 405 L255 382 L370 426 L485 471 L600 500 L715 500 L830 477 L945 500 L1060 479 L1060 500 L140 500 Z" fill="url(#areaGrad)" opacity="0.3"/>
  <path d="M140 405 L255 382 L370 426 L485 471 L600 500 L715 500 L830 477 L945 500 L1060 479" stroke="url(#lineGrad)" stroke-width="3" stroke-linecap="round" stroke-linejoin="round" fill="none"/>
  <circle cx="140" cy="405" r="5" fill="#00F0FF" opacity="0.8"/>
  <circle cx="370" cy="426" r="5" fill="#00F0FF" opacity="0.8"/>
  <circle cx="600" cy="500" r="5" fill="#00F0FF" opacity="0.8"/>
  <circle cx="830" cy="477" r="5" fill="#00F0FF" opacity="0.8"/>
  <circle cx="1060" cy="479" r="5" fill="#00F0FF" opacity="0.8"/>
</svg>