<svg xmlns="http://www.w3.org/2000/svg" viewBox="0 0 1200 630" fill="none">
  <rect width="1200" height="630" fill="transparent"/>
  <rect x="30" y="30" width="1140" height="570" rx="20" fill="rgba(128,128,128,0.06)" stroke="rgba(128,128,128,0.15)" stroke-width="1"/>
  <defs>
    <linearGradient id="lineGrad" x1="0%" y1="0%" x2="100%" y2="0%">
      <stop offset="0%" stop-color="#14B8A6"/>
      <stop offset="100%" stop-color="#E11D48"/>
    </linearGradient>
    <linearGradient id="areaGrad" x1="0%" y1="0%" x2="0%" y2="100%">
      <stop offset="0%" stop-color="#14B8A6" stop-opacity="0.3"/>
      <stop offset="100%" stop-color="#14B8A6" stop-opacity="0"/>
    </linearGradient>
    <linearGradient id="barGrad" x1="0%" y1="0%" x2="0%" y2="100%">
      <stop offset="0%" stop-color="#14B8A6"/>
      <stop offset="100%" stop-color="#E11D48"/>
    </linearGradient>
  </defs>
  
  <circle cx="1020" cy="94.5" r="98.36586641147733" fill="#14B8A6" opacity="0.03"/>
  <circle cx="180" cy="504" r="64.92346240906045" fill="#E11D48" opacity="0.04"/>
  <rect x="160" y="174.65761155821383" width="60" height="345.34238844178617" rx="4" fill="url(#barGrad)" opacity="0.75"/>
  <rect x="250" y="367.1678795106709" width="60" height="152.8321204893291" rx="4" fill="url(#barGrad)" opacity="0.67"/>
  <rect x="340" y="262.8775344323367" width="60" height="257.1224655676633" rx="4" fill="url(#barGrad)" opacity="0.79"/>
  <rect x="430" y="196.36267345398664" width="60" height="323.63732654601336" rx="4" fill="url(#barGrad)" opacity="0.86"/>
  <rect x="520" y="226.9108357001096" width="60" height="293.0891642998904" rx="4" fill="url(#barGrad)" opacity="0.88"/>
  <rect x="610" y="281.4250931702554" width="60" height="238.57490682974458" rx="4" fill="url(#barGrad)" opacity="0.96"/>
  <rect x="700" y="282.3638471867889" width="60" height="237.63615281321108" rx="4" fill="url(#barGrad)" opacity="0.72"/>
  <rect x="790" y="207.6523655653" width="60" height="312.3476344347" rx="4" fill="url(#barGrad)" opacity="0.89"/>
</svg>