<svg xmlns="http://www.w3.org/2000/svg" viewBox="0 0 1200 630" fill="none">
  <rect width="1200" height="630" fill="transparent"/>
  <rect x="30" y="30" width="1140" height="570" rx="20" fill="rgba(128,128,128,0.06)" stroke="rgba(128,128,128,0.15)" stroke-width="1"/>
  <defs>
    <linearGradient id="lineGrad" x1="0%" y1="0%" x2="100%" y2="0%">
      <stop offset="0%" stop-color="#10B981"/>
      <stop offset="100%" stop-color="#F59E0B"/>
    </linearGradient>
    <linearGradient id="areaGrad" x1="0%" y1="0%" x2="0%" y2="100%">
      <stop offset="0%" stop-color="#10B981" stop-opacity="0.3"/>
      <stop offset="100%" stop-color="#10B981" stop-opacity="0"/>
    </linearGradient>
    <linearGradient id="barGrad" x1="0%" y1="0%" x2="0%" y2="100%">
      <stop offset="0%" stop-color="#10B981"/>
      <stop offset="100%" stop-color="#F59E0B"/>
    </linearGradient>
  </defs>
  
  <circle cx="1020" cy="94.5" r="99.523666491732" fill="#10B981" opacity="0.03"/>
  <circle cx="180" cy="504" r="55.307401842437685" fill="#F59E0B" opacity="0.04"/>
  <path d="M140 257 L220 281 L300 303 L380 321 L460 345 L540 344 L620 346 L700 373 L780 358 L860 360 L940 343 L1020 316 L1060 530 L140 530 Z" fill="#10B981" opacity="0.15"/>
  <path d="M140 257 L220 281 L300 303 L380 321 L460 345 L540 344 L620 346 L700 373 L780 358 L860 360 L940 343 L1020 316" stroke="#10B981" stroke-width="2" fill="none" opacity="0.8"/>
  <path d="M140 331 L220 353 L300 363 L380 338 L460 328 L540 316 L620 346 L700 377 L780 350 L860 344 L940 366 L1020 382 L1060 530 L140 530 Z" fill="#F59E0B" opacity="0.12"/>
  <path d="M140 331 L220 353 L300 363 L380 338 L460 328 L540 316 L620 346 L700 377 L780 350 L860 344 L940 366 L1020 382" stroke="#F59E0B" stroke-width="2" fill="none" opacity="0.8"/>
  <path d="M140 400 L220 380 L300 376 L380 395 L460 394 L540 385 L620 403 L700 431 L780 451 L860 460 L940 457 L1020 483 L1060 530 L140 530 Z" fill="#8B949E" opacity="0.09"/>
  <path d="M140 400 L220 380 L300 376 L380 395 L460 394 L540 385 L620 403 L700 431 L780 451 L860 460 L940 457 L1020 483" stroke="#8B949E" stroke-width="2" fill="none" opacity="0.8"/>
</svg>