<svg xmlns="http://www.w3.org/2000/svg" viewBox="0 0 1200 630" fill="none">
  <rect width="1200" height="630" fill="transparent"/>
  <rect x="30" y="30" width="1140" height="570" rx="20" fill="rgba(128,128,128,0.06)" stroke="rgba(128,128,128,0.15)" stroke-width="1"/>
  <defs>
    <linearGradient id="lineGrad" x1="0%" y1="0%" x2="100%" y2="0%">
      <stop offset="0%" stop-color="#00F0FF"/>
      <stop offset="100%" stop-color="#A91079"/>
    </linearGradient>
    <linearGradient id="areaGrad" x1="0%" y1="0%" x2="0%" y2="100%">
      <stop offset="0%" stop-color="#00F0FF" stop-opacity="0.3"/>
      <stop offset="100%" stop-color="#00F0FF" stop-opacity="0"/>
    </linearGradient>
    <linearGradient id="barGrad" x1="0%" y1="0%" x2="0%" y2="100%">
      <stop offset="0%" stop-color="#00F0FF"/>
      <stop offset="100%" stop-color="#A91079"/>
    </linearGradient>
  </defs>
  
  <circle cx="1020" cy="94.5" r="69.3073256406933" fill="#00F0FF" opacity="0.03"/>
  <circle cx="180" cy="504" r="44.24109545536339" fill="#A91079" opacity="0.04"/>
  <line x1="182" y1="316.8560255994089" x2="182" y2="384.9944325373508" stroke="#00F0FF" stroke-width="1.5"/>
  <rect x="170" y="332.88696544477716" width="24" height="22.51863656565547" rx="2" fill="#00F0FF" opacity="0.85"/>
  <line x1="256" y1="409.2502768547274" x2="256" y2="477.77157477336004" stroke="#A91079" stroke-width="1.5"/>
  <rect x="244" y="434.8471086588688" width="24" height="27.022958733141422" rx="2" fill="#A91079" opacity="0.85"/>
  <line x1="330" y1="354.99645746545866" x2="330" y2="393.7335199699737" stroke="#A91079" stroke-width="1.5"/>
  <rect x="318" y="362.6041262061335" width="24" height="26.876103039830923" rx="2" fill="#A91079" opacity="0.85"/>
  <line x1="404" y1="428.6535830446519" x2="404" y2="471.78950851084664" stroke="#A91079" stroke-width="1.5"/>
  <rect x="392" y="438.65687783109024" width="24" height="9.435515478253365" rx="2" fill="#A91079" opacity="0.85"/>
  <line x1="478" y1="247.96321214409545" x2="478" y2="316.50672246003523" stroke="#A91079" stroke-width="1.5"/>
  <rect x="466" y="263.2718797423877" width="24" height="23.85807642713189" rx="2" fill="#A91079" opacity="0.85"/>
  <line x1="552" y1="234.7891033277847" x2="552" y2="311.0988511447795" stroke="#A91079" stroke-width="1.5"/>
  <rect x="540" y="270.9527468425222" width="24" height="21.98201697319746" rx="2" fill="#A91079" opacity="0.85"/>
  <line x1="626" y1="351.6339388047345" x2="626" y2="439.87665267894045" stroke="#A91079" stroke-width="1.5"/>
  <rect x="614" y="368.1507640169002" width="24" height="33.79688961431384" rx="2" fill="#A91079" opacity="0.85"/>
  <line x1="700" y1="279.5330011867918" x2="700" y2="309.9856248614378" stroke="#A91079" stroke-width="1.5"/>
  <rect x="688" y="303.64147304790094" width="24" height="3" rx="2" fill="#A91079" opacity="0.85"/>
  <line x1="774" y1="159.49559456901625" x2="774" y2="215.8849942521192" stroke="#00F0FF" stroke-width="1.5"/>
  <rect x="762" y="189.36306635150686" width="24" height="23.610458802431822" rx="2" fill="#00F0FF" opacity="0.85"/>
  <line x1="848" y1="293.1423775688745" x2="848" y2="366.54485578881577" stroke="#00F0FF" stroke-width="1.5"/>
  <rect x="836" y="312.9897551727481" width="24" height="27.906293980777264" rx="2" fill="#00F0FF" opacity="0.85"/>
</svg>