<svg xmlns="http://www.w3.org/2000/svg" viewBox="0 0 1200 630" fill="none">
  <rect width="1200" height="630" fill="transparent"/>
  <rect x="30" y="30" width="1140" height="570" rx="20" fill="rgba(128,128,128,0.06)" stroke="rgba(128,128,128,0.15)" stroke-width="1"/>
  <defs>
    <linearGradient id="lineGrad" x1="0%" y1="0%" x2="100%" y2="0%">
      <stop offset="0%" stop-color="#14B8A6"/>
      <stop offset="100%" stop-color="#E11D48"/>
    </linearGradient>
    <linearGradient id="areaGrad" x1="0%" y1="0%" x2="0%" y2="100%">
      <stop offset="0%" stop-color="#14B8A6" stop-opacity="0.3"/>
      <stop offset="100%" stop-color="#14B8A6" stop-opacity="0"/>
    </linearGradient>
    <linearGradient id="barGrad" x1="0%" y1="0%" x2="0%" y2="100%">
      <stop offset="0%" stop-color="#14B8A6"/>
      <stop offset="100%" stop-color="#E11D48"/>
    </linearGradient>
  </defs>
  
  <circle cx="1020" cy="94.5" r="76.8058792501688" fill="#14B8A6" opacity="0.03"/>
  <circle cx="180" cy="504" r="51.70120460214093" fill="#E11D48" opacity="0.04"/>
  <circle cx="856" cy="499" r="10.9" fill="#14B8A6" opacity="0.44"/>
  <circle cx="700" cy="267" r="3.7" fill="#E11D48" opacity="0.53"/>
  <circle cx="626" cy="434" r="10.5" fill="#14B8A6" opacity="0.63"/>
  <circle cx="1022" cy="227" r="4.1" fill="#E11D48" opacity="0.72"/>
  <circle cx="603" cy="113" r="3.7" fill="#E11D48" opacity="0.66"/>
  <circle cx="1022" cy="509" r="7.2" fill="#14B8A6" opacity="0.50"/>
  <circle cx="632" cy="233" r="10.1" fill="#E11D48" opacity="0.75"/>
  <circle cx="466" cy="446" r="7.7" fill="#14B8A6" opacity="0.33"/>
  <circle cx="506" cy="346" r="6.9" fill="#E11D48" opacity="0.31"/>
  <circle cx="229" cy="487" r="5.5" fill="#14B8A6" opacity="0.54"/>
  <circle cx="291" cy="189" r="4.0" fill="#14B8A6" opacity="0.74"/>
  <circle cx="561" cy="365" r="6.4" fill="#14B8A6" opacity="0.39"/>
  <circle cx="878" cy="504" r="6.5" fill="#E11D48" opacity="0.32"/>
  <circle cx="557" cy="439" r="7.4" fill="#14B8A6" opacity="0.41"/>
  <circle cx="316" cy="319" r="5.5" fill="#E11D48" opacity="0.71"/>
  <circle cx="1027" cy="369" r="3.0" fill="#E11D48" opacity="0.31"/>
  <circle cx="994" cy="182" r="3.2" fill="#E11D48" opacity="0.69"/>
  <circle cx="1020" cy="287" r="4.7" fill="#E11D48" opacity="0.79"/>
  <circle cx="306" cy="485" r="8.8" fill="#E11D48" opacity="0.55"/>
  <circle cx="604" cy="185" r="4.9" fill="#E11D48" opacity="0.58"/>
  <circle cx="530" cy="230" r="6.2" fill="#E11D48" opacity="0.74"/>
  <circle cx="841" cy="187" r="7.7" fill="#E11D48" opacity="0.78"/>
  <circle cx="967" cy="266" r="5.5" fill="#E11D48" opacity="0.50"/>
  <circle cx="676" cy="201" r="6.4" fill="#E11D48" opacity="0.74"/>
  <circle cx="923" cy="130" r="5.5" fill="#E11D48" opacity="0.35"/>
  <circle cx="634" cy="455" r="7.6" fill="#E11D48" opacity="0.39"/>
  <circle cx="1019" cy="493" r="7.2" fill="#14B8A6" opacity="0.60"/>
  <circle cx="192" cy="152" r="4.3" fill="#14B8A6" opacity="0.56"/>
  <circle cx="414" cy="424" r="6.4" fill="#14B8A6" opacity="0.30"/>
  <circle cx="338" cy="334" r="4.8" fill="#E11D48" opacity="0.43"/>
  <circle cx="244" cy="222" r="8.9" fill="#E11D48" opacity="0.51"/>
  <circle cx="745" cy="159" r="9.1" fill="#E11D48" opacity="0.80"/>
  <circle cx="476" cy="461" r="5.3" fill="#14B8A6" opacity="0.80"/>
  <circle cx="982" cy="256" r="4.9" fill="#E11D48" opacity="0.35"/>
  <circle cx="975" cy="274" r="4.6" fill="#14B8A6" opacity="0.60"/>
  <circle cx="425" cy="421" r="3.9" fill="#14B8A6" opacity="0.58"/>
  <circle cx="233" cy="309" r="9.7" fill="#14B8A6" opacity="0.65"/>
  <circle cx="911" cy="125" r="6.3" fill="#14B8A6" opacity="0.60"/>
  <circle cx="576" cy="178" r="5.9" fill="#14B8A6" opacity="0.64"/>
  <circle cx="188" cy="123" r="3.7" fill="#E11D48" opacity="0.42"/>
  <line x1="160" y1="450" x2="1040" y2="150" stroke="#14B8A6" stroke-width="2" stroke-dasharray="6 4" opacity="0.5"/>
</svg>