<svg xmlns="http://www.w3.org/2000/svg" viewBox="0 0 1200 630" fill="none">
  <rect width="1200" height="630" fill="transparent"/>
  <rect x="30" y="30" width="1140" height="570" rx="20" fill="rgba(128,128,128,0.06)" stroke="rgba(128,128,128,0.15)" stroke-width="1"/>
  <defs>
    <linearGradient id="lineGrad" x1="0%" y1="0%" x2="100%" y2="0%">
      <stop offset="0%" stop-color="#06B6D4"/>
      <stop offset="100%" stop-color="#F97316"/>
    </linearGradient>
    <linearGradient id="areaGrad" x1="0%" y1="0%" x2="0%" y2="100%">
      <stop offset="0%" stop-color="#06B6D4" stop-opacity="0.3"/>
      <stop offset="100%" stop-color="#06B6D4" stop-opacity="0"/>
    </linearGradient>
    <linearGradient id="barGrad" x1="0%" y1="0%" x2="0%" y2="100%">
      <stop offset="0%" stop-color="#06B6D4"/>
      <stop offset="100%" stop-color="#F97316"/>
    </linearGradient>
  </defs>
  
  <circle cx="1020" cy="94.5" r="90.57253820821643" fill="#06B6D4" opacity="0.03"/>
  <circle cx="180" cy="504" r="42.7028127736412" fill="#F97316" opacity="0.04"/>
  <rect x="160" y="397.00297146104276" width="60" height="122.99702853895724" rx="4" fill="url(#barGrad)" opacity="0.87"/>
  <rect x="250" y="432.63177514076233" width="60" height="87.36822485923767" rx="4" fill="url(#barGrad)" opacity="0.69"/>
  <rect x="340" y="371.6430414561182" width="60" height="148.35695854388177" rx="4" fill="url(#barGrad)" opacity="0.65"/>
  <rect x="430" y="181.79267520084977" width="60" height="338.20732479915023" rx="4" fill="url(#barGrad)" opacity="0.62"/>
  <rect x="520" y="305.58578866533935" width="60" height="214.41421133466065" rx="4" fill="url(#barGrad)" opacity="0.71"/>
  <rect x="610" y="298.97852201014757" width="60" height="221.02147798985243" rx="4" fill="url(#barGrad)" opacity="0.66"/>
  <rect x="700" y="377.25912389345467" width="60" height="142.74087610654533" rx="4" fill="url(#barGrad)" opacity="0.90"/>
  <rect x="790" y="160.16151500865817" width="60" height="359.83848499134183" rx="4" fill="url(#barGrad)" opacity="0.90"/>
</svg>