<svg xmlns="http://www.w3.org/2000/svg" viewBox="0 0 1200 630" fill="none">
  <rect width="1200" height="630" fill="transparent"/>
  <rect x="30" y="30" width="1140" height="570" rx="20" fill="rgba(128,128,128,0.06)" stroke="rgba(128,128,128,0.15)" stroke-width="1"/>
  <defs>
    <linearGradient id="lineGrad" x1="0%" y1="0%" x2="100%" y2="0%">
      <stop offset="0%" stop-color="#06B6D4"/>
      <stop offset="100%" stop-color="#F97316"/>
    </linearGradient>
    <linearGradient id="areaGrad" x1="0%" y1="0%" x2="0%" y2="100%">
      <stop offset="0%" stop-color="#06B6D4" stop-opacity="0.3"/>
      <stop offset="100%" stop-color="#06B6D4" stop-opacity="0"/>
    </linearGradient>
    <linearGradient id="barGrad" x1="0%" y1="0%" x2="0%" y2="100%">
      <stop offset="0%" stop-color="#06B6D4"/>
      <stop offset="100%" stop-color="#F97316"/>
    </linearGradient>
  </defs>
  
  <circle cx="1020" cy="94.5" r="97.3488087207079" fill="#06B6D4" opacity="0.03"/>
  <circle cx="180" cy="504" r="66.45891641499475" fill="#F97316" opacity="0.04"/>
  <circle cx="566" cy="285" r="5.1" fill="#F97316" opacity="0.61"/>
  <circle cx="342" cy="490" r="6.3" fill="#F97316" opacity="0.70"/>
  <circle cx="577" cy="389" r="7.5" fill="#F97316" opacity="0.58"/>
  <circle cx="539" cy="389" r="10.1" fill="#06B6D4" opacity="0.33"/>
  <circle cx="756" cy="272" r="7.5" fill="#06B6D4" opacity="0.79"/>
  <circle cx="538" cy="109" r="5.8" fill="#F97316" opacity="0.60"/>
  <circle cx="650" cy="260" r="8.5" fill="#F97316" opacity="0.75"/>
  <circle cx="286" cy="457" r="10.3" fill="#F97316" opacity="0.60"/>
  <circle cx="667" cy="268" r="9.9" fill="#F97316" opacity="0.41"/>
  <circle cx="469" cy="238" r="8.1" fill="#F97316" opacity="0.44"/>
  <circle cx="291" cy="320" r="10.8" fill="#06B6D4" opacity="0.74"/>
  <circle cx="560" cy="101" r="8.5" fill="#06B6D4" opacity="0.36"/>
  <circle cx="793" cy="240" r="10.6" fill="#06B6D4" opacity="0.62"/>
  <circle cx="783" cy="461" r="3.9" fill="#F97316" opacity="0.40"/>
  <circle cx="755" cy="476" r="4.9" fill="#06B6D4" opacity="0.50"/>
  <circle cx="722" cy="107" r="9.8" fill="#F97316" opacity="0.72"/>
  <circle cx="260" cy="369" r="3.4" fill="#F97316" opacity="0.62"/>
  <circle cx="495" cy="149" r="6.6" fill="#F97316" opacity="0.72"/>
  <circle cx="477" cy="300" r="3.9" fill="#06B6D4" opacity="0.76"/>
  <circle cx="784" cy="141" r="11.0" fill="#F97316" opacity="0.30"/>
  <circle cx="165" cy="398" r="8.6" fill="#06B6D4" opacity="0.36"/>
  <circle cx="646" cy="417" r="3.6" fill="#F97316" opacity="0.49"/>
  <circle cx="795" cy="452" r="3.2" fill="#06B6D4" opacity="0.46"/>
  <circle cx="480" cy="350" r="5.5" fill="#06B6D4" opacity="0.61"/>
  <circle cx="794" cy="263" r="4.0" fill="#F97316" opacity="0.70"/>
  <circle cx="982" cy="469" r="8.9" fill="#06B6D4" opacity="0.62"/>
  <circle cx="308" cy="149" r="5.1" fill="#F97316" opacity="0.43"/>
  <circle cx="738" cy="372" r="7.8" fill="#F97316" opacity="0.51"/>
  <circle cx="544" cy="168" r="8.1" fill="#06B6D4" opacity="0.73"/>
  <circle cx="975" cy="401" r="9.3" fill="#06B6D4" opacity="0.49"/>
  <circle cx="755" cy="417" r="9.0" fill="#F97316" opacity="0.77"/>
  <circle cx="899" cy="352" r="8.3" fill="#06B6D4" opacity="0.62"/>
  <circle cx="192" cy="424" r="7.8" fill="#F97316" opacity="0.47"/>
  <circle cx="826" cy="400" r="4.5" fill="#06B6D4" opacity="0.51"/>
  <circle cx="904" cy="308" r="4.7" fill="#06B6D4" opacity="0.34"/>
  <circle cx="228" cy="219" r="8.1" fill="#F97316" opacity="0.58"/>
  <circle cx="531" cy="280" r="4.5" fill="#F97316" opacity="0.63"/>
  <circle cx="995" cy="234" r="10.9" fill="#06B6D4" opacity="0.35"/>
  <circle cx="883" cy="226" r="5.3" fill="#F97316" opacity="0.56"/>
  <circle cx="1033" cy="344" r="7.6" fill="#06B6D4" opacity="0.77"/>
  <line x1="160" y1="450" x2="1040" y2="150" stroke="#06B6D4" stroke-width="2" stroke-dasharray="6 4" opacity="0.5"/>
</svg>