<svg xmlns="http://www.w3.org/2000/svg" viewBox="0 0 1200 630" fill="none">
  <rect width="1200" height="630" fill="transparent"/>
  <rect x="30" y="30" width="1140" height="570" rx="20" fill="rgba(128,128,128,0.06)" stroke="rgba(128,128,128,0.15)" stroke-width="1"/>
  <defs>
    <linearGradient id="lineGrad" x1="0%" y1="0%" x2="100%" y2="0%">
      <stop offset="0%" stop-color="#8B5CF6"/>
      <stop offset="100%" stop-color="#EC4899"/>
    </linearGradient>
    <linearGradient id="areaGrad" x1="0%" y1="0%" x2="0%" y2="100%">
      <stop offset="0%" stop-color="#8B5CF6" stop-opacity="0.3"/>
      <stop offset="100%" stop-color="#8B5CF6" stop-opacity="0"/>
    </linearGradient>
    <linearGradient id="barGrad" x1="0%" y1="0%" x2="0%" y2="100%">
      <stop offset="0%" stop-color="#8B5CF6"/>
      <stop offset="100%" stop-color="#EC4899"/>
    </linearGradient>
  </defs>
  
  <circle cx="1020" cy="94.5" r="79.37444399110973" fill="#8B5CF6" opacity="0.03"/>
  <circle cx="180" cy="504" r="51.870265626348555" fill="#EC4899" opacity="0.04"/>
  <path d="M140 285 L220 276 L300 283 L380 291 L460 292 L540 320 L620 336 L700 354 L780 342 L860 362 L940 343 L1020 335 L1060 530 L140 530 Z" fill="#8B5CF6" opacity="0.15"/>
  <path d="M140 285 L220 276 L300 283 L380 291 L460 292 L540 320 L620 336 L700 354 L780 342 L860 362 L940 343 L1020 335" stroke="#8B5CF6" stroke-width="2" fill="none" opacity="0.8"/>
  <path d="M140 334 L220 349 L300 343 L380 335 L460 366 L540 365 L620 349 L700 338 L780 343 L860 351 L940 362 L1020 374 L1060 530 L140 530 Z" fill="#EC4899" opacity="0.12"/>
  <path d="M140 334 L220 349 L300 343 L380 335 L460 366 L540 365 L620 349 L700 338 L780 343 L860 351 L940 362 L1020 374" stroke="#EC4899" stroke-width="2" fill="none" opacity="0.8"/>
  <path d="M140 412 L220 440 L300 438 L380 432 L460 444 L540 452 L620 480 L700 486 L780 479 L860 493 L940 500 L1020 500 L1060 530 L140 530 Z" fill="#8B949E" opacity="0.09"/>
  <path d="M140 412 L220 440 L300 438 L380 432 L460 444 L540 452 L620 480 L700 486 L780 479 L860 493 L940 500 L1020 500" stroke="#8B949E" stroke-width="2" fill="none" opacity="0.8"/>
</svg>