<svg xmlns="http://www.w3.org/2000/svg" viewBox="0 0 1200 630" fill="none">
  <rect width="1200" height="630" fill="#0d1117"/>
  <rect x="30" y="30" width="1140" height="570" rx="20" fill="#161b22" stroke="#30363d" stroke-width="1"/>
  <defs>
    <linearGradient id="lineGrad" x1="0%" y1="0%" x2="100%" y2="0%">
      <stop offset="0%" stop-color="#06B6D4"/>
      <stop offset="100%" stop-color="#F97316"/>
    </linearGradient>
    <linearGradient id="areaGrad" x1="0%" y1="0%" x2="0%" y2="100%">
      <stop offset="0%" stop-color="#06B6D4" stop-opacity="0.3"/>
      <stop offset="100%" stop-color="#06B6D4" stop-opacity="0"/>
    </linearGradient>
    <linearGradient id="barGrad" x1="0%" y1="0%" x2="0%" y2="100%">
      <stop offset="0%" stop-color="#06B6D4"/>
      <stop offset="100%" stop-color="#F97316"/>
    </linearGradient>
  </defs>
  
  <circle cx="1020" cy="94.5" r="81.90491551533341" fill="#06B6D4" opacity="0.03"/>
  <circle cx="180" cy="504" r="46.70565944863483" fill="#F97316" opacity="0.04"/>
  <circle cx="559" cy="372" r="8.4" fill="#F97316" opacity="0.49"/>
  <circle cx="610" cy="262" r="10.5" fill="#06B6D4" opacity="0.56"/>
  <circle cx="872" cy="392" r="4.6" fill="#06B6D4" opacity="0.58"/>
  <circle cx="698" cy="169" r="9.0" fill="#06B6D4" opacity="0.44"/>
  <circle cx="218" cy="208" r="5.2" fill="#F97316" opacity="0.39"/>
  <circle cx="744" cy="480" r="9.0" fill="#06B6D4" opacity="0.65"/>
  <circle cx="588" cy="302" r="8.0" fill="#F97316" opacity="0.54"/>
  <circle cx="346" cy="291" r="10.4" fill="#F97316" opacity="0.52"/>
  <circle cx="677" cy="485" r="5.9" fill="#06B6D4" opacity="0.58"/>
  <circle cx="241" cy="364" r="4.1" fill="#06B6D4" opacity="0.60"/>
  <circle cx="957" cy="512" r="4.7" fill="#06B6D4" opacity="0.66"/>
  <circle cx="965" cy="317" r="6.6" fill="#F97316" opacity="0.78"/>
  <circle cx="1031" cy="284" r="8.1" fill="#06B6D4" opacity="0.50"/>
  <circle cx="871" cy="516" r="3.5" fill="#F97316" opacity="0.35"/>
  <circle cx="715" cy="191" r="7.5" fill="#F97316" opacity="0.69"/>
  <circle cx="421" cy="379" r="9.3" fill="#06B6D4" opacity="0.47"/>
  <circle cx="711" cy="334" r="9.6" fill="#06B6D4" opacity="0.57"/>
  <circle cx="254" cy="397" r="6.1" fill="#F97316" opacity="0.74"/>
  <circle cx="372" cy="463" r="3.2" fill="#F97316" opacity="0.72"/>
  <circle cx="593" cy="120" r="10.8" fill="#06B6D4" opacity="0.73"/>
  <circle cx="1003" cy="161" r="5.1" fill="#F97316" opacity="0.52"/>
  <circle cx="761" cy="387" r="8.9" fill="#06B6D4" opacity="0.42"/>
  <circle cx="385" cy="416" r="10.2" fill="#06B6D4" opacity="0.62"/>
  <circle cx="610" cy="108" r="6.5" fill="#06B6D4" opacity="0.34"/>
  <circle cx="996" cy="400" r="3.3" fill="#06B6D4" opacity="0.67"/>
  <circle cx="755" cy="366" r="3.4" fill="#06B6D4" opacity="0.71"/>
  <circle cx="441" cy="305" r="9.2" fill="#06B6D4" opacity="0.59"/>
  <circle cx="551" cy="317" r="3.7" fill="#F97316" opacity="0.50"/>
  <circle cx="735" cy="483" r="6.5" fill="#06B6D4" opacity="0.54"/>
  <circle cx="703" cy="419" r="8.1" fill="#06B6D4" opacity="0.42"/>
  <circle cx="443" cy="318" r="3.7" fill="#06B6D4" opacity="0.65"/>
  <circle cx="271" cy="491" r="7.8" fill="#F97316" opacity="0.44"/>
  <circle cx="833" cy="101" r="6.5" fill="#06B6D4" opacity="0.74"/>
  <circle cx="560" cy="182" r="6.8" fill="#F97316" opacity="0.48"/>
  <circle cx="438" cy="193" r="7.4" fill="#F97316" opacity="0.78"/>
  <circle cx="244" cy="205" r="7.8" fill="#06B6D4" opacity="0.41"/>
  <circle cx="282" cy="294" r="9.0" fill="#06B6D4" opacity="0.44"/>
  <circle cx="292" cy="123" r="10.4" fill="#F97316" opacity="0.60"/>
  <circle cx="510" cy="460" r="4.1" fill="#06B6D4" opacity="0.73"/>
  <circle cx="966" cy="308" r="4.0" fill="#F97316" opacity="0.78"/>
  <line x1="160" y1="450" x2="1040" y2="150" stroke="#06B6D4" stroke-width="2" stroke-dasharray="6 4" opacity="0.5"/>
</svg>