<svg xmlns="http://www.w3.org/2000/svg" viewBox="0 0 1200 630" fill="none">
  <rect width="1200" height="630" fill="transparent"/>
  <rect x="30" y="30" width="1140" height="570" rx="20" fill="rgba(128,128,128,0.06)" stroke="rgba(128,128,128,0.15)" stroke-width="1"/>
  <defs>
    <linearGradient id="lineGrad" x1="0%" y1="0%" x2="100%" y2="0%">
      <stop offset="0%" stop-color="#10B981"/>
      <stop offset="100%" stop-color="#F59E0B"/>
    </linearGradient>
    <linearGradient id="areaGrad" x1="0%" y1="0%" x2="0%" y2="100%">
      <stop offset="0%" stop-color="#10B981" stop-opacity="0.3"/>
      <stop offset="100%" stop-color="#10B981" stop-opacity="0"/>
    </linearGradient>
    <linearGradient id="barGrad" x1="0%" y1="0%" x2="0%" y2="100%">
      <stop offset="0%" stop-color="#10B981"/>
      <stop offset="100%" stop-color="#F59E0B"/>
    </linearGradient>
  </defs>
  
  <circle cx="1020" cy="94.5" r="83.07151984423399" fill="#10B981" opacity="0.03"/>
  <circle cx="180" cy="504" r="48.25858187163249" fill="#F59E0B" opacity="0.04"/>
  <circle cx="374" cy="149" r="7.3" fill="#10B981" opacity="0.50"/>
  <circle cx="829" cy="154" r="10.0" fill="#F59E0B" opacity="0.47"/>
  <circle cx="931" cy="189" r="6.2" fill="#F59E0B" opacity="0.40"/>
  <circle cx="708" cy="315" r="7.4" fill="#10B981" opacity="0.63"/>
  <circle cx="649" cy="230" r="10.8" fill="#F59E0B" opacity="0.35"/>
  <circle cx="909" cy="449" r="10.1" fill="#F59E0B" opacity="0.41"/>
  <circle cx="993" cy="142" r="4.8" fill="#10B981" opacity="0.68"/>
  <circle cx="701" cy="331" r="6.3" fill="#10B981" opacity="0.42"/>
  <circle cx="910" cy="198" r="10.1" fill="#10B981" opacity="0.43"/>
  <circle cx="422" cy="173" r="4.7" fill="#10B981" opacity="0.45"/>
  <circle cx="954" cy="208" r="7.0" fill="#10B981" opacity="0.59"/>
  <circle cx="256" cy="340" r="6.2" fill="#10B981" opacity="0.50"/>
  <circle cx="332" cy="122" r="3.4" fill="#10B981" opacity="0.31"/>
  <circle cx="381" cy="158" r="8.7" fill="#10B981" opacity="0.48"/>
  <circle cx="908" cy="170" r="6.1" fill="#10B981" opacity="0.80"/>
  <circle cx="514" cy="295" r="3.2" fill="#F59E0B" opacity="0.78"/>
  <circle cx="309" cy="331" r="3.7" fill="#F59E0B" opacity="0.67"/>
  <circle cx="436" cy="475" r="6.8" fill="#10B981" opacity="0.57"/>
  <circle cx="799" cy="440" r="8.0" fill="#10B981" opacity="0.62"/>
  <circle cx="935" cy="325" r="10.6" fill="#10B981" opacity="0.48"/>
  <circle cx="351" cy="152" r="6.1" fill="#F59E0B" opacity="0.75"/>
  <circle cx="408" cy="342" r="9.1" fill="#10B981" opacity="0.68"/>
  <circle cx="499" cy="157" r="3.8" fill="#10B981" opacity="0.58"/>
  <circle cx="333" cy="384" r="8.3" fill="#F59E0B" opacity="0.42"/>
  <circle cx="969" cy="292" r="10.3" fill="#F59E0B" opacity="0.46"/>
  <circle cx="854" cy="307" r="9.9" fill="#10B981" opacity="0.58"/>
  <circle cx="850" cy="230" r="3.6" fill="#F59E0B" opacity="0.47"/>
  <circle cx="690" cy="205" r="5.3" fill="#10B981" opacity="0.60"/>
  <circle cx="459" cy="378" r="8.7" fill="#F59E0B" opacity="0.69"/>
  <circle cx="1001" cy="390" r="7.8" fill="#F59E0B" opacity="0.64"/>
  <circle cx="626" cy="184" r="10.6" fill="#10B981" opacity="0.61"/>
  <circle cx="310" cy="476" r="6.8" fill="#F59E0B" opacity="0.76"/>
  <circle cx="900" cy="503" r="4.8" fill="#F59E0B" opacity="0.49"/>
  <circle cx="473" cy="207" r="5.0" fill="#10B981" opacity="0.32"/>
  <circle cx="433" cy="435" r="9.3" fill="#10B981" opacity="0.38"/>
  <circle cx="898" cy="346" r="6.1" fill="#F59E0B" opacity="0.33"/>
  <circle cx="170" cy="217" r="6.6" fill="#F59E0B" opacity="0.62"/>
  <circle cx="929" cy="415" r="6.3" fill="#10B981" opacity="0.72"/>
  <circle cx="1014" cy="327" r="9.8" fill="#F59E0B" opacity="0.39"/>
  <circle cx="590" cy="366" r="4.2" fill="#F59E0B" opacity="0.68"/>
  <line x1="160" y1="450" x2="1040" y2="150" stroke="#10B981" stroke-width="2" stroke-dasharray="6 4" opacity="0.5"/>
</svg>