<svg xmlns="http://www.w3.org/2000/svg" viewBox="0 0 1200 630" fill="none">
  <rect width="1200" height="630" fill="transparent"/>
  <rect x="30" y="30" width="1140" height="570" rx="20" fill="rgba(128,128,128,0.06)" stroke="rgba(128,128,128,0.15)" stroke-width="1"/>
  <defs>
    <linearGradient id="lineGrad" x1="0%" y1="0%" x2="100%" y2="0%">
      <stop offset="0%" stop-color="#8B5CF6"/>
      <stop offset="100%" stop-color="#EC4899"/>
    </linearGradient>
    <linearGradient id="areaGrad" x1="0%" y1="0%" x2="0%" y2="100%">
      <stop offset="0%" stop-color="#8B5CF6" stop-opacity="0.3"/>
      <stop offset="100%" stop-color="#8B5CF6" stop-opacity="0"/>
    </linearGradient>
    <linearGradient id="barGrad" x1="0%" y1="0%" x2="0%" y2="100%">
      <stop offset="0%" stop-color="#8B5CF6"/>
      <stop offset="100%" stop-color="#EC4899"/>
    </linearGradient>
  </defs>
  
  <circle cx="1020" cy="94.5" r="89.78938799351454" fill="#8B5CF6" opacity="0.03"/>
  <circle cx="180" cy="504" r="62.86946777487174" fill="#EC4899" opacity="0.04"/>
  <rect x="160" y="286.3338206522167" width="60" height="233.66617934778333" rx="4" fill="url(#barGrad)" opacity="0.69"/>
  <rect x="250" y="299.4368842896074" width="60" height="220.5631157103926" rx="4" fill="url(#barGrad)" opacity="0.99"/>
  <rect x="340" y="235.25141902267933" width="60" height="284.74858097732067" rx="4" fill="url(#barGrad)" opacity="0.87"/>
  <rect x="430" y="365.9265019092709" width="60" height="154.07349809072912" rx="4" fill="url(#barGrad)" opacity="0.95"/>
  <rect x="520" y="156.90652193501592" width="60" height="363.0934780649841" rx="4" fill="url(#barGrad)" opacity="0.92"/>
  <rect x="610" y="419.2301073204726" width="60" height="100.7698926795274" rx="4" fill="url(#barGrad)" opacity="0.70"/>
  <rect x="700" y="392.38477792590857" width="60" height="127.61522207409143" rx="4" fill="url(#barGrad)" opacity="0.73"/>
  <rect x="790" y="239.51663915999234" width="60" height="280.48336084000766" rx="4" fill="url(#barGrad)" opacity="0.78"/>
</svg>