<svg xmlns="http://www.w3.org/2000/svg" viewBox="0 0 1200 630" fill="none">
  <rect width="1200" height="630" fill="#0d1117"/>
  <rect x="30" y="30" width="1140" height="570" rx="20" fill="#161b22" stroke="#30363d" stroke-width="1"/>
  <defs>
    <linearGradient id="lineGrad" x1="0%" y1="0%" x2="100%" y2="0%">
      <stop offset="0%" stop-color="#00F0FF"/>
      <stop offset="100%" stop-color="#A91079"/>
    </linearGradient>
    <linearGradient id="areaGrad" x1="0%" y1="0%" x2="0%" y2="100%">
      <stop offset="0%" stop-color="#00F0FF" stop-opacity="0.3"/>
      <stop offset="100%" stop-color="#00F0FF" stop-opacity="0"/>
    </linearGradient>
    <linearGradient id="barGrad" x1="0%" y1="0%" x2="0%" y2="100%">
      <stop offset="0%" stop-color="#00F0FF"/>
      <stop offset="100%" stop-color="#A91079"/>
    </linearGradient>
  </defs>
  
  <circle cx="1020" cy="94.5" r="75.50569128245115" fill="#00F0FF" opacity="0.03"/>
  <circle cx="180" cy="504" r="55.1684806891717" fill="#A91079" opacity="0.04"/>
  <circle cx="944" cy="173" r="9.8" fill="#00F0FF" opacity="0.70"/>
  <circle cx="545" cy="223" r="4.2" fill="#00F0FF" opacity="0.39"/>
  <circle cx="708" cy="266" r="3.3" fill="#00F0FF" opacity="0.36"/>
  <circle cx="726" cy="498" r="10.7" fill="#00F0FF" opacity="0.51"/>
  <circle cx="391" cy="338" r="6.8" fill="#00F0FF" opacity="0.44"/>
  <circle cx="456" cy="511" r="7.6" fill="#00F0FF" opacity="0.78"/>
  <circle cx="193" cy="163" r="3.1" fill="#00F0FF" opacity="0.31"/>
  <circle cx="807" cy="465" r="4.3" fill="#A91079" opacity="0.62"/>
  <circle cx="440" cy="375" r="4.5" fill="#A91079" opacity="0.40"/>
  <circle cx="287" cy="238" r="6.7" fill="#A91079" opacity="0.50"/>
  <circle cx="523" cy="323" r="3.5" fill="#00F0FF" opacity="0.59"/>
  <circle cx="172" cy="479" r="5.5" fill="#A91079" opacity="0.71"/>
  <circle cx="632" cy="223" r="8.4" fill="#A91079" opacity="0.60"/>
  <circle cx="307" cy="274" r="8.0" fill="#00F0FF" opacity="0.70"/>
  <circle cx="230" cy="417" r="5.9" fill="#00F0FF" opacity="0.76"/>
  <circle cx="514" cy="376" r="7.4" fill="#00F0FF" opacity="0.72"/>
  <circle cx="679" cy="415" r="3.4" fill="#00F0FF" opacity="0.56"/>
  <circle cx="331" cy="464" r="10.9" fill="#00F0FF" opacity="0.56"/>
  <circle cx="974" cy="500" r="4.6" fill="#00F0FF" opacity="0.33"/>
  <circle cx="428" cy="190" r="10.2" fill="#A91079" opacity="0.38"/>
  <circle cx="301" cy="446" r="10.1" fill="#00F0FF" opacity="0.75"/>
  <circle cx="888" cy="265" r="3.3" fill="#00F0FF" opacity="0.56"/>
  <circle cx="771" cy="306" r="6.3" fill="#00F0FF" opacity="0.70"/>
  <circle cx="265" cy="415" r="10.5" fill="#00F0FF" opacity="0.33"/>
  <circle cx="318" cy="137" r="9.6" fill="#A91079" opacity="0.36"/>
  <circle cx="360" cy="176" r="5.7" fill="#00F0FF" opacity="0.73"/>
  <circle cx="951" cy="332" r="3.7" fill="#00F0FF" opacity="0.73"/>
  <circle cx="534" cy="275" r="5.1" fill="#00F0FF" opacity="0.45"/>
  <circle cx="731" cy="159" r="5.5" fill="#00F0FF" opacity="0.72"/>
  <circle cx="467" cy="186" r="7.2" fill="#A91079" opacity="0.45"/>
  <circle cx="672" cy="301" r="5.9" fill="#00F0FF" opacity="0.45"/>
  <circle cx="633" cy="347" r="6.8" fill="#00F0FF" opacity="0.77"/>
  <circle cx="529" cy="468" r="7.4" fill="#00F0FF" opacity="0.58"/>
  <circle cx="164" cy="403" r="3.0" fill="#A91079" opacity="0.77"/>
  <circle cx="571" cy="323" r="5.7" fill="#A91079" opacity="0.70"/>
  <circle cx="515" cy="484" r="9.0" fill="#00F0FF" opacity="0.65"/>
  <circle cx="679" cy="171" r="10.9" fill="#A91079" opacity="0.75"/>
  <circle cx="441" cy="290" r="4.2" fill="#00F0FF" opacity="0.44"/>
  <circle cx="381" cy="123" r="7.8" fill="#00F0FF" opacity="0.56"/>
  <circle cx="178" cy="421" r="5.9" fill="#00F0FF" opacity="0.42"/>
  <line x1="160" y1="450" x2="1040" y2="150" stroke="#00F0FF" stroke-width="2" stroke-dasharray="6 4" opacity="0.5"/>
</svg>