<svg xmlns="http://www.w3.org/2000/svg" viewBox="0 0 1200 630" fill="none">
  <rect width="1200" height="630" fill="transparent"/>
  <rect x="30" y="30" width="1140" height="570" rx="20" fill="rgba(128,128,128,0.06)" stroke="rgba(128,128,128,0.15)" stroke-width="1"/>
  <defs>
    <linearGradient id="lineGrad" x1="0%" y1="0%" x2="100%" y2="0%">
      <stop offset="0%" stop-color="#8B5CF6"/>
      <stop offset="100%" stop-color="#EC4899"/>
    </linearGradient>
    <linearGradient id="areaGrad" x1="0%" y1="0%" x2="0%" y2="100%">
      <stop offset="0%" stop-color="#8B5CF6" stop-opacity="0.3"/>
      <stop offset="100%" stop-color="#8B5CF6" stop-opacity="0"/>
    </linearGradient>
    <linearGradient id="barGrad" x1="0%" y1="0%" x2="0%" y2="100%">
      <stop offset="0%" stop-color="#8B5CF6"/>
      <stop offset="100%" stop-color="#EC4899"/>
    </linearGradient>
  </defs>
  
  <circle cx="1020" cy="94.5" r="80.60629803687334" fill="#8B5CF6" opacity="0.03"/>
  <circle cx="180" cy="504" r="60.76190913328901" fill="#EC4899" opacity="0.04"/>
  <rect x="160" y="154.9644640274346" width="60" height="365.0355359725654" rx="4" fill="url(#barGrad)" opacity="0.66"/>
  <rect x="250" y="193.0807315837592" width="60" height="326.9192684162408" rx="4" fill="url(#barGrad)" opacity="0.69"/>
  <rect x="340" y="200.69917734712362" width="60" height="319.3008226528764" rx="4" fill="url(#barGrad)" opacity="0.96"/>
  <rect x="430" y="269.2915598023683" width="60" height="250.70844019763172" rx="4" fill="url(#barGrad)" opacity="0.92"/>
  <rect x="520" y="267.6283978484571" width="60" height="252.3716021515429" rx="4" fill="url(#barGrad)" opacity="0.88"/>
  <rect x="610" y="255.87599380873144" width="60" height="264.12400619126856" rx="4" fill="url(#barGrad)" opacity="0.98"/>
  <rect x="700" y="381.07925966382027" width="60" height="138.92074033617973" rx="4" fill="url(#barGrad)" opacity="0.62"/>
  <rect x="790" y="225.28278791345656" width="60" height="294.71721208654344" rx="4" fill="url(#barGrad)" opacity="0.92"/>
</svg>