<svg xmlns="http://www.w3.org/2000/svg" viewBox="0 0 1200 630" fill="none">
  <rect width="1200" height="630" fill="#0d1117"/>
  <rect x="30" y="30" width="1140" height="570" rx="20" fill="#161b22" stroke="#30363d" stroke-width="1"/>
  <defs>
    <linearGradient id="lineGrad" x1="0%" y1="0%" x2="100%" y2="0%">
      <stop offset="0%" stop-color="#00F0FF"/>
      <stop offset="100%" stop-color="#A91079"/>
    </linearGradient>
    <linearGradient id="areaGrad" x1="0%" y1="0%" x2="0%" y2="100%">
      <stop offset="0%" stop-color="#00F0FF" stop-opacity="0.3"/>
      <stop offset="100%" stop-color="#00F0FF" stop-opacity="0"/>
    </linearGradient>
    <linearGradient id="barGrad" x1="0%" y1="0%" x2="0%" y2="100%">
      <stop offset="0%" stop-color="#00F0FF"/>
      <stop offset="100%" stop-color="#A91079"/>
    </linearGradient>
  </defs>
  
  <circle cx="1020" cy="94.5" r="62.13340910151601" fill="#00F0FF" opacity="0.03"/>
  <circle cx="180" cy="504" r="41.670564885716885" fill="#A91079" opacity="0.04"/>
  <circle cx="1002" cy="416" r="10.8" fill="#00F0FF" opacity="0.60"/>
  <circle cx="848" cy="295" r="9.5" fill="#A91079" opacity="0.64"/>
  <circle cx="866" cy="382" r="4.8" fill="#00F0FF" opacity="0.63"/>
  <circle cx="554" cy="164" r="6.6" fill="#A91079" opacity="0.51"/>
  <circle cx="828" cy="269" r="9.7" fill="#A91079" opacity="0.68"/>
  <circle cx="319" cy="414" r="9.4" fill="#00F0FF" opacity="0.55"/>
  <circle cx="264" cy="395" r="4.3" fill="#00F0FF" opacity="0.67"/>
  <circle cx="636" cy="350" r="6.0" fill="#00F0FF" opacity="0.75"/>
  <circle cx="864" cy="407" r="6.4" fill="#A91079" opacity="0.72"/>
  <circle cx="655" cy="378" r="6.9" fill="#A91079" opacity="0.47"/>
  <circle cx="481" cy="507" r="10.0" fill="#A91079" opacity="0.63"/>
  <circle cx="245" cy="241" r="6.5" fill="#00F0FF" opacity="0.73"/>
  <circle cx="978" cy="349" r="10.2" fill="#A91079" opacity="0.49"/>
  <circle cx="512" cy="518" r="6.3" fill="#A91079" opacity="0.32"/>
  <circle cx="956" cy="355" r="6.7" fill="#A91079" opacity="0.30"/>
  <circle cx="980" cy="446" r="4.5" fill="#A91079" opacity="0.74"/>
  <circle cx="982" cy="458" r="7.9" fill="#00F0FF" opacity="0.36"/>
  <circle cx="867" cy="317" r="8.0" fill="#A91079" opacity="0.70"/>
  <circle cx="787" cy="332" r="6.6" fill="#00F0FF" opacity="0.49"/>
  <circle cx="912" cy="384" r="3.9" fill="#00F0FF" opacity="0.46"/>
  <circle cx="494" cy="197" r="5.4" fill="#00F0FF" opacity="0.61"/>
  <circle cx="540" cy="265" r="10.9" fill="#00F0FF" opacity="0.63"/>
  <circle cx="434" cy="216" r="10.6" fill="#A91079" opacity="0.51"/>
  <circle cx="704" cy="232" r="8.3" fill="#00F0FF" opacity="0.52"/>
  <circle cx="197" cy="207" r="8.2" fill="#00F0FF" opacity="0.36"/>
  <circle cx="721" cy="488" r="6.2" fill="#00F0FF" opacity="0.44"/>
  <circle cx="281" cy="378" r="5.7" fill="#00F0FF" opacity="0.57"/>
  <circle cx="415" cy="304" r="7.0" fill="#00F0FF" opacity="0.50"/>
  <circle cx="990" cy="297" r="4.4" fill="#00F0FF" opacity="0.77"/>
  <circle cx="397" cy="327" r="10.6" fill="#A91079" opacity="0.39"/>
  <circle cx="585" cy="466" r="4.1" fill="#A91079" opacity="0.71"/>
  <circle cx="263" cy="396" r="3.2" fill="#A91079" opacity="0.61"/>
  <circle cx="366" cy="264" r="3.4" fill="#A91079" opacity="0.77"/>
  <circle cx="917" cy="184" r="6.4" fill="#A91079" opacity="0.46"/>
  <circle cx="521" cy="203" r="4.1" fill="#00F0FF" opacity="0.67"/>
  <circle cx="346" cy="465" r="8.6" fill="#A91079" opacity="0.78"/>
  <circle cx="579" cy="481" r="5.0" fill="#00F0FF" opacity="0.78"/>
  <circle cx="287" cy="325" r="8.0" fill="#A91079" opacity="0.30"/>
  <circle cx="390" cy="359" r="10.6" fill="#00F0FF" opacity="0.56"/>
  <circle cx="715" cy="339" r="10.7" fill="#00F0FF" opacity="0.54"/>
  <line x1="160" y1="450" x2="1040" y2="150" stroke="#00F0FF" stroke-width="2" stroke-dasharray="6 4" opacity="0.5"/>
</svg>