<svg xmlns="http://www.w3.org/2000/svg" viewBox="0 0 1200 630" fill="none">
  <rect width="1200" height="630" fill="transparent"/>
  <rect x="30" y="30" width="1140" height="570" rx="20" fill="rgba(128,128,128,0.06)" stroke="rgba(128,128,128,0.15)" stroke-width="1"/>
  <defs>
    <linearGradient id="lineGrad" x1="0%" y1="0%" x2="100%" y2="0%">
      <stop offset="0%" stop-color="#06B6D4"/>
      <stop offset="100%" stop-color="#F97316"/>
    </linearGradient>
    <linearGradient id="areaGrad" x1="0%" y1="0%" x2="0%" y2="100%">
      <stop offset="0%" stop-color="#06B6D4" stop-opacity="0.3"/>
      <stop offset="100%" stop-color="#06B6D4" stop-opacity="0"/>
    </linearGradient>
    <linearGradient id="barGrad" x1="0%" y1="0%" x2="0%" y2="100%">
      <stop offset="0%" stop-color="#06B6D4"/>
      <stop offset="100%" stop-color="#F97316"/>
    </linearGradient>
  </defs>
  
  <circle cx="1020" cy="94.5" r="75.53782506845891" fill="#06B6D4" opacity="0.03"/>
  <circle cx="180" cy="504" r="60.78609661664814" fill="#F97316" opacity="0.04"/>
  <line x1="182" y1="372.6205342519097" x2="182" y2="465.07542037172243" stroke="#F97316" stroke-width="1.5"/>
  <rect x="170" y="389.985983481165" width="24" height="41.26839176751673" rx="2" fill="#F97316" opacity="0.85"/>
  <line x1="256" y1="340.0209351605736" x2="256" y2="363.95505904918537" stroke="#F97316" stroke-width="1.5"/>
  <rect x="244" y="353.60092621995136" width="24" height="6.293303100392222" rx="2" fill="#F97316" opacity="0.85"/>
  <line x1="330" y1="164.17342329164967" x2="330" y2="242.04656125744805" stroke="#06B6D4" stroke-width="1.5"/>
  <rect x="318" y="189.45149349747226" width="24" height="23.343002004548907" rx="2" fill="#06B6D4" opacity="0.85"/>
  <line x1="404" y1="198.37333203991875" x2="404" y2="289.7193065076135" stroke="#F97316" stroke-width="1.5"/>
  <rect x="392" y="226.21419279603288" width="24" height="45.31232393346727" rx="2" fill="#F97316" opacity="0.85"/>
  <line x1="478" y1="209.5263863983564" x2="478" y2="293.5383435036056" stroke="#F97316" stroke-width="1.5"/>
  <rect x="466" y="217.80083164339885" width="24" height="45.32328867353499" rx="2" fill="#F97316" opacity="0.85"/>
  <line x1="552" y1="171.49200103012845" x2="552" y2="256.2047834764235" stroke="#06B6D4" stroke-width="1.5"/>
  <rect x="540" y="191.27456959104165" width="24" height="35.553640918806195" rx="2" fill="#06B6D4" opacity="0.85"/>
  <line x1="626" y1="230.55847191018984" x2="626" y2="301.5908624487929" stroke="#F97316" stroke-width="1.5"/>
  <rect x="614" y="259.74942626198754" width="24" height="39.10629120655358" rx="2" fill="#F97316" opacity="0.85"/>
  <line x1="700" y1="203.65789433708414" x2="700" y2="294.8868396296166" stroke="#F97316" stroke-width="1.5"/>
  <rect x="688" y="241.506078268867" width="24" height="35.578991612419486" rx="2" fill="#F97316" opacity="0.85"/>
  <line x1="774" y1="271.022385393735" x2="774" y2="356.7831538594328" stroke="#06B6D4" stroke-width="1.5"/>
  <rect x="762" y="277.6505230809562" width="24" height="48.806090047582984" rx="2" fill="#06B6D4" opacity="0.85"/>
  <line x1="848" y1="279.2895238357596" x2="848" y2="326.3049251283519" stroke="#06B6D4" stroke-width="1.5"/>
  <rect x="836" y="284.94852281874046" width="24" height="6.631537200883031" rx="2" fill="#06B6D4" opacity="0.85"/>
</svg>