<svg xmlns="http://www.w3.org/2000/svg" viewBox="0 0 1200 630" fill="none">
  <rect width="1200" height="630" fill="transparent"/>
  <rect x="30" y="30" width="1140" height="570" rx="20" fill="rgba(128,128,128,0.06)" stroke="rgba(128,128,128,0.15)" stroke-width="1"/>
  <defs>
    <linearGradient id="lineGrad" x1="0%" y1="0%" x2="100%" y2="0%">
      <stop offset="0%" stop-color="#10B981"/>
      <stop offset="100%" stop-color="#F59E0B"/>
    </linearGradient>
    <linearGradient id="areaGrad" x1="0%" y1="0%" x2="0%" y2="100%">
      <stop offset="0%" stop-color="#10B981" stop-opacity="0.3"/>
      <stop offset="100%" stop-color="#10B981" stop-opacity="0"/>
    </linearGradient>
    <linearGradient id="barGrad" x1="0%" y1="0%" x2="0%" y2="100%">
      <stop offset="0%" stop-color="#10B981"/>
      <stop offset="100%" stop-color="#F59E0B"/>
    </linearGradient>
  </defs>
  
  <circle cx="1020" cy="94.5" r="91.31258708424866" fill="#10B981" opacity="0.03"/>
  <circle cx="180" cy="504" r="65.09434593841434" fill="#F59E0B" opacity="0.04"/>
  <line x1="182" y1="271.15908816689625" x2="182" y2="360.68959788652137" stroke="#10B981" stroke-width="1.5"/>
  <rect x="170" y="310.1886387099512" width="24" height="18.4405617415905" rx="2" fill="#10B981" opacity="0.85"/>
  <line x1="256" y1="328.87454916955903" x2="256" y2="355.10570720070973" stroke="#F59E0B" stroke-width="1.5"/>
  <rect x="244" y="340.51986538106576" width="24" height="5.176164675503969" rx="2" fill="#F59E0B" opacity="0.85"/>
  <line x1="330" y1="225.09005589643493" x2="330" y2="296.80165763245896" stroke="#10B981" stroke-width="1.5"/>
  <rect x="318" y="227.64553000451997" width="24" height="49.173648469150066" rx="2" fill="#10B981" opacity="0.85"/>
  <line x1="404" y1="305.9720772993751" x2="404" y2="391.6545230918564" stroke="#10B981" stroke-width="1.5"/>
  <rect x="392" y="315.27994737261906" width="24" height="44.49819037690759" rx="2" fill="#10B981" opacity="0.85"/>
  <line x1="478" y1="188.14084839308634" x2="478" y2="276.9334671390243" stroke="#10B981" stroke-width="1.5"/>
  <rect x="466" y="224.5176204596646" width="24" height="36.44900657236576" rx="2" fill="#10B981" opacity="0.85"/>
  <line x1="552" y1="217.37389746354893" x2="552" y2="314.92287593195215" stroke="#10B981" stroke-width="1.5"/>
  <rect x="540" y="240.8399902866222" width="24" height="46.48384070023894" rx="2" fill="#10B981" opacity="0.85"/>
  <line x1="626" y1="328.6692957044579" x2="626" y2="409.59983124630526" stroke="#10B981" stroke-width="1.5"/>
  <rect x="614" y="357.52097071381286" width="24" height="28.291195072233677" rx="2" fill="#10B981" opacity="0.85"/>
  <line x1="700" y1="259.6933365170844" x2="700" y2="339.9662163318135" stroke="#F59E0B" stroke-width="1.5"/>
  <rect x="688" y="283.0809753970243" width="24" height="17.835890036076307" rx="2" fill="#F59E0B" opacity="0.85"/>
  <line x1="774" y1="321.23378940159455" x2="774" y2="422.03930967720225" stroke="#10B981" stroke-width="1.5"/>
  <rect x="762" y="342.03558183507994" width="24" height="47.01066166162491" rx="2" fill="#10B981" opacity="0.85"/>
  <line x1="848" y1="365.8874669414945" x2="848" y2="443.8971281819977" stroke="#F59E0B" stroke-width="1.5"/>
  <rect x="836" y="405.7925710105337" width="24" height="25.31132074072957" rx="2" fill="#F59E0B" opacity="0.85"/>
</svg>