<svg xmlns="http://www.w3.org/2000/svg" viewBox="0 0 1200 630" fill="none">
  <rect width="1200" height="630" fill="transparent"/>
  <rect x="30" y="30" width="1140" height="570" rx="20" fill="rgba(128,128,128,0.06)" stroke="rgba(128,128,128,0.15)" stroke-width="1"/>
  <defs>
    <linearGradient id="lineGrad" x1="0%" y1="0%" x2="100%" y2="0%">
      <stop offset="0%" stop-color="#8B5CF6"/>
      <stop offset="100%" stop-color="#EC4899"/>
    </linearGradient>
    <linearGradient id="areaGrad" x1="0%" y1="0%" x2="0%" y2="100%">
      <stop offset="0%" stop-color="#8B5CF6" stop-opacity="0.3"/>
      <stop offset="100%" stop-color="#8B5CF6" stop-opacity="0"/>
    </linearGradient>
    <linearGradient id="barGrad" x1="0%" y1="0%" x2="0%" y2="100%">
      <stop offset="0%" stop-color="#8B5CF6"/>
      <stop offset="100%" stop-color="#EC4899"/>
    </linearGradient>
  </defs>
  
  <circle cx="1020" cy="94.5" r="95.89503111317754" fill="#8B5CF6" opacity="0.03"/>
  <circle cx="180" cy="504" r="59.57978556631133" fill="#EC4899" opacity="0.04"/>
  <rect x="160" y="362.86992468871176" width="60" height="157.13007531128824" rx="4" fill="url(#barGrad)" opacity="0.61"/>
  <rect x="250" y="370.78358555212617" width="60" height="149.21641444787383" rx="4" fill="url(#barGrad)" opacity="0.90"/>
  <rect x="340" y="198.8139812927693" width="60" height="321.1860187072307" rx="4" fill="url(#barGrad)" opacity="0.90"/>
  <rect x="430" y="298.5295872762799" width="60" height="221.47041272372007" rx="4" fill="url(#barGrad)" opacity="0.61"/>
  <rect x="520" y="305.42205181904137" width="60" height="214.57794818095863" rx="4" fill="url(#barGrad)" opacity="0.91"/>
  <rect x="610" y="284.0685878507793" width="60" height="235.9314121492207" rx="4" fill="url(#barGrad)" opacity="0.87"/>
  <rect x="700" y="425.22460139356554" width="60" height="94.77539860643446" rx="4" fill="url(#barGrad)" opacity="0.72"/>
  <rect x="790" y="180.06384201347828" width="60" height="339.9361579865217" rx="4" fill="url(#barGrad)" opacity="0.74"/>
</svg>