<svg xmlns="http://www.w3.org/2000/svg" viewBox="0 0 1200 630" fill="none">
  <rect width="1200" height="630" fill="transparent"/>
  <rect x="30" y="30" width="1140" height="570" rx="20" fill="rgba(128,128,128,0.06)" stroke="rgba(128,128,128,0.15)" stroke-width="1"/>
  <defs>
    <linearGradient id="lineGrad" x1="0%" y1="0%" x2="100%" y2="0%">
      <stop offset="0%" stop-color="#14B8A6"/>
      <stop offset="100%" stop-color="#E11D48"/>
    </linearGradient>
    <linearGradient id="areaGrad" x1="0%" y1="0%" x2="0%" y2="100%">
      <stop offset="0%" stop-color="#14B8A6" stop-opacity="0.3"/>
      <stop offset="100%" stop-color="#14B8A6" stop-opacity="0"/>
    </linearGradient>
    <linearGradient id="barGrad" x1="0%" y1="0%" x2="0%" y2="100%">
      <stop offset="0%" stop-color="#14B8A6"/>
      <stop offset="100%" stop-color="#E11D48"/>
    </linearGradient>
  </defs>
  
  <circle cx="1020" cy="94.5" r="64.26089418120682" fill="#14B8A6" opacity="0.03"/>
  <circle cx="180" cy="504" r="50.74726914986968" fill="#E11D48" opacity="0.04"/>
  <path d="M140 288 L220 272 L300 263 L380 268 L460 283 L540 283 L620 288 L700 296 L780 290 L860 272 L940 269 L1020 243 L1060 530 L140 530 Z" fill="#14B8A6" opacity="0.15"/>
  <path d="M140 288 L220 272 L300 263 L380 268 L460 283 L540 283 L620 288 L700 296 L780 290 L860 272 L940 269 L1020 243" stroke="#14B8A6" stroke-width="2" fill="none" opacity="0.8"/>
  <path d="M140 320 L220 303 L300 333 L380 358 L460 352 L540 351 L620 355 L700 343 L780 365 L860 369 L940 379 L1020 390 L1060 530 L140 530 Z" fill="#E11D48" opacity="0.12"/>
  <path d="M140 320 L220 303 L300 333 L380 358 L460 352 L540 351 L620 355 L700 343 L780 365 L860 369 L940 379 L1020 390" stroke="#E11D48" stroke-width="2" fill="none" opacity="0.8"/>
  <path d="M140 364 L220 353 L300 352 L380 380 L460 373 L540 363 L620 370 L700 355 L780 386 L860 377 L940 371 L1020 389 L1060 530 L140 530 Z" fill="#8B949E" opacity="0.09"/>
  <path d="M140 364 L220 353 L300 352 L380 380 L460 373 L540 363 L620 370 L700 355 L780 386 L860 377 L940 371 L1020 389" stroke="#8B949E" stroke-width="2" fill="none" opacity="0.8"/>
</svg>