<svg xmlns="http://www.w3.org/2000/svg" viewBox="0 0 1200 630" fill="none">
  <rect width="1200" height="630" fill="#0d1117"/>
  <rect x="30" y="30" width="1140" height="570" rx="20" fill="#161b22" stroke="#30363d" stroke-width="1"/>
  <defs>
    <linearGradient id="lineGrad" x1="0%" y1="0%" x2="100%" y2="0%">
      <stop offset="0%" stop-color="#00F0FF"/>
      <stop offset="100%" stop-color="#A91079"/>
    </linearGradient>
    <linearGradient id="areaGrad" x1="0%" y1="0%" x2="0%" y2="100%">
      <stop offset="0%" stop-color="#00F0FF" stop-opacity="0.3"/>
      <stop offset="100%" stop-color="#00F0FF" stop-opacity="0"/>
    </linearGradient>
    <linearGradient id="barGrad" x1="0%" y1="0%" x2="0%" y2="100%">
      <stop offset="0%" stop-color="#00F0FF"/>
      <stop offset="100%" stop-color="#A91079"/>
    </linearGradient>
  </defs>
  
  <circle cx="1020" cy="94.5" r="91.42744580283761" fill="#00F0FF" opacity="0.03"/>
  <circle cx="180" cy="504" r="54.00076539022848" fill="#A91079" opacity="0.04"/>
  <circle cx="384" cy="421" r="8.6" fill="#00F0FF" opacity="0.37"/>
  <circle cx="222" cy="519" r="6.0" fill="#A91079" opacity="0.52"/>
  <circle cx="740" cy="201" r="11.0" fill="#A91079" opacity="0.39"/>
  <circle cx="210" cy="512" r="5.9" fill="#A91079" opacity="0.78"/>
  <circle cx="170" cy="352" r="8.4" fill="#A91079" opacity="0.65"/>
  <circle cx="894" cy="488" r="5.4" fill="#A91079" opacity="0.56"/>
  <circle cx="997" cy="431" r="3.9" fill="#A91079" opacity="0.49"/>
  <circle cx="688" cy="447" r="10.9" fill="#00F0FF" opacity="0.40"/>
  <circle cx="361" cy="277" r="4.2" fill="#A91079" opacity="0.57"/>
  <circle cx="431" cy="111" r="7.6" fill="#00F0FF" opacity="0.37"/>
  <circle cx="313" cy="511" r="5.6" fill="#A91079" opacity="0.38"/>
  <circle cx="604" cy="292" r="4.5" fill="#A91079" opacity="0.30"/>
  <circle cx="672" cy="473" r="7.1" fill="#A91079" opacity="0.77"/>
  <circle cx="527" cy="262" r="6.4" fill="#A91079" opacity="0.38"/>
  <circle cx="408" cy="261" r="7.5" fill="#00F0FF" opacity="0.47"/>
  <circle cx="667" cy="294" r="4.4" fill="#A91079" opacity="0.71"/>
  <circle cx="744" cy="352" r="10.4" fill="#A91079" opacity="0.72"/>
  <circle cx="304" cy="222" r="4.4" fill="#A91079" opacity="0.65"/>
  <circle cx="572" cy="204" r="6.3" fill="#A91079" opacity="0.36"/>
  <circle cx="556" cy="297" r="6.9" fill="#A91079" opacity="0.73"/>
  <circle cx="389" cy="338" r="6.6" fill="#A91079" opacity="0.53"/>
  <circle cx="768" cy="310" r="7.5" fill="#00F0FF" opacity="0.66"/>
  <circle cx="481" cy="358" r="5.8" fill="#00F0FF" opacity="0.39"/>
  <circle cx="783" cy="444" r="9.4" fill="#A91079" opacity="0.59"/>
  <circle cx="594" cy="274" r="4.4" fill="#A91079" opacity="0.34"/>
  <circle cx="793" cy="464" r="7.9" fill="#A91079" opacity="0.62"/>
  <circle cx="333" cy="299" r="3.5" fill="#00F0FF" opacity="0.64"/>
  <circle cx="871" cy="286" r="7.0" fill="#A91079" opacity="0.36"/>
  <circle cx="465" cy="111" r="7.0" fill="#00F0FF" opacity="0.55"/>
  <circle cx="429" cy="415" r="3.4" fill="#00F0FF" opacity="0.64"/>
  <circle cx="644" cy="232" r="5.0" fill="#A91079" opacity="0.71"/>
  <circle cx="531" cy="276" r="9.7" fill="#00F0FF" opacity="0.49"/>
  <circle cx="451" cy="342" r="3.8" fill="#00F0FF" opacity="0.62"/>
  <circle cx="291" cy="460" r="9.0" fill="#A91079" opacity="0.77"/>
  <circle cx="719" cy="367" r="6.9" fill="#A91079" opacity="0.52"/>
  <circle cx="1036" cy="511" r="6.4" fill="#00F0FF" opacity="0.72"/>
  <circle cx="438" cy="166" r="3.2" fill="#A91079" opacity="0.74"/>
  <circle cx="922" cy="259" r="8.3" fill="#00F0FF" opacity="0.36"/>
  <circle cx="324" cy="206" r="10.0" fill="#A91079" opacity="0.56"/>
  <circle cx="703" cy="105" r="6.7" fill="#A91079" opacity="0.52"/>
  <line x1="160" y1="450" x2="1040" y2="150" stroke="#00F0FF" stroke-width="2" stroke-dasharray="6 4" opacity="0.5"/>
</svg>