<svg xmlns="http://www.w3.org/2000/svg" viewBox="0 0 1200 630" fill="none">
  <rect width="1200" height="630" fill="transparent"/>
  <rect x="30" y="30" width="1140" height="570" rx="20" fill="rgba(128,128,128,0.06)" stroke="rgba(128,128,128,0.15)" stroke-width="1"/>
  <defs>
    <linearGradient id="lineGrad" x1="0%" y1="0%" x2="100%" y2="0%">
      <stop offset="0%" stop-color="#8B5CF6"/>
      <stop offset="100%" stop-color="#EC4899"/>
    </linearGradient>
    <linearGradient id="areaGrad" x1="0%" y1="0%" x2="0%" y2="100%">
      <stop offset="0%" stop-color="#8B5CF6" stop-opacity="0.3"/>
      <stop offset="100%" stop-color="#8B5CF6" stop-opacity="0"/>
    </linearGradient>
    <linearGradient id="barGrad" x1="0%" y1="0%" x2="0%" y2="100%">
      <stop offset="0%" stop-color="#8B5CF6"/>
      <stop offset="100%" stop-color="#EC4899"/>
    </linearGradient>
  </defs>
  
  <circle cx="1020" cy="94.5" r="72.97713453881443" fill="#8B5CF6" opacity="0.03"/>
  <circle cx="180" cy="504" r="50.733204246498644" fill="#EC4899" opacity="0.04"/>
  <path d="M140 303 L220 327 L300 311 L380 311 L460 341 L540 344 L620 359 L700 378 L780 384 L860 408 L940 422 L1020 446 L1060 530 L140 530 Z" fill="#8B5CF6" opacity="0.15"/>
  <path d="M140 303 L220 327 L300 311 L380 311 L460 341 L540 344 L620 359 L700 378 L780 384 L860 408 L940 422 L1020 446" stroke="#8B5CF6" stroke-width="2" fill="none" opacity="0.8"/>
  <path d="M140 308 L220 301 L300 277 L380 307 L460 282 L540 270 L620 262 L700 289 L780 272 L860 268 L940 271 L1020 281 L1060 530 L140 530 Z" fill="#EC4899" opacity="0.12"/>
  <path d="M140 308 L220 301 L300 277 L380 307 L460 282 L540 270 L620 262 L700 289 L780 272 L860 268 L940 271 L1020 281" stroke="#EC4899" stroke-width="2" fill="none" opacity="0.8"/>
  <path d="M140 381 L220 399 L300 421 L380 453 L460 483 L540 500 L620 491 L700 500 L780 500 L860 485 L940 492 L1020 492 L1060 530 L140 530 Z" fill="#8B949E" opacity="0.09"/>
  <path d="M140 381 L220 399 L300 421 L380 453 L460 483 L540 500 L620 491 L700 500 L780 500 L860 485 L940 492 L1020 492" stroke="#8B949E" stroke-width="2" fill="none" opacity="0.8"/>
</svg>