<svg xmlns="http://www.w3.org/2000/svg" viewBox="0 0 1200 630" fill="none">
  <rect width="1200" height="630" fill="transparent"/>
  <rect x="30" y="30" width="1140" height="570" rx="20" fill="rgba(128,128,128,0.06)" stroke="rgba(128,128,128,0.15)" stroke-width="1"/>
  <defs>
    <linearGradient id="lineGrad" x1="0%" y1="0%" x2="100%" y2="0%">
      <stop offset="0%" stop-color="#00F0FF"/>
      <stop offset="100%" stop-color="#A91079"/>
    </linearGradient>
    <linearGradient id="areaGrad" x1="0%" y1="0%" x2="0%" y2="100%">
      <stop offset="0%" stop-color="#00F0FF" stop-opacity="0.3"/>
      <stop offset="100%" stop-color="#00F0FF" stop-opacity="0"/>
    </linearGradient>
    <linearGradient id="barGrad" x1="0%" y1="0%" x2="0%" y2="100%">
      <stop offset="0%" stop-color="#00F0FF"/>
      <stop offset="100%" stop-color="#A91079"/>
    </linearGradient>
  </defs>
  
  <circle cx="1020" cy="94.5" r="86.9871773198247" fill="#00F0FF" opacity="0.03"/>
  <circle cx="180" cy="504" r="40.57825008640066" fill="#A91079" opacity="0.04"/>
  <circle cx="909" cy="405" r="7.6" fill="#00F0FF" opacity="0.58"/>
  <circle cx="236" cy="373" r="6.4" fill="#00F0FF" opacity="0.52"/>
  <circle cx="941" cy="115" r="3.2" fill="#00F0FF" opacity="0.47"/>
  <circle cx="705" cy="319" r="5.4" fill="#A91079" opacity="0.57"/>
  <circle cx="582" cy="339" r="7.2" fill="#A91079" opacity="0.70"/>
  <circle cx="296" cy="406" r="9.7" fill="#A91079" opacity="0.75"/>
  <circle cx="497" cy="366" r="10.5" fill="#A91079" opacity="0.63"/>
  <circle cx="452" cy="485" r="6.5" fill="#00F0FF" opacity="0.54"/>
  <circle cx="350" cy="316" r="10.5" fill="#A91079" opacity="0.40"/>
  <circle cx="983" cy="190" r="10.1" fill="#A91079" opacity="0.55"/>
  <circle cx="878" cy="191" r="9.7" fill="#A91079" opacity="0.60"/>
  <circle cx="190" cy="143" r="3.5" fill="#00F0FF" opacity="0.52"/>
  <circle cx="396" cy="382" r="4.4" fill="#A91079" opacity="0.41"/>
  <circle cx="574" cy="197" r="5.9" fill="#00F0FF" opacity="0.60"/>
  <circle cx="299" cy="502" r="5.8" fill="#A91079" opacity="0.59"/>
  <circle cx="1002" cy="210" r="5.1" fill="#00F0FF" opacity="0.60"/>
  <circle cx="344" cy="259" r="6.4" fill="#00F0FF" opacity="0.52"/>
  <circle cx="788" cy="507" r="10.3" fill="#00F0FF" opacity="0.46"/>
  <circle cx="174" cy="209" r="7.4" fill="#A91079" opacity="0.65"/>
  <circle cx="219" cy="432" r="4.8" fill="#00F0FF" opacity="0.71"/>
  <circle cx="555" cy="507" r="6.7" fill="#00F0FF" opacity="0.55"/>
  <circle cx="865" cy="277" r="5.2" fill="#A91079" opacity="0.73"/>
  <circle cx="436" cy="461" r="10.4" fill="#00F0FF" opacity="0.51"/>
  <circle cx="957" cy="182" r="8.9" fill="#00F0FF" opacity="0.42"/>
  <circle cx="309" cy="138" r="10.2" fill="#00F0FF" opacity="0.47"/>
  <circle cx="721" cy="420" r="9.0" fill="#A91079" opacity="0.30"/>
  <circle cx="906" cy="469" r="10.3" fill="#00F0FF" opacity="0.69"/>
  <circle cx="396" cy="230" r="9.4" fill="#A91079" opacity="0.77"/>
  <circle cx="495" cy="481" r="8.1" fill="#00F0FF" opacity="0.61"/>
  <circle cx="504" cy="499" r="8.7" fill="#00F0FF" opacity="0.73"/>
  <circle cx="584" cy="421" r="8.2" fill="#00F0FF" opacity="0.66"/>
  <circle cx="949" cy="264" r="8.2" fill="#00F0FF" opacity="0.79"/>
  <circle cx="1003" cy="421" r="8.7" fill="#00F0FF" opacity="0.50"/>
  <circle cx="783" cy="213" r="3.7" fill="#A91079" opacity="0.75"/>
  <circle cx="168" cy="237" r="6.3" fill="#00F0FF" opacity="0.44"/>
  <circle cx="757" cy="123" r="10.7" fill="#00F0FF" opacity="0.59"/>
  <circle cx="889" cy="164" r="6.8" fill="#00F0FF" opacity="0.66"/>
  <circle cx="809" cy="457" r="10.8" fill="#00F0FF" opacity="0.48"/>
  <circle cx="990" cy="230" r="7.8" fill="#00F0FF" opacity="0.64"/>
  <circle cx="173" cy="159" r="8.5" fill="#A91079" opacity="0.47"/>
  <line x1="160" y1="450" x2="1040" y2="150" stroke="#00F0FF" stroke-width="2" stroke-dasharray="6 4" opacity="0.5"/>
</svg>