<svg xmlns="http://www.w3.org/2000/svg" viewBox="0 0 1200 630" fill="none">
  <rect width="1200" height="630" fill="transparent"/>
  <rect x="30" y="30" width="1140" height="570" rx="20" fill="rgba(128,128,128,0.06)" stroke="rgba(128,128,128,0.15)" stroke-width="1"/>
  <defs>
    <linearGradient id="lineGrad" x1="0%" y1="0%" x2="100%" y2="0%">
      <stop offset="0%" stop-color="#06B6D4"/>
      <stop offset="100%" stop-color="#F97316"/>
    </linearGradient>
    <linearGradient id="areaGrad" x1="0%" y1="0%" x2="0%" y2="100%">
      <stop offset="0%" stop-color="#06B6D4" stop-opacity="0.3"/>
      <stop offset="100%" stop-color="#06B6D4" stop-opacity="0"/>
    </linearGradient>
    <linearGradient id="barGrad" x1="0%" y1="0%" x2="0%" y2="100%">
      <stop offset="0%" stop-color="#06B6D4"/>
      <stop offset="100%" stop-color="#F97316"/>
    </linearGradient>
  </defs>
  
  <circle cx="1020" cy="94.5" r="99.90170107223094" fill="#06B6D4" opacity="0.03"/>
  <circle cx="180" cy="504" r="61.314980583265424" fill="#F97316" opacity="0.04"/>
  <path d="M140 265 L220 276 L300 307 L380 294 L460 283 L540 276 L620 288 L700 283 L780 265 L860 248 L940 259 L1020 249 L1060 530 L140 530 Z" fill="#06B6D4" opacity="0.15"/>
  <path d="M140 265 L220 276 L300 307 L380 294 L460 283 L540 276 L620 288 L700 283 L780 265 L860 248 L940 259 L1020 249" stroke="#06B6D4" stroke-width="2" fill="none" opacity="0.8"/>
  <path d="M140 334 L220 363 L300 391 L380 400 L460 418 L540 414 L620 401 L700 380 L780 371 L860 379 L940 365 L1020 369 L1060 530 L140 530 Z" fill="#F97316" opacity="0.12"/>
  <path d="M140 334 L220 363 L300 391 L380 400 L460 418 L540 414 L620 401 L700 380 L780 371 L860 379 L940 365 L1020 369" stroke="#F97316" stroke-width="2" fill="none" opacity="0.8"/>
  <path d="M140 430 L220 417 L300 423 L380 455 L460 481 L540 488 L620 474 L700 470 L780 473 L860 459 L940 473 L1020 480 L1060 530 L140 530 Z" fill="#8B949E" opacity="0.09"/>
  <path d="M140 430 L220 417 L300 423 L380 455 L460 481 L540 488 L620 474 L700 470 L780 473 L860 459 L940 473 L1020 480" stroke="#8B949E" stroke-width="2" fill="none" opacity="0.8"/>
</svg>