<svg xmlns="http://www.w3.org/2000/svg" viewBox="0 0 1200 630" fill="none">
  <rect width="1200" height="630" fill="transparent"/>
  <rect x="30" y="30" width="1140" height="570" rx="20" fill="rgba(128,128,128,0.06)" stroke="rgba(128,128,128,0.15)" stroke-width="1"/>
  <defs>
    <linearGradient id="lineGrad" x1="0%" y1="0%" x2="100%" y2="0%">
      <stop offset="0%" stop-color="#8B5CF6"/>
      <stop offset="100%" stop-color="#EC4899"/>
    </linearGradient>
    <linearGradient id="areaGrad" x1="0%" y1="0%" x2="0%" y2="100%">
      <stop offset="0%" stop-color="#8B5CF6" stop-opacity="0.3"/>
      <stop offset="100%" stop-color="#8B5CF6" stop-opacity="0"/>
    </linearGradient>
    <linearGradient id="barGrad" x1="0%" y1="0%" x2="0%" y2="100%">
      <stop offset="0%" stop-color="#8B5CF6"/>
      <stop offset="100%" stop-color="#EC4899"/>
    </linearGradient>
  </defs>
  
  <circle cx="1020" cy="94.5" r="86.34403003379703" fill="#8B5CF6" opacity="0.03"/>
  <circle cx="180" cy="504" r="59.526043680962175" fill="#EC4899" opacity="0.04"/>
  <rect x="160" y="213.50963517092168" width="60" height="306.4903648290783" rx="4" fill="url(#barGrad)" opacity="0.66"/>
  <rect x="250" y="244.62351217865944" width="60" height="275.37648782134056" rx="4" fill="url(#barGrad)" opacity="0.76"/>
  <rect x="340" y="231.9341924134642" width="60" height="288.0658075865358" rx="4" fill="url(#barGrad)" opacity="0.61"/>
  <rect x="430" y="174.3564094044268" width="60" height="345.6435905955732" rx="4" fill="url(#barGrad)" opacity="0.82"/>
  <rect x="520" y="432.97170671634376" width="60" height="87.02829328365624" rx="4" fill="url(#barGrad)" opacity="0.65"/>
  <rect x="610" y="215.2624848857522" width="60" height="304.7375151142478" rx="4" fill="url(#barGrad)" opacity="0.84"/>
  <rect x="700" y="390.93937111087143" width="60" height="129.06062888912857" rx="4" fill="url(#barGrad)" opacity="0.62"/>
  <rect x="790" y="332.97763435170054" width="60" height="187.02236564829946" rx="4" fill="url(#barGrad)" opacity="0.97"/>
</svg>