<svg xmlns="http://www.w3.org/2000/svg" viewBox="0 0 1200 630" fill="none">
  <rect width="1200" height="630" fill="transparent"/>
  <rect x="30" y="30" width="1140" height="570" rx="20" fill="rgba(128,128,128,0.06)" stroke="rgba(128,128,128,0.15)" stroke-width="1"/>
  <defs>
    <linearGradient id="lineGrad" x1="0%" y1="0%" x2="100%" y2="0%">
      <stop offset="0%" stop-color="#10B981"/>
      <stop offset="100%" stop-color="#F59E0B"/>
    </linearGradient>
    <linearGradient id="areaGrad" x1="0%" y1="0%" x2="0%" y2="100%">
      <stop offset="0%" stop-color="#10B981" stop-opacity="0.3"/>
      <stop offset="100%" stop-color="#10B981" stop-opacity="0"/>
    </linearGradient>
    <linearGradient id="barGrad" x1="0%" y1="0%" x2="0%" y2="100%">
      <stop offset="0%" stop-color="#10B981"/>
      <stop offset="100%" stop-color="#F59E0B"/>
    </linearGradient>
  </defs>
  
  <circle cx="1020" cy="94.5" r="88.45392067916691" fill="#10B981" opacity="0.03"/>
  <circle cx="180" cy="504" r="63.8209069147706" fill="#F59E0B" opacity="0.04"/>
  <path d="M140 262 L220 272 L300 275 L380 287 L460 292 L540 290 L620 274 L700 281 L780 291 L860 310 L940 335 L1020 337 L1060 530 L140 530 Z" fill="#10B981" opacity="0.15"/>
  <path d="M140 262 L220 272 L300 275 L380 287 L460 292 L540 290 L620 274 L700 281 L780 291 L860 310 L940 335 L1020 337" stroke="#10B981" stroke-width="2" fill="none" opacity="0.8"/>
  <path d="M140 353 L220 380 L300 400 L380 416 L460 426 L540 452 L620 451 L700 439 L780 470 L860 454 L940 437 L1020 424 L1060 530 L140 530 Z" fill="#F59E0B" opacity="0.12"/>
  <path d="M140 353 L220 380 L300 400 L380 416 L460 426 L540 452 L620 451 L700 439 L780 470 L860 454 L940 437 L1020 424" stroke="#F59E0B" stroke-width="2" fill="none" opacity="0.8"/>
  <path d="M140 425 L220 421 L300 444 L380 431 L460 410 L540 396 L620 385 L700 412 L780 439 L860 412 L940 403 L1020 393 L1060 530 L140 530 Z" fill="#8B949E" opacity="0.09"/>
  <path d="M140 425 L220 421 L300 444 L380 431 L460 410 L540 396 L620 385 L700 412 L780 439 L860 412 L940 403 L1020 393" stroke="#8B949E" stroke-width="2" fill="none" opacity="0.8"/>
</svg>