<svg xmlns="http://www.w3.org/2000/svg" viewBox="0 0 1200 630" fill="none">
  <rect width="1200" height="630" fill="transparent"/>
  <rect x="30" y="30" width="1140" height="570" rx="20" fill="rgba(128,128,128,0.06)" stroke="rgba(128,128,128,0.15)" stroke-width="1"/>
  <defs>
    <linearGradient id="lineGrad" x1="0%" y1="0%" x2="100%" y2="0%">
      <stop offset="0%" stop-color="#10B981"/>
      <stop offset="100%" stop-color="#F59E0B"/>
    </linearGradient>
    <linearGradient id="areaGrad" x1="0%" y1="0%" x2="0%" y2="100%">
      <stop offset="0%" stop-color="#10B981" stop-opacity="0.3"/>
      <stop offset="100%" stop-color="#10B981" stop-opacity="0"/>
    </linearGradient>
    <linearGradient id="barGrad" x1="0%" y1="0%" x2="0%" y2="100%">
      <stop offset="0%" stop-color="#10B981"/>
      <stop offset="100%" stop-color="#F59E0B"/>
    </linearGradient>
  </defs>
  
  <circle cx="1020" cy="94.5" r="82.6071642152965" fill="#10B981" opacity="0.03"/>
  <circle cx="180" cy="504" r="69.59363899892196" fill="#F59E0B" opacity="0.04"/>
  <rect x="160" y="193.08055668137968" width="60" height="326.9194433186203" rx="4" fill="url(#barGrad)" opacity="0.68"/>
  <rect x="250" y="164.0307867527008" width="60" height="355.9692132472992" rx="4" fill="url(#barGrad)" opacity="0.77"/>
  <rect x="340" y="362.59748824872077" width="60" height="157.40251175127923" rx="4" fill="url(#barGrad)" opacity="0.85"/>
  <rect x="430" y="187.22504252567887" width="60" height="332.7749574743211" rx="4" fill="url(#barGrad)" opacity="0.61"/>
  <rect x="520" y="241.77110093645751" width="60" height="278.2288990635425" rx="4" fill="url(#barGrad)" opacity="0.91"/>
  <rect x="610" y="425.7709052041173" width="60" height="94.2290947958827" rx="4" fill="url(#barGrad)" opacity="0.67"/>
  <rect x="700" y="294.38086804933846" width="60" height="225.61913195066154" rx="4" fill="url(#barGrad)" opacity="0.94"/>
  <rect x="790" y="180.05463672801852" width="60" height="339.9453632719815" rx="4" fill="url(#barGrad)" opacity="0.77"/>
</svg>