<svg xmlns="http://www.w3.org/2000/svg" viewBox="0 0 1200 630" fill="none">
  <rect width="1200" height="630" fill="#0d1117"/>
  <rect x="30" y="30" width="1140" height="570" rx="20" fill="#161b22" stroke="#30363d" stroke-width="1"/>
  <defs>
    <linearGradient id="lineGrad" x1="0%" y1="0%" x2="100%" y2="0%">
      <stop offset="0%" stop-color="#00F0FF"/>
      <stop offset="100%" stop-color="#A91079"/>
    </linearGradient>
    <linearGradient id="areaGrad" x1="0%" y1="0%" x2="0%" y2="100%">
      <stop offset="0%" stop-color="#00F0FF" stop-opacity="0.3"/>
      <stop offset="100%" stop-color="#00F0FF" stop-opacity="0"/>
    </linearGradient>
    <linearGradient id="barGrad" x1="0%" y1="0%" x2="0%" y2="100%">
      <stop offset="0%" stop-color="#00F0FF"/>
      <stop offset="100%" stop-color="#A91079"/>
    </linearGradient>
  </defs>
  
  <circle cx="1020" cy="94.5" r="73.75004020519555" fill="#00F0FF" opacity="0.03"/>
  <circle cx="180" cy="504" r="51.33645402267575" fill="#A91079" opacity="0.04"/>
  <line x1="182" y1="349.179842362646" x2="182" y2="425.8626571041532" stroke="#00F0FF" stroke-width="1.5"/>
  <rect x="170" y="385.55727574275807" width="24" height="3.5656314343214035" rx="2" fill="#00F0FF" opacity="0.85"/>
  <line x1="256" y1="208.7724939105101" x2="256" y2="245.61970550799742" stroke="#A91079" stroke-width="1.5"/>
  <rect x="244" y="210.56300807977095" width="24" height="30.016389582306147" rx="2" fill="#A91079" opacity="0.85"/>
  <line x1="330" y1="192.160198262427" x2="330" y2="266.6800922830589" stroke="#00F0FF" stroke-width="1.5"/>
  <rect x="318" y="228.5922903683968" width="24" height="20.532393641769886" rx="2" fill="#00F0FF" opacity="0.85"/>
  <line x1="404" y1="329.6488308464177" x2="404" y2="429.2183745116927" stroke="#A91079" stroke-width="1.5"/>
  <rect x="392" y="358.73846790054813" width="24" height="32.91966123506427" rx="2" fill="#A91079" opacity="0.85"/>
  <line x1="478" y1="260.16892537707463" x2="478" y2="345.44866607757285" stroke="#00F0FF" stroke-width="1.5"/>
  <rect x="466" y="260.55807574884966" width="24" height="44.92529258131981" rx="2" fill="#00F0FF" opacity="0.85"/>
  <line x1="552" y1="220.78108449699357" x2="552" y2="254.7896371805109" stroke="#A91079" stroke-width="1.5"/>
  <rect x="540" y="241.72322206432" width="24" height="12.089442182332277" rx="2" fill="#A91079" opacity="0.85"/>
  <line x1="626" y1="231.18991876253858" x2="626" y2="265.93504800694063" stroke="#A91079" stroke-width="1.5"/>
  <rect x="614" y="233.22156221838668" width="24" height="21.947421319782734" rx="2" fill="#A91079" opacity="0.85"/>
  <line x1="700" y1="346.81105708004907" x2="700" y2="417.9102734499611" stroke="#00F0FF" stroke-width="1.5"/>
  <rect x="688" y="381.2734068953432" width="24" height="24.36784515157342" rx="2" fill="#00F0FF" opacity="0.85"/>
  <line x1="774" y1="337.548882777337" x2="774" y2="378.58216469408944" stroke="#00F0FF" stroke-width="1.5"/>
  <rect x="762" y="338.7486183200963" width="24" height="3" rx="2" fill="#00F0FF" opacity="0.85"/>
  <line x1="848" y1="317.9703864757903" x2="848" y2="440.56185649940744" stroke="#00F0FF" stroke-width="1.5"/>
  <rect x="836" y="357.3936857865192" width="24" height="46.440260764211416" rx="2" fill="#00F0FF" opacity="0.85"/>
</svg>