<svg xmlns="http://www.w3.org/2000/svg" viewBox="0 0 1200 630" fill="none">
  <rect width="1200" height="630" fill="transparent"/>
  <rect x="30" y="30" width="1140" height="570" rx="20" fill="rgba(128,128,128,0.06)" stroke="rgba(128,128,128,0.15)" stroke-width="1"/>
  <defs>
    <linearGradient id="lineGrad" x1="0%" y1="0%" x2="100%" y2="0%">
      <stop offset="0%" stop-color="#00F0FF"/>
      <stop offset="100%" stop-color="#A91079"/>
    </linearGradient>
    <linearGradient id="areaGrad" x1="0%" y1="0%" x2="0%" y2="100%">
      <stop offset="0%" stop-color="#00F0FF" stop-opacity="0.3"/>
      <stop offset="100%" stop-color="#00F0FF" stop-opacity="0"/>
    </linearGradient>
    <linearGradient id="barGrad" x1="0%" y1="0%" x2="0%" y2="100%">
      <stop offset="0%" stop-color="#00F0FF"/>
      <stop offset="100%" stop-color="#A91079"/>
    </linearGradient>
  </defs>
  
  <circle cx="1020" cy="94.5" r="67.40166356787086" fill="#00F0FF" opacity="0.03"/>
  <circle cx="180" cy="504" r="57.6197718619369" fill="#A91079" opacity="0.04"/>
  <rect x="160" y="156.25352683477104" width="60" height="363.74647316522896" rx="4" fill="url(#barGrad)" opacity="0.96"/>
  <rect x="250" y="410.6612640991807" width="60" height="109.3387359008193" rx="4" fill="url(#barGrad)" opacity="0.91"/>
  <rect x="340" y="166.47484284825623" width="60" height="353.52515715174377" rx="4" fill="url(#barGrad)" opacity="0.91"/>
  <rect x="430" y="174.74646685644984" width="60" height="345.25353314355016" rx="4" fill="url(#barGrad)" opacity="0.74"/>
  <rect x="520" y="199.48936990462244" width="60" height="320.51063009537756" rx="4" fill="url(#barGrad)" opacity="0.77"/>
  <rect x="610" y="140.80956779420376" width="60" height="379.19043220579624" rx="4" fill="url(#barGrad)" opacity="0.77"/>
  <rect x="700" y="343.1953862402588" width="60" height="176.8046137597412" rx="4" fill="url(#barGrad)" opacity="0.83"/>
  <rect x="790" y="231.4086122997105" width="60" height="288.5913877002895" rx="4" fill="url(#barGrad)" opacity="0.67"/>
</svg>