<svg xmlns="http://www.w3.org/2000/svg" viewBox="0 0 1200 630" fill="none">
  <rect width="1200" height="630" fill="transparent"/>
  <rect x="30" y="30" width="1140" height="570" rx="20" fill="rgba(128,128,128,0.06)" stroke="rgba(128,128,128,0.15)" stroke-width="1"/>
  <defs>
    <linearGradient id="lineGrad" x1="0%" y1="0%" x2="100%" y2="0%">
      <stop offset="0%" stop-color="#14B8A6"/>
      <stop offset="100%" stop-color="#E11D48"/>
    </linearGradient>
    <linearGradient id="areaGrad" x1="0%" y1="0%" x2="0%" y2="100%">
      <stop offset="0%" stop-color="#14B8A6" stop-opacity="0.3"/>
      <stop offset="100%" stop-color="#14B8A6" stop-opacity="0"/>
    </linearGradient>
    <linearGradient id="barGrad" x1="0%" y1="0%" x2="0%" y2="100%">
      <stop offset="0%" stop-color="#14B8A6"/>
      <stop offset="100%" stop-color="#E11D48"/>
    </linearGradient>
  </defs>
  
  <circle cx="1020" cy="94.5" r="84.66836933977902" fill="#14B8A6" opacity="0.03"/>
  <circle cx="180" cy="504" r="45.188510939478874" fill="#E11D48" opacity="0.04"/>
  <path d="M140 234 L220 208 L300 183 L380 213 L460 237 L540 222 L620 229 L700 203 L780 201 L860 213 L940 206 L1020 179 L1060 530 L140 530 Z" fill="#14B8A6" opacity="0.15"/>
  <path d="M140 234 L220 208 L300 183 L380 213 L460 237 L540 222 L620 229 L700 203 L780 201 L860 213 L940 206 L1020 179" stroke="#14B8A6" stroke-width="2" fill="none" opacity="0.8"/>
  <path d="M140 349 L220 336 L300 332 L380 364 L460 386 L540 391 L620 390 L700 398 L780 379 L860 385 L940 377 L1020 398 L1060 530 L140 530 Z" fill="#E11D48" opacity="0.12"/>
  <path d="M140 349 L220 336 L300 332 L380 364 L460 386 L540 391 L620 390 L700 398 L780 379 L860 385 L940 377 L1020 398" stroke="#E11D48" stroke-width="2" fill="none" opacity="0.8"/>
  <path d="M140 370 L220 386 L300 393 L380 402 L460 388 L540 394 L620 403 L700 420 L780 446 L860 472 L940 484 L1020 500 L1060 530 L140 530 Z" fill="#8B949E" opacity="0.09"/>
  <path d="M140 370 L220 386 L300 393 L380 402 L460 388 L540 394 L620 403 L700 420 L780 446 L860 472 L940 484 L1020 500" stroke="#8B949E" stroke-width="2" fill="none" opacity="0.8"/>
</svg>