<svg xmlns="http://www.w3.org/2000/svg" viewBox="0 0 1200 630" fill="none">
  <rect width="1200" height="630" fill="transparent"/>
  <rect x="30" y="30" width="1140" height="570" rx="20" fill="rgba(128,128,128,0.06)" stroke="rgba(128,128,128,0.15)" stroke-width="1"/>
  <defs>
    <linearGradient id="lineGrad" x1="0%" y1="0%" x2="100%" y2="0%">
      <stop offset="0%" stop-color="#14B8A6"/>
      <stop offset="100%" stop-color="#E11D48"/>
    </linearGradient>
    <linearGradient id="areaGrad" x1="0%" y1="0%" x2="0%" y2="100%">
      <stop offset="0%" stop-color="#14B8A6" stop-opacity="0.3"/>
      <stop offset="100%" stop-color="#14B8A6" stop-opacity="0"/>
    </linearGradient>
    <linearGradient id="barGrad" x1="0%" y1="0%" x2="0%" y2="100%">
      <stop offset="0%" stop-color="#14B8A6"/>
      <stop offset="100%" stop-color="#E11D48"/>
    </linearGradient>
  </defs>
  
  <circle cx="1020" cy="94.5" r="66.03723309934139" fill="#14B8A6" opacity="0.03"/>
  <circle cx="180" cy="504" r="51.15055010886863" fill="#E11D48" opacity="0.04"/>
  <rect x="160" y="242.0200589671731" width="60" height="277.9799410328269" rx="4" fill="url(#barGrad)" opacity="0.78"/>
  <rect x="250" y="232.35415649600327" width="60" height="287.64584350399673" rx="4" fill="url(#barGrad)" opacity="0.96"/>
  <rect x="340" y="158.10175506398082" width="60" height="361.8982449360192" rx="4" fill="url(#barGrad)" opacity="0.66"/>
  <rect x="430" y="336.6871907468885" width="60" height="183.31280925311148" rx="4" fill="url(#barGrad)" opacity="0.90"/>
  <rect x="520" y="432.974017187953" width="60" height="87.025982812047" rx="4" fill="url(#barGrad)" opacity="0.73"/>
  <rect x="610" y="305.0057053659111" width="60" height="214.99429463408887" rx="4" fill="url(#barGrad)" opacity="0.93"/>
  <rect x="700" y="219.1448418982327" width="60" height="300.8551581017673" rx="4" fill="url(#barGrad)" opacity="0.87"/>
  <rect x="790" y="266.9960797857493" width="60" height="253.00392021425068" rx="4" fill="url(#barGrad)" opacity="0.63"/>
</svg>