<svg xmlns="http://www.w3.org/2000/svg" viewBox="0 0 1200 630" fill="none">
  <rect width="1200" height="630" fill="#0d1117"/>
  <rect x="30" y="30" width="1140" height="570" rx="20" fill="#161b22" stroke="#30363d" stroke-width="1"/>
  <defs>
    <linearGradient id="lineGrad" x1="0%" y1="0%" x2="100%" y2="0%">
      <stop offset="0%" stop-color="#06B6D4"/>
      <stop offset="100%" stop-color="#F97316"/>
    </linearGradient>
    <linearGradient id="areaGrad" x1="0%" y1="0%" x2="0%" y2="100%">
      <stop offset="0%" stop-color="#06B6D4" stop-opacity="0.3"/>
      <stop offset="100%" stop-color="#06B6D4" stop-opacity="0"/>
    </linearGradient>
    <linearGradient id="barGrad" x1="0%" y1="0%" x2="0%" y2="100%">
      <stop offset="0%" stop-color="#06B6D4"/>
      <stop offset="100%" stop-color="#F97316"/>
    </linearGradient>
  </defs>
  
  <circle cx="1020" cy="94.5" r="77.90737703442574" fill="#06B6D4" opacity="0.03"/>
  <circle cx="180" cy="504" r="44.65070980833843" fill="#F97316" opacity="0.04"/>
  <circle cx="788" cy="196" r="10.9" fill="#F97316" opacity="0.50"/>
  <circle cx="348" cy="451" r="7.5" fill="#06B6D4" opacity="0.77"/>
  <circle cx="802" cy="108" r="9.5" fill="#F97316" opacity="0.46"/>
  <circle cx="629" cy="339" r="5.5" fill="#F97316" opacity="0.58"/>
  <circle cx="696" cy="420" r="7.1" fill="#F97316" opacity="0.44"/>
  <circle cx="445" cy="282" r="3.3" fill="#06B6D4" opacity="0.51"/>
  <circle cx="771" cy="355" r="6.2" fill="#06B6D4" opacity="0.51"/>
  <circle cx="907" cy="377" r="7.9" fill="#06B6D4" opacity="0.68"/>
  <circle cx="665" cy="443" r="9.5" fill="#06B6D4" opacity="0.49"/>
  <circle cx="1028" cy="107" r="8.6" fill="#06B6D4" opacity="0.62"/>
  <circle cx="536" cy="204" r="3.8" fill="#06B6D4" opacity="0.52"/>
  <circle cx="213" cy="354" r="7.5" fill="#F97316" opacity="0.55"/>
  <circle cx="585" cy="341" r="6.9" fill="#06B6D4" opacity="0.38"/>
  <circle cx="318" cy="467" r="10.7" fill="#06B6D4" opacity="0.33"/>
  <circle cx="627" cy="480" r="10.4" fill="#06B6D4" opacity="0.74"/>
  <circle cx="592" cy="447" r="9.7" fill="#F97316" opacity="0.65"/>
  <circle cx="388" cy="408" r="3.6" fill="#06B6D4" opacity="0.66"/>
  <circle cx="371" cy="481" r="6.0" fill="#06B6D4" opacity="0.60"/>
  <circle cx="927" cy="329" r="10.5" fill="#F97316" opacity="0.78"/>
  <circle cx="290" cy="231" r="6.1" fill="#06B6D4" opacity="0.55"/>
  <circle cx="410" cy="105" r="8.1" fill="#F97316" opacity="0.46"/>
  <circle cx="678" cy="453" r="7.4" fill="#06B6D4" opacity="0.68"/>
  <circle cx="190" cy="451" r="6.1" fill="#F97316" opacity="0.40"/>
  <circle cx="833" cy="384" r="4.0" fill="#06B6D4" opacity="0.55"/>
  <circle cx="284" cy="249" r="5.5" fill="#06B6D4" opacity="0.76"/>
  <circle cx="777" cy="132" r="4.8" fill="#06B6D4" opacity="0.75"/>
  <circle cx="497" cy="239" r="7.9" fill="#F97316" opacity="0.71"/>
  <circle cx="1020" cy="238" r="9.7" fill="#06B6D4" opacity="0.74"/>
  <circle cx="220" cy="501" r="9.8" fill="#F97316" opacity="0.31"/>
  <circle cx="738" cy="304" r="9.5" fill="#06B6D4" opacity="0.76"/>
  <circle cx="388" cy="460" r="10.6" fill="#06B6D4" opacity="0.67"/>
  <circle cx="659" cy="178" r="7.0" fill="#F97316" opacity="0.79"/>
  <circle cx="842" cy="276" r="5.7" fill="#F97316" opacity="0.42"/>
  <circle cx="885" cy="370" r="5.1" fill="#F97316" opacity="0.55"/>
  <circle cx="223" cy="111" r="10.2" fill="#06B6D4" opacity="0.39"/>
  <circle cx="1037" cy="334" r="5.9" fill="#F97316" opacity="0.47"/>
  <circle cx="597" cy="364" r="9.1" fill="#F97316" opacity="0.41"/>
  <circle cx="635" cy="206" r="3.8" fill="#06B6D4" opacity="0.66"/>
  <circle cx="421" cy="143" r="5.9" fill="#06B6D4" opacity="0.36"/>
  <circle cx="754" cy="133" r="4.5" fill="#F97316" opacity="0.39"/>
  <line x1="160" y1="450" x2="1040" y2="150" stroke="#06B6D4" stroke-width="2" stroke-dasharray="6 4" opacity="0.5"/>
</svg>