<svg xmlns="http://www.w3.org/2000/svg" viewBox="0 0 1200 630" fill="none">
  <rect width="1200" height="630" fill="transparent"/>
  <rect x="30" y="30" width="1140" height="570" rx="20" fill="rgba(128,128,128,0.06)" stroke="rgba(128,128,128,0.15)" stroke-width="1"/>
  <defs>
    <linearGradient id="lineGrad" x1="0%" y1="0%" x2="100%" y2="0%">
      <stop offset="0%" stop-color="#00F0FF"/>
      <stop offset="100%" stop-color="#A91079"/>
    </linearGradient>
    <linearGradient id="areaGrad" x1="0%" y1="0%" x2="0%" y2="100%">
      <stop offset="0%" stop-color="#00F0FF" stop-opacity="0.3"/>
      <stop offset="100%" stop-color="#00F0FF" stop-opacity="0"/>
    </linearGradient>
    <linearGradient id="barGrad" x1="0%" y1="0%" x2="0%" y2="100%">
      <stop offset="0%" stop-color="#00F0FF"/>
      <stop offset="100%" stop-color="#A91079"/>
    </linearGradient>
  </defs>
  
  <circle cx="1020" cy="94.5" r="90.76214276254177" fill="#00F0FF" opacity="0.03"/>
  <circle cx="180" cy="504" r="43.843404066283256" fill="#A91079" opacity="0.04"/>
  <rect x="160" y="163.01185969263315" width="60" height="356.98814030736685" rx="4" fill="url(#barGrad)" opacity="0.94"/>
  <rect x="250" y="148.3904151339084" width="60" height="371.6095848660916" rx="4" fill="url(#barGrad)" opacity="0.89"/>
  <rect x="340" y="404.9741548113525" width="60" height="115.02584518864751" rx="4" fill="url(#barGrad)" opacity="0.69"/>
  <rect x="430" y="178.9128481503576" width="60" height="341.0871518496424" rx="4" fill="url(#barGrad)" opacity="0.82"/>
  <rect x="520" y="431.0745348781347" width="60" height="88.92546512186527" rx="4" fill="url(#barGrad)" opacity="0.77"/>
  <rect x="610" y="141.9170841667801" width="60" height="378.0829158332199" rx="4" fill="url(#barGrad)" opacity="0.78"/>
  <rect x="700" y="269.7426273114979" width="60" height="250.25737268850207" rx="4" fill="url(#barGrad)" opacity="0.63"/>
  <rect x="790" y="204.09511785022914" width="60" height="315.90488214977086" rx="4" fill="url(#barGrad)" opacity="0.93"/>
</svg>