<svg xmlns="http://www.w3.org/2000/svg" viewBox="0 0 1200 630" fill="none">
  <rect width="1200" height="630" fill="transparent"/>
  <rect x="30" y="30" width="1140" height="570" rx="20" fill="rgba(128,128,128,0.06)" stroke="rgba(128,128,128,0.15)" stroke-width="1"/>
  <defs>
    <linearGradient id="lineGrad" x1="0%" y1="0%" x2="100%" y2="0%">
      <stop offset="0%" stop-color="#00F0FF"/>
      <stop offset="100%" stop-color="#A91079"/>
    </linearGradient>
    <linearGradient id="areaGrad" x1="0%" y1="0%" x2="0%" y2="100%">
      <stop offset="0%" stop-color="#00F0FF" stop-opacity="0.3"/>
      <stop offset="100%" stop-color="#00F0FF" stop-opacity="0"/>
    </linearGradient>
    <linearGradient id="barGrad" x1="0%" y1="0%" x2="0%" y2="100%">
      <stop offset="0%" stop-color="#00F0FF"/>
      <stop offset="100%" stop-color="#A91079"/>
    </linearGradient>
  </defs>
  
  <circle cx="1020" cy="94.5" r="69.91892469115555" fill="#00F0FF" opacity="0.03"/>
  <circle cx="180" cy="504" r="60.6731984578073" fill="#A91079" opacity="0.04"/>
  <line x1="182" y1="345.8281294279732" x2="182" y2="417.2889115777798" stroke="#00F0FF" stroke-width="1.5"/>
  <rect x="170" y="372.0085508306511" width="24" height="29.902349412441254" rx="2" fill="#00F0FF" opacity="0.85"/>
  <line x1="256" y1="262.38528308691457" x2="256" y2="338.073808925692" stroke="#A91079" stroke-width="1.5"/>
  <rect x="244" y="285.99743485683575" width="24" height="25.70882709696889" rx="2" fill="#A91079" opacity="0.85"/>
  <line x1="330" y1="229.75000443169847" x2="330" y2="292.6888287742622" stroke="#A91079" stroke-width="1.5"/>
  <rect x="318" y="266.03812315734103" width="24" height="16.38618651777506" rx="2" fill="#A91079" opacity="0.85"/>
  <line x1="404" y1="375.9813049179502" x2="404" y2="440.70077792042866" stroke="#00F0FF" stroke-width="1.5"/>
  <rect x="392" y="409.5111546688713" width="24" height="28.590252343565226" rx="2" fill="#00F0FF" opacity="0.85"/>
  <line x1="478" y1="202.59982858086005" x2="478" y2="267.3458425444551" stroke="#00F0FF" stroke-width="1.5"/>
  <rect x="466" y="218.03277927683666" width="24" height="27.61312387883663" rx="2" fill="#00F0FF" opacity="0.85"/>
  <line x1="552" y1="301.3536147889681" x2="552" y2="403.15298561239615" stroke="#A91079" stroke-width="1.5"/>
  <rect x="540" y="331.5864432253875" width="24" height="43.370692525058985" rx="2" fill="#A91079" opacity="0.85"/>
  <line x1="626" y1="293.72091533849016" x2="626" y2="390.24435243802145" stroke="#00F0FF" stroke-width="1.5"/>
  <rect x="614" y="325.4303913679905" width="24" height="39.78323806077242" rx="2" fill="#00F0FF" opacity="0.85"/>
  <line x1="700" y1="398.11683546053246" x2="700" y2="435.9709148318507" stroke="#A91079" stroke-width="1.5"/>
  <rect x="688" y="410.37315583089367" width="24" height="24.490564595907927" rx="2" fill="#A91079" opacity="0.85"/>
  <line x1="774" y1="168.81126076215878" x2="774" y2="245.50089181633666" stroke="#00F0FF" stroke-width="1.5"/>
  <rect x="762" y="186.0493931104429" width="24" height="27.761752158403397" rx="2" fill="#00F0FF" opacity="0.85"/>
  <line x1="848" y1="338.8287523877807" x2="848" y2="386.71526462072507" stroke="#A91079" stroke-width="1.5"/>
  <rect x="836" y="355.09175189072266" width="24" height="12.933159340173006" rx="2" fill="#A91079" opacity="0.85"/>
</svg>