<svg xmlns="http://www.w3.org/2000/svg" viewBox="0 0 1200 630" fill="none">
  <rect width="1200" height="630" fill="transparent"/>
  <rect x="30" y="30" width="1140" height="570" rx="20" fill="rgba(128,128,128,0.06)" stroke="rgba(128,128,128,0.15)" stroke-width="1"/>
  <defs>
    <linearGradient id="lineGrad" x1="0%" y1="0%" x2="100%" y2="0%">
      <stop offset="0%" stop-color="#14B8A6"/>
      <stop offset="100%" stop-color="#E11D48"/>
    </linearGradient>
    <linearGradient id="areaGrad" x1="0%" y1="0%" x2="0%" y2="100%">
      <stop offset="0%" stop-color="#14B8A6" stop-opacity="0.3"/>
      <stop offset="100%" stop-color="#14B8A6" stop-opacity="0"/>
    </linearGradient>
    <linearGradient id="barGrad" x1="0%" y1="0%" x2="0%" y2="100%">
      <stop offset="0%" stop-color="#14B8A6"/>
      <stop offset="100%" stop-color="#E11D48"/>
    </linearGradient>
  </defs>
  
  <circle cx="1020" cy="94.5" r="63.804239109158516" fill="#14B8A6" opacity="0.03"/>
  <circle cx="180" cy="504" r="55.409418244380504" fill="#E11D48" opacity="0.04"/>
  <circle cx="950" cy="454" r="9.3" fill="#14B8A6" opacity="0.49"/>
  <circle cx="520" cy="436" r="5.0" fill="#14B8A6" opacity="0.75"/>
  <circle cx="902" cy="287" r="4.7" fill="#E11D48" opacity="0.51"/>
  <circle cx="275" cy="268" r="10.3" fill="#14B8A6" opacity="0.38"/>
  <circle cx="797" cy="322" r="5.4" fill="#14B8A6" opacity="0.79"/>
  <circle cx="994" cy="259" r="5.2" fill="#E11D48" opacity="0.57"/>
  <circle cx="786" cy="177" r="9.0" fill="#14B8A6" opacity="0.59"/>
  <circle cx="168" cy="139" r="3.6" fill="#14B8A6" opacity="0.44"/>
  <circle cx="441" cy="151" r="4.7" fill="#14B8A6" opacity="0.77"/>
  <circle cx="767" cy="259" r="10.3" fill="#E11D48" opacity="0.36"/>
  <circle cx="958" cy="185" r="11.0" fill="#14B8A6" opacity="0.30"/>
  <circle cx="876" cy="445" r="10.8" fill="#E11D48" opacity="0.56"/>
  <circle cx="765" cy="446" r="10.2" fill="#E11D48" opacity="0.45"/>
  <circle cx="916" cy="337" r="3.4" fill="#E11D48" opacity="0.39"/>
  <circle cx="278" cy="391" r="5.8" fill="#E11D48" opacity="0.51"/>
  <circle cx="323" cy="470" r="5.0" fill="#E11D48" opacity="0.71"/>
  <circle cx="872" cy="411" r="8.3" fill="#E11D48" opacity="0.54"/>
  <circle cx="283" cy="432" r="9.2" fill="#14B8A6" opacity="0.50"/>
  <circle cx="361" cy="481" r="7.6" fill="#14B8A6" opacity="0.80"/>
  <circle cx="734" cy="254" r="4.0" fill="#14B8A6" opacity="0.45"/>
  <circle cx="1021" cy="281" r="5.0" fill="#14B8A6" opacity="0.65"/>
  <circle cx="770" cy="453" r="6.4" fill="#14B8A6" opacity="0.64"/>
  <circle cx="672" cy="322" r="8.3" fill="#E11D48" opacity="0.66"/>
  <circle cx="441" cy="322" r="3.6" fill="#E11D48" opacity="0.55"/>
  <circle cx="992" cy="219" r="5.2" fill="#14B8A6" opacity="0.57"/>
  <circle cx="1035" cy="368" r="4.6" fill="#14B8A6" opacity="0.60"/>
  <circle cx="515" cy="254" r="6.3" fill="#14B8A6" opacity="0.50"/>
  <circle cx="173" cy="407" r="8.9" fill="#E11D48" opacity="0.63"/>
  <circle cx="804" cy="220" r="7.4" fill="#14B8A6" opacity="0.48"/>
  <circle cx="467" cy="349" r="4.0" fill="#14B8A6" opacity="0.65"/>
  <circle cx="880" cy="355" r="7.0" fill="#E11D48" opacity="0.46"/>
  <circle cx="483" cy="471" r="10.3" fill="#E11D48" opacity="0.48"/>
  <circle cx="410" cy="111" r="9.2" fill="#E11D48" opacity="0.38"/>
  <circle cx="286" cy="156" r="8.3" fill="#E11D48" opacity="0.55"/>
  <circle cx="247" cy="110" r="8.8" fill="#14B8A6" opacity="0.51"/>
  <circle cx="607" cy="332" r="5.4" fill="#14B8A6" opacity="0.75"/>
  <circle cx="449" cy="517" r="8.4" fill="#E11D48" opacity="0.53"/>
  <circle cx="312" cy="369" r="5.1" fill="#E11D48" opacity="0.61"/>
  <circle cx="609" cy="470" r="9.9" fill="#14B8A6" opacity="0.49"/>
  <circle cx="469" cy="123" r="3.6" fill="#E11D48" opacity="0.40"/>
  <line x1="160" y1="450" x2="1040" y2="150" stroke="#14B8A6" stroke-width="2" stroke-dasharray="6 4" opacity="0.5"/>
</svg>