<svg xmlns="http://www.w3.org/2000/svg" viewBox="0 0 800 450" fill="none">
  <rect width="800" height="450" fill="transparent"/>
  <rect x="30" y="30" width="740" height="390" rx="20" fill="rgba(128,128,128,0.06)" stroke="rgba(128,128,128,0.15)" stroke-width="1"/>
  <defs>
    <linearGradient id="lineGrad" x1="0%" y1="0%" x2="100%" y2="0%">
      <stop offset="0%" stop-color="#10B981"/>
      <stop offset="100%" stop-color="#F59E0B"/>
    </linearGradient>
    <linearGradient id="areaGrad" x1="0%" y1="0%" x2="0%" y2="100%">
      <stop offset="0%" stop-color="#10B981" stop-opacity="0.3"/>
      <stop offset="100%" stop-color="#10B981" stop-opacity="0"/>
    </linearGradient>
    <linearGradient id="barGrad" x1="0%" y1="0%" x2="0%" y2="100%">
      <stop offset="0%" stop-color="#10B981"/>
      <stop offset="100%" stop-color="#F59E0B"/>
    </linearGradient>
  </defs>
  
  <circle cx="680" cy="67.5" r="69.26089973188937" fill="#10B981" opacity="0.03"/>
  <circle cx="120" cy="360" r="46.42670654691756" fill="#F59E0B" opacity="0.04"/>
  <path d="M140 318 L220 336 L300 324 L380 306 L460 296 L540 282 L620 282 L700 264 L780 246 L860 278 L940 261 L1020 241 L1060 530 L140 530 Z" fill="#10B981" opacity="0.15"/>
  <path d="M140 318 L220 336 L300 324 L380 306 L460 296 L540 282 L620 282 L700 264 L780 246 L860 278 L940 261 L1020 241" stroke="#10B981" stroke-width="2" fill="none" opacity="0.8"/>
  <path d="M140 358 L220 369 L300 375 L380 359 L460 363 L540 371 L620 378 L700 409 L780 404 L860 426 L940 445 L1020 460 L1060 530 L140 530 Z" fill="#F59E0B" opacity="0.12"/>
  <path d="M140 358 L220 369 L300 375 L380 359 L460 363 L540 371 L620 378 L700 409 L780 404 L860 426 L940 445 L1020 460" stroke="#F59E0B" stroke-width="2" fill="none" opacity="0.8"/>
  <path d="M140 368 L220 397 L300 426 L380 456 L460 442 L540 455 L620 434 L700 448 L780 424 L860 451 L940 436 L1020 454 L1060 530 L140 530 Z" fill="#8B949E" opacity="0.09"/>
  <path d="M140 368 L220 397 L300 426 L380 456 L460 442 L540 455 L620 434 L700 448 L780 424 L860 451 L940 436 L1020 454" stroke="#8B949E" stroke-width="2" fill="none" opacity="0.8"/>
</svg>