<svg xmlns="http://www.w3.org/2000/svg" viewBox="0 0 1200 630" fill="none">
  <rect width="1200" height="630" fill="#0d1117"/>
  <rect x="30" y="30" width="1140" height="570" rx="20" fill="#161b22" stroke="#30363d" stroke-width="1"/>
  <defs>
    <linearGradient id="lineGrad" x1="0%" y1="0%" x2="100%" y2="0%">
      <stop offset="0%" stop-color="#06B6D4"/>
      <stop offset="100%" stop-color="#F97316"/>
    </linearGradient>
    <linearGradient id="areaGrad" x1="0%" y1="0%" x2="0%" y2="100%">
      <stop offset="0%" stop-color="#06B6D4" stop-opacity="0.3"/>
      <stop offset="100%" stop-color="#06B6D4" stop-opacity="0"/>
    </linearGradient>
    <linearGradient id="barGrad" x1="0%" y1="0%" x2="0%" y2="100%">
      <stop offset="0%" stop-color="#06B6D4"/>
      <stop offset="100%" stop-color="#F97316"/>
    </linearGradient>
  </defs>
  
  <circle cx="1020" cy="94.5" r="76.04116762056947" fill="#06B6D4" opacity="0.03"/>
  <circle cx="180" cy="504" r="50.48226048005745" fill="#F97316" opacity="0.04"/>
  <circle cx="775" cy="218" r="4.4" fill="#F97316" opacity="0.74"/>
  <circle cx="511" cy="151" r="8.1" fill="#F97316" opacity="0.69"/>
  <circle cx="917" cy="257" r="6.7" fill="#F97316" opacity="0.76"/>
  <circle cx="431" cy="446" r="3.9" fill="#F97316" opacity="0.34"/>
  <circle cx="313" cy="508" r="7.1" fill="#06B6D4" opacity="0.38"/>
  <circle cx="685" cy="275" r="10.9" fill="#06B6D4" opacity="0.31"/>
  <circle cx="623" cy="138" r="5.2" fill="#06B6D4" opacity="0.64"/>
  <circle cx="393" cy="235" r="4.7" fill="#06B6D4" opacity="0.68"/>
  <circle cx="783" cy="134" r="10.7" fill="#06B6D4" opacity="0.41"/>
  <circle cx="300" cy="230" r="7.1" fill="#06B6D4" opacity="0.54"/>
  <circle cx="638" cy="246" r="3.2" fill="#06B6D4" opacity="0.53"/>
  <circle cx="317" cy="211" r="4.0" fill="#06B6D4" opacity="0.54"/>
  <circle cx="250" cy="296" r="5.5" fill="#06B6D4" opacity="0.72"/>
  <circle cx="973" cy="377" r="10.5" fill="#F97316" opacity="0.63"/>
  <circle cx="296" cy="256" r="3.4" fill="#06B6D4" opacity="0.30"/>
  <circle cx="910" cy="194" r="10.4" fill="#F97316" opacity="0.50"/>
  <circle cx="251" cy="298" r="9.7" fill="#06B6D4" opacity="0.45"/>
  <circle cx="403" cy="240" r="7.0" fill="#F97316" opacity="0.39"/>
  <circle cx="564" cy="184" r="8.9" fill="#F97316" opacity="0.54"/>
  <circle cx="781" cy="366" r="10.4" fill="#F97316" opacity="0.71"/>
  <circle cx="291" cy="282" r="10.2" fill="#06B6D4" opacity="0.60"/>
  <circle cx="557" cy="290" r="4.5" fill="#F97316" opacity="0.66"/>
  <circle cx="194" cy="281" r="10.7" fill="#F97316" opacity="0.61"/>
  <circle cx="346" cy="392" r="4.9" fill="#06B6D4" opacity="0.61"/>
  <circle cx="742" cy="464" r="9.7" fill="#06B6D4" opacity="0.38"/>
  <circle cx="275" cy="187" r="3.5" fill="#06B6D4" opacity="0.33"/>
  <circle cx="816" cy="293" r="6.1" fill="#06B6D4" opacity="0.60"/>
  <circle cx="680" cy="157" r="4.2" fill="#F97316" opacity="0.43"/>
  <circle cx="525" cy="109" r="4.7" fill="#06B6D4" opacity="0.41"/>
  <circle cx="436" cy="366" r="6.5" fill="#F97316" opacity="0.64"/>
  <circle cx="395" cy="324" r="10.7" fill="#F97316" opacity="0.33"/>
  <circle cx="466" cy="255" r="9.9" fill="#F97316" opacity="0.62"/>
  <circle cx="799" cy="431" r="9.9" fill="#F97316" opacity="0.68"/>
  <circle cx="740" cy="107" r="8.0" fill="#06B6D4" opacity="0.35"/>
  <circle cx="507" cy="190" r="3.7" fill="#06B6D4" opacity="0.73"/>
  <circle cx="574" cy="427" r="8.2" fill="#06B6D4" opacity="0.45"/>
  <circle cx="603" cy="142" r="5.8" fill="#F97316" opacity="0.35"/>
  <circle cx="819" cy="425" r="7.5" fill="#F97316" opacity="0.69"/>
  <circle cx="247" cy="128" r="5.3" fill="#F97316" opacity="0.56"/>
  <circle cx="480" cy="175" r="8.0" fill="#F97316" opacity="0.31"/>
  <line x1="160" y1="450" x2="1040" y2="150" stroke="#06B6D4" stroke-width="2" stroke-dasharray="6 4" opacity="0.5"/>
</svg>