<svg xmlns="http://www.w3.org/2000/svg" viewBox="0 0 1200 630" fill="none">
  <rect width="1200" height="630" fill="#0d1117"/>
  <rect x="30" y="30" width="1140" height="570" rx="20" fill="#161b22" stroke="#30363d" stroke-width="1"/>
  <defs>
    <linearGradient id="lineGrad" x1="0%" y1="0%" x2="100%" y2="0%">
      <stop offset="0%" stop-color="#10B981"/>
      <stop offset="100%" stop-color="#F59E0B"/>
    </linearGradient>
    <linearGradient id="areaGrad" x1="0%" y1="0%" x2="0%" y2="100%">
      <stop offset="0%" stop-color="#10B981" stop-opacity="0.3"/>
      <stop offset="100%" stop-color="#10B981" stop-opacity="0"/>
    </linearGradient>
    <linearGradient id="barGrad" x1="0%" y1="0%" x2="0%" y2="100%">
      <stop offset="0%" stop-color="#10B981"/>
      <stop offset="100%" stop-color="#F59E0B"/>
    </linearGradient>
  </defs>
  
  <circle cx="1020" cy="94.5" r="97.14940168894827" fill="#10B981" opacity="0.03"/>
  <circle cx="180" cy="504" r="67.96676165424287" fill="#F59E0B" opacity="0.04"/>
  <path d="M140 306 L220 279 L300 289 L380 294 L460 313 L540 334 L620 343 L700 369 L780 356 L860 345 L940 355 L1020 369 L1060 530 L140 530 Z" fill="#10B981" opacity="0.15"/>
  <path d="M140 306 L220 279 L300 289 L380 294 L460 313 L540 334 L620 343 L700 369 L780 356 L860 345 L940 355 L1020 369" stroke="#10B981" stroke-width="2" fill="none" opacity="0.8"/>
  <path d="M140 370 L220 399 L300 375 L380 405 L460 429 L540 453 L620 460 L700 460 L780 477 L860 470 L940 461 L1020 470 L1060 530 L140 530 Z" fill="#F59E0B" opacity="0.12"/>
  <path d="M140 370 L220 399 L300 375 L380 405 L460 429 L540 453 L620 460 L700 460 L780 477 L860 470 L940 461 L1020 470" stroke="#F59E0B" stroke-width="2" fill="none" opacity="0.8"/>
  <path d="M140 404 L220 399 L300 429 L380 455 L460 480 L540 454 L620 452 L700 435 L780 463 L860 466 L940 487 L1020 500 L1060 530 L140 530 Z" fill="#8B949E" opacity="0.09"/>
  <path d="M140 404 L220 399 L300 429 L380 455 L460 480 L540 454 L620 452 L700 435 L780 463 L860 466 L940 487 L1020 500" stroke="#8B949E" stroke-width="2" fill="none" opacity="0.8"/>
</svg>