<svg xmlns="http://www.w3.org/2000/svg" viewBox="0 0 800 450" fill="none">
  <rect width="800" height="450" fill="transparent"/>
  <rect x="30" y="30" width="740" height="390" rx="20" fill="rgba(128,128,128,0.06)" stroke="rgba(128,128,128,0.15)" stroke-width="1"/>
  <defs>
    <linearGradient id="lineGrad" x1="0%" y1="0%" x2="100%" y2="0%">
      <stop offset="0%" stop-color="#14B8A6"/>
      <stop offset="100%" stop-color="#E11D48"/>
    </linearGradient>
    <linearGradient id="areaGrad" x1="0%" y1="0%" x2="0%" y2="100%">
      <stop offset="0%" stop-color="#14B8A6" stop-opacity="0.3"/>
      <stop offset="100%" stop-color="#14B8A6" stop-opacity="0"/>
    </linearGradient>
    <linearGradient id="barGrad" x1="0%" y1="0%" x2="0%" y2="100%">
      <stop offset="0%" stop-color="#14B8A6"/>
      <stop offset="100%" stop-color="#E11D48"/>
    </linearGradient>
  </defs>
  
  <circle cx="680" cy="67.5" r="70.12913400307298" fill="#14B8A6" opacity="0.03"/>
  <circle cx="120" cy="360" r="44.664387970697135" fill="#E11D48" opacity="0.04"/>
  <rect x="160" y="226.0127225983888" width="60" height="293.9872774016112" rx="4" fill="url(#barGrad)" opacity="0.92"/>
  <rect x="250" y="325.3310822509229" width="60" height="194.66891774907708" rx="4" fill="url(#barGrad)" opacity="0.67"/>
  <rect x="340" y="196.25270470045507" width="60" height="323.74729529954493" rx="4" fill="url(#barGrad)" opacity="0.92"/>
  <rect x="430" y="332.0383222401142" width="60" height="187.9616777598858" rx="4" fill="url(#barGrad)" opacity="0.84"/>
  <rect x="520" y="400.2061601821333" width="60" height="119.79383981786668" rx="4" fill="url(#barGrad)" opacity="0.62"/>
  <rect x="610" y="417.766350004822" width="60" height="102.23364999517798" rx="4" fill="url(#barGrad)" opacity="0.92"/>
  <rect x="700" y="386.7351886909455" width="60" height="133.2648113090545" rx="4" fill="url(#barGrad)" opacity="0.84"/>
  <rect x="790" y="327.8809044137597" width="60" height="192.1190955862403" rx="4" fill="url(#barGrad)" opacity="0.88"/>
</svg>