<svg xmlns="http://www.w3.org/2000/svg" viewBox="0 0 1200 630" fill="none">
  <rect width="1200" height="630" fill="transparent"/>
  <rect x="30" y="30" width="1140" height="570" rx="20" fill="rgba(128,128,128,0.06)" stroke="rgba(128,128,128,0.15)" stroke-width="1"/>
  <defs>
    <linearGradient id="lineGrad" x1="0%" y1="0%" x2="100%" y2="0%">
      <stop offset="0%" stop-color="#10B981"/>
      <stop offset="100%" stop-color="#F59E0B"/>
    </linearGradient>
    <linearGradient id="areaGrad" x1="0%" y1="0%" x2="0%" y2="100%">
      <stop offset="0%" stop-color="#10B981" stop-opacity="0.3"/>
      <stop offset="100%" stop-color="#10B981" stop-opacity="0"/>
    </linearGradient>
    <linearGradient id="barGrad" x1="0%" y1="0%" x2="0%" y2="100%">
      <stop offset="0%" stop-color="#10B981"/>
      <stop offset="100%" stop-color="#F59E0B"/>
    </linearGradient>
  </defs>
  
  <circle cx="1020" cy="94.5" r="87.08309520035982" fill="#10B981" opacity="0.03"/>
  <circle cx="180" cy="504" r="53.86082338402048" fill="#F59E0B" opacity="0.04"/>
  <circle cx="1017" cy="363" r="5.1" fill="#10B981" opacity="0.57"/>
  <circle cx="177" cy="104" r="10.3" fill="#F59E0B" opacity="0.53"/>
  <circle cx="704" cy="271" r="3.3" fill="#F59E0B" opacity="0.55"/>
  <circle cx="814" cy="436" r="5.3" fill="#10B981" opacity="0.79"/>
  <circle cx="899" cy="132" r="7.0" fill="#F59E0B" opacity="0.61"/>
  <circle cx="756" cy="334" r="4.3" fill="#F59E0B" opacity="0.48"/>
  <circle cx="203" cy="165" r="3.7" fill="#F59E0B" opacity="0.41"/>
  <circle cx="559" cy="204" r="4.8" fill="#F59E0B" opacity="0.39"/>
  <circle cx="728" cy="343" r="8.2" fill="#F59E0B" opacity="0.79"/>
  <circle cx="943" cy="448" r="5.0" fill="#F59E0B" opacity="0.40"/>
  <circle cx="488" cy="138" r="7.2" fill="#10B981" opacity="0.76"/>
  <circle cx="689" cy="275" r="8.1" fill="#F59E0B" opacity="0.62"/>
  <circle cx="365" cy="350" r="6.6" fill="#10B981" opacity="0.51"/>
  <circle cx="699" cy="466" r="3.3" fill="#10B981" opacity="0.70"/>
  <circle cx="823" cy="170" r="6.7" fill="#F59E0B" opacity="0.58"/>
  <circle cx="184" cy="151" r="3.2" fill="#F59E0B" opacity="0.77"/>
  <circle cx="926" cy="486" r="3.9" fill="#F59E0B" opacity="0.57"/>
  <circle cx="900" cy="417" r="9.0" fill="#F59E0B" opacity="0.51"/>
  <circle cx="262" cy="276" r="3.0" fill="#10B981" opacity="0.79"/>
  <circle cx="940" cy="176" r="6.8" fill="#F59E0B" opacity="0.32"/>
  <circle cx="659" cy="232" r="5.5" fill="#10B981" opacity="0.76"/>
  <circle cx="708" cy="489" r="8.2" fill="#10B981" opacity="0.50"/>
  <circle cx="907" cy="269" r="4.1" fill="#10B981" opacity="0.77"/>
  <circle cx="753" cy="371" r="6.5" fill="#F59E0B" opacity="0.76"/>
  <circle cx="792" cy="131" r="8.2" fill="#10B981" opacity="0.49"/>
  <circle cx="836" cy="161" r="5.9" fill="#F59E0B" opacity="0.75"/>
  <circle cx="389" cy="478" r="4.4" fill="#F59E0B" opacity="0.60"/>
  <circle cx="550" cy="193" r="4.3" fill="#10B981" opacity="0.63"/>
  <circle cx="815" cy="453" r="3.9" fill="#F59E0B" opacity="0.52"/>
  <circle cx="892" cy="295" r="7.2" fill="#F59E0B" opacity="0.73"/>
  <circle cx="639" cy="493" r="4.4" fill="#10B981" opacity="0.36"/>
  <circle cx="552" cy="294" r="10.0" fill="#10B981" opacity="0.42"/>
  <circle cx="679" cy="214" r="9.3" fill="#F59E0B" opacity="0.70"/>
  <circle cx="332" cy="122" r="9.7" fill="#10B981" opacity="0.72"/>
  <circle cx="420" cy="195" r="10.4" fill="#F59E0B" opacity="0.63"/>
  <circle cx="708" cy="371" r="5.3" fill="#F59E0B" opacity="0.76"/>
  <circle cx="379" cy="247" r="9.5" fill="#10B981" opacity="0.59"/>
  <circle cx="453" cy="462" r="7.3" fill="#10B981" opacity="0.57"/>
  <circle cx="881" cy="341" r="7.0" fill="#10B981" opacity="0.58"/>
  <circle cx="741" cy="310" r="7.2" fill="#F59E0B" opacity="0.35"/>
  <line x1="160" y1="450" x2="1040" y2="150" stroke="#10B981" stroke-width="2" stroke-dasharray="6 4" opacity="0.5"/>
</svg>