<svg xmlns="http://www.w3.org/2000/svg" viewBox="0 0 1200 630" fill="none">
  <rect width="1200" height="630" fill="transparent"/>
  <rect x="30" y="30" width="1140" height="570" rx="20" fill="rgba(128,128,128,0.06)" stroke="rgba(128,128,128,0.15)" stroke-width="1"/>
  <defs>
    <linearGradient id="lineGrad" x1="0%" y1="0%" x2="100%" y2="0%">
      <stop offset="0%" stop-color="#00F0FF"/>
      <stop offset="100%" stop-color="#A91079"/>
    </linearGradient>
    <linearGradient id="areaGrad" x1="0%" y1="0%" x2="0%" y2="100%">
      <stop offset="0%" stop-color="#00F0FF" stop-opacity="0.3"/>
      <stop offset="100%" stop-color="#00F0FF" stop-opacity="0"/>
    </linearGradient>
    <linearGradient id="barGrad" x1="0%" y1="0%" x2="0%" y2="100%">
      <stop offset="0%" stop-color="#00F0FF"/>
      <stop offset="100%" stop-color="#A91079"/>
    </linearGradient>
  </defs>
  
  <circle cx="1020" cy="94.5" r="85.10174536146224" fill="#00F0FF" opacity="0.03"/>
  <circle cx="180" cy="504" r="49.105380130931735" fill="#A91079" opacity="0.04"/>
  <line x1="182" y1="423.57462478103116" x2="182" y2="464.39606100553647" stroke="#00F0FF" stroke-width="1.5"/>
  <rect x="170" y="428.84806595975533" width="24" height="11.427260283380747" rx="2" fill="#00F0FF" opacity="0.85"/>
  <line x1="256" y1="262.7708037593402" x2="256" y2="332.66655144514516" stroke="#00F0FF" stroke-width="1.5"/>
  <rect x="244" y="288.9924985473044" width="24" height="7.714397832751274" rx="2" fill="#00F0FF" opacity="0.85"/>
  <line x1="330" y1="379.4704479095526" x2="330" y2="451.50536228204146" stroke="#A91079" stroke-width="1.5"/>
  <rect x="318" y="414.3121059634723" width="24" height="16.878336761146784" rx="2" fill="#A91079" opacity="0.85"/>
  <line x1="404" y1="317.81064039329067" x2="404" y2="359.45051449583843" stroke="#A91079" stroke-width="1.5"/>
  <rect x="392" y="330.74398395838216" width="24" height="25.566127710044384" rx="2" fill="#A91079" opacity="0.85"/>
  <line x1="478" y1="230.69757470162585" x2="478" y2="257.0694111683406" stroke="#00F0FF" stroke-width="1.5"/>
  <rect x="466" y="238.36558494949713" width="24" height="14.503269363194704" rx="2" fill="#00F0FF" opacity="0.85"/>
  <line x1="552" y1="304.3218493484892" x2="552" y2="367.0748904463835" stroke="#A91079" stroke-width="1.5"/>
  <rect x="540" y="333.39292287128046" width="24" height="15.583724528551102" rx="2" fill="#A91079" opacity="0.85"/>
  <line x1="626" y1="346.65759689407423" x2="626" y2="376.74650667468086" stroke="#00F0FF" stroke-width="1.5"/>
  <rect x="614" y="361.07667485484853" width="24" height="10.484455060213804" rx="2" fill="#00F0FF" opacity="0.85"/>
  <line x1="700" y1="436.65878588566557" x2="700" y2="481.5687011112459" stroke="#A91079" stroke-width="1.5"/>
  <rect x="688" y="441.83451832504943" width="24" height="14.252798445522785" rx="2" fill="#A91079" opacity="0.85"/>
  <line x1="774" y1="254.8603595723398" x2="774" y2="315.0031983689405" stroke="#A91079" stroke-width="1.5"/>
  <rect x="762" y="266.95236737141386" width="24" height="29.32635834440589" rx="2" fill="#A91079" opacity="0.85"/>
  <line x1="848" y1="197.43878673994914" x2="848" y2="237.96605323674157" stroke="#00F0FF" stroke-width="1.5"/>
  <rect x="836" y="211.53408373938873" width="24" height="3" rx="2" fill="#00F0FF" opacity="0.85"/>
</svg>