<svg xmlns="http://www.w3.org/2000/svg" viewBox="0 0 1200 630" fill="none">
  <rect width="1200" height="630" fill="#0d1117"/>
  <rect x="30" y="30" width="1140" height="570" rx="20" fill="#161b22" stroke="#30363d" stroke-width="1"/>
  <defs>
    <linearGradient id="lineGrad" x1="0%" y1="0%" x2="100%" y2="0%">
      <stop offset="0%" stop-color="#10B981"/>
      <stop offset="100%" stop-color="#F59E0B"/>
    </linearGradient>
    <linearGradient id="areaGrad" x1="0%" y1="0%" x2="0%" y2="100%">
      <stop offset="0%" stop-color="#10B981" stop-opacity="0.3"/>
      <stop offset="100%" stop-color="#10B981" stop-opacity="0"/>
    </linearGradient>
    <linearGradient id="barGrad" x1="0%" y1="0%" x2="0%" y2="100%">
      <stop offset="0%" stop-color="#10B981"/>
      <stop offset="100%" stop-color="#F59E0B"/>
    </linearGradient>
  </defs>
  
  <circle cx="1020" cy="94.5" r="96.66320076212287" fill="#10B981" opacity="0.03"/>
  <circle cx="180" cy="504" r="57.76846861233935" fill="#F59E0B" opacity="0.04"/>
  <circle cx="519" cy="320" r="8.3" fill="#10B981" opacity="0.63"/>
  <circle cx="857" cy="334" r="10.9" fill="#10B981" opacity="0.38"/>
  <circle cx="1002" cy="287" r="3.5" fill="#10B981" opacity="0.38"/>
  <circle cx="648" cy="312" r="10.4" fill="#F59E0B" opacity="0.77"/>
  <circle cx="828" cy="424" r="10.3" fill="#F59E0B" opacity="0.48"/>
  <circle cx="663" cy="456" r="10.7" fill="#10B981" opacity="0.70"/>
  <circle cx="879" cy="301" r="10.1" fill="#10B981" opacity="0.51"/>
  <circle cx="241" cy="449" r="6.8" fill="#10B981" opacity="0.72"/>
  <circle cx="338" cy="490" r="5.5" fill="#F59E0B" opacity="0.35"/>
  <circle cx="806" cy="132" r="9.0" fill="#F59E0B" opacity="0.30"/>
  <circle cx="830" cy="356" r="9.1" fill="#F59E0B" opacity="0.78"/>
  <circle cx="616" cy="255" r="8.4" fill="#10B981" opacity="0.70"/>
  <circle cx="447" cy="132" r="7.6" fill="#F59E0B" opacity="0.63"/>
  <circle cx="550" cy="215" r="5.0" fill="#10B981" opacity="0.49"/>
  <circle cx="855" cy="159" r="6.6" fill="#F59E0B" opacity="0.30"/>
  <circle cx="763" cy="500" r="10.9" fill="#F59E0B" opacity="0.40"/>
  <circle cx="768" cy="387" r="4.1" fill="#F59E0B" opacity="0.58"/>
  <circle cx="207" cy="454" r="9.8" fill="#F59E0B" opacity="0.52"/>
  <circle cx="763" cy="148" r="7.9" fill="#10B981" opacity="0.75"/>
  <circle cx="985" cy="496" r="7.0" fill="#F59E0B" opacity="0.36"/>
  <circle cx="515" cy="317" r="7.8" fill="#10B981" opacity="0.41"/>
  <circle cx="530" cy="299" r="5.2" fill="#10B981" opacity="0.78"/>
  <circle cx="165" cy="212" r="6.8" fill="#F59E0B" opacity="0.33"/>
  <circle cx="374" cy="380" r="9.8" fill="#10B981" opacity="0.71"/>
  <circle cx="1027" cy="432" r="6.4" fill="#F59E0B" opacity="0.80"/>
  <circle cx="879" cy="321" r="6.1" fill="#10B981" opacity="0.50"/>
  <circle cx="890" cy="268" r="5.5" fill="#F59E0B" opacity="0.35"/>
  <circle cx="385" cy="285" r="6.6" fill="#F59E0B" opacity="0.31"/>
  <circle cx="865" cy="504" r="10.7" fill="#10B981" opacity="0.39"/>
  <circle cx="297" cy="505" r="3.7" fill="#10B981" opacity="0.68"/>
  <circle cx="750" cy="204" r="10.5" fill="#F59E0B" opacity="0.72"/>
  <circle cx="721" cy="294" r="6.2" fill="#10B981" opacity="0.47"/>
  <circle cx="631" cy="488" r="9.9" fill="#10B981" opacity="0.57"/>
  <circle cx="592" cy="215" r="4.6" fill="#F59E0B" opacity="0.59"/>
  <circle cx="305" cy="164" r="5.5" fill="#F59E0B" opacity="0.56"/>
  <circle cx="352" cy="138" r="10.8" fill="#F59E0B" opacity="0.71"/>
  <circle cx="621" cy="319" r="4.2" fill="#10B981" opacity="0.42"/>
  <circle cx="1022" cy="505" r="9.3" fill="#F59E0B" opacity="0.32"/>
  <circle cx="571" cy="167" r="9.6" fill="#10B981" opacity="0.62"/>
  <circle cx="873" cy="208" r="5.4" fill="#F59E0B" opacity="0.72"/>
  <line x1="160" y1="450" x2="1040" y2="150" stroke="#10B981" stroke-width="2" stroke-dasharray="6 4" opacity="0.5"/>
</svg>