<svg xmlns="http://www.w3.org/2000/svg" viewBox="0 0 1200 630" fill="none">
  <rect width="1200" height="630" fill="#0d1117"/>
  <rect x="30" y="30" width="1140" height="570" rx="20" fill="#161b22" stroke="#30363d" stroke-width="1"/>
  <defs>
    <linearGradient id="lineGrad" x1="0%" y1="0%" x2="100%" y2="0%">
      <stop offset="0%" stop-color="#8B5CF6"/>
      <stop offset="100%" stop-color="#EC4899"/>
    </linearGradient>
    <linearGradient id="areaGrad" x1="0%" y1="0%" x2="0%" y2="100%">
      <stop offset="0%" stop-color="#8B5CF6" stop-opacity="0.3"/>
      <stop offset="100%" stop-color="#8B5CF6" stop-opacity="0"/>
    </linearGradient>
    <linearGradient id="barGrad" x1="0%" y1="0%" x2="0%" y2="100%">
      <stop offset="0%" stop-color="#8B5CF6"/>
      <stop offset="100%" stop-color="#EC4899"/>
    </linearGradient>
  </defs>
  
  <circle cx="1020" cy="94.5" r="77.95069305226207" fill="#8B5CF6" opacity="0.03"/>
  <circle cx="180" cy="504" r="60.0966515741311" fill="#EC4899" opacity="0.04"/>
  <path d="M600 300 L780.0 300.0 A180 180 0 0 1 549.1 472.7 Z" fill="#8B5CF6" opacity="0.7"/>
  <path d="M600 300 L549.1 472.7 A180 180 0 0 1 430.8 238.6 Z" fill="#EC4899" opacity="0.75"/>
  <path d="M600 300 L430.8 238.6 A180 180 0 0 1 590.8 120.2 Z" fill="#8B949E" opacity="0.7999999999999999"/>
  <path d="M600 300 L590.8 120.2 A180 180 0 0 1 741.4 188.6 Z" fill="#30363D" opacity="0.85"/>
  <path d="M600 300 L741.4 188.6 A180 180 0 0 1 780.0 300.0 Z" fill="#21262D" opacity="0.8999999999999999"/>
  <circle cx="600" cy="300" r="90" fill="#0d1117"/>
</svg>