<svg xmlns="http://www.w3.org/2000/svg" viewBox="0 0 800 450" fill="none">
  <rect width="800" height="450" fill="transparent"/>
  <rect x="30" y="30" width="740" height="390" rx="20" fill="rgba(128,128,128,0.06)" stroke="rgba(128,128,128,0.15)" stroke-width="1"/>
  <defs>
    <linearGradient id="lineGrad" x1="0%" y1="0%" x2="100%" y2="0%">
      <stop offset="0%" stop-color="#00F0FF"/>
      <stop offset="100%" stop-color="#A91079"/>
    </linearGradient>
    <linearGradient id="areaGrad" x1="0%" y1="0%" x2="0%" y2="100%">
      <stop offset="0%" stop-color="#00F0FF" stop-opacity="0.3"/>
      <stop offset="100%" stop-color="#00F0FF" stop-opacity="0"/>
    </linearGradient>
    <linearGradient id="barGrad" x1="0%" y1="0%" x2="0%" y2="100%">
      <stop offset="0%" stop-color="#00F0FF"/>
      <stop offset="100%" stop-color="#A91079"/>
    </linearGradient>
  </defs>
  
  <circle cx="680" cy="67.5" r="81.78209822624922" fill="#00F0FF" opacity="0.03"/>
  <circle cx="120" cy="360" r="52.36957479501143" fill="#A91079" opacity="0.04"/>
  <rect x="160" y="368.5800184123218" width="60" height="151.4199815876782" rx="4" fill="url(#barGrad)" opacity="0.62"/>
  <rect x="250" y="298.21270174346864" width="60" height="221.78729825653136" rx="4" fill="url(#barGrad)" opacity="0.70"/>
  <rect x="340" y="401.88599206507206" width="60" height="118.11400793492794" rx="4" fill="url(#barGrad)" opacity="0.85"/>
  <rect x="430" y="428.8523905072361" width="60" height="91.14760949276388" rx="4" fill="url(#barGrad)" opacity="0.93"/>
  <rect x="520" y="314.8787042684853" width="60" height="205.1212957315147" rx="4" fill="url(#barGrad)" opacity="0.73"/>
  <rect x="610" y="389.0859895478934" width="60" height="130.9140104521066" rx="4" fill="url(#barGrad)" opacity="0.75"/>
  <rect x="700" y="424.2358445748687" width="60" height="95.76415542513132" rx="4" fill="url(#barGrad)" opacity="0.74"/>
  <rect x="790" y="277.8873691428453" width="60" height="242.11263085715473" rx="4" fill="url(#barGrad)" opacity="0.86"/>
</svg>