<svg xmlns="http://www.w3.org/2000/svg" viewBox="0 0 1200 630" fill="none">
  <rect width="1200" height="630" fill="transparent"/>
  <rect x="30" y="30" width="1140" height="570" rx="20" fill="rgba(128,128,128,0.06)" stroke="rgba(128,128,128,0.15)" stroke-width="1"/>
  <defs>
    <linearGradient id="lineGrad" x1="0%" y1="0%" x2="100%" y2="0%">
      <stop offset="0%" stop-color="#10B981"/>
      <stop offset="100%" stop-color="#F59E0B"/>
    </linearGradient>
    <linearGradient id="areaGrad" x1="0%" y1="0%" x2="0%" y2="100%">
      <stop offset="0%" stop-color="#10B981" stop-opacity="0.3"/>
      <stop offset="100%" stop-color="#10B981" stop-opacity="0"/>
    </linearGradient>
    <linearGradient id="barGrad" x1="0%" y1="0%" x2="0%" y2="100%">
      <stop offset="0%" stop-color="#10B981"/>
      <stop offset="100%" stop-color="#F59E0B"/>
    </linearGradient>
  </defs>
  
  <circle cx="1020" cy="94.5" r="76.7996958643198" fill="#10B981" opacity="0.03"/>
  <circle cx="180" cy="504" r="42.40095687331632" fill="#F59E0B" opacity="0.04"/>
  <rect x="160" y="210.4345790669322" width="60" height="309.5654209330678" rx="4" fill="url(#barGrad)" opacity="0.94"/>
  <rect x="250" y="145.33388038165867" width="60" height="374.6661196183413" rx="4" fill="url(#barGrad)" opacity="0.86"/>
  <rect x="340" y="363.21798419579864" width="60" height="156.78201580420136" rx="4" fill="url(#barGrad)" opacity="0.94"/>
  <rect x="430" y="410.2818640973419" width="60" height="109.7181359026581" rx="4" fill="url(#barGrad)" opacity="0.93"/>
  <rect x="520" y="219.68150079250336" width="60" height="300.31849920749664" rx="4" fill="url(#barGrad)" opacity="0.63"/>
  <rect x="610" y="214.12272640503943" width="60" height="305.87727359496057" rx="4" fill="url(#barGrad)" opacity="0.79"/>
  <rect x="700" y="315.8368485607207" width="60" height="204.16315143927932" rx="4" fill="url(#barGrad)" opacity="0.65"/>
  <rect x="790" y="178.35955816321075" width="60" height="341.64044183678925" rx="4" fill="url(#barGrad)" opacity="0.77"/>
</svg>