<svg xmlns="http://www.w3.org/2000/svg" viewBox="0 0 800 450" fill="none">
  <rect width="800" height="450" fill="transparent"/>
  <rect x="30" y="30" width="740" height="390" rx="20" fill="rgba(128,128,128,0.06)" stroke="rgba(128,128,128,0.15)" stroke-width="1"/>
  <defs>
    <linearGradient id="lineGrad" x1="0%" y1="0%" x2="100%" y2="0%">
      <stop offset="0%" stop-color="#14B8A6"/>
      <stop offset="100%" stop-color="#E11D48"/>
    </linearGradient>
    <linearGradient id="areaGrad" x1="0%" y1="0%" x2="0%" y2="100%">
      <stop offset="0%" stop-color="#14B8A6" stop-opacity="0.3"/>
      <stop offset="100%" stop-color="#14B8A6" stop-opacity="0"/>
    </linearGradient>
    <linearGradient id="barGrad" x1="0%" y1="0%" x2="0%" y2="100%">
      <stop offset="0%" stop-color="#14B8A6"/>
      <stop offset="100%" stop-color="#E11D48"/>
    </linearGradient>
  </defs>
  
  <circle cx="680" cy="67.5" r="65.04653160460293" fill="#14B8A6" opacity="0.03"/>
  <circle cx="120" cy="360" r="45.59640295803547" fill="#E11D48" opacity="0.04"/>
  <path d="M140 271 L220 282 L300 300 L380 294 L460 271 L540 265 L620 280 L700 313 L780 291 L860 289 L940 267 L1020 241 L1060 530 L140 530 Z" fill="#14B8A6" opacity="0.15"/>
  <path d="M140 271 L220 282 L300 300 L380 294 L460 271 L540 265 L620 280 L700 313 L780 291 L860 289 L940 267 L1020 241" stroke="#14B8A6" stroke-width="2" fill="none" opacity="0.8"/>
  <path d="M140 307 L220 327 L300 348 L380 353 L460 337 L540 346 L620 346 L700 359 L780 381 L860 394 L940 398 L1020 410 L1060 530 L140 530 Z" fill="#E11D48" opacity="0.12"/>
  <path d="M140 307 L220 327 L300 348 L380 353 L460 337 L540 346 L620 346 L700 359 L780 381 L860 394 L940 398 L1020 410" stroke="#E11D48" stroke-width="2" fill="none" opacity="0.8"/>
  <path d="M140 394 L220 375 L300 366 L380 363 L460 378 L540 408 L620 417 L700 443 L780 476 L860 457 L940 479 L1020 500 L1060 530 L140 530 Z" fill="#8B949E" opacity="0.09"/>
  <path d="M140 394 L220 375 L300 366 L380 363 L460 378 L540 408 L620 417 L700 443 L780 476 L860 457 L940 479 L1020 500" stroke="#8B949E" stroke-width="2" fill="none" opacity="0.8"/>
</svg>