<svg xmlns="http://www.w3.org/2000/svg" viewBox="0 0 1200 630" fill="none">
  <rect width="1200" height="630" fill="#0d1117"/>
  <rect x="30" y="30" width="1140" height="570" rx="20" fill="#161b22" stroke="#30363d" stroke-width="1"/>
  <defs>
    <linearGradient id="lineGrad" x1="0%" y1="0%" x2="100%" y2="0%">
      <stop offset="0%" stop-color="#8B5CF6"/>
      <stop offset="100%" stop-color="#EC4899"/>
    </linearGradient>
    <linearGradient id="areaGrad" x1="0%" y1="0%" x2="0%" y2="100%">
      <stop offset="0%" stop-color="#8B5CF6" stop-opacity="0.3"/>
      <stop offset="100%" stop-color="#8B5CF6" stop-opacity="0"/>
    </linearGradient>
    <linearGradient id="barGrad" x1="0%" y1="0%" x2="0%" y2="100%">
      <stop offset="0%" stop-color="#8B5CF6"/>
      <stop offset="100%" stop-color="#EC4899"/>
    </linearGradient>
  </defs>
  
  <circle cx="1020" cy="94.5" r="81.59706238657236" fill="#8B5CF6" opacity="0.03"/>
  <circle cx="180" cy="504" r="54.78379620471969" fill="#EC4899" opacity="0.04"/>
  <circle cx="162" cy="174" r="7.4" fill="#EC4899" opacity="0.65"/>
  <circle cx="178" cy="284" r="8.3" fill="#EC4899" opacity="0.33"/>
  <circle cx="716" cy="465" r="8.3" fill="#EC4899" opacity="0.80"/>
  <circle cx="765" cy="317" r="5.1" fill="#EC4899" opacity="0.70"/>
  <circle cx="591" cy="143" r="7.3" fill="#8B5CF6" opacity="0.72"/>
  <circle cx="523" cy="287" r="5.9" fill="#EC4899" opacity="0.60"/>
  <circle cx="214" cy="495" r="10.7" fill="#EC4899" opacity="0.51"/>
  <circle cx="712" cy="251" r="5.0" fill="#8B5CF6" opacity="0.73"/>
  <circle cx="851" cy="479" r="5.1" fill="#8B5CF6" opacity="0.77"/>
  <circle cx="529" cy="158" r="10.9" fill="#8B5CF6" opacity="0.30"/>
  <circle cx="921" cy="132" r="10.6" fill="#8B5CF6" opacity="0.35"/>
  <circle cx="793" cy="143" r="10.3" fill="#8B5CF6" opacity="0.49"/>
  <circle cx="713" cy="240" r="5.3" fill="#8B5CF6" opacity="0.35"/>
  <circle cx="768" cy="100" r="4.9" fill="#EC4899" opacity="0.74"/>
  <circle cx="510" cy="452" r="6.3" fill="#8B5CF6" opacity="0.53"/>
  <circle cx="605" cy="427" r="8.5" fill="#EC4899" opacity="0.40"/>
  <circle cx="498" cy="269" r="7.1" fill="#8B5CF6" opacity="0.33"/>
  <circle cx="693" cy="243" r="3.4" fill="#EC4899" opacity="0.51"/>
  <circle cx="295" cy="123" r="5.2" fill="#8B5CF6" opacity="0.41"/>
  <circle cx="774" cy="259" r="6.6" fill="#EC4899" opacity="0.45"/>
  <circle cx="1006" cy="508" r="8.5" fill="#EC4899" opacity="0.42"/>
  <circle cx="438" cy="147" r="3.9" fill="#8B5CF6" opacity="0.49"/>
  <circle cx="798" cy="415" r="4.0" fill="#EC4899" opacity="0.67"/>
  <circle cx="391" cy="503" r="7.2" fill="#EC4899" opacity="0.39"/>
  <circle cx="728" cy="358" r="8.4" fill="#8B5CF6" opacity="0.54"/>
  <circle cx="869" cy="247" r="3.1" fill="#EC4899" opacity="0.80"/>
  <circle cx="685" cy="174" r="8.3" fill="#EC4899" opacity="0.50"/>
  <circle cx="625" cy="301" r="8.6" fill="#EC4899" opacity="0.46"/>
  <circle cx="568" cy="109" r="8.0" fill="#8B5CF6" opacity="0.61"/>
  <circle cx="628" cy="415" r="6.1" fill="#8B5CF6" opacity="0.75"/>
  <circle cx="604" cy="499" r="10.1" fill="#EC4899" opacity="0.55"/>
  <circle cx="607" cy="509" r="4.2" fill="#8B5CF6" opacity="0.45"/>
  <circle cx="1038" cy="344" r="7.3" fill="#EC4899" opacity="0.56"/>
  <circle cx="583" cy="154" r="6.2" fill="#EC4899" opacity="0.69"/>
  <circle cx="518" cy="287" r="5.1" fill="#EC4899" opacity="0.62"/>
  <circle cx="950" cy="104" r="4.9" fill="#EC4899" opacity="0.41"/>
  <circle cx="828" cy="485" r="4.1" fill="#8B5CF6" opacity="0.57"/>
  <circle cx="796" cy="436" r="6.8" fill="#8B5CF6" opacity="0.51"/>
  <circle cx="436" cy="501" r="3.9" fill="#8B5CF6" opacity="0.31"/>
  <circle cx="554" cy="306" r="9.5" fill="#EC4899" opacity="0.50"/>
  <line x1="160" y1="450" x2="1040" y2="150" stroke="#8B5CF6" stroke-width="2" stroke-dasharray="6 4" opacity="0.5"/>
</svg>