<svg xmlns="http://www.w3.org/2000/svg" viewBox="0 0 1200 630" fill="none">
  <rect width="1200" height="630" fill="#0d1117"/>
  <rect x="30" y="30" width="1140" height="570" rx="20" fill="#161b22" stroke="#30363d" stroke-width="1"/>
  <defs>
    <linearGradient id="lineGrad" x1="0%" y1="0%" x2="100%" y2="0%">
      <stop offset="0%" stop-color="#06B6D4"/>
      <stop offset="100%" stop-color="#F97316"/>
    </linearGradient>
    <linearGradient id="areaGrad" x1="0%" y1="0%" x2="0%" y2="100%">
      <stop offset="0%" stop-color="#06B6D4" stop-opacity="0.3"/>
      <stop offset="100%" stop-color="#06B6D4" stop-opacity="0"/>
    </linearGradient>
    <linearGradient id="barGrad" x1="0%" y1="0%" x2="0%" y2="100%">
      <stop offset="0%" stop-color="#06B6D4"/>
      <stop offset="100%" stop-color="#F97316"/>
    </linearGradient>
  </defs>
  
  <circle cx="1020" cy="94.5" r="60.15699254348874" fill="#06B6D4" opacity="0.03"/>
  <circle cx="180" cy="504" r="45.59212713269517" fill="#F97316" opacity="0.04"/>
  <rect x="160" y="200.684252390638" width="60" height="319.315747609362" rx="4" fill="url(#barGrad)" opacity="0.89"/>
  <rect x="250" y="258.39631544426084" width="60" height="261.60368455573916" rx="4" fill="url(#barGrad)" opacity="0.66"/>
  <rect x="340" y="437.137565119192" width="60" height="82.862434880808" rx="4" fill="url(#barGrad)" opacity="0.69"/>
  <rect x="430" y="144.33184634894133" width="60" height="375.6681536510587" rx="4" fill="url(#barGrad)" opacity="0.74"/>
  <rect x="520" y="360.692326920107" width="60" height="159.307673079893" rx="4" fill="url(#barGrad)" opacity="0.70"/>
  <rect x="610" y="150.4595727287233" width="60" height="369.5404272712767" rx="4" fill="url(#barGrad)" opacity="0.67"/>
  <rect x="700" y="418.78470360301435" width="60" height="101.21529639698565" rx="4" fill="url(#barGrad)" opacity="0.82"/>
  <rect x="790" y="397.5686648488045" width="60" height="122.43133515119553" rx="4" fill="url(#barGrad)" opacity="0.99"/>
</svg>