<svg xmlns="http://www.w3.org/2000/svg" viewBox="0 0 800 450" fill="none">
  <rect width="800" height="450" fill="transparent"/>
  <rect x="30" y="30" width="740" height="390" rx="20" fill="rgba(128,128,128,0.06)" stroke="rgba(128,128,128,0.15)" stroke-width="1"/>
  <defs>
    <linearGradient id="lineGrad" x1="0%" y1="0%" x2="100%" y2="0%">
      <stop offset="0%" stop-color="#8B5CF6"/>
      <stop offset="100%" stop-color="#EC4899"/>
    </linearGradient>
    <linearGradient id="areaGrad" x1="0%" y1="0%" x2="0%" y2="100%">
      <stop offset="0%" stop-color="#8B5CF6" stop-opacity="0.3"/>
      <stop offset="100%" stop-color="#8B5CF6" stop-opacity="0"/>
    </linearGradient>
    <linearGradient id="barGrad" x1="0%" y1="0%" x2="0%" y2="100%">
      <stop offset="0%" stop-color="#8B5CF6"/>
      <stop offset="100%" stop-color="#EC4899"/>
    </linearGradient>
  </defs>
  
  <circle cx="680" cy="67.5" r="80.85405084304512" fill="#8B5CF6" opacity="0.03"/>
  <circle cx="120" cy="360" r="53.81667893845588" fill="#EC4899" opacity="0.04"/>
  <line x1="182" y1="312.8973504039459" x2="182" y2="408.6897172103636" stroke="#8B5CF6" stroke-width="1.5"/>
  <rect x="170" y="339.40188999986276" width="24" height="31.074214773252606" rx="2" fill="#8B5CF6" opacity="0.85"/>
  <line x1="256" y1="188.34505488863215" x2="256" y2="218.5209404467605" stroke="#8B5CF6" stroke-width="1.5"/>
  <rect x="244" y="205.04468529252335" width="24" height="11.735499231144786" rx="2" fill="#8B5CF6" opacity="0.85"/>
  <line x1="330" y1="312.95554836979136" x2="330" y2="366.31227815290913" stroke="#EC4899" stroke-width="1.5"/>
  <rect x="318" y="332.47252645669505" width="24" height="6.446929415687919" rx="2" fill="#EC4899" opacity="0.85"/>
  <line x1="404" y1="231.6743758576922" x2="404" y2="281.6247256170027" stroke="#EC4899" stroke-width="1.5"/>
  <rect x="392" y="243.43257326399907" width="24" height="15.211700508370996" rx="2" fill="#EC4899" opacity="0.85"/>
  <line x1="478" y1="319.79311692295596" x2="478" y2="367.0071363891475" stroke="#8B5CF6" stroke-width="1.5"/>
  <rect x="466" y="355.36607302492484" width="24" height="7.4427146930247545" rx="2" fill="#8B5CF6" opacity="0.85"/>
  <line x1="552" y1="359.98948734952137" x2="552" y2="404.1226245346479" stroke="#EC4899" stroke-width="1.5"/>
  <rect x="540" y="361.0290286480449" width="24" height="11.170952068641782" rx="2" fill="#EC4899" opacity="0.85"/>
  <line x1="626" y1="226.17682913085446" x2="626" y2="283.41714104404673" stroke="#EC4899" stroke-width="1.5"/>
  <rect x="614" y="250.89881754247472" width="24" height="15.31475237570703" rx="2" fill="#EC4899" opacity="0.85"/>
  <line x1="700" y1="312.0960119343363" x2="700" y2="360.0222012749873" stroke="#8B5CF6" stroke-width="1.5"/>
  <rect x="688" y="346.92478448851034" width="24" height="3" rx="2" fill="#8B5CF6" opacity="0.85"/>
  <line x1="774" y1="305.054210012313" x2="774" y2="386.11229944741353" stroke="#EC4899" stroke-width="1.5"/>
  <rect x="762" y="328.6522724549286" width="24" height="43.13001330010593" rx="2" fill="#EC4899" opacity="0.85"/>
  <line x1="848" y1="399.0624342649244" x2="848" y2="426.09013048699126" stroke="#8B5CF6" stroke-width="1.5"/>
  <rect x="836" y="416.5969710680656" width="24" height="5.178191838786006" rx="2" fill="#8B5CF6" opacity="0.85"/>
</svg>