<svg xmlns="http://www.w3.org/2000/svg" viewBox="0 0 800 450" fill="none">
  <rect width="800" height="450" fill="transparent"/>
  <rect x="30" y="30" width="740" height="390" rx="20" fill="rgba(128,128,128,0.06)" stroke="rgba(128,128,128,0.15)" stroke-width="1"/>
  <defs>
    <linearGradient id="lineGrad" x1="0%" y1="0%" x2="100%" y2="0%">
      <stop offset="0%" stop-color="#14B8A6"/>
      <stop offset="100%" stop-color="#E11D48"/>
    </linearGradient>
    <linearGradient id="areaGrad" x1="0%" y1="0%" x2="0%" y2="100%">
      <stop offset="0%" stop-color="#14B8A6" stop-opacity="0.3"/>
      <stop offset="100%" stop-color="#14B8A6" stop-opacity="0"/>
    </linearGradient>
    <linearGradient id="barGrad" x1="0%" y1="0%" x2="0%" y2="100%">
      <stop offset="0%" stop-color="#14B8A6"/>
      <stop offset="100%" stop-color="#E11D48"/>
    </linearGradient>
  </defs>
  
  <circle cx="680" cy="67.5" r="75.81502995453775" fill="#14B8A6" opacity="0.03"/>
  <circle cx="120" cy="360" r="41.63334689568728" fill="#E11D48" opacity="0.04"/>
  <line x1="140" y1="200" x2="1060" y2="200" stroke="rgba(128,128,128,0.15)" stroke-width="0.5" stroke-dasharray="4 4"/>
  <line x1="140" y1="300" x2="1060" y2="300" stroke="rgba(128,128,128,0.15)" stroke-width="0.5" stroke-dasharray="4 4"/>
  <line x1="140" y1="400" x2="1060" y2="400" stroke="rgba(128,128,128,0.15)" stroke-width="0.5" stroke-dasharray="4 4"/>
  <line x1="140" y1="500" x2="1060" y2="500" stroke="rgba(128,128,128,0.15)" stroke-width="0.5" stroke-dasharray="4 4"/>
  <path d="M140 416 L255 386 L370 357 L485 357 L600 395 L715 385 L830 424 L945 435 L1060 458 L1060 500 L140 500 Z" fill="url(#areaGrad)" opacity="0.3"/>
  <path d="M140 416 L255 386 L370 357 L485 357 L600 395 L715 385 L830 424 L945 435 L1060 458" stroke="url(#lineGrad)" stroke-width="3" stroke-linecap="round" stroke-linejoin="round" fill="none"/>
  <circle cx="140" cy="416" r="5" fill="#14B8A6" opacity="0.8"/>
  <circle cx="370" cy="357" r="5" fill="#14B8A6" opacity="0.8"/>
  <circle cx="600" cy="395" r="5" fill="#14B8A6" opacity="0.8"/>
  <circle cx="830" cy="424" r="5" fill="#14B8A6" opacity="0.8"/>
  <circle cx="1060" cy="458" r="5" fill="#14B8A6" opacity="0.8"/>
</svg>