<svg xmlns="http://www.w3.org/2000/svg" viewBox="0 0 1200 630" fill="none">
  <rect width="1200" height="630" fill="#0d1117"/>
  <rect x="30" y="30" width="1140" height="570" rx="20" fill="#161b22" stroke="#30363d" stroke-width="1"/>
  <defs>
    <linearGradient id="lineGrad" x1="0%" y1="0%" x2="100%" y2="0%">
      <stop offset="0%" stop-color="#00F0FF"/>
      <stop offset="100%" stop-color="#A91079"/>
    </linearGradient>
    <linearGradient id="areaGrad" x1="0%" y1="0%" x2="0%" y2="100%">
      <stop offset="0%" stop-color="#00F0FF" stop-opacity="0.3"/>
      <stop offset="100%" stop-color="#00F0FF" stop-opacity="0"/>
    </linearGradient>
    <linearGradient id="barGrad" x1="0%" y1="0%" x2="0%" y2="100%">
      <stop offset="0%" stop-color="#00F0FF"/>
      <stop offset="100%" stop-color="#A91079"/>
    </linearGradient>
  </defs>
  
  <circle cx="1020" cy="94.5" r="74.40154275856912" fill="#00F0FF" opacity="0.03"/>
  <circle cx="180" cy="504" r="53.052194635383785" fill="#A91079" opacity="0.04"/>
  <line x1="182" y1="373.98517054272816" x2="182" y2="472.97990574268624" stroke="#A91079" stroke-width="1.5"/>
  <rect x="170" y="404.7995207249187" width="24" height="42.500655399635434" rx="2" fill="#A91079" opacity="0.85"/>
  <line x1="256" y1="196.6159556224011" x2="256" y2="216.4356847642921" stroke="#A91079" stroke-width="1.5"/>
  <rect x="244" y="208.65837669698521" width="24" height="7.39541701041162" rx="2" fill="#A91079" opacity="0.85"/>
  <line x1="330" y1="394.8162685963325" x2="330" y2="498.32476985407993" stroke="#A91079" stroke-width="1.5"/>
  <rect x="318" y="429.0887343115173" width="24" height="43.79874863661826" rx="2" fill="#A91079" opacity="0.85"/>
  <line x1="404" y1="214.6185804787092" x2="404" y2="287.52604597015306" stroke="#00F0FF" stroke-width="1.5"/>
  <rect x="392" y="226.66592079913244" width="24" height="32.270553754642606" rx="2" fill="#00F0FF" opacity="0.85"/>
  <line x1="478" y1="325.22712350590155" x2="478" y2="400.5536742019467" stroke="#A91079" stroke-width="1.5"/>
  <rect x="466" y="361.2785346223973" width="24" height="34.743735613301396" rx="2" fill="#A91079" opacity="0.85"/>
  <line x1="552" y1="217.11130378535017" x2="552" y2="274.63799552759156" stroke="#A91079" stroke-width="1.5"/>
  <rect x="540" y="228.93523703096434" width="24" height="43.77438365481794" rx="2" fill="#A91079" opacity="0.85"/>
  <line x1="626" y1="407.2777671623044" x2="626" y2="467.10434385342523" stroke="#A91079" stroke-width="1.5"/>
  <rect x="614" y="434.8517593345605" width="24" height="23.48934100009501" rx="2" fill="#A91079" opacity="0.85"/>
  <line x1="700" y1="173.26540271518752" x2="700" y2="250.1304839248769" stroke="#00F0FF" stroke-width="1.5"/>
  <rect x="688" y="204.98741030460224" width="24" height="41.01758417673409" rx="2" fill="#00F0FF" opacity="0.85"/>
  <line x1="774" y1="375.19925196422264" x2="774" y2="442.1717060240917" stroke="#A91079" stroke-width="1.5"/>
  <rect x="762" y="385.9920517890714" width="24" height="41.60847892053425" rx="2" fill="#A91079" opacity="0.85"/>
  <line x1="848" y1="265.671429799404" x2="848" y2="366.91047144820914" stroke="#A91079" stroke-width="1.5"/>
  <rect x="836" y="293.9566485467367" width="24" height="49.775700038298965" rx="2" fill="#A91079" opacity="0.85"/>
</svg>