<svg xmlns="http://www.w3.org/2000/svg" viewBox="0 0 1200 630" fill="none">
  <rect width="1200" height="630" fill="#0d1117"/>
  <rect x="30" y="30" width="1140" height="570" rx="20" fill="#161b22" stroke="#30363d" stroke-width="1"/>
  <defs>
    <linearGradient id="lineGrad" x1="0%" y1="0%" x2="100%" y2="0%">
      <stop offset="0%" stop-color="#00F0FF"/>
      <stop offset="100%" stop-color="#A91079"/>
    </linearGradient>
    <linearGradient id="areaGrad" x1="0%" y1="0%" x2="0%" y2="100%">
      <stop offset="0%" stop-color="#00F0FF" stop-opacity="0.3"/>
      <stop offset="100%" stop-color="#00F0FF" stop-opacity="0"/>
    </linearGradient>
    <linearGradient id="barGrad" x1="0%" y1="0%" x2="0%" y2="100%">
      <stop offset="0%" stop-color="#00F0FF"/>
      <stop offset="100%" stop-color="#A91079"/>
    </linearGradient>
  </defs>
  
  <circle cx="1020" cy="94.5" r="73.3173771109432" fill="#00F0FF" opacity="0.03"/>
  <circle cx="180" cy="504" r="67.43373373057693" fill="#A91079" opacity="0.04"/>
  <path d="M140 284 L220 261 L300 256 L380 239 L460 252 L540 272 L620 291 L700 322 L780 320 L860 323 L940 326 L1020 344 L1060 530 L140 530 Z" fill="#00F0FF" opacity="0.15"/>
  <path d="M140 284 L220 261 L300 256 L380 239 L460 252 L540 272 L620 291 L700 322 L780 320 L860 323 L940 326 L1020 344" stroke="#00F0FF" stroke-width="2" fill="none" opacity="0.8"/>
  <path d="M140 331 L220 337 L300 351 L380 376 L460 386 L540 414 L620 391 L700 376 L780 387 L860 413 L940 414 L1020 412 L1060 530 L140 530 Z" fill="#A91079" opacity="0.12"/>
  <path d="M140 331 L220 337 L300 351 L380 376 L460 386 L540 414 L620 391 L700 376 L780 387 L860 413 L940 414 L1020 412" stroke="#A91079" stroke-width="2" fill="none" opacity="0.8"/>
  <path d="M140 410 L220 385 L300 413 L380 403 L460 412 L540 395 L620 424 L700 437 L780 453 L860 476 L940 479 L1020 462 L1060 530 L140 530 Z" fill="#8B949E" opacity="0.09"/>
  <path d="M140 410 L220 385 L300 413 L380 403 L460 412 L540 395 L620 424 L700 437 L780 453 L860 476 L940 479 L1020 462" stroke="#8B949E" stroke-width="2" fill="none" opacity="0.8"/>
</svg>