<svg xmlns="http://www.w3.org/2000/svg" viewBox="0 0 800 450" fill="none">
  <rect width="800" height="450" fill="transparent"/>
  <rect x="30" y="30" width="740" height="390" rx="20" fill="rgba(128,128,128,0.06)" stroke="rgba(128,128,128,0.15)" stroke-width="1"/>
  <defs>
    <linearGradient id="lineGrad" x1="0%" y1="0%" x2="100%" y2="0%">
      <stop offset="0%" stop-color="#8B5CF6"/>
      <stop offset="100%" stop-color="#EC4899"/>
    </linearGradient>
    <linearGradient id="areaGrad" x1="0%" y1="0%" x2="0%" y2="100%">
      <stop offset="0%" stop-color="#8B5CF6" stop-opacity="0.3"/>
      <stop offset="100%" stop-color="#8B5CF6" stop-opacity="0"/>
    </linearGradient>
    <linearGradient id="barGrad" x1="0%" y1="0%" x2="0%" y2="100%">
      <stop offset="0%" stop-color="#8B5CF6"/>
      <stop offset="100%" stop-color="#EC4899"/>
    </linearGradient>
  </defs>
  
  <circle cx="680" cy="67.5" r="80.63885132782161" fill="#8B5CF6" opacity="0.03"/>
  <circle cx="120" cy="360" r="50.08687088731676" fill="#EC4899" opacity="0.04"/>
  <path d="M140 301 L220 310 L300 342 L380 351 L460 380 L540 368 L620 358 L700 375 L780 366 L860 376 L940 368 L1020 399 L1060 530 L140 530 Z" fill="#8B5CF6" opacity="0.15"/>
  <path d="M140 301 L220 310 L300 342 L380 351 L460 380 L540 368 L620 358 L700 375 L780 366 L860 376 L940 368 L1020 399" stroke="#8B5CF6" stroke-width="2" fill="none" opacity="0.8"/>
  <path d="M140 321 L220 309 L300 289 L380 269 L460 272 L540 290 L620 310 L700 323 L780 305 L860 310 L940 316 L1020 324 L1060 530 L140 530 Z" fill="#EC4899" opacity="0.12"/>
  <path d="M140 321 L220 309 L300 289 L380 269 L460 272 L540 290 L620 310 L700 323 L780 305 L860 310 L940 316 L1020 324" stroke="#EC4899" stroke-width="2" fill="none" opacity="0.8"/>
  <path d="M140 401 L220 403 L300 414 L380 416 L460 419 L540 434 L620 454 L700 464 L780 472 L860 483 L940 459 L1020 475 L1060 530 L140 530 Z" fill="#8B949E" opacity="0.09"/>
  <path d="M140 401 L220 403 L300 414 L380 416 L460 419 L540 434 L620 454 L700 464 L780 472 L860 483 L940 459 L1020 475" stroke="#8B949E" stroke-width="2" fill="none" opacity="0.8"/>
</svg>