<svg xmlns="http://www.w3.org/2000/svg" viewBox="0 0 1200 630" fill="none">
  <rect width="1200" height="630" fill="transparent"/>
  <rect x="30" y="30" width="1140" height="570" rx="20" fill="rgba(128,128,128,0.06)" stroke="rgba(128,128,128,0.15)" stroke-width="1"/>
  <defs>
    <linearGradient id="lineGrad" x1="0%" y1="0%" x2="100%" y2="0%">
      <stop offset="0%" stop-color="#06B6D4"/>
      <stop offset="100%" stop-color="#F97316"/>
    </linearGradient>
    <linearGradient id="areaGrad" x1="0%" y1="0%" x2="0%" y2="100%">
      <stop offset="0%" stop-color="#06B6D4" stop-opacity="0.3"/>
      <stop offset="100%" stop-color="#06B6D4" stop-opacity="0"/>
    </linearGradient>
    <linearGradient id="barGrad" x1="0%" y1="0%" x2="0%" y2="100%">
      <stop offset="0%" stop-color="#06B6D4"/>
      <stop offset="100%" stop-color="#F97316"/>
    </linearGradient>
  </defs>
  
  <circle cx="1020" cy="94.5" r="66.46872103214264" fill="#06B6D4" opacity="0.03"/>
  <circle cx="180" cy="504" r="67.98905960517004" fill="#F97316" opacity="0.04"/>
  <circle cx="200" cy="341" r="4.6" fill="#06B6D4" opacity="0.37"/>
  <circle cx="553" cy="364" r="8.9" fill="#06B6D4" opacity="0.30"/>
  <circle cx="914" cy="278" r="4.8" fill="#06B6D4" opacity="0.75"/>
  <circle cx="623" cy="297" r="4.6" fill="#06B6D4" opacity="0.72"/>
  <circle cx="184" cy="398" r="5.7" fill="#F97316" opacity="0.35"/>
  <circle cx="830" cy="444" r="7.4" fill="#F97316" opacity="0.74"/>
  <circle cx="502" cy="228" r="6.4" fill="#F97316" opacity="0.67"/>
  <circle cx="957" cy="181" r="4.9" fill="#06B6D4" opacity="0.55"/>
  <circle cx="943" cy="365" r="6.8" fill="#F97316" opacity="0.59"/>
  <circle cx="955" cy="306" r="5.4" fill="#F97316" opacity="0.47"/>
  <circle cx="745" cy="437" r="4.3" fill="#F97316" opacity="0.40"/>
  <circle cx="496" cy="359" r="9.0" fill="#06B6D4" opacity="0.76"/>
  <circle cx="902" cy="247" r="8.5" fill="#06B6D4" opacity="0.56"/>
  <circle cx="301" cy="158" r="3.6" fill="#06B6D4" opacity="0.52"/>
  <circle cx="819" cy="502" r="5.8" fill="#06B6D4" opacity="0.65"/>
  <circle cx="474" cy="403" r="8.9" fill="#06B6D4" opacity="0.60"/>
  <circle cx="907" cy="192" r="8.3" fill="#F97316" opacity="0.60"/>
  <circle cx="517" cy="101" r="6.1" fill="#06B6D4" opacity="0.54"/>
  <circle cx="1017" cy="293" r="7.4" fill="#06B6D4" opacity="0.64"/>
  <circle cx="665" cy="416" r="3.7" fill="#F97316" opacity="0.63"/>
  <circle cx="256" cy="262" r="10.1" fill="#F97316" opacity="0.54"/>
  <circle cx="803" cy="105" r="8.4" fill="#06B6D4" opacity="0.35"/>
  <circle cx="429" cy="220" r="4.3" fill="#F97316" opacity="0.45"/>
  <circle cx="631" cy="138" r="10.6" fill="#06B6D4" opacity="0.71"/>
  <circle cx="442" cy="371" r="8.0" fill="#06B6D4" opacity="0.52"/>
  <circle cx="167" cy="224" r="10.9" fill="#06B6D4" opacity="0.77"/>
  <circle cx="395" cy="520" r="10.4" fill="#06B6D4" opacity="0.75"/>
  <circle cx="366" cy="390" r="3.8" fill="#06B6D4" opacity="0.58"/>
  <circle cx="228" cy="445" r="10.0" fill="#06B6D4" opacity="0.31"/>
  <circle cx="783" cy="350" r="6.5" fill="#06B6D4" opacity="0.62"/>
  <circle cx="977" cy="287" r="9.8" fill="#06B6D4" opacity="0.76"/>
  <circle cx="285" cy="308" r="5.6" fill="#06B6D4" opacity="0.73"/>
  <circle cx="224" cy="498" r="7.1" fill="#F97316" opacity="0.59"/>
  <circle cx="656" cy="110" r="3.7" fill="#F97316" opacity="0.74"/>
  <circle cx="796" cy="420" r="9.5" fill="#06B6D4" opacity="0.53"/>
  <circle cx="758" cy="288" r="5.0" fill="#06B6D4" opacity="0.60"/>
  <circle cx="1021" cy="454" r="3.2" fill="#F97316" opacity="0.68"/>
  <circle cx="943" cy="513" r="5.0" fill="#06B6D4" opacity="0.67"/>
  <circle cx="263" cy="490" r="8.5" fill="#06B6D4" opacity="0.61"/>
  <circle cx="694" cy="101" r="3.7" fill="#F97316" opacity="0.63"/>
  <line x1="160" y1="450" x2="1040" y2="150" stroke="#06B6D4" stroke-width="2" stroke-dasharray="6 4" opacity="0.5"/>
</svg>