<svg xmlns="http://www.w3.org/2000/svg" viewBox="0 0 800 450" fill="none">
  <rect width="800" height="450" fill="transparent"/>
  <rect x="30" y="30" width="740" height="390" rx="20" fill="rgba(128,128,128,0.06)" stroke="rgba(128,128,128,0.15)" stroke-width="1"/>
  <defs>
    <linearGradient id="lineGrad" x1="0%" y1="0%" x2="100%" y2="0%">
      <stop offset="0%" stop-color="#14B8A6"/>
      <stop offset="100%" stop-color="#E11D48"/>
    </linearGradient>
    <linearGradient id="areaGrad" x1="0%" y1="0%" x2="0%" y2="100%">
      <stop offset="0%" stop-color="#14B8A6" stop-opacity="0.3"/>
      <stop offset="100%" stop-color="#14B8A6" stop-opacity="0"/>
    </linearGradient>
    <linearGradient id="barGrad" x1="0%" y1="0%" x2="0%" y2="100%">
      <stop offset="0%" stop-color="#14B8A6"/>
      <stop offset="100%" stop-color="#E11D48"/>
    </linearGradient>
  </defs>
  
  <circle cx="680" cy="67.5" r="89.85144264996052" fill="#14B8A6" opacity="0.03"/>
  <circle cx="120" cy="360" r="41.51473333360627" fill="#E11D48" opacity="0.04"/>
  <circle cx="755" cy="489" r="10.7" fill="#E11D48" opacity="0.77"/>
  <circle cx="540" cy="146" r="3.9" fill="#14B8A6" opacity="0.50"/>
  <circle cx="629" cy="387" r="10.4" fill="#E11D48" opacity="0.66"/>
  <circle cx="314" cy="281" r="4.2" fill="#E11D48" opacity="0.56"/>
  <circle cx="300" cy="433" r="7.0" fill="#14B8A6" opacity="0.69"/>
  <circle cx="568" cy="172" r="8.5" fill="#E11D48" opacity="0.73"/>
  <circle cx="728" cy="441" r="8.1" fill="#14B8A6" opacity="0.51"/>
  <circle cx="528" cy="245" r="8.5" fill="#14B8A6" opacity="0.70"/>
  <circle cx="865" cy="369" r="5.1" fill="#E11D48" opacity="0.37"/>
  <circle cx="768" cy="444" r="7.3" fill="#14B8A6" opacity="0.62"/>
  <circle cx="444" cy="412" r="6.7" fill="#14B8A6" opacity="0.67"/>
  <circle cx="712" cy="424" r="8.0" fill="#14B8A6" opacity="0.55"/>
  <circle cx="307" cy="230" r="9.4" fill="#E11D48" opacity="0.58"/>
  <circle cx="870" cy="445" r="3.6" fill="#14B8A6" opacity="0.48"/>
  <circle cx="740" cy="143" r="5.1" fill="#E11D48" opacity="0.67"/>
  <circle cx="258" cy="342" r="6.4" fill="#14B8A6" opacity="0.69"/>
  <circle cx="1013" cy="447" r="5.9" fill="#E11D48" opacity="0.48"/>
  <circle cx="440" cy="339" r="7.9" fill="#14B8A6" opacity="0.41"/>
  <circle cx="344" cy="472" r="6.1" fill="#E11D48" opacity="0.33"/>
  <circle cx="995" cy="458" r="8.6" fill="#14B8A6" opacity="0.48"/>
  <circle cx="1020" cy="216" r="5.5" fill="#14B8A6" opacity="0.70"/>
  <circle cx="921" cy="501" r="5.7" fill="#14B8A6" opacity="0.51"/>
  <circle cx="585" cy="374" r="3.8" fill="#E11D48" opacity="0.50"/>
  <circle cx="584" cy="456" r="4.1" fill="#E11D48" opacity="0.68"/>
  <circle cx="787" cy="302" r="9.5" fill="#E11D48" opacity="0.35"/>
  <circle cx="489" cy="375" r="8.2" fill="#14B8A6" opacity="0.68"/>
  <circle cx="389" cy="115" r="8.7" fill="#E11D48" opacity="0.53"/>
  <circle cx="408" cy="291" r="9.3" fill="#E11D48" opacity="0.37"/>
  <circle cx="896" cy="135" r="3.3" fill="#E11D48" opacity="0.50"/>
  <circle cx="943" cy="330" r="10.8" fill="#E11D48" opacity="0.52"/>
  <circle cx="828" cy="431" r="4.5" fill="#14B8A6" opacity="0.74"/>
  <circle cx="195" cy="202" r="5.3" fill="#14B8A6" opacity="0.31"/>
  <circle cx="472" cy="462" r="3.5" fill="#E11D48" opacity="0.41"/>
  <circle cx="277" cy="222" r="4.3" fill="#14B8A6" opacity="0.45"/>
  <circle cx="974" cy="444" r="3.1" fill="#E11D48" opacity="0.42"/>
  <circle cx="224" cy="143" r="10.9" fill="#14B8A6" opacity="0.40"/>
  <circle cx="202" cy="243" r="10.8" fill="#E11D48" opacity="0.75"/>
  <circle cx="288" cy="239" r="10.2" fill="#E11D48" opacity="0.39"/>
  <circle cx="462" cy="484" r="7.3" fill="#14B8A6" opacity="0.48"/>
  <circle cx="537" cy="487" r="9.3" fill="#E11D48" opacity="0.63"/>
  <line x1="160" y1="450" x2="1040" y2="150" stroke="#14B8A6" stroke-width="2" stroke-dasharray="6 4" opacity="0.5"/>
</svg>