<svg xmlns="http://www.w3.org/2000/svg" viewBox="0 0 1200 630" fill="none">
  <rect width="1200" height="630" fill="transparent"/>
  <rect x="30" y="30" width="1140" height="570" rx="20" fill="rgba(128,128,128,0.06)" stroke="rgba(128,128,128,0.15)" stroke-width="1"/>
  <defs>
    <linearGradient id="lineGrad" x1="0%" y1="0%" x2="100%" y2="0%">
      <stop offset="0%" stop-color="#00F0FF"/>
      <stop offset="100%" stop-color="#A91079"/>
    </linearGradient>
    <linearGradient id="areaGrad" x1="0%" y1="0%" x2="0%" y2="100%">
      <stop offset="0%" stop-color="#00F0FF" stop-opacity="0.3"/>
      <stop offset="100%" stop-color="#00F0FF" stop-opacity="0"/>
    </linearGradient>
    <linearGradient id="barGrad" x1="0%" y1="0%" x2="0%" y2="100%">
      <stop offset="0%" stop-color="#00F0FF"/>
      <stop offset="100%" stop-color="#A91079"/>
    </linearGradient>
  </defs>
  
  <circle cx="1020" cy="94.5" r="78.72732240706682" fill="#00F0FF" opacity="0.03"/>
  <circle cx="180" cy="504" r="59.32925636181608" fill="#A91079" opacity="0.04"/>
  <rect x="160" y="242.34073968604207" width="60" height="277.65926031395793" rx="4" fill="url(#barGrad)" opacity="0.67"/>
  <rect x="250" y="225.4031294118613" width="60" height="294.5968705881387" rx="4" fill="url(#barGrad)" opacity="0.64"/>
  <rect x="340" y="387.485557757318" width="60" height="132.51444224268198" rx="4" fill="url(#barGrad)" opacity="0.70"/>
  <rect x="430" y="183.70877002365887" width="60" height="336.2912299763411" rx="4" fill="url(#barGrad)" opacity="0.91"/>
  <rect x="520" y="300.45955708250403" width="60" height="219.54044291749597" rx="4" fill="url(#barGrad)" opacity="0.90"/>
  <rect x="610" y="173.49168463610113" width="60" height="346.5083153638989" rx="4" fill="url(#barGrad)" opacity="0.77"/>
  <rect x="700" y="160.06887570023537" width="60" height="359.93112429976463" rx="4" fill="url(#barGrad)" opacity="0.90"/>
  <rect x="790" y="142.65228771604598" width="60" height="377.347712283954" rx="4" fill="url(#barGrad)" opacity="0.70"/>
</svg>