<svg xmlns="http://www.w3.org/2000/svg" viewBox="0 0 1200 630" fill="none">
  <rect width="1200" height="630" fill="#0d1117"/>
  <rect x="30" y="30" width="1140" height="570" rx="20" fill="#161b22" stroke="#30363d" stroke-width="1"/>
  <defs>
    <linearGradient id="lineGrad" x1="0%" y1="0%" x2="100%" y2="0%">
      <stop offset="0%" stop-color="#00F0FF"/>
      <stop offset="100%" stop-color="#A91079"/>
    </linearGradient>
    <linearGradient id="areaGrad" x1="0%" y1="0%" x2="0%" y2="100%">
      <stop offset="0%" stop-color="#00F0FF" stop-opacity="0.3"/>
      <stop offset="100%" stop-color="#00F0FF" stop-opacity="0"/>
    </linearGradient>
    <linearGradient id="barGrad" x1="0%" y1="0%" x2="0%" y2="100%">
      <stop offset="0%" stop-color="#00F0FF"/>
      <stop offset="100%" stop-color="#A91079"/>
    </linearGradient>
  </defs>
  
  <circle cx="1020" cy="94.5" r="91.13331897184253" fill="#00F0FF" opacity="0.03"/>
  <circle cx="180" cy="504" r="67.90324382251129" fill="#A91079" opacity="0.04"/>
  <rect x="160" y="381.42683832906187" width="60" height="138.57316167093813" rx="4" fill="url(#barGrad)" opacity="0.82"/>
  <rect x="250" y="143.3652514219284" width="60" height="376.6347485780716" rx="4" fill="url(#barGrad)" opacity="0.77"/>
  <rect x="340" y="360.1214069966227" width="60" height="159.87859300337732" rx="4" fill="url(#barGrad)" opacity="0.98"/>
  <rect x="430" y="144.28916150704026" width="60" height="375.71083849295974" rx="4" fill="url(#barGrad)" opacity="0.67"/>
  <rect x="520" y="339.4249578099698" width="60" height="180.57504219003022" rx="4" fill="url(#barGrad)" opacity="0.79"/>
  <rect x="610" y="240.0973017886281" width="60" height="279.9026982113719" rx="4" fill="url(#barGrad)" opacity="0.88"/>
  <rect x="700" y="385.5217492301017" width="60" height="134.4782507698983" rx="4" fill="url(#barGrad)" opacity="0.71"/>
  <rect x="790" y="375.08462561294436" width="60" height="144.91537438705564" rx="4" fill="url(#barGrad)" opacity="0.91"/>
</svg>