<svg xmlns="http://www.w3.org/2000/svg" viewBox="0 0 1200 630" fill="none">
  <rect width="1200" height="630" fill="#0d1117"/>
  <rect x="30" y="30" width="1140" height="570" rx="20" fill="#161b22" stroke="#30363d" stroke-width="1"/>
  <defs>
    <linearGradient id="lineGrad" x1="0%" y1="0%" x2="100%" y2="0%">
      <stop offset="0%" stop-color="#8B5CF6"/>
      <stop offset="100%" stop-color="#EC4899"/>
    </linearGradient>
    <linearGradient id="areaGrad" x1="0%" y1="0%" x2="0%" y2="100%">
      <stop offset="0%" stop-color="#8B5CF6" stop-opacity="0.3"/>
      <stop offset="100%" stop-color="#8B5CF6" stop-opacity="0"/>
    </linearGradient>
    <linearGradient id="barGrad" x1="0%" y1="0%" x2="0%" y2="100%">
      <stop offset="0%" stop-color="#8B5CF6"/>
      <stop offset="100%" stop-color="#EC4899"/>
    </linearGradient>
  </defs>
  
  <circle cx="1020" cy="94.5" r="66.42050411552191" fill="#8B5CF6" opacity="0.03"/>
  <circle cx="180" cy="504" r="54.29170601302758" fill="#EC4899" opacity="0.04"/>
  <circle cx="689" cy="516" r="4.2" fill="#8B5CF6" opacity="0.63"/>
  <circle cx="690" cy="249" r="9.6" fill="#8B5CF6" opacity="0.39"/>
  <circle cx="667" cy="495" r="8.8" fill="#8B5CF6" opacity="0.79"/>
  <circle cx="163" cy="102" r="7.2" fill="#8B5CF6" opacity="0.51"/>
  <circle cx="450" cy="218" r="7.8" fill="#8B5CF6" opacity="0.44"/>
  <circle cx="1028" cy="397" r="5.8" fill="#8B5CF6" opacity="0.76"/>
  <circle cx="174" cy="306" r="4.5" fill="#8B5CF6" opacity="0.76"/>
  <circle cx="489" cy="101" r="3.2" fill="#8B5CF6" opacity="0.33"/>
  <circle cx="459" cy="283" r="10.7" fill="#8B5CF6" opacity="0.35"/>
  <circle cx="219" cy="432" r="4.4" fill="#EC4899" opacity="0.72"/>
  <circle cx="163" cy="138" r="8.8" fill="#EC4899" opacity="0.56"/>
  <circle cx="386" cy="382" r="5.9" fill="#8B5CF6" opacity="0.42"/>
  <circle cx="648" cy="135" r="7.4" fill="#8B5CF6" opacity="0.38"/>
  <circle cx="216" cy="478" r="10.0" fill="#EC4899" opacity="0.77"/>
  <circle cx="937" cy="212" r="6.8" fill="#8B5CF6" opacity="0.51"/>
  <circle cx="373" cy="146" r="7.0" fill="#EC4899" opacity="0.80"/>
  <circle cx="312" cy="155" r="7.8" fill="#EC4899" opacity="0.59"/>
  <circle cx="329" cy="513" r="3.4" fill="#8B5CF6" opacity="0.58"/>
  <circle cx="184" cy="318" r="9.3" fill="#EC4899" opacity="0.76"/>
  <circle cx="295" cy="115" r="3.9" fill="#EC4899" opacity="0.75"/>
  <circle cx="909" cy="432" r="5.9" fill="#8B5CF6" opacity="0.53"/>
  <circle cx="370" cy="200" r="3.4" fill="#8B5CF6" opacity="0.54"/>
  <circle cx="432" cy="402" r="9.7" fill="#EC4899" opacity="0.75"/>
  <circle cx="563" cy="123" r="7.0" fill="#8B5CF6" opacity="0.36"/>
  <circle cx="288" cy="238" r="3.4" fill="#EC4899" opacity="0.38"/>
  <circle cx="247" cy="487" r="9.9" fill="#EC4899" opacity="0.51"/>
  <circle cx="573" cy="459" r="4.2" fill="#EC4899" opacity="0.64"/>
  <circle cx="514" cy="503" r="9.2" fill="#EC4899" opacity="0.68"/>
  <circle cx="450" cy="246" r="4.4" fill="#EC4899" opacity="0.66"/>
  <circle cx="500" cy="270" r="6.8" fill="#8B5CF6" opacity="0.50"/>
  <circle cx="757" cy="333" r="3.7" fill="#8B5CF6" opacity="0.42"/>
  <circle cx="686" cy="208" r="4.0" fill="#EC4899" opacity="0.56"/>
  <circle cx="1036" cy="387" r="7.5" fill="#8B5CF6" opacity="0.69"/>
  <circle cx="521" cy="385" r="11.0" fill="#EC4899" opacity="0.60"/>
  <circle cx="845" cy="159" r="5.2" fill="#EC4899" opacity="0.54"/>
  <circle cx="1031" cy="209" r="5.1" fill="#8B5CF6" opacity="0.79"/>
  <circle cx="224" cy="212" r="3.5" fill="#EC4899" opacity="0.32"/>
  <circle cx="273" cy="478" r="6.7" fill="#8B5CF6" opacity="0.41"/>
  <circle cx="1028" cy="146" r="7.0" fill="#8B5CF6" opacity="0.74"/>
  <circle cx="535" cy="283" r="6.1" fill="#8B5CF6" opacity="0.73"/>
  <line x1="160" y1="450" x2="1040" y2="150" stroke="#8B5CF6" stroke-width="2" stroke-dasharray="6 4" opacity="0.5"/>
</svg>